G04 ================== begin FILE IDENTIFICATION RECORD ==================*
G04 Layout Name:  LAY-27291_B.brd*
G04 Film Name:    L1_PS.art*
G04 File Format:  Gerber RS274X*
G04 File Origin:  Cadence Allegro 16.3-S019*
G04 Origin Date:  Wed Feb 01 13:28:49 2012*
G04 *
G04 Layer:  VIA CLASS/TOP*
G04 Layer:  PIN/TOP*
G04 Layer:  ETCH/TOP*
G04 Layer:  DRAWING FORMAT/FILM_TITLE_BLOCK*
G04 Layer:  BOARD GEOMETRY/OUTLINE*
G04 *
G04 Offset:    (0.00 0.00)*
G04 Mirror:    No*
G04 Mode:      Positive*
G04 Rotation:  0*
G04 FullContactRelief:  No*
G04 UndefLineWidth:     8.00*
G04 ================== end FILE IDENTIFICATION RECORD ====================*
%FSLAX55Y55*MOIN*%
%IR0*IPPOS*OFA0.00000B0.00000*MIA0B0*SFA1.00000B1.00000*%
%ADD31R,.05X.125*%
%ADD45R,.125X.05*%
%ADD28R,.11X.029*%
%ADD12C,.01*%
%ADD43R,.029X.115*%
%ADD30R,.115X.029*%
%ADD23C,.06*%
%ADD22R,.028X.126*%
%ADD36C,.016*%
%ADD18C,.025*%
%ADD11R,.028X.155*%
%ADD10C,.018*%
%ADD48C,.065*%
%ADD27R,.06X.06*%
%ADD20R,.035X.035*%
%ADD16R,.063X.063*%
%ADD49R,.065X.065*%
%ADD47O,.01X.08*%
%ADD42R,.012X.05*%
%ADD40R,.012X.032*%
%ADD39R,.032X.012*%
%ADD38R,.05X.012*%
%ADD29O,.06X.035*%
%ADD21R,.033X.031*%
%ADD35O,.035X.06*%
%ADD19O,.045X.035*%
%ADD17R,.055X.04*%
%ADD41R,.048X.03*%
%ADD33R,.018X.06*%
%ADD32O,.035X.045*%
%ADD34R,.08X.025*%
%ADD37R,.032X.039*%
%ADD13R,.063X.043*%
%ADD46R,.039X.032*%
%ADD14R,.055X.016*%
%ADD15R,.05X.085*%
%ADD26R,.059X.051*%
%ADD24R,.051X.059*%
%ADD25R,.055X.048*%
%ADD50C,.02*%
%ADD51C,.015*%
%ADD52C,.0115*%
%ADD53C,.004*%
%ADD54C,.008*%
%ADD55C,.006*%
%ADD56C,.009*%
%ADD57C,.0079*%
%ADD63C,.07004*%
%ADD62C,.07404*%
%ADD66R,.06008X.13506*%
%ADD64R,.12008X.03908*%
%ADD60C,.02808*%
%ADD65R,.06408X.13906*%
%ADD58C,.1001*%
%ADD61R,.04306X.04108*%
%ADD67R,.09008X.03508*%
%ADD59R,.04906X.04908*%
G75*
%LPD*%
G75*
G36*
G01X7281Y147351D02*
X7109Y147253D01*
X7041Y147263D01*
G03X6895I-73J-499D01*
G01X6827Y147253D01*
X6655Y147351D01*
X6628Y147394D01*
G03X3490Y147642I-1660J-1030D01*
G01X1872D01*
Y148886D01*
X10538D01*
X13090Y146334D01*
Y116444D01*
X13048Y116352D01*
X2964Y106269D01*
Y91519D01*
X690Y89244D01*
Y86214D01*
X-20100D01*
Y193814D01*
X47364D01*
Y188858D01*
X56769Y179454D01*
Y173328D01*
X51224D01*
X39690Y161794D01*
Y117296D01*
X39674Y117258D01*
G03X42262I1294J-544D01*
G01X42246Y117296D01*
Y160734D01*
X52284Y170772D01*
X56769D01*
Y168754D01*
X54548D01*
X45564Y159770D01*
Y116814D01*
G03X48777Y116024I1704J0D01*
G02X49481Y116033I354J-186D01*
G03X52672Y116864I1487J831D01*
G01Y155358D01*
X56086Y158773D01*
G02X56769Y158490I283J-283D01*
G01Y125614D01*
X57964D01*
Y116864D01*
G03X61372I1704J0D01*
G01Y125614D01*
X61964D01*
Y123510D01*
X62716Y122759D01*
Y116403D01*
X62830Y116289D01*
X62845Y116246D01*
G03X65272Y117582I1324J468D01*
G01Y123819D01*
X64522Y124570D01*
Y125614D01*
X145569D01*
Y79814D01*
X139450D01*
G02X139179Y80508I0J400D01*
G03X134159I-2510J2721D01*
G02X133888Y79814I-271J-294D01*
G01X120012D01*
G03X117527Y79820I-1244J-650D01*
G01X117471Y79714D01*
X111769D01*
Y85914D01*
X82170D01*
Y91066D01*
X74766D01*
Y85914D01*
X58469D01*
Y86214D01*
X46693D01*
G02X46410Y86897I0J400D01*
G01X50847Y91334D01*
X50960Y91302D01*
G03X48406Y93856I1008J3562D01*
G01X48438Y93743D01*
X40909Y86214D01*
X3246D01*
Y88184D01*
X5522Y90459D01*
Y105209D01*
X14861Y114549D01*
X14898Y114564D01*
G03X15662Y116409I-530J1300D01*
G01X15646Y116446D01*
Y147394D01*
X11598Y151442D01*
X2000D01*
Y153086D01*
X3490D01*
G03X6653Y153375I1478J1278D01*
G01X6686Y153431D01*
X6809Y153485D01*
G03X7127I159J479D01*
G01X7250Y153431D01*
X7283Y153375D01*
G03X9925Y152660I1685J989D01*
G01X11862D01*
X16664Y147858D01*
Y115864D01*
G03X20072I1704J0D01*
G01Y149270D01*
X13274Y156068D01*
X9925D01*
G03X7308Y155394I-956J-1704D01*
G01X7281Y155351D01*
X7109Y155253D01*
X7041Y155263D01*
G03X6895I-73J-499D01*
G01X6827Y155253D01*
X6655Y155351D01*
X6628Y155394D01*
G03X3490Y155642I-1660J-1030D01*
G01X2000D01*
Y156860D01*
X14362D01*
X20764Y150458D01*
Y116064D01*
G03X24172I1704J0D01*
G01Y151870D01*
X15774Y160268D01*
X10600D01*
G02X10323Y160956I0J400D01*
G03X10446Y161086I-1356J1407D01*
G01X16438D01*
X25790Y151734D01*
Y116846D01*
X25774Y116808D01*
G03X28362I1294J-544D01*
G01X28346Y116846D01*
Y152794D01*
X17498Y163642D01*
X10446D01*
G03X7308Y163394I-1478J-1278D01*
G01X7281Y163351D01*
X7109Y163253D01*
X7041Y163263D01*
G03X6895I-73J-499D01*
G01X6827Y163253D01*
X6655Y163351D01*
X6628Y163394D01*
G03X3583Y163742I-1660J-1030D01*
G01X1872D01*
Y164718D01*
X-2834D01*
Y160268D01*
X-4230D01*
Y164718D01*
X-4880D01*
Y168310D01*
X-4230D01*
Y172818D01*
X-8936D01*
Y168310D01*
X-8286D01*
Y164718D01*
X-8936D01*
Y160210D01*
X-8286D01*
Y159009D01*
X-6572Y157294D01*
G02X-6860Y156617I-288J-277D01*
G01X-8936D01*
Y152110D01*
X-7821D01*
X-7801Y151025D01*
X-5662Y148886D01*
X-2834D01*
Y144110D01*
X1872D01*
Y145086D01*
X3490D01*
G03X6653Y145375I1478J1278D01*
G01X6726Y145498D01*
X6865Y145470D01*
G03X6910Y145463I100J495D01*
G02X7264Y145065I-46J-397D01*
G01Y115564D01*
G03X10672I1704J0D01*
G01Y145407D01*
G03X7308Y147394I-1704J957D01*
G01X7281Y147351D01*
G37*
G36*
G01X134666Y-17029D02*
X130070Y-12432D01*
X66025D01*
X55469Y-1877D01*
Y2632D01*
X65019D01*
X66016Y1636D01*
Y-2838D01*
X65871Y-2983D01*
X65814Y-2996D01*
G03X67489Y-4671I305J-1370D01*
G01X67502Y-4614D01*
X67869Y-4247D01*
X68236Y-4614D01*
X68249Y-4671D01*
G03X69924Y-2996I1370J305D01*
G01X69867Y-2983D01*
X69722Y-2838D01*
Y3172D01*
X66555Y6340D01*
X56960D01*
X55472Y7826D01*
Y7859D01*
X55469Y7862D01*
Y12210D01*
X59190D01*
Y10769D01*
X59174Y10731D01*
G03X61762I1294J-544D01*
G01X61746Y10769D01*
Y12210D01*
X66672D01*
Y16518D01*
X55469D01*
Y17210D01*
X66672D01*
Y21518D01*
X55469D01*
Y22210D01*
X66672D01*
Y23086D01*
X67386D01*
X67424Y23070D01*
G03Y25658I544J1294D01*
G01X67386Y25642D01*
X66672D01*
Y26518D01*
X55469D01*
Y27210D01*
X66672D01*
Y28086D01*
X67386D01*
X67424Y28070D01*
G03Y30658I544J1294D01*
G01X67386Y30642D01*
X66672D01*
Y31518D01*
X55469D01*
Y32210D01*
X66672D01*
Y33086D01*
X67386D01*
X67424Y33070D01*
G03Y35658I544J1294D01*
G01X67386Y35642D01*
X66672D01*
Y36518D01*
X55469D01*
Y37210D01*
X66672D01*
Y41518D01*
X55469D01*
Y42210D01*
X66672D01*
Y46518D01*
X55469D01*
Y47210D01*
X66672D01*
Y51518D01*
X55469D01*
Y52210D01*
X66672D01*
Y56518D01*
X55469D01*
Y57210D01*
X66672D01*
Y61518D01*
X61746D01*
Y62282D01*
X61762Y62320D01*
G03X60083Y64214I-1294J544D01*
G02X59622Y64406I-110J385D01*
G03X59311Y64612I-351J-192D01*
G01X55569D01*
Y79514D01*
X90069D01*
Y74514D01*
X145300D01*
Y67700D01*
X162869D01*
Y66000D01*
G03Y60728I2599J-2636D01*
G01Y30776D01*
X162669D01*
G03X162558Y30742I1J-200D01*
G02X162499Y30704I-1087J1624D01*
G03Y30024I210J-340D01*
G02X162558Y29986I-1028J-1662D01*
G03X162669Y29952I112J166D01*
G01X162869D01*
Y11432D01*
X162756Y11377D01*
G03Y8851I613J-1263D01*
G01X162869Y8796D01*
Y7414D01*
X173269D01*
Y-11932D01*
X139762D01*
X134666Y-17029D01*
G37*
%LPC*%
G75*
G36*
G01X7283Y169375D02*
X7250Y169431D01*
X7127Y169485D01*
G02X6809I-159J479D01*
G01X6686Y169431D01*
X6653Y169375D01*
G02X3339Y169286I-1685J989D01*
G01X1872D01*
Y168310D01*
X-2834D01*
Y172818D01*
X1872D01*
Y171842D01*
X3690D01*
G02X6653Y171353I1278J-1478D01*
G01X6686Y171297D01*
X6809Y171243D01*
G02X7127I159J-479D01*
G01X7250Y171297D01*
X7283Y171353D01*
G02X10446Y171642I1685J-989D01*
G01X15798D01*
X32046Y155394D01*
Y116846D01*
X32062Y116808D01*
G02X29474I-1294J-544D01*
G01X29490Y116846D01*
Y154334D01*
X14738Y169086D01*
X10446D01*
G02X7283Y169375I-1478J1278D01*
G37*
G36*
G01X-6678Y106900D02*
X-14386D01*
Y114852D01*
G02X-15136Y116264I954J1412D01*
G01Y118126D01*
G02X-16014Y118966I1204J2138D01*
G03X-16754Y118755I-340J-211D01*
G01Y117294D01*
X-16639Y117179D01*
X-16602Y117164D01*
G02X-18432Y115334I-530J-1300D01*
G01X-18447Y115371D01*
X-19310Y116234D01*
Y125294D01*
X-17062Y127542D01*
X-16026D01*
G02X-13932Y128718I2095J-1278D01*
G01X-12932D01*
G02X-11428Y124326I0J-2454D01*
G01Y122202D01*
G02X-11728Y118126I-1504J-1938D01*
G01Y116264D01*
G02X-12066Y115246I-1704J1D01*
G03X-11745Y114608I321J-238D01*
G01X-6678D01*
Y111201D01*
X-5235Y109758D01*
X-613D01*
X-575Y109773D01*
G02Y107185I544J-1294D01*
G01X-613Y107200D01*
X-6295D01*
X-6337Y107243D01*
G03X-6679Y107102I-142J-141D01*
G01X-6678Y106900D01*
G37*
G36*
G01X91290Y97360D02*
X88906D01*
G02X84514Y98864I-1938J1504D01*
G01Y99864D01*
G02X85264Y101630I2454J0D01*
G01Y103364D01*
G02X88672I1704J0D01*
G01Y101630D01*
G02X88906Y101368I-1708J-1761D01*
G01X91290D01*
G02X95222Y99864I1678J-1504D01*
G01Y98864D01*
G02X91290Y97360I-2254J0D01*
G37*
G36*
G01X24752Y98068D02*
X39762D01*
X49438Y107743D01*
X49406Y107856D01*
G02X51960Y105302I3562J1008D01*
G01X51847Y105334D01*
X41174Y94660D01*
X24752D01*
Y93660D01*
X17844D01*
Y99060D01*
X16092D01*
Y97400D01*
X9572D01*
Y95328D01*
X16092D01*
Y89920D01*
X9184D01*
Y90920D01*
X8663D01*
X6166Y93418D01*
Y104720D01*
X9913Y108468D01*
X19763D01*
X21863Y110568D01*
X29266D01*
Y112566D01*
X36670D01*
Y105162D01*
X29266D01*
Y107160D01*
X23275D01*
X21175Y105060D01*
X11325D01*
X9572Y103308D01*
Y102808D01*
X16092D01*
Y102468D01*
X31390D01*
X31425Y102480D01*
G02X33232Y99682I602J-1593D01*
G01X32610Y99060D01*
X24752D01*
Y98068D01*
G37*
G36*
G01X140370Y96930D02*
Y89528D01*
X132968D01*
Y96930D01*
X135072D01*
Y99299D01*
X134471D01*
Y105684D01*
X133042D01*
G02Y109090I0J1703D01*
G01X134471D01*
Y110041D01*
X135072D01*
Y112204D01*
G02X134838Y112466I1708J1761D01*
G01X132454D01*
G02X128522Y113970I-1678J1504D01*
G01Y114970D01*
G02X132454Y116474I2254J0D01*
G01X134838D01*
G02X139230Y114970I1938J-1504D01*
G01Y113970D01*
G02X138480Y112204I-2454J0D01*
G01Y110041D01*
X139079D01*
Y109090D01*
X140445D01*
G02Y105684I0J-1703D01*
G01X139079D01*
Y99299D01*
X138478D01*
Y96930D01*
X140370D01*
G37*
G36*
G01X85726Y89599D02*
G03X85535Y89445I1443J-1985D01*
G02X84871Y89704I-266J299D01*
G01Y90111D01*
G02X84984Y90352I398J-40D01*
G03X85017Y90876I-285J281D01*
G02X84830Y91160I1951J1488D01*
G01X83468D01*
G02Y94568I0J1704D01*
G01X84830D01*
G02X88906Y94868I2138J-1204D01*
G01X91290D01*
G02X95222Y93364I1678J-1504D01*
G01Y92364D01*
G02X91290Y90860I-2254J0D01*
G01X88906D01*
G02X86331Y89995I-1938J1504D01*
G03X85859Y89766I-104J-386D01*
G02X85726Y89599I-368J157D01*
G37*
G36*
G01X64750Y87446D02*
G02X63496Y91572I0J2254D01*
G01Y95191D01*
G02X64146Y99678I1254J2109D01*
G01X64296Y99716D01*
Y104061D01*
G02X67704Y104094I1672J3303D01*
G01Y99716D01*
X67854Y99678D01*
G02X68504Y95191I-604J-2378D01*
G01Y91572D01*
G02X67250Y87446I-1254J-1872D01*
G01X64750D01*
G37*
G36*
G01X-6678Y93120D02*
X-14386D01*
Y100828D01*
X-6678D01*
Y98252D01*
X-4801D01*
G02X-1647Y97953I1469J-1288D01*
G03X-1434Y97858I173J101D01*
G02X-1093Y97808I102J-494D01*
G03X-828Y97880I94J176D01*
G02X-81Y98550I1496J-916D01*
G03X-48Y99256I-170J362D01*
G02X1384I716J1208D01*
G03X1417Y98550I203J-344D01*
G02X-828Y96048I-749J-1586D01*
G03X-1093Y96120I-171J-104D01*
G02X-1434Y96070I-239J444D01*
G03X-1647Y95975I-40J-196D01*
G02X-4818Y95696I-1685J989D01*
G01X-6678D01*
Y93120D01*
G37*
G36*
G01X115172Y55318D02*
Y51410D01*
X105764D01*
Y52086D01*
X104550D01*
X104512Y52070D01*
G02Y54658I-544J1294D01*
G01X104550Y54642D01*
X105764D01*
Y55318D01*
X115172D01*
G37*
G36*
G01X137172Y50318D02*
Y46410D01*
X127764D01*
Y46660D01*
X125968D01*
G02Y50068I0J1704D01*
G01X127764D01*
Y50318D01*
X137172D01*
G37*
G36*
G01X115172D02*
Y46410D01*
X105764D01*
Y47086D01*
X104550D01*
X104512Y47070D01*
G02Y49658I-544J1294D01*
G01X104550Y49642D01*
X105764D01*
Y50318D01*
X115172D01*
G37*
G36*
G01Y45318D02*
Y41410D01*
X105764D01*
Y42086D01*
X100251D01*
X100213Y42070D01*
G02Y44658I-544J1294D01*
G01X100251Y44642D01*
X105764D01*
Y45318D01*
X115172D01*
G37*
G36*
G01X143872Y48848D02*
Y46421D01*
X145735Y44557D01*
X145807Y44550D01*
G02X142366Y42884I-339J-3686D01*
G01X142454Y43020D01*
X140464Y45009D01*
Y48848D01*
G02X139714Y50614I1704J1766D01*
G01Y51660D01*
X137172D01*
Y51410D01*
X127764D01*
Y55318D01*
X137172D01*
Y55068D01*
X140684D01*
G02X144277Y54368I1484J-1954D01*
G01X147896D01*
G02X152022Y53114I1872J-1254D01*
G01Y50614D01*
G02X147896Y49360I-2254J0D01*
G01X144277D01*
G02X143872Y48848I-2110J1253D01*
G37*
G36*
G01X97170Y44066D02*
Y36662D01*
X89766D01*
Y37660D01*
X82672D01*
Y37210D01*
X70264D01*
Y41518D01*
X82672D01*
Y41068D01*
X89766D01*
Y41656D01*
X88762Y42660D01*
X82672D01*
Y42210D01*
X70264D01*
Y46518D01*
X82672D01*
Y46068D01*
X90174D01*
X92176Y44066D01*
X97170D01*
G37*
G36*
G01X137172Y36660D02*
Y36410D01*
X127764D01*
Y40318D01*
X137172D01*
Y40068D01*
X138468D01*
G02Y36660I0J-1704D01*
G01X137172D01*
G37*
G36*
G01X82672Y33086D02*
Y32210D01*
X70264D01*
Y36518D01*
X82672D01*
Y35642D01*
X83886D01*
X83924Y35658D01*
G02Y33070I544J-1294D01*
G01X83886Y33086D01*
X82672D01*
G37*
G36*
G01X117321Y33523D02*
X117336Y33484D01*
X118752Y32068D01*
Y31304D01*
X120678D01*
Y17398D01*
X114270D01*
Y31304D01*
X115417D01*
G03X115558Y31646I0J200D01*
G01X115503Y31701D01*
X115467Y31716D01*
G02X117321Y33523I547J1293D01*
G37*
G36*
G01X73005Y12210D02*
G03X72664Y11601I0J-400D01*
G02X70487Y11868I-1195J-737D01*
G03X70347Y12210I-140J142D01*
G01X70264D01*
Y16518D01*
X82672D01*
Y16068D01*
X83968D01*
G02Y12660I0J-1704D01*
G01X82672D01*
Y12210D01*
X73005D01*
G37*
G36*
G01X96673Y15069D02*
X99178Y12564D01*
Y10304D01*
X100678D01*
Y-3602D01*
X94270D01*
Y10304D01*
X95770D01*
Y11152D01*
X94263Y12659D01*
G02X96673Y15069I1205J1205D01*
G37*
G36*
G01X108752Y-3602D02*
Y-5548D01*
X108768Y-5586D01*
G02X106180I-1294J-544D01*
G01X106196Y-5548D01*
Y-3602D01*
X104270D01*
Y10304D01*
X110678D01*
Y-3602D01*
X108752D01*
G37*
G36*
G01X132626Y-5650D02*
Y-7174D01*
X132642Y-7212D01*
G02X130054I-1294J-544D01*
G01X130070Y-7174D01*
Y-6030D01*
G03X129474Y-5681I-400J0D01*
G02X127494Y-3912I-686J1225D01*
G01X127510Y-3874D01*
Y-2990D01*
X127184D01*
Y4418D01*
X138072D01*
X145752D01*
Y-2990D01*
X145402D01*
Y-3822D01*
X145420Y-3862D01*
G02X143462Y-5681I-1272J-594D01*
G03X142866Y-6030I-196J-349D01*
G01Y-7174D01*
X142882Y-7212D01*
G02X140294I-1294J-544D01*
G01X140310Y-7174D01*
Y-5650D01*
G03X139714Y-5301I-400J0D01*
G02X138342I-686J1225D01*
G03X137746Y-5650I-196J-349D01*
G01Y-7054D01*
X137762Y-7092D01*
G02X135174I-1294J-544D01*
G01X135190Y-7054D01*
Y-5650D01*
G03X134594Y-5301I-400J0D01*
G02X133222I-686J1225D01*
G03X132626Y-5650I-196J-349D01*
G37*
G36*
G01X114530Y35784D02*
G02X112216I-1157J-795D01*
G03X111886Y36410I-330J226D01*
G01X105764D01*
Y37086D01*
X104550D01*
X104512Y37070D01*
G02Y39658I-544J1294D01*
G01X104550Y39642D01*
X105764D01*
Y40318D01*
X115172D01*
Y36410D01*
X114860D01*
G03X114530Y35784I0J-400D01*
G37*
G36*
G01X145752Y20310D02*
X129744D01*
Y20510D01*
X127384D01*
Y27518D01*
X129744D01*
Y27718D01*
X130070D01*
Y28282D01*
X130054Y28320D01*
G02X132034Y30089I1294J544D01*
G03X132630Y30438I196J349D01*
G01Y31574D01*
G03X131950Y31860I-400J0D01*
G02X132247Y33442I-982J1003D01*
G01X132300Y33325D01*
X132630D01*
Y33834D01*
X133153Y34357D01*
X133168Y34394D01*
G02X135186Y32658I1300J-530D01*
G01Y30438D01*
G03X135782Y30089I400J0D01*
G02X137154I686J-1225D01*
G03X137750Y30438I196J349D01*
G01Y30698D01*
X137730Y30739D01*
G02X140319Y30860I1269J601D01*
G01X140306Y30827D01*
Y30558D01*
G03X140902Y30209I400J0D01*
G02X142274I686J-1225D01*
G03X142870Y30558I196J349D01*
G01Y30962D01*
X142854Y31000D01*
G02X145442I1294J544D01*
G01X145426Y30962D01*
Y27718D01*
X145752D01*
Y20310D01*
G37*
G36*
G01X76182Y-2333D02*
G02X76153Y-915I-1226J684D01*
G03X76843Y-901I341J209D01*
G02X76872Y-2319I1226J-684D01*
G03X76182Y-2333I-341J-209D01*
G37*
G54D63*
X90968Y108364D03*
X129468Y63364D03*
G54D62*
X42968Y108864D03*
X78468Y97364D03*
Y107364D03*
X93468Y50364D03*
X113968Y63364D03*
X147968D03*
G54D66*
X117474Y3351D03*
G54D64*
X76468Y24364D03*
Y19364D03*
Y59364D03*
Y54364D03*
Y49364D03*
G54D60*
X-3332Y100813D03*
X18368Y112191D03*
X129442Y107356D03*
X84468Y28864D03*
X84523Y76541D03*
X88869Y72114D03*
X131768Y17424D03*
X118968Y38364D03*
X138968Y7364D03*
X135968Y9814D03*
X157988Y28614D03*
X147918Y24039D03*
X157988Y32114D03*
X155500Y24000D03*
X152369Y39814D03*
X139246Y64836D03*
X137669Y59570D03*
G54D65*
X97474Y24351D03*
X107474D03*
G54D58*
X42Y124747D03*
G54D61*
X-6583Y146364D03*
G54D67*
X132468Y43364D03*
G54D59*
X-7973Y103864D03*
%LPD*%
G75*
G54D10*
X-20000Y46000D03*
X-16331Y90114D03*
X-17132Y115864D03*
X-4160Y-9896D03*
X-6763Y-12460D03*
X4165Y-3286D03*
X4265Y-13704D03*
X1755Y-13636D03*
X-3194Y-18798D03*
X-2030Y-16500D03*
X4680Y-18924D03*
X-7131Y-18537D03*
X8617Y-18785D03*
X-3532Y-13136D03*
X668Y93564D03*
X-8032Y89613D03*
X-13432Y116264D03*
X668Y100464D03*
X8968Y115564D03*
X14368Y115864D03*
X-4822Y110754D03*
X-4632Y115664D03*
X-3332Y100813D03*
X-31Y108479D03*
X-2300Y240300D03*
X-7242Y239516D03*
X-7429Y242660D03*
X1567Y239829D03*
X3969Y231914D03*
X4856Y240107D03*
X-7131Y249914D03*
X-5469Y246414D03*
X9869Y249314D03*
X8969Y246014D03*
X-231Y246114D03*
X43769Y10314D03*
X37033Y92839D03*
X32027Y100887D03*
X18368Y112191D03*
Y115864D03*
X27068Y116264D03*
X30768D03*
X40968Y116714D03*
X22468Y116064D03*
X31657Y244687D03*
X28302Y240414D03*
X31969Y231014D03*
X41569Y230514D03*
X25429Y232814D03*
X14569Y239114D03*
X22069Y235614D03*
X34969Y243914D03*
X38969Y234634D03*
X20428Y240414D03*
X14808Y243068D03*
X16669Y245914D03*
X41875Y248102D03*
X25816Y246661D03*
X17969Y249114D03*
X33169Y249798D03*
X69619Y-4366D03*
X66119D03*
X67968Y34364D03*
Y24364D03*
X71469Y10864D03*
X52468Y19364D03*
X67968Y29364D03*
X60468Y10187D03*
X52468Y49364D03*
X49934Y40649D03*
X52468Y44364D03*
X51468Y53364D03*
X60468Y62864D03*
X53094Y38739D03*
X59668Y116864D03*
X64169Y116714D03*
X54968Y116864D03*
X69469Y116514D03*
X50968Y116864D03*
X47268Y116814D03*
X54169Y233914D03*
X73369Y244594D03*
X63318Y230564D03*
X58768Y230364D03*
X53459Y239817D03*
X71069Y231414D03*
X59069Y234214D03*
X64827Y244587D03*
X49068Y231064D03*
X54168Y230414D03*
X48325Y240020D03*
X46325Y247214D03*
X49827Y246014D03*
X55861Y250400D03*
X55927Y246414D03*
X62869Y247489D03*
X48777Y250664D03*
X71169Y248714D03*
X74956Y-1648D03*
X78069Y-1586D03*
X95231Y-19373D03*
X84468Y34364D03*
X83968Y14364D03*
X88234Y14679D03*
Y19379D03*
X88034Y24279D03*
X83968Y19364D03*
Y24364D03*
X95468Y13864D03*
X84468Y28864D03*
X103968Y53364D03*
X99669Y43364D03*
X80319Y63341D03*
X75234Y63579D03*
X86468Y49364D03*
X84968Y59364D03*
Y54364D03*
X103968Y48364D03*
Y38364D03*
X83468Y92864D03*
X87168Y81764D03*
X97569Y92864D03*
X75369Y77814D03*
X100069Y87914D03*
X84523Y76541D03*
X88869Y72114D03*
X86968Y103364D03*
X92734Y116479D03*
X84134Y116379D03*
X76734Y116479D03*
X104134Y99179D03*
X100134Y103979D03*
X97069Y99364D03*
X104041Y147545D03*
X103468Y165864D03*
X103974Y162400D03*
X100969Y241388D03*
X95450D03*
X93169Y250214D03*
X89788Y249914D03*
X85769Y248614D03*
X77669Y248214D03*
X107474Y-6130D03*
X133908Y-4076D03*
X131348Y-7756D03*
X117474Y-6142D03*
X114916Y-19373D03*
X128788Y-4456D03*
X131768Y17424D03*
X113373Y34989D03*
X128500Y17900D03*
X130472Y14172D03*
X130968Y32864D03*
X116014Y33009D03*
X131348Y28864D03*
X118968Y38364D03*
X125968Y48364D03*
X110168Y71564D03*
X114669Y81214D03*
X118768Y71564D03*
Y79164D03*
X129442Y107356D03*
X133042Y107387D03*
X118034Y100179D03*
X114134Y104079D03*
X113434Y120979D03*
X127074Y114470D03*
X104651Y124047D03*
X118904Y143619D03*
X132468Y132364D03*
X109280Y152050D03*
X104169Y151414D03*
X104968Y141014D03*
X118968Y132364D03*
X104885Y127947D03*
X104169Y155514D03*
X109153Y155548D03*
X109468Y147050D03*
X104451Y133847D03*
X104968Y137414D03*
X108506Y160300D03*
X104379Y169244D03*
X109468Y182050D03*
X109231Y179280D03*
X109648Y163397D03*
X104586Y180363D03*
X108038Y166831D03*
X104468Y176864D03*
X106293Y163987D03*
X108269Y175914D03*
X104819Y183856D03*
X104696Y158975D03*
X109692Y172716D03*
X104369Y195714D03*
X109468Y187050D03*
X109469Y193430D03*
X104286Y187316D03*
X105169Y207314D03*
X106969Y202814D03*
X105823Y192530D03*
X129228Y243453D03*
X119468Y235364D03*
X131769Y239814D03*
X123682Y243808D03*
X122756Y228266D03*
X111417Y244962D03*
X114916Y249367D03*
X116969Y246114D03*
X107042Y250241D03*
X118853Y250400D03*
X122790Y247193D03*
X144148Y-4456D03*
X139028Y-4076D03*
X141588Y-7756D03*
X134601Y-19373D03*
X136468Y-7636D03*
X144148Y31544D03*
X136468Y28864D03*
X138968Y7364D03*
X135968Y9814D03*
X141588Y28984D03*
X134468Y33864D03*
X159618Y17206D03*
X149700Y6800D03*
X163369Y10114D03*
X157988Y28614D03*
X138999Y31340D03*
X147918Y24039D03*
X157988Y32114D03*
X155500Y24000D03*
X153468Y51864D03*
X138769Y43364D03*
X158468Y49364D03*
X138468Y38364D03*
X152369Y39814D03*
X139246Y64836D03*
X137669Y59570D03*
X160404Y87277D03*
Y95151D03*
Y91214D03*
Y99088D03*
Y114719D03*
Y103025D03*
Y118656D03*
Y122593D03*
X160391Y106599D03*
X140445Y107387D03*
X160404Y130467D03*
Y134404D03*
X139168Y149364D03*
X138718Y153114D03*
X144268Y155464D03*
X138669Y177050D03*
X144968Y165864D03*
X138654Y182050D03*
X157978Y160874D03*
X141968Y168864D03*
X144968Y159864D03*
X138654Y167050D03*
X144569Y172050D03*
X151033Y207914D03*
X150468Y193364D03*
X139154Y187050D03*
X144468Y207864D03*
X139569Y201014D03*
X138973Y193539D03*
X162400Y240300D03*
X154133Y219862D03*
X158968Y225864D03*
X158468Y216864D03*
X155968Y223864D03*
X150349Y243234D03*
X152967Y240801D03*
X145400Y233700D03*
X162264Y226038D03*
X156263Y240627D03*
X140109Y242714D03*
X136658Y243301D03*
X146093Y245887D03*
X146412Y249671D03*
X155569Y247014D03*
X134601Y248414D03*
X140433Y245999D03*
X181718Y-1636D03*
X191168Y-4636D03*
X188018Y-1636D03*
X176468Y5864D03*
X185783Y-19373D03*
X193468Y13864D03*
X168468Y19564D03*
X165518Y16414D03*
X169368Y13264D03*
X181468Y25864D03*
X188468Y21864D03*
X185468Y28864D03*
X182468Y21864D03*
X168968Y23364D03*
X190468Y31364D03*
X180968Y53864D03*
X184868Y53764D03*
X169968Y39364D03*
X191168Y53664D03*
X187968Y61465D03*
X178468Y45864D03*
X178968Y61364D03*
X183968Y42364D03*
X165968Y47364D03*
X169968Y42864D03*
X172768Y65664D03*
X188018Y56265D03*
X180089Y95151D03*
X168278Y91214D03*
Y95151D03*
X164341Y87277D03*
X172215Y91214D03*
Y87277D03*
X187847Y95151D03*
X172215D03*
X176152D03*
Y91214D03*
X180089Y87277D03*
Y91214D03*
X187847Y87277D03*
X168278D03*
X164341Y95151D03*
X191784D03*
Y91214D03*
Y87277D03*
X187847Y91214D03*
X164341D03*
X176152Y87277D03*
X192600Y75000D03*
X175068Y82464D03*
X174968Y78364D03*
X192318Y82464D03*
X172215Y106962D03*
X164341Y114719D03*
X176152Y99088D03*
X172215Y103025D03*
X164341Y99088D03*
X187947Y106700D03*
X191784Y106962D03*
X179969Y99088D03*
X188100Y103000D03*
X172215Y122593D03*
Y118656D03*
Y99088D03*
X187847Y122593D03*
X176152D03*
X168278Y103025D03*
X164341D03*
X168278Y114719D03*
X172215D03*
X168278Y99088D03*
X191784Y103025D03*
X164341Y118656D03*
X191784D03*
X187847D03*
X191784Y114719D03*
X187847D03*
X180089Y106962D03*
Y114719D03*
X176152Y118656D03*
X180089D03*
X176152Y114719D03*
Y106962D03*
Y103025D03*
X180089D03*
X168278Y106962D03*
X164341D03*
X187969Y99088D03*
X191784D03*
X168278Y118656D03*
Y122593D03*
X180089D03*
X164341D03*
X191784D03*
X191850Y130499D03*
X191784Y134404D03*
X176152Y126530D03*
X168278Y130467D03*
Y134404D03*
X180089D03*
X172215Y126530D03*
X176152Y130467D03*
Y134404D03*
X191784Y126530D03*
X187847Y130467D03*
X172215Y134404D03*
X187847D03*
X180089Y126530D03*
Y130467D03*
X164341D03*
X172215D03*
X187847Y126530D03*
X164341Y134404D03*
X177654Y153678D03*
X168069Y139364D03*
X191569Y141914D03*
X183897Y142021D03*
X179268Y149064D03*
X164154Y154050D03*
X183869Y146014D03*
X183897Y138561D03*
X168468Y145364D03*
X183169Y176914D03*
X180880Y180884D03*
X183478Y160874D03*
X177968Y175364D03*
X188408Y177175D03*
X190968Y180864D03*
X171485Y175214D03*
X192968Y171364D03*
X184769Y167114D03*
X176069Y180814D03*
X169468Y200364D03*
X186120Y214714D03*
X193552Y215362D03*
X182140Y233600D03*
X185169Y244114D03*
X192959Y232914D03*
X189468Y227414D03*
X180169Y240914D03*
X169968Y229864D03*
X165968Y240300D03*
X189862Y215643D03*
X181968Y216364D03*
X170500Y236200D03*
X190600Y240700D03*
X186468Y239627D03*
X187859Y247204D03*
X170035Y250400D03*
X189720D03*
X171989Y246100D03*
X179269Y249714D03*
X178669Y245714D03*
X168469D03*
X210068Y-4136D03*
X206918Y-2086D03*
X220543Y-5136D03*
X212968Y-8136D03*
Y-1786D03*
X200468Y-2485D03*
X218469Y-8136D03*
X196569Y14414D03*
X199968Y28864D03*
X203968Y23364D03*
Y10364D03*
Y27364D03*
X200469Y21114D03*
X194468Y31364D03*
X206968Y34364D03*
X203968Y19364D03*
Y15364D03*
X200393Y16364D03*
X197468Y42364D03*
X212968Y63364D03*
X218968Y48364D03*
X210468Y61364D03*
X205468Y41864D03*
X201468D03*
X197468Y53864D03*
X194242Y56739D03*
X216408Y50924D03*
X203168Y61164D03*
X203595Y91214D03*
Y87277D03*
X195721Y95151D03*
X207532D03*
Y91214D03*
X210069Y87177D03*
X199658Y91214D03*
X195650Y87348D03*
X195721Y91214D03*
X199658Y95151D03*
Y87277D03*
X203595Y95151D03*
X215468Y66864D03*
X220769Y88314D03*
X221528Y69364D03*
X207969Y70864D03*
X218968Y66864D03*
X222021Y101613D03*
X207532Y114719D03*
X195721D03*
X203595D03*
X207532Y118656D03*
X199658Y114719D03*
X195721Y118656D03*
X199658D03*
X195721Y122593D03*
X203595D03*
X199658Y99088D03*
Y122593D03*
X207532D03*
X199658Y103025D03*
X203595Y106962D03*
X195721D03*
X203595Y103025D03*
X195721D03*
X207532Y106962D03*
X199658D03*
X203595Y118656D03*
X195721Y99088D03*
X203595D03*
X218598Y120591D03*
X223468Y97864D03*
X195721Y126530D03*
Y130467D03*
Y134404D03*
X199658Y130467D03*
X203595D03*
Y126530D03*
X199658D03*
Y134404D03*
X207532Y126530D03*
X212069Y130914D03*
X203595Y134404D03*
X196218Y152244D03*
X201366Y140069D03*
X196218Y138884D03*
X222543Y143439D03*
X219328Y127083D03*
X199718Y152244D03*
X221569Y163814D03*
X199669Y165314D03*
X212365Y165444D03*
X218746Y161744D03*
X204728Y193814D03*
X213160Y210084D03*
X210765Y193814D03*
X204469Y187514D03*
X201136Y205386D03*
X207368Y211872D03*
X209968Y202364D03*
X217365Y194014D03*
X205040Y202443D03*
X222365Y194114D03*
X221669Y239730D03*
X218585Y241386D03*
X210968Y227364D03*
X210079Y219259D03*
X207273Y216710D03*
X214669Y241214D03*
X203468Y227364D03*
X207200Y240614D03*
X203468Y240600D03*
X198268Y240682D03*
X210968Y240700D03*
X194900Y240400D03*
X209405Y250400D03*
X218959Y245847D03*
X211167Y245914D03*
X215669Y246114D03*
X234322Y-6632D03*
X233268Y2164D03*
X248775Y-19373D03*
X247929Y-3598D03*
X248100Y35100D03*
X247984Y26016D03*
X224968Y25864D03*
X225418Y35314D03*
X226400Y15700D03*
X226569Y19100D03*
X226968Y22714D03*
X225500Y42600D03*
X224468Y61864D03*
X231109Y49774D03*
X224969Y46814D03*
X226900Y39500D03*
X227468Y50864D03*
X224468Y55864D03*
X226968Y66864D03*
X226563Y92172D03*
X230968Y66864D03*
X234276Y90185D03*
X225192Y117895D03*
X223869Y138864D03*
X233289Y131185D03*
X251448Y131403D03*
X225931Y154744D03*
X232365Y163314D03*
X252018Y163364D03*
X239409Y165514D03*
X237289Y162984D03*
X225468Y158864D03*
X247365Y164814D03*
X241369Y158914D03*
X251968Y193744D03*
X247365Y194364D03*
X232368Y210914D03*
X237454Y212014D03*
X225153Y195961D03*
X237365Y194364D03*
X237354Y223914D03*
X224968Y240414D03*
X238463Y243108D03*
X235600Y236800D03*
X252469Y233514D03*
X232365Y223314D03*
X224968Y225864D03*
X228258Y240149D03*
X252569Y242814D03*
X250664Y239261D03*
X243369Y243114D03*
X246464Y236759D03*
X234722Y239982D03*
X242997Y236276D03*
X238669Y239814D03*
X227777Y245822D03*
X229969Y250114D03*
X236068Y245648D03*
X243717Y247234D03*
X245969Y249914D03*
X265062Y19098D03*
X264968Y22864D03*
X254020Y15664D03*
X264968Y57364D03*
X265934Y54498D03*
X254100Y46064D03*
X264968Y46864D03*
X262468Y91214D03*
X263571Y88795D03*
X260968Y77864D03*
X255969Y99364D03*
X262768Y126027D03*
X260745Y127676D03*
X260968Y149364D03*
X254468Y150115D03*
X265468Y150864D03*
X261968Y163364D03*
X254468Y158864D03*
X261438Y172894D03*
X262669Y195714D03*
X262069Y186394D03*
X277569Y213214D03*
X270472Y221211D03*
X281468Y239864D03*
X279969Y225714D03*
X282946Y242815D03*
X273674Y219797D03*
X260968Y229864D03*
X261364Y235864D03*
X309438Y-10709D03*
X311492Y-12763D03*
X311767Y-19736D03*
X305227Y19097D03*
X305502Y54014D03*
X289065Y88732D03*
X290828Y84598D03*
X305502Y88381D03*
Y122881D03*
X296468Y182914D03*
X293715Y198117D03*
X303995Y241660D03*
X287468Y226864D03*
X309468Y230364D03*
X299468Y239814D03*
X287468Y239864D03*
X311361Y242128D03*
X311449Y245386D03*
X283715Y225714D03*
X293715Y225594D03*
X285970Y244414D03*
X308869Y234014D03*
X308169Y245014D03*
X294669Y241014D03*
X303893Y245414D03*
X307830Y250664D03*
X305974Y248637D03*
X311767Y250400D03*
X299956D03*
X296019D03*
X319807Y198136D03*
X320088Y225903D03*
G54D20*
X-7973Y103864D03*
G54D11*
X12554Y-29086D03*
X8617D03*
X4680D03*
X743D03*
X-3194D03*
X-7131D03*
X-11068D03*
Y260014D03*
X-3194D03*
X743D03*
X4680D03*
X8617D03*
X12554D03*
X44050Y-29086D03*
X40113D03*
X28302D03*
X24365D03*
X20428D03*
X16491D03*
Y260014D03*
X20428D03*
X24365D03*
X28302D03*
X32239D03*
X36176D03*
X40113D03*
X44050D03*
X71609Y-29086D03*
X67672D03*
X63735D03*
X59798D03*
X55861D03*
X51924D03*
X47987D03*
Y260014D03*
X51924D03*
X55861D03*
X59798D03*
X63735D03*
X67672D03*
X71609D03*
X103105Y-29086D03*
X99168D03*
X95231D03*
X91294D03*
X87357D03*
X83420D03*
X79483D03*
X75546D03*
Y260014D03*
X79483D03*
X83420D03*
X87357D03*
X91294D03*
X95231D03*
X99168D03*
X103105D03*
X130664Y-29086D03*
X126727D03*
X122790D03*
X118853D03*
X114916D03*
X110979D03*
X107042D03*
Y260014D03*
X110979D03*
X114916D03*
X118853D03*
X122790D03*
X126727D03*
X130664D03*
X162161Y-29086D03*
X158224D03*
X154287D03*
X150349D03*
X146412D03*
X142475D03*
X138538D03*
X134601D03*
Y260014D03*
X138538D03*
X142475D03*
X146412D03*
X150349D03*
X154287D03*
X158224D03*
X162161D03*
X193657Y-29086D03*
X189720D03*
X185783D03*
X181846D03*
X177909D03*
X173972D03*
X170035D03*
X166098D03*
Y260014D03*
X170035D03*
X173972D03*
X177909D03*
X181846D03*
X185783D03*
X189720D03*
X193657D03*
X221216Y-29086D03*
X217279D03*
X213342D03*
X209405D03*
X205468D03*
X201531D03*
X197594D03*
Y260014D03*
X201531D03*
X205468D03*
X209405D03*
X213342D03*
X217279D03*
X221216D03*
X252712Y-29086D03*
X248775D03*
X244838D03*
X240901D03*
X236964D03*
X233027D03*
X229090D03*
X225153D03*
Y260014D03*
X229090D03*
X233027D03*
X236964D03*
X240901D03*
X244838D03*
X248775D03*
X252712D03*
X280271Y-29086D03*
X276334D03*
X272397D03*
X268460D03*
X264523D03*
X260586D03*
X256649D03*
Y260014D03*
X260586D03*
X264523D03*
X276334D03*
X280271D03*
X307830Y-29086D03*
X303893D03*
X299956D03*
X296019D03*
X292082D03*
X288145D03*
X284208D03*
Y260014D03*
X288145D03*
X292082D03*
X296019D03*
X299956D03*
X303893D03*
X307830D03*
X311767D03*
X315704Y-29086D03*
Y260014D03*
G54D21*
X-481Y146364D03*
X-6583D03*
X-481Y154364D03*
X-6583D03*
Y170564D03*
X-481D03*
X-6583Y162464D03*
X-481D03*
G54D30*
X77254Y147050D03*
Y152050D03*
Y157050D03*
Y162050D03*
Y167050D03*
Y172050D03*
Y177050D03*
Y182050D03*
Y187050D03*
Y192050D03*
X90754Y152050D03*
Y147050D03*
Y182050D03*
Y177050D03*
Y172050D03*
Y167050D03*
Y162050D03*
Y157050D03*
Y192050D03*
Y187050D03*
X130754Y152050D03*
Y147050D03*
X117254D03*
Y152050D03*
X130754Y182050D03*
Y177050D03*
Y172050D03*
Y167050D03*
Y162050D03*
Y157050D03*
X117254D03*
Y162050D03*
Y167050D03*
Y172050D03*
Y177050D03*
Y182050D03*
X130754Y192050D03*
Y187050D03*
X117254D03*
Y192050D03*
G54D12*
G01X-40532Y-170136D02*
X359468D01*
G01X-40532Y-140136D02*
Y-120136D01*
X359468D01*
G01X9468Y-190136D02*
Y-170136D01*
G01X10896Y23345D02*
X27837D01*
X38818Y12364D01*
G01X14598Y35943D02*
X10896D01*
G01X103974Y162400D02*
X104706D01*
X106293Y163987D01*
G01X134968Y-190136D02*
Y-170136D01*
G01X134468Y-120136D02*
Y-90136D01*
G01X184468Y-190136D02*
Y-170136D01*
G01X189468Y11924D02*
X191618D01*
X193468Y13774D01*
Y13864D01*
G01X189468Y9364D02*
X182468D01*
G01D02*
X178468D01*
X176468Y7364D01*
Y5864D01*
G01X182468Y11924D02*
Y17864D01*
G01X216408Y62364D02*
Y65924D01*
X215468Y66864D01*
G01X218968Y62364D02*
Y66864D01*
G01Y55364D02*
Y48364D01*
G01X216408Y55364D02*
Y50924D01*
G01X228408Y62364D02*
Y65424D01*
X226968Y66864D01*
G01X230968Y62364D02*
Y66864D01*
G01Y55364D02*
Y49915D01*
X231109Y49774D01*
G01X228408Y55364D02*
Y51804D01*
X227468Y50864D01*
X0Y0D03*
X-316Y20983D03*
Y38305D03*
X42Y124747D03*
Y219947D03*
X84004Y140800D03*
Y198300D03*
X124004Y140800D03*
Y198300D03*
X206115Y179644D03*
X263615D03*
X310365Y6697D03*
G54D13*
X-12127Y12321D03*
X9526D03*
X-12127Y46967D03*
X9526D03*
G54D40*
X181705Y201877D03*
X183673D03*
X185642D03*
X187611D03*
X189579D03*
Y191837D03*
X187611D03*
X185642D03*
X183673D03*
X181705D03*
G54D22*
X-7131Y258564D03*
X311767Y-27636D03*
G54D31*
X97474Y3351D03*
Y24351D03*
X107474Y3351D03*
X117474D03*
X107474Y24351D03*
X117474D03*
G54D50*
G01X359468Y-90136D02*
Y-190136D01*
X-40532D01*
G01D02*
Y-90136D01*
X359468D01*
G01X-16331Y90114D02*
Y66614D01*
X-13081Y63364D01*
X-8032D01*
G01X-11068Y-29086D02*
Y-18654D01*
X-9823Y-17409D01*
Y-15520D01*
X-6763Y-12460D01*
G01X-3194Y-29086D02*
Y-18798D01*
G01X-7131Y-29086D02*
Y-18537D01*
G01X8617Y-29086D02*
Y-18785D01*
G01X4680Y-29086D02*
Y-18924D01*
G01X134601Y-19373D02*
X129364Y-14136D01*
X65319D01*
X44870Y6313D01*
X42113D01*
X41426Y7000D01*
X35604D01*
X14968Y-13636D01*
X4333D01*
X4265Y-13704D01*
G01X1755Y-13636D02*
X4197D01*
X4265Y-13704D01*
G01X-12127Y12321D02*
Y46967D01*
G01X9526Y12321D02*
X-12127D01*
G01X31118Y12364D02*
X9569D01*
X9526Y12321D01*
G01X38968Y45514D02*
X26269D01*
X16698Y35943D01*
X14598D01*
G01X-12127Y46967D02*
X9526D01*
G01X12638Y92624D02*
X9369D01*
X7869Y94124D01*
Y104014D01*
X10619Y106764D01*
X20469D01*
X22569Y108864D01*
X32968D01*
G01X668Y96964D02*
Y93564D01*
G01X-8032Y78364D02*
Y89613D01*
G01X-6583Y146364D02*
X-6532Y146313D01*
Y117564D01*
G01D02*
X-4632Y115664D01*
G01X-13432Y120264D02*
Y116264D01*
G01X8968Y146364D02*
Y115564D01*
G01X32027Y100887D02*
X31904Y100764D01*
X13298D01*
X12638Y100104D01*
G01X18368Y115864D02*
Y148564D01*
X12568Y154364D01*
X8968D01*
G01X-6583Y162464D02*
Y170564D01*
G01Y162464D02*
Y159715D01*
X-5432Y158564D01*
X15068D01*
X22468Y151164D01*
Y116064D01*
G01X-6532Y170513D02*
X-6583Y170564D01*
G01X-11068Y260014D02*
Y251271D01*
X-9831Y250034D01*
Y245062D01*
X-7429Y242660D01*
G01X-7131Y258564D02*
Y249914D01*
G01X38818Y12364D02*
X41719D01*
X43769Y10314D01*
G01X49934Y40649D02*
X48869Y39584D01*
Y31514D01*
X47046Y29691D01*
X39196D01*
G01X38968Y45514D02*
Y36612D01*
X39196Y36384D01*
G01X38968Y53214D02*
Y81864D01*
X51968Y94864D01*
G01X21298Y96364D02*
X40468D01*
X52968Y108864D01*
G01X69469Y116514D02*
X67569Y118414D01*
G01D02*
Y145014D01*
X69605Y147050D01*
X77254D01*
G01X54968Y116864D02*
Y153664D01*
G01X66000Y97300D02*
Y107332D01*
X65968Y107364D01*
G01X59668Y152064D02*
Y116864D01*
G01X50968D02*
Y156064D01*
X56954Y162050D01*
X77254D01*
G01X47268Y116814D02*
Y159064D01*
X55254Y167050D01*
X77254D01*
G01X54968Y153664D02*
X58354Y157050D01*
X77254D01*
G01X49068Y231064D02*
Y189564D01*
X61582Y177050D01*
X77254D01*
G01X54168Y230414D02*
Y192164D01*
X64282Y182050D01*
X77254D01*
G01X63318Y230564D02*
X63068Y230314D01*
Y197664D01*
X68682Y192050D01*
X77254D01*
G01Y187050D02*
X66882D01*
X58768Y195164D01*
Y230364D01*
G01X95231Y-29086D02*
Y-19373D01*
G01X97474Y3351D02*
Y11858D01*
X95468Y13864D01*
G01X76468Y14364D02*
X83968D01*
G01X76468Y39364D02*
X92468D01*
X93468Y40364D01*
G01X76468Y44364D02*
X89468D01*
X93468Y40364D01*
G01X86968Y92864D02*
X83468D01*
G01X86968Y103364D02*
Y99364D01*
G01X104369Y195714D02*
X100705Y192050D01*
X90754D01*
G01X114916Y-29086D02*
Y-19373D01*
G01X117474Y3351D02*
Y-6142D01*
G01X132468Y43364D02*
X138769D01*
G01X132468Y38364D02*
X138468D01*
G01X132468Y53364D02*
X140668D01*
X142168Y51864D01*
G01X132468Y48364D02*
X125968D01*
G01X136775Y107387D02*
X133042D01*
G01X130776Y114470D02*
X127074D01*
G01X130754Y162050D02*
X141154D01*
X144968Y165864D01*
G01X130754Y182050D02*
X138654D01*
G01X130754Y177050D02*
X138669D01*
G01X130754Y192050D02*
X137484D01*
X138973Y193539D01*
G01X118853Y260014D02*
Y250400D01*
G01X134601Y-29086D02*
Y-19373D01*
G01X311492Y-12763D02*
X310619Y-13636D01*
X140468D01*
X134731Y-19373D01*
X134601D01*
G01X149768Y51864D02*
X153468D01*
G01X145468Y40864D02*
X145467Y40865D01*
Y42416D01*
X142168Y45715D01*
Y51864D01*
G01X136775Y101953D02*
Y93335D01*
X136669Y93229D01*
G01X136776Y114470D02*
Y107388D01*
X136775Y107387D01*
G01D02*
X140445D01*
G01X150468Y197364D02*
Y193364D01*
G01Y203864D02*
Y207349D01*
X151033Y207914D01*
G01X185783Y-29086D02*
Y-19373D01*
G01X188468Y17864D02*
Y21864D01*
G01X185468Y32364D02*
Y28864D01*
G01X175968Y27364D02*
X179968D01*
X181468Y25864D01*
G01X182468Y17864D02*
Y21864D01*
G01X190468Y34364D02*
Y31364D01*
G01X168968Y23364D02*
X170968D01*
X172968Y21364D01*
X175968D01*
G01X181468Y45864D02*
X178468D01*
G01X185468D02*
Y44920D01*
X183968Y43420D01*
Y42364D01*
G01X185937Y93124D02*
X187847Y91214D01*
G01X189874Y97061D02*
X191784Y95151D01*
G01X185937Y89187D02*
X187847Y87277D01*
G01X189874Y112810D02*
Y112809D01*
X191784Y114719D01*
G01X185937Y116747D02*
Y116746D01*
X187847Y118656D01*
G01X185937Y112810D02*
Y112809D01*
X187847Y114719D01*
G01X181999Y112809D02*
X180089Y114719D01*
G01X178062Y112810D02*
Y112809D01*
X176152Y114719D01*
G01X178062Y116746D02*
X176152Y118656D01*
G01X181999Y116747D02*
X180873Y117873D01*
X180872D01*
X180089Y118656D01*
G01X189874Y116747D02*
Y116746D01*
X191784Y118656D01*
G01X181999Y104935D02*
X180089Y103025D01*
G01X178062Y104935D02*
X176152Y103025D01*
G01X178062Y108872D02*
X176152Y106962D01*
G01X181999Y108872D02*
X180089Y106962D01*
G01X189874Y104935D02*
X191784Y103025D01*
G01X188100Y103000D02*
X187872D01*
X185937Y104935D01*
G01X189874Y108872D02*
X191784Y106962D01*
G01X187947Y106700D02*
Y106862D01*
X185937Y108872D01*
G01X177200Y198826D02*
X174874D01*
X173336Y200364D01*
X169468D01*
G01X170035Y260014D02*
Y250400D01*
G01X189720Y260014D02*
Y250400D01*
G01X224668Y-5136D02*
X220543D01*
G01X195469Y10864D02*
X196518Y11913D01*
Y14294D01*
X196569Y14345D01*
Y14414D01*
G01X206968Y27364D02*
X203968D01*
G01X206968Y23364D02*
X203968D01*
G01X206968Y11364D02*
X204968D01*
X203968Y10364D01*
G01X199968Y32364D02*
Y28864D01*
G01X206968Y19364D02*
X203968D01*
G01X206968Y15364D02*
X203968D01*
G01X194468Y34364D02*
Y31364D01*
G01X206968D02*
Y34364D01*
G01X197468Y45864D02*
Y42364D01*
G01X210768Y56364D02*
Y61064D01*
X210468Y61364D01*
G01X203168Y56364D02*
Y61164D01*
G01X205622Y97061D02*
X207532Y95151D01*
G01X205622Y124620D02*
X207532Y126530D01*
G01X212365Y172894D02*
Y165444D01*
G01Y186394D02*
Y192218D01*
X210769Y193814D01*
X210765D01*
G01X217365Y186394D02*
Y194014D01*
G01X222365Y186394D02*
Y194114D01*
G01X209405Y260014D02*
Y250400D01*
G01X248775Y-29086D02*
Y-19373D01*
G01X238245Y-5353D02*
X235601D01*
X234322Y-6632D01*
G01X243546Y-6108D02*
X245419D01*
X247929Y-3598D01*
G01X247832Y15664D02*
X254020D01*
G01X247932Y46064D02*
X254100D01*
G01X260745Y131864D02*
Y127676D01*
G01X260968Y145364D02*
Y149364D01*
G01Y145364D02*
Y143414D01*
X262768Y141614D01*
Y138364D01*
G01X254968Y145364D02*
Y138564D01*
X255168Y138364D01*
G01X254468Y150115D02*
Y149114D01*
X254968Y148614D01*
Y145364D01*
G01X255168Y138364D02*
Y133722D01*
X255311Y133579D01*
Y131864D01*
G01X311767Y-27636D02*
Y-19736D01*
G01X311492Y-12763D02*
X314463Y-15734D01*
Y-18732D01*
X315704Y-19973D01*
Y-29086D01*
G01Y260014D02*
Y251612D01*
X314467Y250375D01*
Y248404D01*
X311449Y245386D01*
G01X307830Y260014D02*
Y250664D01*
G01X311767Y260014D02*
Y250400D01*
G01X299956Y260014D02*
Y250400D01*
G01X296019Y260014D02*
Y250400D01*
G54D14*
X10896Y32794D03*
Y29644D03*
Y26494D03*
Y23345D03*
Y35943D03*
G54D32*
X92968Y92864D03*
X86968D03*
X92968Y99364D03*
X86968D03*
X130776Y114470D03*
X136776D03*
X144468Y197364D03*
X150468D03*
X144468Y203864D03*
X150468D03*
X188468Y17864D03*
X182468D03*
X260968Y145364D03*
X254968D03*
G54D41*
X224668Y-5136D03*
Y2864D03*
X233268Y-1136D03*
G54D23*
X39968D03*
X42968Y108864D03*
X51968Y94864D03*
X65968Y107364D03*
X52968Y108864D03*
X93468Y50364D03*
X78468Y97364D03*
X90968Y108364D03*
X78468Y107364D03*
X129468Y63364D03*
X113968D03*
X115914Y226864D03*
X128968D03*
X147968Y63364D03*
X145468Y40864D03*
X165468Y63364D03*
X136669Y83229D03*
X145468Y226864D03*
X168869Y218814D03*
X192968Y222364D03*
X216224Y204177D03*
Y217238D03*
X202968Y222364D03*
X251883Y86692D03*
X238281D03*
X238582Y74928D03*
X243224Y217238D03*
X229224Y204177D03*
Y217238D03*
X256724D03*
X243224Y204177D03*
X243468Y229864D03*
X271468Y-836D03*
X285968Y-1136D03*
X284487Y11922D03*
X275468Y178364D03*
X256724Y204177D03*
X269968Y203364D03*
X285968Y191864D03*
X269468Y228864D03*
G54D51*
G01X-6583Y146364D02*
X-4229D01*
G01X-8937D02*
X-6583D01*
G01Y144110D02*
Y146364D01*
G01X70264Y19364D02*
X76468D01*
G01X70264Y59364D02*
X76468D01*
G01X70264Y54364D02*
X76468D01*
G01X70264Y49364D02*
X76468D01*
G01X66000Y89700D02*
X69704D01*
G01X62296D02*
X66000D01*
G01Y87246D02*
Y89700D01*
G01X76468Y24364D02*
X82672D01*
G01X76468D02*
Y26518D01*
G01Y22210D02*
Y24364D01*
G01Y19364D02*
X82672D01*
G01X76468D02*
Y21518D01*
G01Y59364D02*
X82672D01*
G01X76468D02*
Y61518D01*
G01Y57210D02*
Y59364D01*
G01Y54364D02*
X82672D01*
G01X76468D02*
Y56518D01*
G01Y52210D02*
Y54364D01*
G01Y49364D02*
X82672D01*
G01X76468D02*
Y51518D01*
G01X92968Y92864D02*
X95422D01*
G01X92968D02*
Y95818D01*
G01Y89910D02*
Y92864D01*
G01Y99364D02*
X95422D01*
G01X92968D02*
Y102318D01*
G01Y96410D02*
Y99364D01*
G01X90968Y108364D02*
X93786Y105546D01*
G01X88150Y111182D02*
X90968Y108364D01*
G01D02*
X93786Y111182D01*
G01X117474Y3351D02*
X120678D01*
G01X114270D02*
X117474D01*
G01D02*
Y10305D01*
G01X127184Y24014D02*
X128788D01*
G01Y20310D02*
Y24014D01*
G01X129468Y63364D02*
X132286Y60546D01*
G01X126650Y66182D02*
X129468Y63364D01*
G01D02*
X132286Y66182D01*
G01X126650Y60546D02*
X129468Y63364D01*
G01X127764Y41410D02*
X132468Y43364D01*
G01X127764D02*
X132468D01*
G01X130776Y114470D02*
Y117424D01*
G01Y111516D02*
Y114470D01*
G01X144148Y714D02*
Y-4456D01*
G01X149768Y51864D02*
Y55568D01*
G01Y48160D02*
Y51864D01*
G54D24*
X38818Y12364D03*
X31118D03*
G54D15*
X1968Y63364D03*
X-8032D03*
X1968Y78364D03*
X-8032D03*
X283715Y204644D03*
Y219644D03*
X314215Y204644D03*
X293715D03*
X314215Y219644D03*
X293715D03*
X324215Y204644D03*
Y219644D03*
G54D33*
X133908Y714D03*
X131348D03*
X128788D03*
Y24014D03*
X131348D03*
X133908D03*
X144148Y714D03*
X141588D03*
X139028D03*
X136468D03*
Y24014D03*
X139028D03*
X141588D03*
X144148D03*
G54D42*
X216408Y62364D03*
X218968D03*
X221528D03*
Y55364D03*
X218968D03*
X216408D03*
X228408Y62364D03*
X230968D03*
X233528D03*
Y55364D03*
X230968D03*
X228408D03*
G54D52*
G01X-17132Y115864D02*
X-18032Y116764D01*
Y124764D01*
X-16532Y126264D01*
X-13432D01*
G01X-3532Y-13136D02*
X-2169D01*
X743Y-16048D01*
Y-29086D01*
G01X1968Y78364D02*
Y63364D01*
G01X14368Y115864D02*
X4243Y105739D01*
Y90989D01*
X1968Y88714D01*
Y78364D01*
G01X-10532Y96974D02*
X-3342D01*
X-3332Y96964D01*
G01X-31Y108479D02*
X-5765D01*
X-8040Y110754D01*
X-10532D01*
G01X-6583Y154364D02*
X-6532Y151564D01*
X-5132Y150164D01*
X11068D01*
X14368Y146864D01*
Y115864D01*
G01X-481Y146364D02*
X4968D01*
G01X-532D02*
X-481D01*
G01Y170564D02*
X4768D01*
X4968Y170364D01*
G01X-532Y170564D02*
X-481D01*
G01Y162464D02*
X4868D01*
X4968Y162364D01*
G01X-532Y162464D02*
X-481D01*
G01Y154364D02*
X4968D01*
G01X-532D02*
X-481D01*
G01X27068Y116264D02*
Y152264D01*
X16968Y162364D01*
X8968D01*
G01X30768Y116264D02*
Y154864D01*
X15268Y170364D01*
X8968D01*
G01X1567Y239829D02*
Y243000D01*
X2169Y243602D01*
Y249414D01*
X743Y250840D01*
Y260014D01*
G01X-2300Y240300D02*
X-3194Y241194D01*
Y260014D01*
G01X4856Y240107D02*
X4680Y240283D01*
Y260014D01*
G01X8617D02*
Y250566D01*
X9869Y249314D01*
G01X14808Y243068D02*
X12554Y245322D01*
Y260014D01*
G01X77254Y172050D02*
X51754D01*
X40968Y161264D01*
Y116714D01*
G01X28302Y240414D02*
Y260014D01*
G01X34969Y243914D02*
X36176Y245121D01*
Y260014D01*
G01X20428D02*
Y240414D01*
G01X41875Y248102D02*
X40113Y249864D01*
Y260014D01*
G01X25816Y246661D02*
X25769Y246708D01*
Y249614D01*
X24365Y251018D01*
Y260014D01*
G01X16491D02*
Y250592D01*
X17969Y249114D01*
G01X32239Y260014D02*
Y250728D01*
X33169Y249798D01*
G01X60468Y34364D02*
X67968D01*
G01X60468Y24364D02*
X67968D01*
G01X60468Y19364D02*
X52468D01*
G01X60468Y29364D02*
X67968D01*
G01X60468Y14364D02*
Y10187D01*
G01Y49364D02*
X52468D01*
G01X60468Y44364D02*
X52468D01*
G01X60468Y54364D02*
X52468D01*
X51468Y53364D01*
G01X60468Y59364D02*
Y62864D01*
G01Y39364D02*
X53719D01*
X53094Y38739D01*
G01X64169Y116714D02*
Y116758D01*
X63994Y116933D01*
Y123289D01*
X63243Y124040D01*
Y151639D01*
X63668Y152064D01*
G01X77254Y152050D02*
X77240Y152064D01*
X63668D01*
G01X53459Y239817D02*
Y240124D01*
X52102Y241481D01*
Y246957D01*
X52036Y247023D01*
Y250302D01*
X51924Y250414D01*
Y260014D01*
G01X71069Y231414D02*
X67094Y235389D01*
Y243636D01*
X67102Y243644D01*
Y246534D01*
X63735Y249901D01*
Y260014D01*
G01X59069Y234214D02*
Y244145D01*
X59895Y244971D01*
Y249984D01*
X59686Y250193D01*
Y259902D01*
X59798Y260014D01*
G01X48325Y240020D02*
X46563D01*
X44050Y242533D01*
Y260014D01*
G01X47987D02*
Y251454D01*
X48777Y250664D01*
G01X67672Y260014D02*
Y250811D01*
X69769Y248714D01*
X71169D01*
G01D02*
X71609Y249154D01*
Y260014D01*
G01X76468Y34364D02*
X84468D01*
G01X110468Y43364D02*
X99669D01*
G01X104169Y151414D02*
X103533Y152050D01*
X90754D01*
G01Y147050D02*
X99133D01*
X104968Y141215D01*
Y141014D01*
G01X103468Y165864D02*
X99468D01*
X98282Y167050D01*
X90754D01*
G01X104169Y155514D02*
X101969D01*
X100433Y157050D01*
X90754D01*
G01X104468Y176864D02*
X102018D01*
X101832Y177050D01*
X90754D01*
G01X104819Y183856D02*
X100460D01*
X98654Y182050D01*
X90754D01*
G01X108269Y175914D02*
X108069D01*
X104205Y172050D01*
X90754D01*
G01X103974Y162400D02*
X103155D01*
X102805Y162050D01*
X90754D01*
G01X104286Y187316D02*
X103033D01*
X102767Y187050D01*
X90754D01*
G01X95231Y260014D02*
Y252276D01*
X93169Y250214D01*
G01D02*
X91294Y252089D01*
Y260014D01*
G01X83420D02*
Y250963D01*
X85769Y248614D01*
G01X87357Y260014D02*
Y250202D01*
X85769Y248614D01*
G01X75546Y260014D02*
Y250337D01*
X77669Y248214D01*
G01X79483Y260014D02*
Y250028D01*
X77669Y248214D01*
G01X107474Y3351D02*
Y-6130D01*
G01X131348Y714D02*
Y-7756D01*
G01X128788Y714D02*
Y-4456D01*
G01X116014Y33009D02*
X116003D01*
X117474Y31538D01*
Y24351D01*
G01X131348Y24014D02*
Y28864D01*
G01X110468Y53364D02*
X103968D01*
G01X110468Y48364D02*
X103968D01*
G01X110468Y38364D02*
X103968D01*
G01X117254Y152050D02*
X109280D01*
G01X139168Y149364D02*
X136482Y152050D01*
X130754D01*
G01X117254Y147050D02*
X109468D01*
G01X117254Y177050D02*
X111589D01*
X109575Y179064D01*
X109447D01*
X109231Y179280D01*
G01X117254Y182050D02*
X109468D01*
G01X109648Y163397D02*
X110995Y162050D01*
X117254D01*
G01Y157050D02*
X111105D01*
X109603Y155548D01*
X109153D01*
G01X117254Y167050D02*
X108505D01*
X108286Y166831D01*
X108038D01*
G01X130754Y157050D02*
X142682D01*
X144268Y155464D01*
G01X130754Y167050D02*
X138654D01*
G01X130754Y172050D02*
X144569D01*
G01X109692Y172716D02*
X109867D01*
X110533Y172050D01*
X117254D01*
G01X130754Y187050D02*
X139154D01*
G01X117254D02*
X109468D01*
G01X117254Y192050D02*
X111033D01*
X109653Y193430D01*
X109469D01*
G01X111417Y244962D02*
X107344Y240889D01*
Y203189D01*
X106969Y202814D01*
G01X129228Y243453D02*
X129287D01*
X130664Y244830D01*
Y260014D01*
G01X128968Y234864D02*
Y226864D01*
G01X126727Y260014D02*
Y246853D01*
X123682Y243808D01*
G01X122756Y228266D02*
Y228279D01*
X122769Y228292D01*
Y232464D01*
X124968Y234663D01*
Y234864D01*
G01X114916Y260014D02*
Y249367D01*
G01X116969Y246114D02*
X114951D01*
X110979Y250086D01*
Y260014D01*
G01X107042D02*
Y250241D01*
G01X122790Y260014D02*
Y247193D01*
G01X139028Y714D02*
Y-4076D01*
G01X133908Y714D02*
Y-4076D01*
G01X141588Y714D02*
Y-7756D01*
G01X136468Y714D02*
Y-7636D01*
G01X144148Y24014D02*
Y31544D01*
G01X136468Y24014D02*
Y28864D01*
G01X141588Y24014D02*
Y28984D01*
G01X133908Y24014D02*
Y33304D01*
X134468Y33864D01*
G01X138999Y31340D02*
X139028Y31311D01*
Y24014D01*
G01X162314Y93124D02*
X160404Y91214D01*
G01X162314Y89187D02*
X160404Y87277D01*
G01X160391Y106599D02*
Y106949D01*
X162314Y108872D01*
G01Y120683D02*
X160404Y122593D01*
G01X162314Y116746D02*
X160404Y118656D01*
G01X162314Y104935D02*
X160404Y103025D01*
G01X162314Y112809D02*
X160404Y114719D01*
G01X162314Y100998D02*
X160404Y99088D01*
G01X162314Y97061D02*
X160404Y95151D01*
G01X162314Y128558D02*
X161436Y129436D01*
X161435D01*
X160404Y130467D01*
G01X162314Y132495D02*
X161405Y133404D01*
X161404D01*
X160404Y134404D01*
G01X144468Y197364D02*
Y192364D01*
X139154Y187050D01*
G01X144468Y203864D02*
Y207864D01*
G01X162400Y240300D02*
X162161Y240539D01*
Y260014D01*
G01X158968Y235864D02*
Y238450D01*
X160818Y240300D01*
X162400D01*
G01X155968Y223864D02*
Y227364D01*
X158468Y229864D01*
X158968D01*
G01X150349Y260014D02*
Y243234D01*
G01X156263Y240627D02*
X157394Y241758D01*
Y245515D01*
X158224Y246345D01*
Y260014D01*
G01X136658Y243301D02*
X137569Y244212D01*
Y249514D01*
X134601Y252482D01*
Y260014D01*
G01X146412D02*
Y249671D01*
G01X154287Y260014D02*
Y248296D01*
X155569Y247014D01*
G01X140433Y245999D02*
X141131Y246697D01*
Y249152D01*
X138538Y251745D01*
Y260014D01*
G01X188018Y-1636D02*
X182468Y3914D01*
Y6804D01*
G01X189468D02*
X195409D01*
X195469Y6864D01*
G01X180968Y53864D02*
X181468Y53364D01*
Y49864D01*
G01X184868Y53764D02*
X185468Y53164D01*
Y49864D01*
G01X188018Y56265D02*
Y53738D01*
X190468Y51288D01*
Y38364D01*
G01D02*
X185468D01*
G01X178062Y89187D02*
X176152Y87277D01*
G01X166251Y93124D02*
X164341Y91214D01*
G01X170188Y89187D02*
X168278Y87277D01*
G01X181999Y93124D02*
X180089Y91214D01*
G01X181999Y89187D02*
X180089Y87277D01*
G01X178062Y93124D02*
X176152Y91214D01*
G01X174125Y89187D02*
X172215Y87277D01*
G01X174125Y93124D02*
X172215Y91214D01*
G01X166251Y89187D02*
X164341Y87277D01*
G01X170188Y93124D02*
X168278Y91214D01*
G01X178062Y124621D02*
X176152Y126530D01*
G01X174125Y112809D02*
X172215Y114719D01*
G01X170188Y112809D02*
X168278Y114719D01*
G01X166251Y112809D02*
X164341Y114719D01*
G01X170188Y116746D02*
X168278Y118656D01*
G01X166251Y116746D02*
X164341Y118656D01*
G01X166251Y120684D02*
X165218Y121717D01*
X165217D01*
X164341Y122593D01*
G01X170188Y120683D02*
X168278Y122593D01*
G01X174125Y120683D02*
X172215Y122593D01*
G01X174125Y116746D02*
X172215Y118656D01*
G01X178062Y120683D02*
X176152Y122593D01*
G01X181999Y120683D02*
X180089Y122593D01*
G01X189874Y120683D02*
X191784Y122593D01*
G01X185937Y120683D02*
X187847Y122593D01*
G01X174125Y124621D02*
X173373Y125373D01*
X173372D01*
X172215Y126530D01*
G01X185937Y124620D02*
X187847Y126530D01*
G01X189874Y100998D02*
X191784Y99088D01*
G01X187969D02*
X187847D01*
X185937Y100998D01*
G01X166251Y108872D02*
X164341Y106962D01*
G01X170188Y108872D02*
X168278Y106962D01*
G01X170188Y100998D02*
X168278Y99088D01*
G01X166251Y97061D02*
X164341Y95151D01*
G01X181999Y124620D02*
X180089Y126530D01*
G01X166251Y104935D02*
X164341Y103025D01*
G01X170188Y104935D02*
X168278Y103025D01*
G01X189874Y124620D02*
X191784Y126530D01*
G01X174125Y100998D02*
X172215Y99088D01*
G01X179969D02*
X180089D01*
X181999Y100998D01*
G01X166251D02*
X164341Y99088D01*
G01X174125Y104935D02*
X172215Y103025D01*
G01X178062Y97061D02*
X176152Y95151D01*
G01X174125Y97061D02*
X172215Y95151D01*
G01X185937Y97061D02*
X187847Y95151D01*
G01X178062Y100998D02*
X176152Y99088D01*
G01X174125Y108872D02*
X172215Y106962D01*
G01X170188Y97061D02*
X168278Y95151D01*
G01X181999Y97061D02*
X180089Y95151D01*
G01X189874Y128557D02*
X191784Y130467D01*
X191818D01*
X191850Y130499D01*
G01X185937Y128557D02*
X187847Y130467D01*
G01X181999Y128558D02*
X181279Y129278D01*
X181278D01*
X180089Y130467D01*
G01X178062Y128557D02*
X176152Y130467D01*
G01X174125Y128557D02*
X172215Y130467D01*
G01X170188Y128557D02*
X168278Y130467D01*
G01X166251Y128558D02*
X165405Y129404D01*
X165404D01*
X164341Y130467D01*
G01X166251Y132495D02*
X165373Y133373D01*
X165372D01*
X164341Y134404D01*
G01X170188Y132495D02*
X169342Y133341D01*
X169341D01*
X168278Y134404D01*
G01X174125Y132495D02*
X173310Y133310D01*
X173309D01*
X172215Y134404D01*
G01X178062Y132495D02*
X177279Y133278D01*
X177278D01*
X176152Y134404D01*
G01X181999Y132495D02*
X181247Y133247D01*
X181246D01*
X180089Y134404D01*
G01X185937Y132494D02*
X187847Y134404D01*
G01X189874Y132494D02*
X191784Y134404D01*
G01X181705Y191837D02*
Y183825D01*
X180880Y183000D01*
Y180884D01*
G01X183673Y191837D02*
Y180000D01*
X183169Y179496D01*
Y176914D01*
G01X187611Y191837D02*
Y177972D01*
X188408Y177175D01*
G01X189579Y191837D02*
Y182253D01*
X190968Y180864D01*
G01X180622Y198826D02*
X177200D01*
G01X187611Y201877D02*
Y210115D01*
X189862Y212366D01*
Y215643D01*
G01X185642Y201877D02*
Y212022D01*
X186120Y212500D01*
Y214714D01*
G01X183673Y201877D02*
Y214659D01*
X181968Y216364D01*
G01X190662Y194888D02*
X198895D01*
X204469Y189314D01*
Y187514D01*
G01X190662Y196857D02*
X201685D01*
X204728Y193814D01*
G01X189468Y230864D02*
Y227414D01*
G01X165968Y229864D02*
X169968D01*
G01X165968Y235864D02*
Y240300D01*
G01D02*
X164011Y242257D01*
Y249101D01*
X166098Y251188D01*
Y260014D01*
G01X189468Y236864D02*
Y239268D01*
X190600Y240400D01*
Y240700D01*
G01D02*
X193657Y243757D01*
Y260014D01*
G01X185783D02*
Y249280D01*
X187859Y247204D01*
G01X173972Y260014D02*
Y248083D01*
X171989Y246100D01*
G01X177909Y260014D02*
Y251074D01*
X179269Y249714D01*
G01X212968Y-5136D02*
Y-1786D01*
G01X200468Y6864D02*
Y-2485D01*
G01X224668Y2864D02*
X220968D01*
X216968Y-1136D01*
Y-5136D01*
G01X218469Y-8136D02*
X218319D01*
X216968Y-6785D01*
Y-5136D01*
G01X195469Y6864D02*
X200468D01*
G01X226400Y15700D02*
X225686Y16414D01*
X214518D01*
X213468Y15364D01*
X210968D01*
G01D02*
Y11364D01*
G01X226569Y19100D02*
X226105Y19564D01*
X211168D01*
X210968Y19364D01*
G01Y23364D02*
Y19364D01*
G01Y27364D02*
Y31364D01*
G01X226968Y22714D02*
X218486D01*
X213836Y27364D01*
X210968D01*
G01X200468Y12864D02*
Y13807D01*
X200393Y13882D01*
Y16364D01*
G01X221528Y62364D02*
Y69364D01*
G01X224969Y46814D02*
X221528Y50255D01*
Y55364D01*
G01X197468Y53864D02*
Y49864D01*
G01X199968Y38364D02*
X194468D01*
G01D02*
Y40307D01*
X192900Y41875D01*
Y52320D01*
X194242Y53662D01*
Y56739D01*
G01X199658Y87277D02*
X199506D01*
X197748Y89035D01*
Y89187D01*
G01X193811Y93124D02*
X195721Y91214D01*
G01X193811Y89187D02*
X195650Y87348D01*
G01X197748Y93124D02*
Y92535D01*
X199069Y91214D01*
X199658D01*
G01X210069Y87177D02*
X207606D01*
X205622Y89161D01*
Y89187D01*
G01X207532Y91214D02*
X207469D01*
X205622Y93061D01*
Y93124D01*
G01X203595Y87277D02*
Y87388D01*
X201796Y89187D01*
X201685D01*
G01Y93124D02*
X203595Y91214D01*
G01X193811Y112809D02*
X195721Y114719D01*
G01X197748Y112809D02*
X199658Y114719D01*
G01X201685Y112809D02*
X203595Y114719D01*
G01X205622Y112809D02*
X207532Y114719D01*
G01X205622Y116747D02*
X206687Y117812D01*
X206688D01*
X207532Y118656D01*
G01X193811Y116746D02*
X195721Y118656D01*
G01X197748Y116746D02*
X199658Y118656D01*
G01X201685Y116746D02*
X203595Y118656D01*
G01X205622Y120683D02*
X207532Y122593D01*
G01X201685Y120683D02*
X203595Y122593D01*
G01X197748Y120684D02*
X198781Y121717D01*
X198782D01*
X199658Y122593D01*
G01X193811Y120684D02*
X194813Y121686D01*
X194814D01*
X195721Y122593D01*
G01X201685Y97061D02*
X203595Y95151D01*
G01X201685Y100998D02*
X203595Y99088D01*
G01X197748Y97061D02*
X199658Y95151D01*
G01X193811Y100998D02*
X195721Y99088D01*
G01X197748Y108872D02*
X199658Y106962D01*
G01X205622Y108872D02*
X207532Y106962D01*
G01X193811Y97061D02*
X195721Y95151D01*
G01X193811Y104935D02*
X195721Y103025D01*
G01X201685Y104935D02*
X203595Y103025D01*
G01X193811Y108872D02*
X195721Y106962D01*
G01X201685Y108872D02*
X203595Y106962D01*
G01X197748Y104935D02*
X199658Y103025D01*
G01X197748Y124620D02*
X199658Y126530D01*
G01X197748Y100998D02*
X199658Y99088D01*
G01X222021Y101613D02*
X221406Y100998D01*
X205622D01*
G01X201685Y124620D02*
X203595Y126530D01*
G01X193811Y124620D02*
X195721Y126530D01*
G01X205622Y128558D02*
X207031Y129967D01*
X207032D01*
X207979Y130914D01*
X212069D01*
G01X197748Y128557D02*
X199658Y130467D01*
G01X201685Y128557D02*
X203595Y130467D01*
G01X193811Y128557D02*
X195721Y130467D01*
G01X193811Y132494D02*
X195721Y134404D01*
G01X197748Y132494D02*
X199658Y134404D01*
G01X201685Y132494D02*
X203595Y134404D01*
G01X222543Y143439D02*
X220900Y141796D01*
Y135745D01*
X218244Y133089D01*
X206216D01*
X205622Y132495D01*
G01X222543Y143439D02*
X222968Y143864D01*
X230668D01*
G01X222365Y172894D02*
Y164610D01*
X221569Y163814D01*
G01X218746Y161744D02*
Y161958D01*
X217365Y163339D01*
Y172894D01*
G01X201136Y205386D02*
X210291D01*
X211500Y204177D01*
X216224D01*
G01X207200Y240614D02*
Y243300D01*
X205468Y245032D01*
Y260014D01*
G01X201531D02*
Y244469D01*
X203468Y242532D01*
Y240600D01*
G01X198268Y240682D02*
Y243000D01*
X197594Y243674D01*
Y260014D01*
G01X198268Y240682D02*
Y238664D01*
X196468Y236864D01*
G01Y230864D02*
Y227532D01*
X198000Y226000D01*
Y219810D01*
X193552Y215362D01*
G01X221669Y239730D02*
X222609Y240670D01*
Y249867D01*
X221216Y251260D01*
Y260014D01*
G01X210968Y230864D02*
Y227364D01*
G01X203468Y230864D02*
Y227364D01*
G01X210968Y236864D02*
X210950D01*
X207200Y240614D01*
G01X203468Y240600D02*
Y236864D01*
G01X218959Y245847D02*
Y246337D01*
X218769Y246527D01*
Y248544D01*
X217279Y250034D01*
Y260014D01*
G01X211167Y245914D02*
X213342Y248089D01*
Y260014D01*
G01X233268Y-1136D02*
Y2164D01*
G01X238245Y-1353D02*
X233485D01*
X233268Y-1136D01*
G01X243546Y-108D02*
X239490D01*
X238245Y-1353D01*
G01X247832Y21664D02*
Y25864D01*
X247984Y26016D01*
G01X247932Y40064D02*
Y35268D01*
X248100Y35100D01*
G01X238582Y74928D02*
X233528Y67874D01*
Y62364D01*
G01X226900Y39500D02*
X231900Y44500D01*
X231928D01*
X233528Y46100D01*
Y55364D01*
G01X230668Y123864D02*
Y120913D01*
X227650Y117895D01*
X225192D01*
G01X251448Y131403D02*
X249597D01*
X247136Y133864D01*
X243268D01*
G01X254468Y158864D02*
Y155714D01*
X252618Y153864D01*
X243268D01*
G01X232365Y172894D02*
Y163314D01*
G01X252365Y172894D02*
Y165661D01*
X252018Y165314D01*
Y163364D01*
G01D02*
X254968D01*
G01X237289Y162984D02*
Y163690D01*
X237234Y163745D01*
Y166415D01*
X237365Y166546D01*
Y172894D01*
G01X225931Y154744D02*
X227643Y156456D01*
Y165732D01*
X227365Y166010D01*
Y172894D01*
G01X247365D02*
Y164814D01*
G01X242365Y172894D02*
Y160110D01*
X241369Y159114D01*
Y158914D01*
G01X254968Y196364D02*
X254588D01*
X251968Y193744D01*
G01D02*
X252365Y193347D01*
Y186394D01*
G01X247365D02*
Y194364D01*
G01X232368Y210914D02*
X233499Y209783D01*
Y198414D01*
X232365Y197280D01*
Y186394D01*
G01X237454Y212014D02*
Y201046D01*
X242365Y196135D01*
Y186394D01*
G01X227365D02*
Y194022D01*
X225426Y195961D01*
X225153D01*
G01X237365Y186394D02*
Y194364D01*
G01X243468Y229864D02*
X247218Y226114D01*
X260969D01*
X263539Y228684D01*
Y237961D01*
X262436Y239064D01*
Y249775D01*
X264523Y251862D01*
Y260014D01*
G01X225153D02*
X224968Y259829D01*
Y240414D01*
G01D02*
Y235864D01*
G01X235600Y236800D02*
X233600D01*
X231294Y239106D01*
Y248363D01*
X233027Y250096D01*
Y260014D01*
G01X256649D02*
Y251024D01*
X255432Y249807D01*
Y240839D01*
X252469Y237876D01*
Y233514D01*
G01X224968Y229864D02*
Y225864D01*
G01X252712Y260014D02*
Y252249D01*
X251782Y251319D01*
Y245610D01*
X246464Y240292D01*
Y236759D01*
G01X234722Y239982D02*
X233700Y241004D01*
Y247455D01*
X236964Y250719D01*
Y260014D01*
G01X242997Y236276D02*
X243095Y236374D01*
Y239540D01*
X248775Y245220D01*
Y260014D01*
G01X238669Y239814D02*
X238933D01*
X240901Y241782D01*
Y260014D01*
G01X229090D02*
Y250993D01*
X229969Y250114D01*
G01X244838Y260014D02*
Y251045D01*
X245969Y249914D01*
G01X257365Y186394D02*
X262069D01*
G01X277569Y213214D02*
Y239041D01*
X280271Y241743D01*
Y260014D01*
G01X281468Y236364D02*
Y239864D01*
G01X279969Y225714D02*
X281468Y227213D01*
Y230364D01*
G01X273674Y219797D02*
X275719Y221842D01*
Y239892D01*
X278421Y242594D01*
Y249315D01*
X276334Y251402D01*
Y260014D01*
G01X256968Y229864D02*
X260968D01*
G01X261364Y235864D02*
Y237519D01*
X259082Y239801D01*
Y248295D01*
X260586Y249799D01*
Y260014D01*
G01X256968Y235864D02*
X261364D01*
G01X283715Y204644D02*
Y219644D01*
G01X293468Y230364D02*
X287468D01*
G01D02*
Y226864D01*
G01X299468Y230364D02*
X305468D01*
G01D02*
X309468D01*
G01X305468Y236364D02*
X299468D01*
G01D02*
Y239814D01*
G01X293468Y236364D02*
X287468D01*
G01D02*
Y239864D01*
G01X283715Y219644D02*
Y225714D01*
G01X314215Y219644D02*
Y228835D01*
X310411Y232639D01*
X310244D01*
X308869Y234014D01*
G01X284208Y260014D02*
Y249513D01*
X282928Y248233D01*
Y242833D01*
X282946Y242815D01*
G01X292082Y260014D02*
Y243601D01*
X294669Y241014D01*
G01X303893Y260014D02*
Y248066D01*
X306945Y245014D01*
X308169D01*
G01X314215Y204644D02*
Y219644D01*
G54D25*
X39196Y29691D03*
G54D34*
X110468Y53364D03*
Y48364D03*
Y43364D03*
Y38364D03*
X132468D03*
Y43364D03*
Y48364D03*
Y53364D03*
G54D16*
X-10532Y96974D03*
Y110754D03*
G54D43*
X212365Y186394D03*
X217365D03*
X222365D03*
Y172894D03*
X217365D03*
X212365D03*
X227365Y186394D03*
X232365D03*
X237365D03*
X242365D03*
X247365D03*
X252365D03*
Y172894D03*
X247365D03*
X242365D03*
X237365D03*
X232365D03*
X227365D03*
X257365Y186394D03*
Y172894D03*
G54D53*
G01X162314Y120684D02*
Y120683D01*
G01Y116747D02*
Y116746D01*
G01Y112810D02*
Y112809D01*
G01X181999Y112810D02*
Y112809D01*
G01X174125Y112810D02*
Y112809D01*
G01X170188Y112810D02*
Y112809D01*
G01X166251Y112810D02*
Y112809D01*
G01X170188Y116747D02*
Y116746D01*
G01X166251Y116747D02*
Y116746D01*
G01X170188Y120684D02*
Y120683D01*
G01X174125Y120684D02*
Y120683D01*
G01Y116747D02*
Y116746D01*
G01X178062Y116747D02*
Y116746D01*
G01Y120684D02*
Y120683D01*
G01X181999Y120684D02*
Y120683D01*
G01X189874Y120684D02*
Y120683D01*
G01X185937Y120684D02*
Y120683D01*
G01Y124621D02*
Y124620D01*
G01X181999Y124621D02*
Y124620D01*
G01X189874Y124621D02*
Y124620D01*
G01Y128558D02*
Y128557D01*
G01X185937Y128558D02*
Y128557D01*
G01X178062Y128558D02*
Y128557D01*
G01X174125Y128558D02*
Y128557D01*
G01X170188Y128558D02*
Y128557D01*
G01X185937Y132495D02*
Y132494D01*
G01X189874Y132495D02*
Y132494D01*
G01X193811Y112810D02*
Y112809D01*
G01X197748Y112810D02*
Y112809D01*
G01X201685Y112810D02*
Y112809D01*
G01X205622Y112810D02*
Y112809D01*
G01X193811Y116747D02*
Y116746D01*
G01X197748Y116747D02*
Y116746D01*
G01X201685Y116747D02*
Y116746D01*
G01X205622Y120684D02*
Y120683D01*
G01X201685Y120684D02*
Y120683D01*
G01X205622Y124621D02*
Y124620D01*
G01X197748Y124621D02*
Y124620D01*
G01X201685Y124621D02*
Y124620D01*
G01X193811Y124621D02*
Y124620D01*
G01X197748Y128558D02*
Y128557D01*
G01X201685Y128558D02*
Y128557D01*
G01X193811Y128558D02*
Y128557D01*
G01Y132495D02*
Y132494D01*
G01X197748Y132495D02*
Y132494D01*
G01X201685Y132495D02*
Y132494D01*
G54D26*
X38968Y53214D03*
Y45514D03*
G54D17*
X12638Y92624D03*
Y100104D03*
X30534Y28904D03*
Y36384D03*
X39196D03*
X21298Y96364D03*
G54D35*
X149768Y51864D03*
X142168D03*
X210768Y56364D03*
X203168D03*
X262768Y138364D03*
X255168D03*
G36*
G01X293115Y34544D02*
Y38044D01*
G02X303115I5000J0D01*
G01Y34544D01*
X315137D01*
Y34444D01*
X327615D01*
Y48044D01*
X268615D01*
Y24861D01*
Y21044D01*
X272432D01*
X280479D01*
X327615D01*
Y34344D01*
X315038D01*
Y34444D01*
X303115D01*
Y31044D01*
G02X293115I-5000J0D01*
G01Y34544D01*
G37*
G36*
G01Y69344D02*
Y72844D01*
G02X303115I5000J0D01*
G01Y69344D01*
X315137D01*
Y69244D01*
X327615D01*
Y82844D01*
X268615D01*
Y59661D01*
Y55844D01*
X272432D01*
X280479D01*
X327615D01*
Y69144D01*
X315038D01*
Y69244D01*
X303115D01*
Y65844D01*
G02X293115I-5000J0D01*
G01Y69344D01*
G37*
G36*
G01Y103844D02*
Y107344D01*
G02X303115I5000J0D01*
G01Y103844D01*
X315137D01*
Y103744D01*
X327615D01*
Y117344D01*
X268615D01*
Y94161D01*
Y90344D01*
X272432D01*
X280479D01*
X327615D01*
Y103644D01*
X315038D01*
Y103744D01*
X303115D01*
Y100344D01*
G02X293115I-5000J0D01*
G01Y103844D01*
G37*
G36*
G01Y138344D02*
Y141844D01*
G02X303115I5000J0D01*
G01Y138344D01*
X315137D01*
Y138244D01*
X327615D01*
Y151844D01*
X268615D01*
Y128661D01*
Y124844D01*
X272432D01*
X280479D01*
X327615D01*
Y138144D01*
X315038D01*
Y138244D01*
X303115D01*
Y134844D01*
G02X293115I-5000J0D01*
G01Y138344D01*
G37*
G54D54*
G01X274368Y244264D02*
Y272164D01*
X276368Y274164D01*
X315668D01*
X317668Y272164D01*
Y235264D01*
X319668Y233264D01*
X329468D01*
Y-2336D01*
X319668D01*
X317668Y-4336D01*
Y-41236D01*
X315668Y-43236D01*
X40068D01*
X38068Y-41236D01*
Y-13336D01*
G03X30268I-3900J0D01*
G01Y-41236D01*
X28268Y-43236D01*
X-11032D01*
X-13032Y-41236D01*
Y-4336D01*
X-15032Y-2336D01*
X-24832D01*
Y233264D01*
X-15032D01*
X-13032Y235264D01*
Y272164D01*
X-11032Y274164D01*
X264568D01*
X266568Y272164D01*
Y244264D01*
G03X274368I3900J0D01*
G54D27*
X32968Y108864D03*
X93468Y40364D03*
X78468Y87364D03*
X115914Y216864D03*
X128968D03*
X136669Y93229D03*
X145468Y216864D03*
X182968Y222364D03*
X271468Y9164D03*
X285468Y178364D03*
X269968Y213364D03*
G54D18*
G01X55927Y246414D02*
Y248542D01*
X55861Y248608D01*
Y250400D01*
G01D02*
Y260014D01*
G01X258968Y163364D02*
X261968D01*
G01X257365Y172894D02*
X261438D01*
G01X258968Y196364D02*
X262019D01*
X262669Y195714D01*
G01X293715Y204644D02*
Y198117D01*
G01Y219644D02*
Y225594D01*
G01X324215Y204644D02*
Y202544D01*
X319807Y198136D01*
G01X320088Y225903D02*
X324215Y221776D01*
Y219644D01*
X-3332Y96964D03*
X668D03*
X8968Y146364D03*
X4968D03*
X8968Y154364D03*
X4968D03*
X8968Y162364D03*
X4968D03*
X8968Y170364D03*
X4968D03*
X59668Y152064D03*
X63668D03*
X124968Y234864D03*
X128968D03*
X190468Y34364D03*
X181468Y45864D03*
Y49864D03*
X185468Y45864D03*
Y49864D03*
X190468Y38364D03*
X212968Y-5136D03*
X216968D03*
X195469Y10864D03*
Y6864D03*
X194468Y34364D03*
X206968Y15364D03*
X210968D03*
Y11364D03*
X206968D03*
X210968Y23364D03*
X206968D03*
Y19364D03*
X210968D03*
X206968Y31364D03*
X210968D03*
Y27364D03*
X206968D03*
X194468Y38364D03*
X197468Y45864D03*
Y49864D03*
X238245Y-5353D03*
Y-1353D03*
X258968Y163364D03*
X254968D03*
X258968Y196364D03*
X254968D03*
G54D36*
X162314Y93124D03*
Y89187D03*
Y124621D03*
Y120684D03*
Y116747D03*
Y112810D03*
Y108872D03*
Y104935D03*
Y100998D03*
Y97061D03*
Y132495D03*
Y128558D03*
X189874Y93124D03*
Y89187D03*
X185937Y93124D03*
Y89187D03*
X181999Y93124D03*
Y89187D03*
X178062Y93124D03*
Y89187D03*
X174125Y93124D03*
Y89187D03*
X170188Y93124D03*
Y89187D03*
X166251Y93124D03*
Y89187D03*
X189874Y124621D03*
Y120684D03*
Y116747D03*
Y112810D03*
Y108872D03*
Y104935D03*
Y100998D03*
Y97061D03*
X185937Y124621D03*
Y120684D03*
Y116747D03*
Y112810D03*
Y108872D03*
Y104935D03*
Y100998D03*
Y97061D03*
X181999Y124621D03*
Y120684D03*
Y116747D03*
Y112810D03*
Y108872D03*
Y104935D03*
Y100998D03*
Y97061D03*
X178062Y124621D03*
Y120684D03*
Y116747D03*
Y112810D03*
Y108872D03*
Y104935D03*
Y100998D03*
Y97061D03*
X174125Y124621D03*
Y120684D03*
Y116747D03*
Y112810D03*
Y108872D03*
Y104935D03*
Y100998D03*
Y97061D03*
X170188Y124621D03*
Y120684D03*
Y116747D03*
Y112810D03*
Y108872D03*
Y104935D03*
Y100998D03*
Y97061D03*
X166251Y124621D03*
Y120684D03*
Y116747D03*
Y112810D03*
Y108872D03*
Y104935D03*
Y100998D03*
Y97061D03*
X189874Y132495D03*
Y128558D03*
X185937Y132495D03*
Y128558D03*
X181999Y132495D03*
Y128558D03*
X178062Y132495D03*
Y128558D03*
X174125Y132495D03*
Y128558D03*
X170188Y132495D03*
Y128558D03*
X166251Y132495D03*
Y128558D03*
X205622Y93124D03*
Y89187D03*
X201685Y93124D03*
Y89187D03*
X197748Y93124D03*
Y89187D03*
X193811Y93124D03*
Y89187D03*
X205622Y124621D03*
Y120684D03*
Y116747D03*
Y112810D03*
Y108872D03*
Y104935D03*
Y100998D03*
Y97061D03*
X201685Y124621D03*
Y120684D03*
Y116747D03*
Y112810D03*
Y108872D03*
Y104935D03*
Y100998D03*
Y97061D03*
X197748Y124621D03*
Y120684D03*
Y116747D03*
Y112810D03*
Y108872D03*
Y104935D03*
Y100998D03*
Y97061D03*
X193811Y124621D03*
Y120684D03*
Y116747D03*
Y112810D03*
Y108872D03*
Y104935D03*
Y100998D03*
Y97061D03*
X205622Y132495D03*
Y128558D03*
X201685Y132495D03*
Y128558D03*
X197748Y132495D03*
Y128558D03*
X193811Y132495D03*
Y128558D03*
G54D45*
X230668Y123864D03*
X243268Y153864D03*
X230668Y143864D03*
X243268Y133864D03*
G54D55*
G01X-35120Y-186247D02*
Y-179947D01*
X-38018Y-184462D01*
X-34102D01*
G01X-23460Y-186247D02*
X-24087Y-186142D01*
X-24635Y-185722D01*
X-25105Y-185092D01*
X-25418Y-184357D01*
X-25575Y-183517D01*
Y-182677D01*
X-25418Y-181837D01*
X-25105Y-181102D01*
X-24635Y-180472D01*
X-24087Y-180052D01*
X-23460Y-179947D01*
X-22833Y-180052D01*
X-22285Y-180472D01*
X-21815Y-181102D01*
X-21502Y-181837D01*
X-21345Y-182677D01*
Y-183517D01*
X-21502Y-184357D01*
X-21815Y-185092D01*
X-22285Y-185722D01*
X-22833Y-186142D01*
X-23460Y-186247D01*
G01X-18648D02*
Y-179947D01*
X-15672D01*
G01X-16768Y-182992D02*
X-18648D01*
G01X-4560Y-186247D02*
Y-179947D01*
X-5500Y-181207D01*
G01Y-186247D02*
X-3620D01*
G01X2680D02*
Y-179947D01*
X-218Y-184462D01*
X3698D01*
G01X-37505Y-102136D02*
Y-94636D01*
X-33959D01*
G01X-35265Y-98261D02*
X-37505D01*
G01X-30099Y-102136D02*
Y-94636D01*
X-27765D01*
X-27019Y-95011D01*
X-26552Y-95511D01*
X-26365Y-96511D01*
X-26552Y-97511D01*
X-27112Y-98136D01*
X-27765Y-98511D01*
X-30099D01*
G01X-27765D02*
X-26365Y-102136D01*
G01X-18865D02*
X-22599D01*
Y-94636D01*
X-18865D01*
G01X-20359Y-98261D02*
X-22599D01*
G01X-11365Y-102136D02*
X-15099D01*
Y-94636D01*
X-11365D01*
G01X-12859Y-98261D02*
X-15099D01*
G01X-7692Y-101136D02*
X-6945Y-101761D01*
X-6105Y-102136D01*
X-5359D01*
X-4612Y-101761D01*
X-4052Y-101136D01*
X-3772Y-100261D01*
X-3959Y-99386D01*
X-4425Y-98636D01*
X-5265Y-98136D01*
X-6385Y-97886D01*
X-7039Y-97386D01*
X-7319Y-96511D01*
X-7132Y-95636D01*
X-6665Y-95011D01*
X-6012Y-94636D01*
X-5359D01*
X-4705Y-94886D01*
X-4145Y-95511D01*
G01X3821Y-95261D02*
X3261Y-94886D01*
X2608Y-94636D01*
X1861D01*
X1021Y-95011D01*
X368Y-95636D01*
X-99Y-96386D01*
X-472Y-97636D01*
X-565Y-98761D01*
X-379Y-99886D01*
X-99Y-100636D01*
X461Y-101386D01*
X1115Y-101886D01*
X1768Y-102136D01*
X2421D01*
X3075Y-101886D01*
X3635Y-101511D01*
X4101Y-101011D01*
G01X6935Y-102136D02*
X9268Y-94636D01*
X11601Y-102136D01*
G01X10761Y-99511D02*
X7775D01*
G01X14901Y-94636D02*
Y-102136D01*
X18635D01*
G01X26135D02*
X22401D01*
Y-94636D01*
X26135D01*
G01X24641Y-98261D02*
X22401D01*
G01X37308Y-101136D02*
X38055Y-101761D01*
X38895Y-102136D01*
X39641D01*
X40388Y-101761D01*
X40948Y-101136D01*
X41228Y-100261D01*
X41041Y-99386D01*
X40575Y-98636D01*
X39735Y-98136D01*
X38615Y-97886D01*
X37961Y-97386D01*
X37681Y-96511D01*
X37868Y-95636D01*
X38335Y-95011D01*
X38988Y-94636D01*
X39641D01*
X40295Y-94886D01*
X40855Y-95511D01*
G01X48635Y-102136D02*
X44901D01*
Y-94636D01*
X48635D01*
G01X47141Y-98261D02*
X44901D01*
G01X51841Y-102136D02*
Y-94636D01*
X54268Y-100886D01*
X56695Y-94636D01*
Y-102136D01*
G01X60648Y-94636D02*
X62888D01*
G01X61768D02*
Y-102136D01*
G01X60648D02*
X62888D01*
G01X71321Y-95261D02*
X70761Y-94886D01*
X70108Y-94636D01*
X69361D01*
X68521Y-95011D01*
X67868Y-95636D01*
X67401Y-96386D01*
X67028Y-97636D01*
X66935Y-98761D01*
X67121Y-99886D01*
X67401Y-100636D01*
X67961Y-101386D01*
X68615Y-101886D01*
X69268Y-102136D01*
X69921D01*
X70575Y-101886D01*
X71135Y-101511D01*
X71601Y-101011D01*
G01X76768Y-102136D02*
X76021Y-102011D01*
X75368Y-101511D01*
X74808Y-100761D01*
X74435Y-99886D01*
X74248Y-98886D01*
Y-97886D01*
X74435Y-96886D01*
X74808Y-96011D01*
X75368Y-95261D01*
X76021Y-94761D01*
X76768Y-94636D01*
X77515Y-94761D01*
X78168Y-95261D01*
X78728Y-96011D01*
X79101Y-96886D01*
X79288Y-97886D01*
Y-98886D01*
X79101Y-99886D01*
X78728Y-100761D01*
X78168Y-101511D01*
X77515Y-102011D01*
X76768Y-102136D01*
G01X82121D02*
Y-94636D01*
X86415Y-102136D01*
Y-94636D01*
G01X89715Y-102136D02*
Y-94636D01*
X91581D01*
X92328Y-95011D01*
X92888Y-95511D01*
X93355Y-96261D01*
X93728Y-97136D01*
X93821Y-98386D01*
X93728Y-99636D01*
X93355Y-100511D01*
X92888Y-101261D01*
X92328Y-101761D01*
X91581Y-102136D01*
X89715D01*
G01X97215Y-94636D02*
Y-100011D01*
X97588Y-101136D01*
X98335Y-101886D01*
X99268Y-102136D01*
X100201Y-101886D01*
X100948Y-101136D01*
X101321Y-100011D01*
Y-94636D01*
G01X108821Y-95261D02*
X108261Y-94886D01*
X107608Y-94636D01*
X106861D01*
X106021Y-95011D01*
X105368Y-95636D01*
X104901Y-96386D01*
X104528Y-97636D01*
X104435Y-98761D01*
X104621Y-99886D01*
X104901Y-100636D01*
X105461Y-101386D01*
X106115Y-101886D01*
X106768Y-102136D01*
X107421D01*
X108075Y-101886D01*
X108635Y-101511D01*
X109101Y-101011D01*
G01X114268Y-94636D02*
Y-102136D01*
G01X112121Y-94636D02*
X116415D01*
G01X121768Y-102136D02*
X121021Y-102011D01*
X120368Y-101511D01*
X119808Y-100761D01*
X119435Y-99886D01*
X119248Y-98886D01*
Y-97886D01*
X119435Y-96886D01*
X119808Y-96011D01*
X120368Y-95261D01*
X121021Y-94761D01*
X121768Y-94636D01*
X122515Y-94761D01*
X123168Y-95261D01*
X123728Y-96011D01*
X124101Y-96886D01*
X124288Y-97886D01*
Y-98886D01*
X124101Y-99886D01*
X123728Y-100761D01*
X123168Y-101511D01*
X122515Y-102011D01*
X121768Y-102136D01*
G01X127401D02*
Y-94636D01*
X129735D01*
X130481Y-95011D01*
X130948Y-95511D01*
X131135Y-96511D01*
X130948Y-97511D01*
X130388Y-98136D01*
X129735Y-98511D01*
X127401D01*
G01X129735D02*
X131135Y-102136D01*
G01X34873Y-186247D02*
Y-179947D01*
X36753D01*
X37380Y-180262D01*
X37850Y-180997D01*
X38007Y-181837D01*
X37850Y-182677D01*
X37458Y-183307D01*
X36753Y-183622D01*
X34873D01*
G01X41173Y-186247D02*
Y-179947D01*
X43132D01*
X43758Y-180262D01*
X44150Y-180682D01*
X44307Y-181522D01*
X44150Y-182362D01*
X43680Y-182887D01*
X43132Y-183202D01*
X41173D01*
G01X43132D02*
X44307Y-186247D01*
G01X48100Y-179947D02*
X49980D01*
G01X49040D02*
Y-186247D01*
G01X48100D02*
X49980D01*
G01X53303D02*
Y-179947D01*
X55340Y-185197D01*
X57377Y-179947D01*
Y-186247D01*
G01X59682D02*
X61640Y-179947D01*
X63598Y-186247D01*
G01X62893Y-184042D02*
X60387D01*
G01X66373Y-186247D02*
Y-179947D01*
X68332D01*
X68958Y-180262D01*
X69350Y-180682D01*
X69507Y-181522D01*
X69350Y-182362D01*
X68880Y-182887D01*
X68332Y-183202D01*
X66373D01*
G01X68332D02*
X69507Y-186247D01*
G01X74240D02*
Y-183412D01*
X72673Y-179947D01*
G01X75807D02*
X74240Y-183412D01*
G01X85195Y-185407D02*
X85822Y-185932D01*
X86527Y-186247D01*
X87153D01*
X87780Y-185932D01*
X88250Y-185407D01*
X88485Y-184672D01*
X88328Y-183937D01*
X87937Y-183307D01*
X87232Y-182887D01*
X86292Y-182677D01*
X85743Y-182257D01*
X85508Y-181522D01*
X85665Y-180787D01*
X86057Y-180262D01*
X86605Y-179947D01*
X87153D01*
X87702Y-180157D01*
X88172Y-180682D01*
G01X92200Y-179947D02*
X94080D01*
G01X93140D02*
Y-186247D01*
G01X92200D02*
X94080D01*
G01X97717D02*
Y-179947D01*
X99283D01*
X99910Y-180262D01*
X100380Y-180682D01*
X100772Y-181312D01*
X101085Y-182047D01*
X101163Y-183097D01*
X101085Y-184147D01*
X100772Y-184882D01*
X100380Y-185512D01*
X99910Y-185932D01*
X99283Y-186247D01*
X97717D01*
G01X107307D02*
X104173D01*
Y-179947D01*
X107307D01*
G01X106053Y-182992D02*
X104173D01*
G01X152173Y-147136D02*
X155463Y-140836D01*
G01X152173D02*
X155463Y-147136D01*
G01X222818Y-185136D02*
Y-178836D01*
X221878Y-180096D01*
G01Y-185136D02*
X223758D01*
G01X228961D02*
X229118Y-183771D01*
X229353Y-182616D01*
X229666Y-181566D01*
X230058Y-180411D01*
X230685Y-178836D01*
X227551D01*
G01X235418D02*
X234791Y-179046D01*
X234321Y-179571D01*
X234008Y-180201D01*
X233773Y-181041D01*
X233695Y-181986D01*
X233773Y-182931D01*
X234008Y-183771D01*
X234321Y-184401D01*
X234791Y-184926D01*
X235418Y-185136D01*
X236045Y-184926D01*
X236515Y-184401D01*
X236828Y-183771D01*
X237063Y-182931D01*
X237141Y-181986D01*
X237063Y-181041D01*
X236828Y-180201D01*
X236515Y-179571D01*
X236045Y-179046D01*
X235418Y-178836D01*
G01X240700Y-183036D02*
X242736D01*
G01X246530Y-179886D02*
X247000Y-179256D01*
X247548Y-178941D01*
X248175Y-178836D01*
X248958Y-179046D01*
X249506Y-179571D01*
X249663Y-180201D01*
X249585Y-180831D01*
X249271Y-181356D01*
X247705Y-182406D01*
X247000Y-183141D01*
X246530Y-184191D01*
X246373Y-185136D01*
X249663D01*
G01X254161D02*
X254318Y-183771D01*
X254553Y-182616D01*
X254866Y-181566D01*
X255258Y-180411D01*
X255885Y-178836D01*
X252751D01*
G01X259130Y-179886D02*
X259600Y-179256D01*
X260148Y-178941D01*
X260775Y-178836D01*
X261558Y-179046D01*
X262106Y-179571D01*
X262263Y-180201D01*
X262185Y-180831D01*
X261871Y-181356D01*
X260305Y-182406D01*
X259600Y-183141D01*
X259130Y-184191D01*
X258973Y-185136D01*
X262263D01*
G01X265586Y-184401D02*
X266135Y-184926D01*
X266761Y-185136D01*
X267388Y-184926D01*
X267936Y-184296D01*
X268328Y-183351D01*
X268485Y-182406D01*
Y-181251D01*
X268328Y-180306D01*
X267936Y-179466D01*
X267466Y-179046D01*
X266918Y-178836D01*
X266291Y-179046D01*
X265821Y-179466D01*
X265508Y-180096D01*
X265351Y-180936D01*
X265508Y-181671D01*
X265900Y-182406D01*
X266370Y-182826D01*
X266918Y-182931D01*
X267545Y-182721D01*
X268015Y-182196D01*
X268485Y-181251D01*
G01X273218Y-185136D02*
Y-178836D01*
X272278Y-180096D01*
G01Y-185136D02*
X274158D01*
G01X315751D02*
Y-178836D01*
X317710D01*
X318336Y-179151D01*
X318728Y-179571D01*
X318885Y-180411D01*
X318728Y-181251D01*
X318258Y-181776D01*
X317710Y-182091D01*
X315751D01*
G01X317710D02*
X318885Y-185136D01*
G01X325185D02*
X322051D01*
Y-178836D01*
X325185D01*
G01X323931Y-181881D02*
X322051D01*
G01X327960Y-178836D02*
X329918Y-185136D01*
X331876Y-178836D01*
G01X343145Y-181776D02*
X343458Y-181461D01*
X343693Y-180936D01*
X343850Y-180201D01*
X343693Y-179571D01*
X343380Y-179151D01*
X342831Y-178836D01*
X340716D01*
Y-185136D01*
X343301D01*
X343850Y-184716D01*
X344163Y-184086D01*
X344320Y-183351D01*
X344163Y-182616D01*
X343693Y-181986D01*
X343145Y-181776D01*
X340716D01*
G01X224818Y-105836D02*
Y-112136D01*
G01X223016Y-105836D02*
X226620D01*
G01X228768D02*
X229865Y-112136D01*
X231118Y-105836D01*
X232371Y-112136D01*
X233468Y-105836D01*
G01X235851Y-112136D02*
Y-105836D01*
X237810D01*
X238436Y-106151D01*
X238828Y-106571D01*
X238985Y-107411D01*
X238828Y-108251D01*
X238358Y-108776D01*
X237810Y-109091D01*
X235851D01*
G01X237810D02*
X238985Y-112136D01*
G01X242700Y-110036D02*
X244736D01*
G01X248295Y-112136D02*
Y-105836D01*
G01X251271D02*
X248295Y-109721D01*
G01X251741Y-112136D02*
X249626Y-107936D01*
G01X254830Y-109511D02*
X255378Y-108776D01*
X255848Y-108356D01*
X256475Y-108146D01*
X257023Y-108356D01*
X257415Y-108776D01*
X257728Y-109406D01*
X257806Y-110141D01*
X257728Y-110771D01*
X257415Y-111401D01*
X256945Y-111926D01*
X256396Y-112136D01*
X255770Y-111926D01*
X255221Y-111296D01*
X254908Y-110351D01*
X254830Y-109301D01*
X254986Y-107936D01*
X255221Y-107201D01*
X255613Y-106466D01*
X256161Y-105941D01*
X256710Y-105836D01*
X257258Y-106046D01*
X257650Y-106571D01*
G01X262618Y-105836D02*
X261991Y-106046D01*
X261521Y-106571D01*
X261208Y-107201D01*
X260973Y-108041D01*
X260895Y-108986D01*
X260973Y-109931D01*
X261208Y-110771D01*
X261521Y-111401D01*
X261991Y-111926D01*
X262618Y-112136D01*
X263245Y-111926D01*
X263715Y-111401D01*
X264028Y-110771D01*
X264263Y-109931D01*
X264341Y-108986D01*
X264263Y-108041D01*
X264028Y-107201D01*
X263715Y-106571D01*
X263245Y-106046D01*
X262618Y-105836D01*
G01X267195Y-112136D02*
Y-105836D01*
X268761D01*
X269388Y-106151D01*
X269858Y-106571D01*
X270250Y-107201D01*
X270563Y-107936D01*
X270641Y-108986D01*
X270563Y-110036D01*
X270250Y-110771D01*
X269858Y-111401D01*
X269388Y-111821D01*
X268761Y-112136D01*
X267195D01*
G01X275218D02*
Y-105836D01*
X274278Y-107096D01*
G01Y-112136D02*
X276158D01*
G01X281518Y-105836D02*
X280891Y-106046D01*
X280421Y-106571D01*
X280108Y-107201D01*
X279873Y-108041D01*
X279795Y-108986D01*
X279873Y-109931D01*
X280108Y-110771D01*
X280421Y-111401D01*
X280891Y-111926D01*
X281518Y-112136D01*
X282145Y-111926D01*
X282615Y-111401D01*
X282928Y-110771D01*
X283163Y-109931D01*
X283241Y-108986D01*
X283163Y-108041D01*
X282928Y-107201D01*
X282615Y-106571D01*
X282145Y-106046D01*
X281518Y-105836D01*
G01X287818D02*
X287191Y-106046D01*
X286721Y-106571D01*
X286408Y-107201D01*
X286173Y-108041D01*
X286095Y-108986D01*
X286173Y-109931D01*
X286408Y-110771D01*
X286721Y-111401D01*
X287191Y-111926D01*
X287818Y-112136D01*
X288445Y-111926D01*
X288915Y-111401D01*
X289228Y-110771D01*
X289463Y-109931D01*
X289541Y-108986D01*
X289463Y-108041D01*
X289228Y-107201D01*
X288915Y-106571D01*
X288445Y-106046D01*
X287818Y-105836D01*
G01X292081Y-112136D02*
Y-105836D01*
X294118Y-111086D01*
X296155Y-105836D01*
Y-112136D01*
G54D46*
X255311Y131864D03*
X260745D03*
G54D37*
X136775Y107387D03*
Y101953D03*
G54D19*
X-13432Y126264D03*
Y120264D03*
X158968Y235864D03*
Y229864D03*
X175968Y27364D03*
Y21364D03*
X185468Y32364D03*
Y38364D03*
X189468Y236864D03*
Y230864D03*
X165968Y235864D03*
Y229864D03*
X200468Y6864D03*
Y12864D03*
X199968Y32364D03*
Y38364D03*
X210968Y236864D03*
Y230864D03*
X203468Y236864D03*
Y230864D03*
X196468Y236864D03*
Y230864D03*
X224968Y235864D03*
Y229864D03*
X243546Y-6108D03*
Y-108D03*
X247832Y15664D03*
Y21664D03*
X247932Y46064D03*
Y40064D03*
X281468Y236364D03*
Y230364D03*
X256968Y229864D03*
Y235864D03*
X299468Y236364D03*
Y230364D03*
X293468Y236364D03*
Y230364D03*
X305468Y236364D03*
Y230364D03*
X287468Y236364D03*
Y230364D03*
G54D28*
X60468Y34364D03*
Y29364D03*
Y24364D03*
Y19364D03*
Y14364D03*
X76468Y34364D03*
Y24364D03*
Y19364D03*
Y14364D03*
X60468Y59364D03*
Y54364D03*
Y49364D03*
Y44364D03*
Y39364D03*
X76468Y59364D03*
Y54364D03*
Y49364D03*
Y44364D03*
Y39364D03*
G54D56*
G01X30534Y36384D02*
X29439D01*
X26569Y33514D01*
X23769D01*
X22174Y31919D01*
X15233D01*
X14358Y32794D01*
X10896D01*
G01X30534Y28904D02*
X29679D01*
X26469Y32114D01*
X24349D01*
X22754Y30519D01*
X15233D01*
X14358Y29644D01*
X10896D01*
G01X69619Y-4366D02*
X68569Y-3316D01*
Y2694D01*
X66077Y5186D01*
X56482D01*
X56478Y5190D01*
X54319Y7348D01*
Y7381D01*
X41486Y20214D01*
X39749D01*
X35246Y24717D01*
Y34137D01*
X32999Y36384D01*
X30534D01*
G01Y28904D02*
Y26949D01*
X38669Y18814D01*
X40869D01*
X55897Y3786D01*
X65497D01*
X67169Y2114D01*
Y-3316D01*
X66119Y-4366D01*
G01X189874Y89187D02*
X191784Y87277D01*
G01X189874Y93124D02*
X191784Y91214D01*
G54D29*
X66000Y89700D03*
Y97300D03*
G54D38*
X189468Y11924D03*
Y9364D03*
Y6804D03*
X182468D03*
Y9364D03*
Y11924D03*
G54D47*
X298165Y34544D03*
Y69344D03*
Y103844D03*
Y138344D03*
G54D57*
G01X-37001Y-177507D02*
X-36529Y-177900D01*
X-35998Y-178136D01*
X-35526D01*
X-35054Y-177900D01*
X-34700Y-177507D01*
X-34523Y-176956D01*
X-34641Y-176405D01*
X-34936Y-175933D01*
X-35467Y-175619D01*
X-36175Y-175461D01*
X-36588Y-175147D01*
X-36765Y-174596D01*
X-36647Y-174045D01*
X-36352Y-173652D01*
X-35939Y-173416D01*
X-35526D01*
X-35113Y-173573D01*
X-34759Y-173967D01*
G01X-32281Y-178136D02*
Y-173416D01*
G01X-29803D02*
Y-178136D01*
G01Y-175776D02*
X-32281D01*
G01X-25142Y-178136D02*
X-27502D01*
Y-173416D01*
X-25142D01*
G01X-26086Y-175697D02*
X-27502D01*
G01X-20422Y-178136D02*
X-22782D01*
Y-173416D01*
X-20422D01*
G01X-21366Y-175697D02*
X-22782D01*
G01X-16882Y-173416D02*
Y-178136D01*
G01X-18239Y-173416D02*
X-15525D01*
G01X-28883Y-167136D02*
Y-162416D01*
X-26641D01*
G01X-27467Y-164697D02*
X-28883D01*
G01X-24222Y-167136D02*
Y-162416D01*
X-22747D01*
X-22275Y-162652D01*
X-21980Y-162967D01*
X-21862Y-163596D01*
X-21980Y-164225D01*
X-22334Y-164619D01*
X-22747Y-164855D01*
X-24222D01*
G01X-22747D02*
X-21862Y-167136D01*
G01X-17142D02*
X-19502D01*
Y-162416D01*
X-17142D01*
G01X-18086Y-164697D02*
X-19502D01*
G01X-12422Y-167136D02*
X-14782D01*
Y-162416D01*
X-12422D01*
G01X-13366Y-164697D02*
X-14782D01*
G01X-10121Y-166507D02*
X-9649Y-166900D01*
X-9118Y-167136D01*
X-8646D01*
X-8174Y-166900D01*
X-7820Y-166507D01*
X-7643Y-165956D01*
X-7761Y-165405D01*
X-8056Y-164933D01*
X-8587Y-164619D01*
X-9295Y-164461D01*
X-9708Y-164147D01*
X-9885Y-163596D01*
X-9767Y-163045D01*
X-9472Y-162652D01*
X-9059Y-162416D01*
X-8646D01*
X-8233Y-162573D01*
X-7879Y-162967D01*
G01X-2864Y-162809D02*
X-3218Y-162573D01*
X-3631Y-162416D01*
X-4103D01*
X-4634Y-162652D01*
X-5047Y-163045D01*
X-5342Y-163517D01*
X-5578Y-164304D01*
X-5637Y-165012D01*
X-5519Y-165720D01*
X-5342Y-166192D01*
X-4988Y-166664D01*
X-4575Y-166979D01*
X-4162Y-167136D01*
X-3749D01*
X-3336Y-166979D01*
X-2982Y-166743D01*
X-2687Y-166428D01*
G01X-917Y-167136D02*
X558Y-162416D01*
X2033Y-167136D01*
G01X1502Y-165484D02*
X-386D01*
G01X4098Y-162416D02*
Y-167136D01*
X6458D01*
G01X11178D02*
X8818D01*
Y-162416D01*
X11178D01*
G01X10234Y-164697D02*
X8818D01*
G01X14718Y-167293D02*
X14600Y-167215D01*
Y-167057D01*
X14718Y-166979D01*
X14836Y-167057D01*
Y-167215D01*
X14718Y-167293D01*
G01X-28762Y-159136D02*
X-29234Y-159057D01*
X-29647Y-158743D01*
X-30001Y-158271D01*
X-30237Y-157720D01*
X-30355Y-157091D01*
Y-156461D01*
X-30237Y-155832D01*
X-30001Y-155281D01*
X-29647Y-154809D01*
X-29234Y-154495D01*
X-28762Y-154416D01*
X-28290Y-154495D01*
X-27877Y-154809D01*
X-27523Y-155281D01*
X-27287Y-155832D01*
X-27169Y-156461D01*
Y-157091D01*
X-27287Y-157720D01*
X-27523Y-158271D01*
X-27877Y-158743D01*
X-28290Y-159057D01*
X-28762Y-159136D01*
G01X-25222D02*
Y-154416D01*
X-23747D01*
X-23275Y-154652D01*
X-22980Y-154967D01*
X-22862Y-155596D01*
X-22980Y-156225D01*
X-23334Y-156619D01*
X-23747Y-156855D01*
X-25222D01*
G01X-23747D02*
X-22862Y-159136D01*
G01X-15310Y-154416D02*
X-13894D01*
G01X-14602D02*
Y-159136D01*
G01X-15310D02*
X-13894D01*
G01X-11239D02*
Y-154416D01*
X-8525Y-159136D01*
Y-154416D01*
G01X-1622Y-159136D02*
Y-154416D01*
X-206D01*
X266Y-154652D01*
X620Y-155203D01*
X738Y-155832D01*
X620Y-156461D01*
X325Y-156933D01*
X-206Y-157169D01*
X-1622D01*
G01X2803Y-159136D02*
X4278Y-154416D01*
X5753Y-159136D01*
G01X5222Y-157484D02*
X3334D01*
G01X7818Y-159136D02*
Y-154416D01*
X9293D01*
X9765Y-154652D01*
X10060Y-154967D01*
X10178Y-155596D01*
X10060Y-156225D01*
X9706Y-156619D01*
X9293Y-156855D01*
X7818D01*
G01X9293D02*
X10178Y-159136D01*
G01X13718Y-154416D02*
Y-159136D01*
G01X12361Y-154416D02*
X15075D01*
G01X21388D02*
X22214Y-159136D01*
X23158Y-154416D01*
X24102Y-159136D01*
X24928Y-154416D01*
G01X27170D02*
X28586D01*
G01X27878D02*
Y-159136D01*
G01X27170D02*
X28586D01*
G01X32598Y-154416D02*
Y-159136D01*
G01X31241Y-154416D02*
X33955D01*
G01X36079Y-159136D02*
Y-154416D01*
G01X38557D02*
Y-159136D01*
G01Y-156776D02*
X36079D01*
G01X42038Y-159136D02*
X41566Y-159057D01*
X41153Y-158743D01*
X40799Y-158271D01*
X40563Y-157720D01*
X40445Y-157091D01*
Y-156461D01*
X40563Y-155832D01*
X40799Y-155281D01*
X41153Y-154809D01*
X41566Y-154495D01*
X42038Y-154416D01*
X42510Y-154495D01*
X42923Y-154809D01*
X43277Y-155281D01*
X43513Y-155832D01*
X43631Y-156461D01*
Y-157091D01*
X43513Y-157720D01*
X43277Y-158271D01*
X42923Y-158743D01*
X42510Y-159057D01*
X42038Y-159136D01*
G01X45460Y-154416D02*
Y-157799D01*
X45696Y-158507D01*
X46168Y-158979D01*
X46758Y-159136D01*
X47348Y-158979D01*
X47820Y-158507D01*
X48056Y-157799D01*
Y-154416D01*
G01X51478D02*
Y-159136D01*
G01X50121Y-154416D02*
X52835D01*
G01X60918D02*
Y-159136D01*
G01X59561Y-154416D02*
X62275D01*
G01X64399Y-159136D02*
Y-154416D01*
G01X66877D02*
Y-159136D01*
G01Y-156776D02*
X64399D01*
G01X71538Y-159136D02*
X69178D01*
Y-154416D01*
X71538D01*
G01X70594Y-156697D02*
X69178D01*
G01X81096Y-154809D02*
X80742Y-154573D01*
X80329Y-154416D01*
X79857D01*
X79326Y-154652D01*
X78913Y-155045D01*
X78618Y-155517D01*
X78382Y-156304D01*
X78323Y-157012D01*
X78441Y-157720D01*
X78618Y-158192D01*
X78972Y-158664D01*
X79385Y-158979D01*
X79798Y-159136D01*
X80211D01*
X80624Y-158979D01*
X80978Y-158743D01*
X81273Y-158428D01*
G01X84518Y-159136D02*
X84046Y-159057D01*
X83633Y-158743D01*
X83279Y-158271D01*
X83043Y-157720D01*
X82925Y-157091D01*
Y-156461D01*
X83043Y-155832D01*
X83279Y-155281D01*
X83633Y-154809D01*
X84046Y-154495D01*
X84518Y-154416D01*
X84990Y-154495D01*
X85403Y-154809D01*
X85757Y-155281D01*
X85993Y-155832D01*
X86111Y-156461D01*
Y-157091D01*
X85993Y-157720D01*
X85757Y-158271D01*
X85403Y-158743D01*
X84990Y-159057D01*
X84518Y-159136D01*
G01X87881D02*
Y-154416D01*
X90595Y-159136D01*
Y-154416D01*
G01X92719Y-158507D02*
X93191Y-158900D01*
X93722Y-159136D01*
X94194D01*
X94666Y-158900D01*
X95020Y-158507D01*
X95197Y-157956D01*
X95079Y-157405D01*
X94784Y-156933D01*
X94253Y-156619D01*
X93545Y-156461D01*
X93132Y-156147D01*
X92955Y-155596D01*
X93073Y-155045D01*
X93368Y-154652D01*
X93781Y-154416D01*
X94194D01*
X94607Y-154573D01*
X94961Y-154967D01*
G01X99858Y-159136D02*
X97498D01*
Y-154416D01*
X99858D01*
G01X98914Y-156697D02*
X97498D01*
G01X102041Y-159136D02*
Y-154416D01*
X104755Y-159136D01*
Y-154416D01*
G01X108118D02*
Y-159136D01*
G01X106761Y-154416D02*
X109475D01*
G01X117558Y-159136D02*
X117086Y-159057D01*
X116673Y-158743D01*
X116319Y-158271D01*
X116083Y-157720D01*
X115965Y-157091D01*
Y-156461D01*
X116083Y-155832D01*
X116319Y-155281D01*
X116673Y-154809D01*
X117086Y-154495D01*
X117558Y-154416D01*
X118030Y-154495D01*
X118443Y-154809D01*
X118797Y-155281D01*
X119033Y-155832D01*
X119151Y-156461D01*
Y-157091D01*
X119033Y-157720D01*
X118797Y-158271D01*
X118443Y-158743D01*
X118030Y-159057D01*
X117558Y-159136D01*
G01X121157D02*
Y-154416D01*
X123399D01*
G01X122573Y-156697D02*
X121157D01*
G01X-29942Y-151136D02*
Y-146416D01*
X-28526D01*
X-28054Y-146652D01*
X-27700Y-147203D01*
X-27582Y-147832D01*
X-27700Y-148461D01*
X-27995Y-148933D01*
X-28526Y-149169D01*
X-29942D01*
G01X-25222Y-151136D02*
Y-146416D01*
X-23747D01*
X-23275Y-146652D01*
X-22980Y-146967D01*
X-22862Y-147596D01*
X-22980Y-148225D01*
X-23334Y-148619D01*
X-23747Y-148855D01*
X-25222D01*
G01X-23747D02*
X-22862Y-151136D01*
G01X-19322D02*
X-19794Y-151057D01*
X-20207Y-150743D01*
X-20561Y-150271D01*
X-20797Y-149720D01*
X-20915Y-149091D01*
Y-148461D01*
X-20797Y-147832D01*
X-20561Y-147281D01*
X-20207Y-146809D01*
X-19794Y-146495D01*
X-19322Y-146416D01*
X-18850Y-146495D01*
X-18437Y-146809D01*
X-18083Y-147281D01*
X-17847Y-147832D01*
X-17729Y-148461D01*
Y-149091D01*
X-17847Y-149720D01*
X-18083Y-150271D01*
X-18437Y-150743D01*
X-18850Y-151057D01*
X-19322Y-151136D01*
G01X-13304Y-146809D02*
X-13658Y-146573D01*
X-14071Y-146416D01*
X-14543D01*
X-15074Y-146652D01*
X-15487Y-147045D01*
X-15782Y-147517D01*
X-16018Y-148304D01*
X-16077Y-149012D01*
X-15959Y-149720D01*
X-15782Y-150192D01*
X-15428Y-150664D01*
X-15015Y-150979D01*
X-14602Y-151136D01*
X-14189D01*
X-13776Y-150979D01*
X-13422Y-150743D01*
X-13127Y-150428D01*
G01X-11180Y-146416D02*
Y-149799D01*
X-10944Y-150507D01*
X-10472Y-150979D01*
X-9882Y-151136D01*
X-9292Y-150979D01*
X-8820Y-150507D01*
X-8584Y-149799D01*
Y-146416D01*
G01X-6342Y-151136D02*
Y-146416D01*
X-4867D01*
X-4395Y-146652D01*
X-4100Y-146967D01*
X-3982Y-147596D01*
X-4100Y-148225D01*
X-4454Y-148619D01*
X-4867Y-148855D01*
X-6342D01*
G01X-4867D02*
X-3982Y-151136D01*
G01X738D02*
X-1622D01*
Y-146416D01*
X738D01*
G01X-206Y-148697D02*
X-1622D01*
G01X2744Y-151136D02*
Y-146416D01*
X4278Y-150349D01*
X5812Y-146416D01*
Y-151136D01*
G01X10178D02*
X7818D01*
Y-146416D01*
X10178D01*
G01X9234Y-148697D02*
X7818D01*
G01X12361Y-151136D02*
Y-146416D01*
X15075Y-151136D01*
Y-146416D01*
G01X18438D02*
Y-151136D01*
G01X17081Y-146416D02*
X19795D01*
G01X27878Y-151136D02*
X27406Y-151057D01*
X26993Y-150743D01*
X26639Y-150271D01*
X26403Y-149720D01*
X26285Y-149091D01*
Y-148461D01*
X26403Y-147832D01*
X26639Y-147281D01*
X26993Y-146809D01*
X27406Y-146495D01*
X27878Y-146416D01*
X28350Y-146495D01*
X28763Y-146809D01*
X29117Y-147281D01*
X29353Y-147832D01*
X29471Y-148461D01*
Y-149091D01*
X29353Y-149720D01*
X29117Y-150271D01*
X28763Y-150743D01*
X28350Y-151057D01*
X27878Y-151136D01*
G01X31418D02*
Y-146416D01*
X32893D01*
X33365Y-146652D01*
X33660Y-146967D01*
X33778Y-147596D01*
X33660Y-148225D01*
X33306Y-148619D01*
X32893Y-148855D01*
X31418D01*
G01X32893D02*
X33778Y-151136D01*
G01X40504D02*
Y-146416D01*
X42038Y-150349D01*
X43572Y-146416D01*
Y-151136D01*
G01X45283D02*
X46758Y-146416D01*
X48233Y-151136D01*
G01X47702Y-149484D02*
X45814D01*
G01X50121Y-151136D02*
Y-146416D01*
X52835Y-151136D01*
Y-146416D01*
G01X54900D02*
Y-149799D01*
X55136Y-150507D01*
X55608Y-150979D01*
X56198Y-151136D01*
X56788Y-150979D01*
X57260Y-150507D01*
X57496Y-149799D01*
Y-146416D01*
G01X59797Y-151136D02*
Y-146416D01*
X62039D01*
G01X61213Y-148697D02*
X59797D01*
G01X64163Y-151136D02*
X65638Y-146416D01*
X67113Y-151136D01*
G01X66582Y-149484D02*
X64694D01*
G01X71656Y-146809D02*
X71302Y-146573D01*
X70889Y-146416D01*
X70417D01*
X69886Y-146652D01*
X69473Y-147045D01*
X69178Y-147517D01*
X68942Y-148304D01*
X68883Y-149012D01*
X69001Y-149720D01*
X69178Y-150192D01*
X69532Y-150664D01*
X69945Y-150979D01*
X70358Y-151136D01*
X70771D01*
X71184Y-150979D01*
X71538Y-150743D01*
X71833Y-150428D01*
G01X75078Y-146416D02*
Y-151136D01*
G01X73721Y-146416D02*
X76435D01*
G01X78500D02*
Y-149799D01*
X78736Y-150507D01*
X79208Y-150979D01*
X79798Y-151136D01*
X80388Y-150979D01*
X80860Y-150507D01*
X81096Y-149799D01*
Y-146416D01*
G01X83338Y-151136D02*
Y-146416D01*
X84813D01*
X85285Y-146652D01*
X85580Y-146967D01*
X85698Y-147596D01*
X85580Y-148225D01*
X85226Y-148619D01*
X84813Y-148855D01*
X83338D01*
G01X84813D02*
X85698Y-151136D01*
G01X90418D02*
X88058D01*
Y-146416D01*
X90418D01*
G01X89474Y-148697D02*
X88058D01*
G01X97970Y-146416D02*
X99386D01*
G01X98678D02*
Y-151136D01*
G01X97970D02*
X99386D01*
G01X102041D02*
Y-146416D01*
X104755Y-151136D01*
Y-146416D01*
G01X111068D02*
X111894Y-151136D01*
X112838Y-146416D01*
X113782Y-151136D01*
X114608Y-146416D01*
G01X116319Y-151136D02*
Y-146416D01*
G01X118797D02*
Y-151136D01*
G01Y-148776D02*
X116319D01*
G01X122278Y-151136D02*
X121806Y-151057D01*
X121393Y-150743D01*
X121039Y-150271D01*
X120803Y-149720D01*
X120685Y-149091D01*
Y-148461D01*
X120803Y-147832D01*
X121039Y-147281D01*
X121393Y-146809D01*
X121806Y-146495D01*
X122278Y-146416D01*
X122750Y-146495D01*
X123163Y-146809D01*
X123517Y-147281D01*
X123753Y-147832D01*
X123871Y-148461D01*
Y-149091D01*
X123753Y-149720D01*
X123517Y-150271D01*
X123163Y-150743D01*
X122750Y-151057D01*
X122278Y-151136D01*
G01X125818Y-146416D02*
Y-151136D01*
X128178D01*
G01X132898D02*
X130538D01*
Y-146416D01*
X132898D01*
G01X131954Y-148697D02*
X130538D01*
G01X-37237Y-117136D02*
X-35762Y-112416D01*
X-34287Y-117136D01*
G01X-34818Y-115484D02*
X-36706D01*
G01X-32340Y-112416D02*
Y-115799D01*
X-32104Y-116507D01*
X-31632Y-116979D01*
X-31042Y-117136D01*
X-30452Y-116979D01*
X-29980Y-116507D01*
X-29744Y-115799D01*
Y-112416D01*
G01X-27561Y-116507D02*
X-27089Y-116900D01*
X-26558Y-117136D01*
X-26086D01*
X-25614Y-116900D01*
X-25260Y-116507D01*
X-25083Y-115956D01*
X-25201Y-115405D01*
X-25496Y-114933D01*
X-26027Y-114619D01*
X-26735Y-114461D01*
X-27148Y-114147D01*
X-27325Y-113596D01*
X-27207Y-113045D01*
X-26912Y-112652D01*
X-26499Y-112416D01*
X-26086D01*
X-25673Y-112573D01*
X-25319Y-112967D01*
G01X-21602Y-112416D02*
Y-117136D01*
G01X-22959Y-112416D02*
X-20245D01*
G01X-17590D02*
X-16174D01*
G01X-16882D02*
Y-117136D01*
G01X-17590D02*
X-16174D01*
G01X-13519D02*
Y-112416D01*
X-10805Y-117136D01*
Y-112416D01*
G01X-7442Y-117293D02*
X-7560Y-117215D01*
Y-117057D01*
X-7442Y-116979D01*
X-7324Y-117057D01*
Y-117215D01*
X-7442Y-117293D01*
G01X1998Y-112416D02*
Y-117136D01*
G01X641Y-112416D02*
X3355D01*
G01X7898Y-117136D02*
X5538D01*
Y-112416D01*
X7898D01*
G01X6954Y-114697D02*
X5538D01*
G01X10199Y-117136D02*
X12677Y-112416D01*
G01X10199D02*
X12677Y-117136D01*
G01X14683D02*
X16158Y-112416D01*
X17633Y-117136D01*
G01X17102Y-115484D02*
X15214D01*
G01X19639Y-116507D02*
X20111Y-116900D01*
X20642Y-117136D01*
X21114D01*
X21586Y-116900D01*
X21940Y-116507D01*
X22117Y-115956D01*
X21999Y-115405D01*
X21704Y-114933D01*
X21173Y-114619D01*
X20465Y-114461D01*
X20052Y-114147D01*
X19875Y-113596D01*
X19993Y-113045D01*
X20288Y-112652D01*
X20701Y-112416D01*
X21114D01*
X21527Y-112573D01*
X21881Y-112967D01*
G01X30200Y-117136D02*
X30318Y-116113D01*
X30495Y-115248D01*
X30731Y-114461D01*
X31026Y-113596D01*
X31498Y-112416D01*
X29138D01*
G01X35038Y-117136D02*
X35451Y-117057D01*
X35923Y-116821D01*
X36218Y-116428D01*
X36336Y-115877D01*
X36218Y-115327D01*
X35864Y-114855D01*
X35333Y-114619D01*
X34743D01*
X34389Y-114461D01*
X34094Y-114068D01*
X33976Y-113517D01*
X34153Y-112967D01*
X34566Y-112573D01*
X35038Y-112416D01*
X35510Y-112573D01*
X35923Y-112967D01*
X36100Y-113517D01*
X35982Y-114068D01*
X35687Y-114461D01*
X35333Y-114619D01*
X34743D01*
X34212Y-114855D01*
X33858Y-115327D01*
X33740Y-115877D01*
X33858Y-116428D01*
X34153Y-116821D01*
X34625Y-117057D01*
X35038Y-117136D01*
G01X39640D02*
X39758Y-116113D01*
X39935Y-115248D01*
X40171Y-114461D01*
X40466Y-113596D01*
X40938Y-112416D01*
X38578D01*
G01X43180Y-116192D02*
X43534Y-116743D01*
X44006Y-117057D01*
X44537Y-117136D01*
X45009Y-117057D01*
X45481Y-116664D01*
X45776Y-116192D01*
X45835Y-115720D01*
X45717Y-115169D01*
X45304Y-114776D01*
X44891Y-114619D01*
X44360D01*
G01X44891D02*
X45245Y-114383D01*
X45540Y-113989D01*
X45658Y-113517D01*
X45540Y-113045D01*
X45245Y-112652D01*
X44714Y-112416D01*
X44183Y-112495D01*
X43652Y-112809D01*
G01X47900Y-116428D02*
X48254Y-116821D01*
X48667Y-117057D01*
X49198Y-117136D01*
X49729Y-116979D01*
X50142Y-116664D01*
X50437Y-116113D01*
X50496Y-115484D01*
X50378Y-114855D01*
X50083Y-114461D01*
X49670Y-114147D01*
X49257Y-114068D01*
X48844Y-114147D01*
X48313Y-114461D01*
X48490Y-112416D01*
X50083D01*
G01X57340D02*
Y-115799D01*
X57576Y-116507D01*
X58048Y-116979D01*
X58638Y-117136D01*
X59228Y-116979D01*
X59700Y-116507D01*
X59936Y-115799D01*
Y-112416D01*
G01X62119Y-116507D02*
X62591Y-116900D01*
X63122Y-117136D01*
X63594D01*
X64066Y-116900D01*
X64420Y-116507D01*
X64597Y-115956D01*
X64479Y-115405D01*
X64184Y-114933D01*
X63653Y-114619D01*
X62945Y-114461D01*
X62532Y-114147D01*
X62355Y-113596D01*
X62473Y-113045D01*
X62768Y-112652D01*
X63181Y-112416D01*
X63594D01*
X64007Y-112573D01*
X64361Y-112967D01*
G01X66603Y-117136D02*
X68078Y-112416D01*
X69553Y-117136D01*
G01X69022Y-115484D02*
X67134D01*
G01X-30119Y-143136D02*
Y-138416D01*
X-27405Y-143136D01*
Y-138416D01*
G01X-24042Y-143136D02*
X-24514Y-143057D01*
X-24927Y-142743D01*
X-25281Y-142271D01*
X-25517Y-141720D01*
X-25635Y-141091D01*
Y-140461D01*
X-25517Y-139832D01*
X-25281Y-139281D01*
X-24927Y-138809D01*
X-24514Y-138495D01*
X-24042Y-138416D01*
X-23570Y-138495D01*
X-23157Y-138809D01*
X-22803Y-139281D01*
X-22567Y-139832D01*
X-22449Y-140461D01*
Y-141091D01*
X-22567Y-141720D01*
X-22803Y-142271D01*
X-23157Y-142743D01*
X-23570Y-143057D01*
X-24042Y-143136D01*
G01X-19322Y-138416D02*
Y-143136D01*
G01X-20679Y-138416D02*
X-17965D01*
G01X-9410Y-140619D02*
X-9174Y-140383D01*
X-8997Y-139989D01*
X-8879Y-139439D01*
X-8997Y-138967D01*
X-9233Y-138652D01*
X-9646Y-138416D01*
X-11239D01*
Y-143136D01*
X-9292D01*
X-8879Y-142821D01*
X-8643Y-142349D01*
X-8525Y-141799D01*
X-8643Y-141248D01*
X-8997Y-140776D01*
X-9410Y-140619D01*
X-11239D01*
G01X-3982Y-143136D02*
X-6342D01*
Y-138416D01*
X-3982D01*
G01X-4926Y-140697D02*
X-6342D01*
G01X2980Y-138416D02*
Y-141799D01*
X3216Y-142507D01*
X3688Y-142979D01*
X4278Y-143136D01*
X4868Y-142979D01*
X5340Y-142507D01*
X5576Y-141799D01*
Y-138416D01*
G01X7759Y-142507D02*
X8231Y-142900D01*
X8762Y-143136D01*
X9234D01*
X9706Y-142900D01*
X10060Y-142507D01*
X10237Y-141956D01*
X10119Y-141405D01*
X9824Y-140933D01*
X9293Y-140619D01*
X8585Y-140461D01*
X8172Y-140147D01*
X7995Y-139596D01*
X8113Y-139045D01*
X8408Y-138652D01*
X8821Y-138416D01*
X9234D01*
X9647Y-138573D01*
X10001Y-138967D01*
G01X14898Y-143136D02*
X12538D01*
Y-138416D01*
X14898D01*
G01X13954Y-140697D02*
X12538D01*
G01X17140Y-143136D02*
Y-138416D01*
X18320D01*
X18792Y-138652D01*
X19146Y-138967D01*
X19441Y-139439D01*
X19677Y-139989D01*
X19736Y-140776D01*
X19677Y-141563D01*
X19441Y-142113D01*
X19146Y-142585D01*
X18792Y-142900D01*
X18320Y-143136D01*
X17140D01*
G01X26757D02*
Y-138416D01*
X28999D01*
G01X28173Y-140697D02*
X26757D01*
G01X32598Y-143136D02*
X32126Y-143057D01*
X31713Y-142743D01*
X31359Y-142271D01*
X31123Y-141720D01*
X31005Y-141091D01*
Y-140461D01*
X31123Y-139832D01*
X31359Y-139281D01*
X31713Y-138809D01*
X32126Y-138495D01*
X32598Y-138416D01*
X33070Y-138495D01*
X33483Y-138809D01*
X33837Y-139281D01*
X34073Y-139832D01*
X34191Y-140461D01*
Y-141091D01*
X34073Y-141720D01*
X33837Y-142271D01*
X33483Y-142743D01*
X33070Y-143057D01*
X32598Y-143136D01*
G01X36138D02*
Y-138416D01*
X37613D01*
X38085Y-138652D01*
X38380Y-138967D01*
X38498Y-139596D01*
X38380Y-140225D01*
X38026Y-140619D01*
X37613Y-140855D01*
X36138D01*
G01X37613D02*
X38498Y-143136D01*
G01X47938D02*
X45578D01*
Y-138416D01*
X47938D01*
G01X46994Y-140697D02*
X45578D01*
G01X50121Y-143136D02*
Y-138416D01*
X52835Y-143136D01*
Y-138416D01*
G01X56552Y-140776D02*
X57732D01*
Y-142192D01*
X57378Y-142664D01*
X56965Y-142979D01*
X56375Y-143136D01*
X55785Y-142979D01*
X55372Y-142664D01*
X55018Y-142192D01*
X54782Y-141641D01*
X54664Y-141012D01*
Y-140461D01*
X54782Y-139989D01*
X55018Y-139439D01*
X55372Y-138967D01*
X55726Y-138652D01*
X56198Y-138416D01*
X56611D01*
X57083Y-138573D01*
X57437Y-138888D01*
G01X60210Y-138416D02*
X61626D01*
G01X60918D02*
Y-143136D01*
G01X60210D02*
X61626D01*
G01X64281D02*
Y-138416D01*
X66995Y-143136D01*
Y-138416D01*
G01X71538Y-143136D02*
X69178D01*
Y-138416D01*
X71538D01*
G01X70594Y-140697D02*
X69178D01*
G01X76258Y-143136D02*
X73898D01*
Y-138416D01*
X76258D01*
G01X75314Y-140697D02*
X73898D01*
G01X78618Y-143136D02*
Y-138416D01*
X80093D01*
X80565Y-138652D01*
X80860Y-138967D01*
X80978Y-139596D01*
X80860Y-140225D01*
X80506Y-140619D01*
X80093Y-140855D01*
X78618D01*
G01X80093D02*
X80978Y-143136D01*
G01X83810Y-138416D02*
X85226D01*
G01X84518D02*
Y-143136D01*
G01X83810D02*
X85226D01*
G01X87881D02*
Y-138416D01*
X90595Y-143136D01*
Y-138416D01*
G01X94312Y-140776D02*
X95492D01*
Y-142192D01*
X95138Y-142664D01*
X94725Y-142979D01*
X94135Y-143136D01*
X93545Y-142979D01*
X93132Y-142664D01*
X92778Y-142192D01*
X92542Y-141641D01*
X92424Y-141012D01*
Y-140461D01*
X92542Y-139989D01*
X92778Y-139439D01*
X93132Y-138967D01*
X93486Y-138652D01*
X93958Y-138416D01*
X94371D01*
X94843Y-138573D01*
X95197Y-138888D01*
G01X102100Y-143136D02*
Y-138416D01*
X103280D01*
X103752Y-138652D01*
X104106Y-138967D01*
X104401Y-139439D01*
X104637Y-139989D01*
X104696Y-140776D01*
X104637Y-141563D01*
X104401Y-142113D01*
X104106Y-142585D01*
X103752Y-142900D01*
X103280Y-143136D01*
X102100D01*
G01X109298D02*
X106938D01*
Y-138416D01*
X109298D01*
G01X108354Y-140697D02*
X106938D01*
G01X111599Y-142507D02*
X112071Y-142900D01*
X112602Y-143136D01*
X113074D01*
X113546Y-142900D01*
X113900Y-142507D01*
X114077Y-141956D01*
X113959Y-141405D01*
X113664Y-140933D01*
X113133Y-140619D01*
X112425Y-140461D01*
X112012Y-140147D01*
X111835Y-139596D01*
X111953Y-139045D01*
X112248Y-138652D01*
X112661Y-138416D01*
X113074D01*
X113487Y-138573D01*
X113841Y-138967D01*
G01X116850Y-138416D02*
X118266D01*
G01X117558D02*
Y-143136D01*
G01X116850D02*
X118266D01*
G01X122632Y-140776D02*
X123812D01*
Y-142192D01*
X123458Y-142664D01*
X123045Y-142979D01*
X122455Y-143136D01*
X121865Y-142979D01*
X121452Y-142664D01*
X121098Y-142192D01*
X120862Y-141641D01*
X120744Y-141012D01*
Y-140461D01*
X120862Y-139989D01*
X121098Y-139439D01*
X121452Y-138967D01*
X121806Y-138652D01*
X122278Y-138416D01*
X122691D01*
X123163Y-138573D01*
X123517Y-138888D01*
G01X125641Y-143136D02*
Y-138416D01*
X128355Y-143136D01*
Y-138416D01*
G01X-29942Y-135136D02*
Y-130416D01*
X-28526D01*
X-28054Y-130652D01*
X-27700Y-131203D01*
X-27582Y-131832D01*
X-27700Y-132461D01*
X-27995Y-132933D01*
X-28526Y-133169D01*
X-29942D01*
G01X-25222Y-135136D02*
Y-130416D01*
X-23747D01*
X-23275Y-130652D01*
X-22980Y-130967D01*
X-22862Y-131596D01*
X-22980Y-132225D01*
X-23334Y-132619D01*
X-23747Y-132855D01*
X-25222D01*
G01X-23747D02*
X-22862Y-135136D01*
G01X-19322D02*
X-19794Y-135057D01*
X-20207Y-134743D01*
X-20561Y-134271D01*
X-20797Y-133720D01*
X-20915Y-133091D01*
Y-132461D01*
X-20797Y-131832D01*
X-20561Y-131281D01*
X-20207Y-130809D01*
X-19794Y-130495D01*
X-19322Y-130416D01*
X-18850Y-130495D01*
X-18437Y-130809D01*
X-18083Y-131281D01*
X-17847Y-131832D01*
X-17729Y-132461D01*
Y-133091D01*
X-17847Y-133720D01*
X-18083Y-134271D01*
X-18437Y-134743D01*
X-18850Y-135057D01*
X-19322Y-135136D01*
G01X-15782D02*
Y-130416D01*
X-14366D01*
X-13894Y-130652D01*
X-13540Y-131203D01*
X-13422Y-131832D01*
X-13540Y-132461D01*
X-13835Y-132933D01*
X-14366Y-133169D01*
X-15782D01*
G01X-11062Y-135136D02*
Y-130416D01*
X-9587D01*
X-9115Y-130652D01*
X-8820Y-130967D01*
X-8702Y-131596D01*
X-8820Y-132225D01*
X-9174Y-132619D01*
X-9587Y-132855D01*
X-11062D01*
G01X-9587D02*
X-8702Y-135136D01*
G01X-5870Y-130416D02*
X-4454D01*
G01X-5162D02*
Y-135136D01*
G01X-5870D02*
X-4454D01*
G01X738D02*
X-1622D01*
Y-130416D01*
X738D01*
G01X-206Y-132697D02*
X-1622D01*
G01X4278Y-130416D02*
Y-135136D01*
G01X2921Y-130416D02*
X5635D01*
G01X7523Y-135136D02*
X8998Y-130416D01*
X10473Y-135136D01*
G01X9942Y-133484D02*
X8054D01*
G01X12538Y-135136D02*
Y-130416D01*
X14013D01*
X14485Y-130652D01*
X14780Y-130967D01*
X14898Y-131596D01*
X14780Y-132225D01*
X14426Y-132619D01*
X14013Y-132855D01*
X12538D01*
G01X14013D02*
X14898Y-135136D01*
G01X18438D02*
Y-133012D01*
X17258Y-130416D01*
G01X19618D02*
X18438Y-133012D01*
G01X27878Y-130416D02*
Y-135136D01*
G01X26521Y-130416D02*
X29235D01*
G01X32598Y-135136D02*
X32126Y-135057D01*
X31713Y-134743D01*
X31359Y-134271D01*
X31123Y-133720D01*
X31005Y-133091D01*
Y-132461D01*
X31123Y-131832D01*
X31359Y-131281D01*
X31713Y-130809D01*
X32126Y-130495D01*
X32598Y-130416D01*
X33070Y-130495D01*
X33483Y-130809D01*
X33837Y-131281D01*
X34073Y-131832D01*
X34191Y-132461D01*
Y-133091D01*
X34073Y-133720D01*
X33837Y-134271D01*
X33483Y-134743D01*
X33070Y-135057D01*
X32598Y-135136D01*
G01X40917D02*
Y-130416D01*
X43159D01*
G01X42333Y-132697D02*
X40917D01*
G01X45578Y-135136D02*
Y-130416D01*
X47053D01*
X47525Y-130652D01*
X47820Y-130967D01*
X47938Y-131596D01*
X47820Y-132225D01*
X47466Y-132619D01*
X47053Y-132855D01*
X45578D01*
G01X47053D02*
X47938Y-135136D01*
G01X52658D02*
X50298D01*
Y-130416D01*
X52658D01*
G01X51714Y-132697D02*
X50298D01*
G01X57378Y-135136D02*
X55018D01*
Y-130416D01*
X57378D01*
G01X56434Y-132697D02*
X55018D01*
G01X59679Y-134507D02*
X60151Y-134900D01*
X60682Y-135136D01*
X61154D01*
X61626Y-134900D01*
X61980Y-134507D01*
X62157Y-133956D01*
X62039Y-133405D01*
X61744Y-132933D01*
X61213Y-132619D01*
X60505Y-132461D01*
X60092Y-132147D01*
X59915Y-131596D01*
X60033Y-131045D01*
X60328Y-130652D01*
X60741Y-130416D01*
X61154D01*
X61567Y-130573D01*
X61921Y-130967D01*
G01X66936Y-130809D02*
X66582Y-130573D01*
X66169Y-130416D01*
X65697D01*
X65166Y-130652D01*
X64753Y-131045D01*
X64458Y-131517D01*
X64222Y-132304D01*
X64163Y-133012D01*
X64281Y-133720D01*
X64458Y-134192D01*
X64812Y-134664D01*
X65225Y-134979D01*
X65638Y-135136D01*
X66051D01*
X66464Y-134979D01*
X66818Y-134743D01*
X67113Y-134428D01*
G01X68883Y-135136D02*
X70358Y-130416D01*
X71833Y-135136D01*
G01X71302Y-133484D02*
X69414D01*
G01X73898Y-130416D02*
Y-135136D01*
X76258D01*
G01X80978D02*
X78618D01*
Y-130416D01*
X80978D01*
G01X80034Y-132697D02*
X78618D01*
G01X87763Y-135136D02*
X89238Y-130416D01*
X90713Y-135136D01*
G01X90182Y-133484D02*
X88294D01*
G01X92601Y-135136D02*
Y-130416D01*
X95315Y-135136D01*
Y-130416D01*
G01X97380Y-135136D02*
Y-130416D01*
X98560D01*
X99032Y-130652D01*
X99386Y-130967D01*
X99681Y-131439D01*
X99917Y-131989D01*
X99976Y-132776D01*
X99917Y-133563D01*
X99681Y-134113D01*
X99386Y-134585D01*
X99032Y-134900D01*
X98560Y-135136D01*
X97380D01*
G01X106879Y-134507D02*
X107351Y-134900D01*
X107882Y-135136D01*
X108354D01*
X108826Y-134900D01*
X109180Y-134507D01*
X109357Y-133956D01*
X109239Y-133405D01*
X108944Y-132933D01*
X108413Y-132619D01*
X107705Y-132461D01*
X107292Y-132147D01*
X107115Y-131596D01*
X107233Y-131045D01*
X107528Y-130652D01*
X107941Y-130416D01*
X108354D01*
X108767Y-130573D01*
X109121Y-130967D01*
G01X111599Y-135136D02*
Y-130416D01*
G01X114077D02*
Y-135136D01*
G01Y-132776D02*
X111599D01*
G01X116083Y-135136D02*
X117558Y-130416D01*
X119033Y-135136D01*
G01X118502Y-133484D02*
X116614D01*
G01X121098Y-130416D02*
Y-135136D01*
X123458D01*
G01X125818Y-130416D02*
Y-135136D01*
X128178D01*
G01X-29762Y-122416D02*
Y-127136D01*
G01X-31119Y-122416D02*
X-28405D01*
G01X-26281Y-127136D02*
Y-122416D01*
G01X-23803D02*
Y-127136D01*
G01Y-124776D02*
X-26281D01*
G01X-21030Y-122416D02*
X-19614D01*
G01X-20322D02*
Y-127136D01*
G01X-21030D02*
X-19614D01*
G01X-16841Y-126507D02*
X-16369Y-126900D01*
X-15838Y-127136D01*
X-15366D01*
X-14894Y-126900D01*
X-14540Y-126507D01*
X-14363Y-125956D01*
X-14481Y-125405D01*
X-14776Y-124933D01*
X-15307Y-124619D01*
X-16015Y-124461D01*
X-16428Y-124147D01*
X-16605Y-123596D01*
X-16487Y-123045D01*
X-16192Y-122652D01*
X-15779Y-122416D01*
X-15366D01*
X-14953Y-122573D01*
X-14599Y-122967D01*
G01X-7460Y-127136D02*
Y-122416D01*
X-6280D01*
X-5808Y-122652D01*
X-5454Y-122967D01*
X-5159Y-123439D01*
X-4923Y-123989D01*
X-4864Y-124776D01*
X-4923Y-125563D01*
X-5159Y-126113D01*
X-5454Y-126585D01*
X-5808Y-126900D01*
X-6280Y-127136D01*
X-7460D01*
G01X-1442D02*
X-1914Y-127057D01*
X-2327Y-126743D01*
X-2681Y-126271D01*
X-2917Y-125720D01*
X-3035Y-125091D01*
Y-124461D01*
X-2917Y-123832D01*
X-2681Y-123281D01*
X-2327Y-122809D01*
X-1914Y-122495D01*
X-1442Y-122416D01*
X-970Y-122495D01*
X-557Y-122809D01*
X-203Y-123281D01*
X33Y-123832D01*
X151Y-124461D01*
Y-125091D01*
X33Y-125720D01*
X-203Y-126271D01*
X-557Y-126743D01*
X-970Y-127057D01*
X-1442Y-127136D01*
G01X4576Y-122809D02*
X4222Y-122573D01*
X3809Y-122416D01*
X3337D01*
X2806Y-122652D01*
X2393Y-123045D01*
X2098Y-123517D01*
X1862Y-124304D01*
X1803Y-125012D01*
X1921Y-125720D01*
X2098Y-126192D01*
X2452Y-126664D01*
X2865Y-126979D01*
X3278Y-127136D01*
X3691D01*
X4104Y-126979D01*
X4458Y-126743D01*
X4753Y-126428D01*
G01X6700Y-122416D02*
Y-125799D01*
X6936Y-126507D01*
X7408Y-126979D01*
X7998Y-127136D01*
X8588Y-126979D01*
X9060Y-126507D01*
X9296Y-125799D01*
Y-122416D01*
G01X11184Y-127136D02*
Y-122416D01*
X12718Y-126349D01*
X14252Y-122416D01*
Y-127136D01*
G01X18618D02*
X16258D01*
Y-122416D01*
X18618D01*
G01X17674Y-124697D02*
X16258D01*
G01X20801Y-127136D02*
Y-122416D01*
X23515Y-127136D01*
Y-122416D01*
G01X26878D02*
Y-127136D01*
G01X25521Y-122416D02*
X28235D01*
G01X37616Y-122809D02*
X37262Y-122573D01*
X36849Y-122416D01*
X36377D01*
X35846Y-122652D01*
X35433Y-123045D01*
X35138Y-123517D01*
X34902Y-124304D01*
X34843Y-125012D01*
X34961Y-125720D01*
X35138Y-126192D01*
X35492Y-126664D01*
X35905Y-126979D01*
X36318Y-127136D01*
X36731D01*
X37144Y-126979D01*
X37498Y-126743D01*
X37793Y-126428D01*
G01X41038Y-127136D02*
X40566Y-127057D01*
X40153Y-126743D01*
X39799Y-126271D01*
X39563Y-125720D01*
X39445Y-125091D01*
Y-124461D01*
X39563Y-123832D01*
X39799Y-123281D01*
X40153Y-122809D01*
X40566Y-122495D01*
X41038Y-122416D01*
X41510Y-122495D01*
X41923Y-122809D01*
X42277Y-123281D01*
X42513Y-123832D01*
X42631Y-124461D01*
Y-125091D01*
X42513Y-125720D01*
X42277Y-126271D01*
X41923Y-126743D01*
X41510Y-127057D01*
X41038Y-127136D01*
G01X44401D02*
Y-122416D01*
X47115Y-127136D01*
Y-122416D01*
G01X50478D02*
Y-127136D01*
G01X49121Y-122416D02*
X51835D01*
G01X53723Y-127136D02*
X55198Y-122416D01*
X56673Y-127136D01*
G01X56142Y-125484D02*
X54254D01*
G01X59210Y-122416D02*
X60626D01*
G01X59918D02*
Y-127136D01*
G01X59210D02*
X60626D01*
G01X63281D02*
Y-122416D01*
X65995Y-127136D01*
Y-122416D01*
G01X68119Y-126507D02*
X68591Y-126900D01*
X69122Y-127136D01*
X69594D01*
X70066Y-126900D01*
X70420Y-126507D01*
X70597Y-125956D01*
X70479Y-125405D01*
X70184Y-124933D01*
X69653Y-124619D01*
X68945Y-124461D01*
X68532Y-124147D01*
X68355Y-123596D01*
X68473Y-123045D01*
X68768Y-122652D01*
X69181Y-122416D01*
X69594D01*
X70007Y-122573D01*
X70361Y-122967D01*
G01X78090Y-122416D02*
X79506D01*
G01X78798D02*
Y-127136D01*
G01X78090D02*
X79506D01*
G01X82161D02*
Y-122416D01*
X84875Y-127136D01*
Y-122416D01*
G01X87117Y-127136D02*
Y-122416D01*
X89359D01*
G01X88533Y-124697D02*
X87117D01*
G01X92958Y-127136D02*
X92486Y-127057D01*
X92073Y-126743D01*
X91719Y-126271D01*
X91483Y-125720D01*
X91365Y-125091D01*
Y-124461D01*
X91483Y-123832D01*
X91719Y-123281D01*
X92073Y-122809D01*
X92486Y-122495D01*
X92958Y-122416D01*
X93430Y-122495D01*
X93843Y-122809D01*
X94197Y-123281D01*
X94433Y-123832D01*
X94551Y-124461D01*
Y-125091D01*
X94433Y-125720D01*
X94197Y-126271D01*
X93843Y-126743D01*
X93430Y-127057D01*
X92958Y-127136D01*
G01X96498D02*
Y-122416D01*
X97973D01*
X98445Y-122652D01*
X98740Y-122967D01*
X98858Y-123596D01*
X98740Y-124225D01*
X98386Y-124619D01*
X97973Y-124855D01*
X96498D01*
G01X97973D02*
X98858Y-127136D01*
G01X100864D02*
Y-122416D01*
X102398Y-126349D01*
X103932Y-122416D01*
Y-127136D01*
G01X105643D02*
X107118Y-122416D01*
X108593Y-127136D01*
G01X108062Y-125484D02*
X106174D01*
G01X111838Y-122416D02*
Y-127136D01*
G01X110481Y-122416D02*
X113195D01*
G01X115850D02*
X117266D01*
G01X116558D02*
Y-127136D01*
G01X115850D02*
X117266D01*
G01X121278D02*
X120806Y-127057D01*
X120393Y-126743D01*
X120039Y-126271D01*
X119803Y-125720D01*
X119685Y-125091D01*
Y-124461D01*
X119803Y-123832D01*
X120039Y-123281D01*
X120393Y-122809D01*
X120806Y-122495D01*
X121278Y-122416D01*
X121750Y-122495D01*
X122163Y-122809D01*
X122517Y-123281D01*
X122753Y-123832D01*
X122871Y-124461D01*
Y-125091D01*
X122753Y-125720D01*
X122517Y-126271D01*
X122163Y-126743D01*
X121750Y-127057D01*
X121278Y-127136D01*
G01X124641D02*
Y-122416D01*
X127355Y-127136D01*
Y-122416D01*
G01X-36883Y-108169D02*
X-36470Y-107619D01*
X-36116Y-107304D01*
X-35644Y-107147D01*
X-35231Y-107304D01*
X-34936Y-107619D01*
X-34700Y-108091D01*
X-34641Y-108641D01*
X-34700Y-109113D01*
X-34936Y-109585D01*
X-35290Y-109979D01*
X-35703Y-110136D01*
X-36175Y-109979D01*
X-36588Y-109507D01*
X-36824Y-108799D01*
X-36883Y-108012D01*
X-36765Y-106989D01*
X-36588Y-106439D01*
X-36293Y-105888D01*
X-35880Y-105495D01*
X-35467Y-105416D01*
X-35054Y-105573D01*
X-34759Y-105967D01*
G01X-32340Y-109428D02*
X-31986Y-109821D01*
X-31573Y-110057D01*
X-31042Y-110136D01*
X-30511Y-109979D01*
X-30098Y-109664D01*
X-29803Y-109113D01*
X-29744Y-108484D01*
X-29862Y-107855D01*
X-30157Y-107461D01*
X-30570Y-107147D01*
X-30983Y-107068D01*
X-31396Y-107147D01*
X-31927Y-107461D01*
X-31750Y-105416D01*
X-30157D01*
G01X-26322D02*
X-26794Y-105573D01*
X-27148Y-105967D01*
X-27384Y-106439D01*
X-27561Y-107068D01*
X-27620Y-107776D01*
X-27561Y-108484D01*
X-27384Y-109113D01*
X-27148Y-109585D01*
X-26794Y-109979D01*
X-26322Y-110136D01*
X-25850Y-109979D01*
X-25496Y-109585D01*
X-25260Y-109113D01*
X-25083Y-108484D01*
X-25024Y-107776D01*
X-25083Y-107068D01*
X-25260Y-106439D01*
X-25496Y-105967D01*
X-25850Y-105573D01*
X-26322Y-105416D01*
G01X-21602Y-110136D02*
Y-105416D01*
X-22310Y-106360D01*
G01Y-110136D02*
X-20894D01*
G01X-13932Y-105416D02*
X-13106Y-110136D01*
X-12162Y-105416D01*
X-11218Y-110136D01*
X-10392Y-105416D01*
G01X-8150D02*
X-6734D01*
G01X-7442D02*
Y-110136D01*
G01X-8150D02*
X-6734D01*
G01X-3902Y-105416D02*
Y-110136D01*
X-1542D01*
G01X818Y-105416D02*
Y-110136D01*
X3178D01*
G01X6010Y-105416D02*
X7426D01*
G01X6718D02*
Y-110136D01*
G01X6010D02*
X7426D01*
G01X9963D02*
X11438Y-105416D01*
X12913Y-110136D01*
G01X12382Y-108484D02*
X10494D01*
G01X14624Y-110136D02*
Y-105416D01*
X16158Y-109349D01*
X17692Y-105416D01*
Y-110136D01*
G01X26896Y-105809D02*
X26542Y-105573D01*
X26129Y-105416D01*
X25657D01*
X25126Y-105652D01*
X24713Y-106045D01*
X24418Y-106517D01*
X24182Y-107304D01*
X24123Y-108012D01*
X24241Y-108720D01*
X24418Y-109192D01*
X24772Y-109664D01*
X25185Y-109979D01*
X25598Y-110136D01*
X26011D01*
X26424Y-109979D01*
X26778Y-109743D01*
X27073Y-109428D01*
G01X28843Y-110136D02*
X30318Y-105416D01*
X31793Y-110136D01*
G01X31262Y-108484D02*
X29374D01*
G01X33681Y-110136D02*
Y-105416D01*
X36395Y-110136D01*
Y-105416D01*
G01X38401Y-110136D02*
Y-105416D01*
X41115Y-110136D01*
Y-105416D01*
G01X44478Y-110136D02*
X44006Y-110057D01*
X43593Y-109743D01*
X43239Y-109271D01*
X43003Y-108720D01*
X42885Y-108091D01*
Y-107461D01*
X43003Y-106832D01*
X43239Y-106281D01*
X43593Y-105809D01*
X44006Y-105495D01*
X44478Y-105416D01*
X44950Y-105495D01*
X45363Y-105809D01*
X45717Y-106281D01*
X45953Y-106832D01*
X46071Y-107461D01*
Y-108091D01*
X45953Y-108720D01*
X45717Y-109271D01*
X45363Y-109743D01*
X44950Y-110057D01*
X44478Y-110136D01*
G01X47841D02*
Y-105416D01*
X50555Y-110136D01*
Y-105416D01*
G01X57340Y-110136D02*
Y-105416D01*
X58520D01*
X58992Y-105652D01*
X59346Y-105967D01*
X59641Y-106439D01*
X59877Y-106989D01*
X59936Y-107776D01*
X59877Y-108563D01*
X59641Y-109113D01*
X59346Y-109585D01*
X58992Y-109900D01*
X58520Y-110136D01*
X57340D01*
G01X62178D02*
Y-105416D01*
X63653D01*
X64125Y-105652D01*
X64420Y-105967D01*
X64538Y-106596D01*
X64420Y-107225D01*
X64066Y-107619D01*
X63653Y-107855D01*
X62178D01*
G01X63653D02*
X64538Y-110136D01*
G01X67370Y-105416D02*
X68786D01*
G01X68078D02*
Y-110136D01*
G01X67370D02*
X68786D01*
G01X71323Y-105416D02*
X72798Y-110136D01*
X74273Y-105416D01*
G01X78698Y-110136D02*
X76338D01*
Y-105416D01*
X78698D01*
G01X77754Y-107697D02*
X76338D01*
G01X85188Y-105416D02*
X86014Y-110136D01*
X86958Y-105416D01*
X87902Y-110136D01*
X88728Y-105416D01*
G01X92858Y-110136D02*
X90498D01*
Y-105416D01*
X92858D01*
G01X91914Y-107697D02*
X90498D01*
G01X95159Y-109507D02*
X95631Y-109900D01*
X96162Y-110136D01*
X96634D01*
X97106Y-109900D01*
X97460Y-109507D01*
X97637Y-108956D01*
X97519Y-108405D01*
X97224Y-107933D01*
X96693Y-107619D01*
X95985Y-107461D01*
X95572Y-107147D01*
X95395Y-106596D01*
X95513Y-106045D01*
X95808Y-105652D01*
X96221Y-105416D01*
X96634D01*
X97047Y-105573D01*
X97401Y-105967D01*
G01X101118Y-105416D02*
Y-110136D01*
G01X99761Y-105416D02*
X102475D01*
G01X13117Y-178136D02*
Y-173416D01*
X15359D01*
G01X14533Y-175697D02*
X13117D01*
G01X18250Y-173416D02*
X19666D01*
G01X18958D02*
Y-178136D01*
G01X18250D02*
X19666D01*
G01X22498Y-173416D02*
Y-178136D01*
X24858D01*
G01X26864D02*
Y-173416D01*
X28398Y-177349D01*
X29932Y-173416D01*
Y-178136D01*
G01X141238Y-181416D02*
X140766Y-181573D01*
X140412Y-181967D01*
X140176Y-182439D01*
X139999Y-183068D01*
X139940Y-183776D01*
X139999Y-184484D01*
X140176Y-185113D01*
X140412Y-185585D01*
X140766Y-185979D01*
X141238Y-186136D01*
X141710Y-185979D01*
X142064Y-185585D01*
X142300Y-185113D01*
X142477Y-184484D01*
X142536Y-183776D01*
X142477Y-183068D01*
X142300Y-182439D01*
X142064Y-181967D01*
X141710Y-181573D01*
X141238Y-181416D01*
G01X145958Y-186136D02*
Y-181416D01*
X145250Y-182360D01*
G01Y-186136D02*
X146666D01*
G01X149911Y-184563D02*
X151445D01*
G01X154100Y-185192D02*
X154454Y-185743D01*
X154926Y-186057D01*
X155457Y-186136D01*
X155929Y-186057D01*
X156401Y-185664D01*
X156696Y-185192D01*
X156755Y-184720D01*
X156637Y-184169D01*
X156224Y-183776D01*
X155811Y-183619D01*
X155280D01*
G01X155811D02*
X156165Y-183383D01*
X156460Y-182989D01*
X156578Y-182517D01*
X156460Y-182045D01*
X156165Y-181652D01*
X155634Y-181416D01*
X155103Y-181495D01*
X154572Y-181809D01*
G01X160118Y-186136D02*
Y-181416D01*
X159410Y-182360D01*
G01Y-186136D02*
X160826D01*
G01X164071Y-184563D02*
X165605D01*
G01X169558Y-186136D02*
Y-181416D01*
X168850Y-182360D01*
G01Y-186136D02*
X170266D01*
G01X173157Y-182203D02*
X173511Y-181731D01*
X173924Y-181495D01*
X174396Y-181416D01*
X174986Y-181573D01*
X175399Y-181967D01*
X175517Y-182439D01*
X175458Y-182911D01*
X175222Y-183304D01*
X174042Y-184091D01*
X173511Y-184641D01*
X173157Y-185428D01*
X173039Y-186136D01*
X175517D01*
G01X137940Y-178136D02*
Y-173416D01*
X139120D01*
X139592Y-173652D01*
X139946Y-173967D01*
X140241Y-174439D01*
X140477Y-174989D01*
X140536Y-175776D01*
X140477Y-176563D01*
X140241Y-177113D01*
X139946Y-177585D01*
X139592Y-177900D01*
X139120Y-178136D01*
X137940D01*
G01X142483D02*
X143958Y-173416D01*
X145433Y-178136D01*
G01X144902Y-176484D02*
X143014D01*
G01X148678Y-173416D02*
Y-178136D01*
G01X147321Y-173416D02*
X150035D01*
G01X154578Y-178136D02*
X152218D01*
Y-173416D01*
X154578D01*
G01X153634Y-175697D02*
X152218D01*
G01X147468Y-164209D02*
X151008D01*
G01X152188D02*
X155728D01*
G01X156908D02*
X160448D01*
G01X166997Y-162636D02*
Y-157916D01*
X169239D01*
G01X168413Y-160197D02*
X166997D01*
G01X174136Y-158309D02*
X173782Y-158073D01*
X173369Y-157916D01*
X172897D01*
X172366Y-158152D01*
X171953Y-158545D01*
X171658Y-159017D01*
X171422Y-159804D01*
X171363Y-160512D01*
X171481Y-161220D01*
X171658Y-161692D01*
X172012Y-162164D01*
X172425Y-162479D01*
X172838Y-162636D01*
X173251D01*
X173664Y-162479D01*
X174018Y-162243D01*
X174313Y-161928D01*
G01X176378Y-162636D02*
Y-157916D01*
X177794D01*
X178266Y-158152D01*
X178620Y-158703D01*
X178738Y-159332D01*
X178620Y-159961D01*
X178325Y-160433D01*
X177794Y-160669D01*
X176378D01*
G01X186703Y-164209D02*
X186113Y-163423D01*
X185818Y-162636D01*
Y-159489D01*
X186113Y-158703D01*
X186703Y-157916D01*
G01X190597Y-162636D02*
Y-157916D01*
X192839D01*
G01X192013Y-160197D02*
X190597D01*
G01X195258Y-162636D02*
Y-157916D01*
X196733D01*
X197205Y-158152D01*
X197500Y-158467D01*
X197618Y-159096D01*
X197500Y-159725D01*
X197146Y-160119D01*
X196733Y-160355D01*
X195258D01*
G01X196733D02*
X197618Y-162636D01*
G01X202338D02*
X199978D01*
Y-157916D01*
X202338D01*
G01X201394Y-160197D02*
X199978D01*
G01X207058Y-162636D02*
X204698D01*
Y-157916D01*
X207058D01*
G01X206114Y-160197D02*
X204698D01*
G01X209359Y-162007D02*
X209831Y-162400D01*
X210362Y-162636D01*
X210834D01*
X211306Y-162400D01*
X211660Y-162007D01*
X211837Y-161456D01*
X211719Y-160905D01*
X211424Y-160433D01*
X210893Y-160119D01*
X210185Y-159961D01*
X209772Y-159647D01*
X209595Y-159096D01*
X209713Y-158545D01*
X210008Y-158152D01*
X210421Y-157916D01*
X210834D01*
X211247Y-158073D01*
X211601Y-158467D01*
G01X216616Y-158309D02*
X216262Y-158073D01*
X215849Y-157916D01*
X215377D01*
X214846Y-158152D01*
X214433Y-158545D01*
X214138Y-159017D01*
X213902Y-159804D01*
X213843Y-160512D01*
X213961Y-161220D01*
X214138Y-161692D01*
X214492Y-162164D01*
X214905Y-162479D01*
X215318Y-162636D01*
X215731D01*
X216144Y-162479D01*
X216498Y-162243D01*
X216793Y-161928D01*
G01X218563Y-162636D02*
X220038Y-157916D01*
X221513Y-162636D01*
G01X220982Y-160984D02*
X219094D01*
G01X223578Y-157916D02*
Y-162636D01*
X225938D01*
G01X230658D02*
X228298D01*
Y-157916D01*
X230658D01*
G01X229714Y-160197D02*
X228298D01*
G01X240216Y-158309D02*
X239862Y-158073D01*
X239449Y-157916D01*
X238977D01*
X238446Y-158152D01*
X238033Y-158545D01*
X237738Y-159017D01*
X237502Y-159804D01*
X237443Y-160512D01*
X237561Y-161220D01*
X237738Y-161692D01*
X238092Y-162164D01*
X238505Y-162479D01*
X238918Y-162636D01*
X239331D01*
X239744Y-162479D01*
X240098Y-162243D01*
X240393Y-161928D01*
G01X243638Y-162636D02*
X243166Y-162557D01*
X242753Y-162243D01*
X242399Y-161771D01*
X242163Y-161220D01*
X242045Y-160591D01*
Y-159961D01*
X242163Y-159332D01*
X242399Y-158781D01*
X242753Y-158309D01*
X243166Y-157995D01*
X243638Y-157916D01*
X244110Y-157995D01*
X244523Y-158309D01*
X244877Y-158781D01*
X245113Y-159332D01*
X245231Y-159961D01*
Y-160591D01*
X245113Y-161220D01*
X244877Y-161771D01*
X244523Y-162243D01*
X244110Y-162557D01*
X243638Y-162636D01*
G01X247001D02*
Y-157916D01*
X249715Y-162636D01*
Y-157916D01*
G01X251957Y-162636D02*
Y-157916D01*
X254199D01*
G01X253373Y-160197D02*
X251957D01*
G01X257090Y-157916D02*
X258506D01*
G01X257798D02*
Y-162636D01*
G01X257090D02*
X258506D01*
G01X261220D02*
Y-157916D01*
X262400D01*
X262872Y-158152D01*
X263226Y-158467D01*
X263521Y-158939D01*
X263757Y-159489D01*
X263816Y-160276D01*
X263757Y-161063D01*
X263521Y-161613D01*
X263226Y-162085D01*
X262872Y-162400D01*
X262400Y-162636D01*
X261220D01*
G01X268418D02*
X266058D01*
Y-157916D01*
X268418D01*
G01X267474Y-160197D02*
X266058D01*
G01X270601Y-162636D02*
Y-157916D01*
X273315Y-162636D01*
Y-157916D01*
G01X276678D02*
Y-162636D01*
G01X275321Y-157916D02*
X278035D01*
G01X280690D02*
X282106D01*
G01X281398D02*
Y-162636D01*
G01X280690D02*
X282106D01*
G01X284643D02*
X286118Y-157916D01*
X287593Y-162636D01*
G01X287062Y-160984D02*
X285174D01*
G01X289658Y-157916D02*
Y-162636D01*
X292018D01*
G01X299098D02*
Y-157916D01*
X300514D01*
X300986Y-158152D01*
X301340Y-158703D01*
X301458Y-159332D01*
X301340Y-159961D01*
X301045Y-160433D01*
X300514Y-160669D01*
X299098D01*
G01X303818Y-162636D02*
Y-157916D01*
X305293D01*
X305765Y-158152D01*
X306060Y-158467D01*
X306178Y-159096D01*
X306060Y-159725D01*
X305706Y-160119D01*
X305293Y-160355D01*
X303818D01*
G01X305293D02*
X306178Y-162636D01*
G01X309718D02*
X309246Y-162557D01*
X308833Y-162243D01*
X308479Y-161771D01*
X308243Y-161220D01*
X308125Y-160591D01*
Y-159961D01*
X308243Y-159332D01*
X308479Y-158781D01*
X308833Y-158309D01*
X309246Y-157995D01*
X309718Y-157916D01*
X310190Y-157995D01*
X310603Y-158309D01*
X310957Y-158781D01*
X311193Y-159332D01*
X311311Y-159961D01*
Y-160591D01*
X311193Y-161220D01*
X310957Y-161771D01*
X310603Y-162243D01*
X310190Y-162557D01*
X309718Y-162636D01*
G01X313258D02*
Y-157916D01*
X314674D01*
X315146Y-158152D01*
X315500Y-158703D01*
X315618Y-159332D01*
X315500Y-159961D01*
X315205Y-160433D01*
X314674Y-160669D01*
X313258D01*
G01X317978Y-162636D02*
Y-157916D01*
X319453D01*
X319925Y-158152D01*
X320220Y-158467D01*
X320338Y-159096D01*
X320220Y-159725D01*
X319866Y-160119D01*
X319453Y-160355D01*
X317978D01*
G01X319453D02*
X320338Y-162636D01*
G01X323170Y-157916D02*
X324586D01*
G01X323878D02*
Y-162636D01*
G01X323170D02*
X324586D01*
G01X329778D02*
X327418D01*
Y-157916D01*
X329778D01*
G01X328834Y-160197D02*
X327418D01*
G01X333318Y-157916D02*
Y-162636D01*
G01X331961Y-157916D02*
X334675D01*
G01X336563Y-162636D02*
X338038Y-157916D01*
X339513Y-162636D01*
G01X338982Y-160984D02*
X337094D01*
G01X341578Y-162636D02*
Y-157916D01*
X343053D01*
X343525Y-158152D01*
X343820Y-158467D01*
X343938Y-159096D01*
X343820Y-159725D01*
X343466Y-160119D01*
X343053Y-160355D01*
X341578D01*
G01X343053D02*
X343938Y-162636D01*
G01X347478D02*
Y-160512D01*
X346298Y-157916D01*
G01X348658D02*
X347478Y-160512D01*
G01X352493Y-164209D02*
X353083Y-163423D01*
X353378Y-162636D01*
Y-159489D01*
X353083Y-158703D01*
X352493Y-157916D01*
G01X147468Y-147709D02*
X151008D01*
G01X152188D02*
X155728D01*
G01X156908D02*
X160448D01*
G01X166997Y-146136D02*
Y-141416D01*
X169239D01*
G01X168413Y-143697D02*
X166997D01*
G01X172130Y-141416D02*
X173546D01*
G01X172838D02*
Y-146136D01*
G01X172130D02*
X173546D01*
G01X176260Y-141416D02*
Y-144799D01*
X176496Y-145507D01*
X176968Y-145979D01*
X177558Y-146136D01*
X178148Y-145979D01*
X178620Y-145507D01*
X178856Y-144799D01*
Y-141416D01*
G01X182278Y-146136D02*
X181806Y-146057D01*
X181393Y-145743D01*
X181039Y-145271D01*
X180803Y-144720D01*
X180685Y-144091D01*
Y-143461D01*
X180803Y-142832D01*
X181039Y-142281D01*
X181393Y-141809D01*
X181806Y-141495D01*
X182278Y-141416D01*
X182750Y-141495D01*
X183163Y-141809D01*
X183517Y-142281D01*
X183753Y-142832D01*
X183871Y-143461D01*
Y-144091D01*
X183753Y-144720D01*
X183517Y-145271D01*
X183163Y-145743D01*
X182750Y-146057D01*
X182278Y-146136D01*
G01X191423Y-147709D02*
X190833Y-146923D01*
X190538Y-146136D01*
Y-142989D01*
X190833Y-142203D01*
X191423Y-141416D01*
G01X195317Y-146136D02*
Y-141416D01*
X197559D01*
G01X196733Y-143697D02*
X195317D01*
G01X199978Y-146136D02*
Y-141416D01*
X201453D01*
X201925Y-141652D01*
X202220Y-141967D01*
X202338Y-142596D01*
X202220Y-143225D01*
X201866Y-143619D01*
X201453Y-143855D01*
X199978D01*
G01X201453D02*
X202338Y-146136D01*
G01X207058D02*
X204698D01*
Y-141416D01*
X207058D01*
G01X206114Y-143697D02*
X204698D01*
G01X211778Y-146136D02*
X209418D01*
Y-141416D01*
X211778D01*
G01X210834Y-143697D02*
X209418D01*
G01X214079Y-145507D02*
X214551Y-145900D01*
X215082Y-146136D01*
X215554D01*
X216026Y-145900D01*
X216380Y-145507D01*
X216557Y-144956D01*
X216439Y-144405D01*
X216144Y-143933D01*
X215613Y-143619D01*
X214905Y-143461D01*
X214492Y-143147D01*
X214315Y-142596D01*
X214433Y-142045D01*
X214728Y-141652D01*
X215141Y-141416D01*
X215554D01*
X215967Y-141573D01*
X216321Y-141967D01*
G01X221336Y-141809D02*
X220982Y-141573D01*
X220569Y-141416D01*
X220097D01*
X219566Y-141652D01*
X219153Y-142045D01*
X218858Y-142517D01*
X218622Y-143304D01*
X218563Y-144012D01*
X218681Y-144720D01*
X218858Y-145192D01*
X219212Y-145664D01*
X219625Y-145979D01*
X220038Y-146136D01*
X220451D01*
X220864Y-145979D01*
X221218Y-145743D01*
X221513Y-145428D01*
G01X223283Y-146136D02*
X224758Y-141416D01*
X226233Y-146136D01*
G01X225702Y-144484D02*
X223814D01*
G01X228298Y-141416D02*
Y-146136D01*
X230658D01*
G01X235378D02*
X233018D01*
Y-141416D01*
X235378D01*
G01X234434Y-143697D02*
X233018D01*
G01X242930Y-141416D02*
X244346D01*
G01X243638D02*
Y-146136D01*
G01X242930D02*
X244346D01*
G01X247001D02*
Y-141416D01*
X249715Y-146136D01*
Y-141416D01*
G01X253078D02*
Y-146136D01*
G01X251721Y-141416D02*
X254435D01*
G01X258978Y-146136D02*
X256618D01*
Y-141416D01*
X258978D01*
G01X258034Y-143697D02*
X256618D01*
G01X261338Y-146136D02*
Y-141416D01*
X262813D01*
X263285Y-141652D01*
X263580Y-141967D01*
X263698Y-142596D01*
X263580Y-143225D01*
X263226Y-143619D01*
X262813Y-143855D01*
X261338D01*
G01X262813D02*
X263698Y-146136D01*
G01X265881D02*
Y-141416D01*
X268595Y-146136D01*
Y-141416D01*
G01X270483Y-146136D02*
X271958Y-141416D01*
X273433Y-146136D01*
G01X272902Y-144484D02*
X271014D01*
G01X275498Y-141416D02*
Y-146136D01*
X277858D01*
G01X284820Y-141416D02*
Y-144799D01*
X285056Y-145507D01*
X285528Y-145979D01*
X286118Y-146136D01*
X286708Y-145979D01*
X287180Y-145507D01*
X287416Y-144799D01*
Y-141416D01*
G01X289599Y-145507D02*
X290071Y-145900D01*
X290602Y-146136D01*
X291074D01*
X291546Y-145900D01*
X291900Y-145507D01*
X292077Y-144956D01*
X291959Y-144405D01*
X291664Y-143933D01*
X291133Y-143619D01*
X290425Y-143461D01*
X290012Y-143147D01*
X289835Y-142596D01*
X289953Y-142045D01*
X290248Y-141652D01*
X290661Y-141416D01*
X291074D01*
X291487Y-141573D01*
X291841Y-141967D01*
G01X296738Y-146136D02*
X294378D01*
Y-141416D01*
X296738D01*
G01X295794Y-143697D02*
X294378D01*
G01X304998Y-146136D02*
X304526Y-146057D01*
X304113Y-145743D01*
X303759Y-145271D01*
X303523Y-144720D01*
X303405Y-144091D01*
Y-143461D01*
X303523Y-142832D01*
X303759Y-142281D01*
X304113Y-141809D01*
X304526Y-141495D01*
X304998Y-141416D01*
X305470Y-141495D01*
X305883Y-141809D01*
X306237Y-142281D01*
X306473Y-142832D01*
X306591Y-143461D01*
Y-144091D01*
X306473Y-144720D01*
X306237Y-145271D01*
X305883Y-145743D01*
X305470Y-146057D01*
X304998Y-146136D01*
G01X308361D02*
Y-141416D01*
X311075Y-146136D01*
Y-141416D01*
G01X313258D02*
Y-146136D01*
X315618D01*
G01X319158D02*
Y-144012D01*
X317978Y-141416D01*
G01X320338D02*
X319158Y-144012D01*
G01X324173Y-147709D02*
X324763Y-146923D01*
X325058Y-146136D01*
Y-142989D01*
X324763Y-142203D01*
X324173Y-141416D01*
G01X147468Y-131709D02*
X151008D01*
G01X152188D02*
X155728D01*
G01X156908D02*
X160448D01*
G01X166938Y-130136D02*
Y-125416D01*
X168354D01*
X168826Y-125652D01*
X169180Y-126203D01*
X169298Y-126832D01*
X169180Y-127461D01*
X168885Y-127933D01*
X168354Y-128169D01*
X166938D01*
G01X171540Y-125416D02*
Y-128799D01*
X171776Y-129507D01*
X172248Y-129979D01*
X172838Y-130136D01*
X173428Y-129979D01*
X173900Y-129507D01*
X174136Y-128799D01*
Y-125416D01*
G01X178030Y-127619D02*
X178266Y-127383D01*
X178443Y-126989D01*
X178561Y-126439D01*
X178443Y-125967D01*
X178207Y-125652D01*
X177794Y-125416D01*
X176201D01*
Y-130136D01*
X178148D01*
X178561Y-129821D01*
X178797Y-129349D01*
X178915Y-128799D01*
X178797Y-128248D01*
X178443Y-127776D01*
X178030Y-127619D01*
X176201D01*
G01X181570Y-125416D02*
X182986D01*
G01X182278D02*
Y-130136D01*
G01X181570D02*
X182986D01*
G01X191423Y-131709D02*
X190833Y-130923D01*
X190538Y-130136D01*
Y-126989D01*
X190833Y-126203D01*
X191423Y-125416D01*
G01X195258Y-130136D02*
Y-125416D01*
X196674D01*
X197146Y-125652D01*
X197500Y-126203D01*
X197618Y-126832D01*
X197500Y-127461D01*
X197205Y-127933D01*
X196674Y-128169D01*
X195258D01*
G01X199860Y-125416D02*
Y-128799D01*
X200096Y-129507D01*
X200568Y-129979D01*
X201158Y-130136D01*
X201748Y-129979D01*
X202220Y-129507D01*
X202456Y-128799D01*
Y-125416D01*
G01X206350Y-127619D02*
X206586Y-127383D01*
X206763Y-126989D01*
X206881Y-126439D01*
X206763Y-125967D01*
X206527Y-125652D01*
X206114Y-125416D01*
X204521D01*
Y-130136D01*
X206468D01*
X206881Y-129821D01*
X207117Y-129349D01*
X207235Y-128799D01*
X207117Y-128248D01*
X206763Y-127776D01*
X206350Y-127619D01*
X204521D01*
G01X209418Y-125416D02*
Y-130136D01*
X211778D01*
G01X214610Y-125416D02*
X216026D01*
G01X215318D02*
Y-130136D01*
G01X214610D02*
X216026D01*
G01X221336Y-125809D02*
X220982Y-125573D01*
X220569Y-125416D01*
X220097D01*
X219566Y-125652D01*
X219153Y-126045D01*
X218858Y-126517D01*
X218622Y-127304D01*
X218563Y-128012D01*
X218681Y-128720D01*
X218858Y-129192D01*
X219212Y-129664D01*
X219625Y-129979D01*
X220038Y-130136D01*
X220451D01*
X220864Y-129979D01*
X221218Y-129743D01*
X221513Y-129428D01*
G01X228770Y-125416D02*
X230186D01*
G01X229478D02*
Y-130136D01*
G01X228770D02*
X230186D01*
G01X232841D02*
Y-125416D01*
X235555Y-130136D01*
Y-125416D01*
G01X237797Y-130136D02*
Y-125416D01*
X240039D01*
G01X239213Y-127697D02*
X237797D01*
G01X243638Y-130136D02*
X243166Y-130057D01*
X242753Y-129743D01*
X242399Y-129271D01*
X242163Y-128720D01*
X242045Y-128091D01*
Y-127461D01*
X242163Y-126832D01*
X242399Y-126281D01*
X242753Y-125809D01*
X243166Y-125495D01*
X243638Y-125416D01*
X244110Y-125495D01*
X244523Y-125809D01*
X244877Y-126281D01*
X245113Y-126832D01*
X245231Y-127461D01*
Y-128091D01*
X245113Y-128720D01*
X244877Y-129271D01*
X244523Y-129743D01*
X244110Y-130057D01*
X243638Y-130136D01*
G01X247178D02*
Y-125416D01*
X248653D01*
X249125Y-125652D01*
X249420Y-125967D01*
X249538Y-126596D01*
X249420Y-127225D01*
X249066Y-127619D01*
X248653Y-127855D01*
X247178D01*
G01X248653D02*
X249538Y-130136D01*
G01X251544D02*
Y-125416D01*
X253078Y-129349D01*
X254612Y-125416D01*
Y-130136D01*
G01X256323D02*
X257798Y-125416D01*
X259273Y-130136D01*
G01X258742Y-128484D02*
X256854D01*
G01X262518Y-125416D02*
Y-130136D01*
G01X261161Y-125416D02*
X263875D01*
G01X266530D02*
X267946D01*
G01X267238D02*
Y-130136D01*
G01X266530D02*
X267946D01*
G01X271958D02*
X271486Y-130057D01*
X271073Y-129743D01*
X270719Y-129271D01*
X270483Y-128720D01*
X270365Y-128091D01*
Y-127461D01*
X270483Y-126832D01*
X270719Y-126281D01*
X271073Y-125809D01*
X271486Y-125495D01*
X271958Y-125416D01*
X272430Y-125495D01*
X272843Y-125809D01*
X273197Y-126281D01*
X273433Y-126832D01*
X273551Y-127461D01*
Y-128091D01*
X273433Y-128720D01*
X273197Y-129271D01*
X272843Y-129743D01*
X272430Y-130057D01*
X271958Y-130136D01*
G01X275321D02*
Y-125416D01*
X278035Y-130136D01*
Y-125416D01*
G01X281693Y-131709D02*
X282283Y-130923D01*
X282578Y-130136D01*
Y-126989D01*
X282283Y-126203D01*
X281693Y-125416D01*
G01X137881Y-98136D02*
Y-93416D01*
X140595Y-98136D01*
Y-93416D01*
G01X142483Y-98136D02*
X143958Y-93416D01*
X145433Y-98136D01*
G01X144902Y-96484D02*
X143014D01*
G01X147144Y-98136D02*
Y-93416D01*
X148678Y-97349D01*
X150212Y-93416D01*
Y-98136D01*
G01X154578D02*
X152218D01*
Y-93416D01*
X154578D01*
G01X153634Y-95697D02*
X152218D01*
G01X187881Y-178136D02*
Y-173416D01*
X190595Y-178136D01*
Y-173416D01*
G01X192660D02*
Y-176799D01*
X192896Y-177507D01*
X193368Y-177979D01*
X193958Y-178136D01*
X194548Y-177979D01*
X195020Y-177507D01*
X195256Y-176799D01*
Y-173416D01*
G01X197144Y-178136D02*
Y-173416D01*
X198678Y-177349D01*
X200212Y-173416D01*
Y-178136D01*
G01X203870Y-175619D02*
X204106Y-175383D01*
X204283Y-174989D01*
X204401Y-174439D01*
X204283Y-173967D01*
X204047Y-173652D01*
X203634Y-173416D01*
X202041D01*
Y-178136D01*
X203988D01*
X204401Y-177821D01*
X204637Y-177349D01*
X204755Y-176799D01*
X204637Y-176248D01*
X204283Y-175776D01*
X203870Y-175619D01*
X202041D01*
G01X209298Y-178136D02*
X206938D01*
Y-173416D01*
X209298D01*
G01X208354Y-175697D02*
X206938D01*
G01X211658Y-178136D02*
Y-173416D01*
X213133D01*
X213605Y-173652D01*
X213900Y-173967D01*
X214018Y-174596D01*
X213900Y-175225D01*
X213546Y-175619D01*
X213133Y-175855D01*
X211658D01*
G01X213133D02*
X214018Y-178136D01*
G54D39*
X180622Y194888D03*
Y196857D03*
Y198826D03*
X190662D03*
Y196857D03*
Y194888D03*
G54D48*
X303909Y211364D03*
Y221364D03*
G54D49*
Y201364D03*
M02*
