G04 ================== begin FILE IDENTIFICATION RECORD ==================*
G04 Layout Name:  LAY-27291_B.brd*
G04 Film Name:    L8_SS.art*
G04 File Format:  Gerber RS274X*
G04 File Origin:  Cadence Allegro 16.3-S019*
G04 Origin Date:  Wed Feb 01 13:28:49 2012*
G04 *
G04 Layer:  VIA CLASS/BOTTOM*
G04 Layer:  PIN/BOTTOM*
G04 Layer:  ETCH/BOTTOM*
G04 Layer:  DRAWING FORMAT/FILM_TITLE_BLOCK*
G04 Layer:  BOARD GEOMETRY/OUTLINE*
G04 *
G04 Offset:    (0.00 0.00)*
G04 Mirror:    No*
G04 Mode:      Positive*
G04 Rotation:  0*
G04 FullContactRelief:  No*
G04 UndefLineWidth:     8.00*
G04 ================== end FILE IDENTIFICATION RECORD ====================*
%FSLAX55Y55*MOIN*%
%IR0*IPPOS*OFA0.00000B0.00000*MIA0B0*SFA1.00000B1.00000*%
%ADD44R,.1X.04*%
%ADD41R,.08X.22*%
%ADD16C,.01*%
%ADD42C,.022*%
%ADD20C,.06*%
%ADD14R,.028X.126*%
%ADD18C,.025*%
%ADD13R,.028X.155*%
%ADD11C,.018*%
%ADD48C,.065*%
%ADD33R,.032X.032*%
%ADD22R,.06X.06*%
%ADD23R,.147X.087*%
%ADD43R,.236X.098*%
%ADD19R,.035X.035*%
%ADD17R,.063X.063*%
%ADD49R,.065X.065*%
%ADD47O,.01X.08*%
%ADD39R,.07X.02*%
%ADD38R,.02X.07*%
%ADD36R,.05X.012*%
%ADD26O,.06X.035*%
%ADD27O,.035X.06*%
%ADD32R,.055X.04*%
%ADD21O,.045X.035*%
%ADD25O,.035X.045*%
%ADD12R,.158X.104*%
%ADD40R,.032X.039*%
%ADD37R,.039X.032*%
%ADD15R,.2X.2*%
%ADD10C,.63*%
%ADD45R,.08X.055*%
%ADD35R,.075X.09*%
%ADD29R,.098X.031*%
%ADD46R,.059X.063*%
%ADD34R,.079X.051*%
%ADD31R,.098X.043*%
%ADD30R,.098X.063*%
%ADD24R,.047X.087*%
%ADD28R,.098X.028*%
%ADD50C,.011*%
%ADD51C,.02*%
%ADD52C,.015*%
%ADD53C,.0115*%
%ADD54C,.008*%
%ADD55C,.006*%
%ADD56C,.009*%
%ADD57C,.0079*%
%ADD64C,.07004*%
%ADD63C,.07404*%
%ADD61C,.02808*%
%ADD58C,.1001*%
%ADD62R,.07404X.07404*%
%ADD65R,.06508X.05008*%
%ADD60R,.07308X.07308*%
%ADD59R,.04906X.04908*%
G75*
%LPD*%
G75*
G36*
G01X-15817Y115371D02*
X-15367Y115821D01*
G02X-14717Y115699I283J-282D01*
G03X-13609Y117657I1285J565D01*
G02X-14060Y118054I-51J397D01*
G01Y122264D01*
X-6734D01*
Y134070D01*
X-20100D01*
Y193814D01*
X59369D01*
Y125614D01*
X92038D01*
Y122144D01*
X102846D01*
Y125614D01*
X145569D01*
Y95114D01*
X140370D01*
Y96930D01*
X132968D01*
Y95114D01*
X118069D01*
Y80717D01*
G03X117202Y79835I698J-1554D01*
G01X117150Y79714D01*
X111769D01*
Y94814D01*
X101469D01*
Y86214D01*
X97022D01*
Y87614D01*
G03X92896Y88868I-2254J0D01*
G01X89277D01*
G03X88438Y89713I-2109J-1255D01*
G02X88410Y90379I207J342D01*
G03X88906Y90860I-1443J1984D01*
G01X91290D01*
G03X95222Y92364I1678J1504D01*
G01Y93364D01*
G03X91290Y94868I-2254J0D01*
G01X88906D01*
G03X84830Y94568I-1938J-1504D01*
G01X83468D01*
G03X81765Y92909I0J-1704D01*
G01X81760Y92714D01*
X58100D01*
Y86214D01*
X36648D01*
X35070Y87772D01*
X26568Y87820D01*
Y94932D01*
X28482D01*
X33232Y99682D01*
G03X30822Y102092I-1205J1205D01*
G01X27070Y98340D01*
X26568D01*
Y107340D01*
X5162D01*
Y87550D01*
X-19358Y87493D01*
X-19366D01*
G03X-19694Y87504I-281J-3476D01*
G02X-20100Y87904I-6J400D01*
G01Y122264D01*
X-17229D01*
Y118028D01*
G03X-17172Y117914I198J28D01*
G01X-17031Y117773D01*
X-17625Y117179D01*
X-17662Y117164D01*
G03X-15832Y115334I530J-1300D01*
G01X-15817Y115371D01*
G37*
G36*
G01X61883Y62872D02*
X70569D01*
Y79514D01*
X80169D01*
Y64514D01*
X90069D01*
Y56614D01*
X162869D01*
Y39068D01*
X161657D01*
G03X160972Y39673I-1938J-1504D01*
G01Y43292D01*
G03X159718Y47418I-1254J1872D01*
G01X157218D01*
G03X155964Y43292I0J-2254D01*
G01Y39673D01*
G03X155452Y39268I1253J-2110D01*
G01X155325D01*
X153574Y41019D01*
G03X151164Y38609I-1205J-1205D01*
G01X153913Y35860D01*
X155452D01*
G03X157218Y35110I1766J1704D01*
G01X159718D01*
G03X161266Y35660I0J2453D01*
G01X162869D01*
Y34495D01*
G02X162299Y34133I-400J0D01*
G03X159686Y33165I-831J-1769D01*
G02X159026Y33060I-365J164D01*
G03X157683Y30744I-1038J-946D01*
G01X157740Y30731D01*
X158107Y30364D01*
X157740Y29997D01*
X157683Y29984D01*
G03X159026Y27668I305J-1370D01*
G02X159686Y27563I295J-269D01*
G03X162299Y26595I1782J801D01*
G02X162869Y26233I170J-362D01*
G01Y11426D01*
G03X162789Y11392I509J-1308D01*
G01X151316D01*
X149129Y13580D01*
X146429D01*
X146426Y13582D01*
X146172D01*
Y13608D01*
X145972D01*
Y16120D01*
X146172D01*
Y16220D01*
X148003D01*
G03X152206Y15660I2265J944D01*
G01X154590D01*
G03X158522Y17164I1678J1504D01*
G01Y18164D01*
G03X154590Y19668I-2254J0D01*
G01X152206D01*
G03X152028Y19873I-1939J-1503D01*
G01X151972Y19932D01*
Y20401D01*
X153867Y22296D01*
X155500D01*
G03Y25704I0J1704D01*
G01X152455D01*
X148564Y21813D01*
Y19930D01*
G03X147892Y18777I1704J-1766D01*
G01X147854Y18628D01*
X146172D01*
Y18728D01*
X139764D01*
Y16120D01*
X139964D01*
Y13608D01*
X139764D01*
Y11000D01*
X146172D01*
Y11022D01*
X148069D01*
X150256Y8836D01*
X162789D01*
G03X162869Y8802I589J1274D01*
G01Y7414D01*
X180014D01*
Y-340D01*
X180069D01*
Y-17486D01*
X46369D01*
Y-2289D01*
X46372Y-2272D01*
G03Y0I-6404J1136D01*
G01X46369Y17D01*
Y9414D01*
X55469D01*
Y62872D01*
X59053D01*
X59074Y62696D01*
G03X61862I1394J168D01*
G01X61883Y62872D01*
G37*
G36*
G01X60569Y65376D02*
Y83710D01*
X60604D01*
Y90210D01*
X74966D01*
Y83862D01*
X82366D01*
Y83710D01*
X85156D01*
G03X85464Y83348I2014J1402D01*
G01Y81764D01*
G03X88872I1704J0D01*
G01Y83348D01*
G03X89180Y83710I-1706J1764D01*
G01X92756D01*
G03X96780I2012J1404D01*
G01X103972D01*
Y83806D01*
X108266D01*
Y92310D01*
X109266D01*
Y77114D01*
X108296D01*
G02X107983Y77763I0J400D01*
G03X106218Y81418I-1765J1401D01*
G01X103718D01*
G03X101953Y77763I0J-2254D01*
G02X101640Y77114I-313J-249D01*
G01X100969D01*
Y75314D01*
X86226D01*
Y76541D01*
G03X83348Y77775I-1704J0D01*
G02X82672Y78064I-276J290D01*
G01Y82018D01*
X68066D01*
Y74922D01*
X63560D01*
Y65376D01*
X60569D01*
G37*
%LPC*%
G75*
G36*
G01X91290Y97360D02*
X88906D01*
G02X84514Y98864I-1938J1504D01*
G01Y99864D01*
G02X85264Y101630I2454J0D01*
G01Y103364D01*
G02X88672I1704J0D01*
G01Y101630D01*
G02X88906Y101368I-1708J-1761D01*
G01X91290D01*
G02X95222Y99864I1678J-1504D01*
G01Y98864D01*
G02X91290Y97360I-2254J0D01*
G37*
G36*
G01X-4801Y98252D02*
G02X-4610Y98442I1470J-1287D01*
G01Y100231D01*
X-4626Y100269D01*
G02X-2038I1294J544D01*
G01X-2054Y100231D01*
Y98442D01*
G02X-1647Y97953I-1278J-1478D01*
G03X-1434Y97858I173J101D01*
G02X-1390Y97865I101J-494D01*
G03X-1036Y98263I-46J397D01*
G01Y100464D01*
G02X2372I1704J0D01*
G01Y97921D01*
G02X-1017Y95975I-1704J-957D01*
G03X-1230Y96070I-173J-101D01*
G02X-1434I-102J494D01*
G03X-1647Y95975I-40J-196D01*
G02X-4818Y95696I-1685J989D01*
G01X-6678D01*
Y93120D01*
X-14386D01*
Y100828D01*
X-6678D01*
Y98252D01*
X-4801D01*
G37*
G36*
G01X41133Y101071D02*
X41264Y101119D01*
Y105577D01*
G02X44672I1704J3287D01*
G01Y100530D01*
G02X44472Y96826I-1704J-1765D01*
G01Y94442D01*
G02X42968Y90510I-1504J-1678D01*
G01X41968D01*
G02X40464Y94442I0J2254D01*
G01Y96826D01*
G02X41133Y101071I1504J1938D01*
G37*
G36*
G01X148284Y22684D02*
X148233Y22670D01*
X148149Y22586D01*
X146799D01*
X146749Y22459D01*
G02X142530Y21860I-2281J905D01*
G01X140502D01*
G02X135938Y23364I-2034J1504D01*
G01Y24364D01*
G02X137750Y26789I2529J0D01*
G01Y27290D01*
G03X137154Y27639I-400J0D01*
G02Y30089I-686J1225D01*
G03X137750Y30438I196J349D01*
G01Y30698D01*
X137730Y30739D01*
G02X140319Y30860I1269J601D01*
G01X140306Y30827D01*
Y30558D01*
G03X140902Y30209I400J0D01*
G02Y27759I686J-1225D01*
G03X140306Y27410I-196J-349D01*
G01Y26102D01*
G02X140502Y25868I-1838J-1738D01*
G01X142530D01*
G02X146749Y25269I1938J-1504D01*
G01X146799Y25142D01*
X147048D01*
X147100Y25180D01*
G02X147163Y25223I823J-1138D01*
G01X147181Y25234D01*
X147264Y25318D01*
X147336D01*
X147374Y25333D01*
G02X148284Y22684I544J-1294D01*
G37*
G36*
G01X138468Y40068D02*
G02Y36660I0J-1704D01*
G01X135192D01*
Y36060D01*
X130586D01*
Y40668D01*
X135192D01*
Y40068D01*
X138468D01*
G37*
G36*
G01X118968D02*
X120756D01*
Y41618D01*
X130062D01*
Y35110D01*
X120756D01*
Y36660D01*
X118968D01*
G02Y40068I0J1704D01*
G37*
G36*
G01X128534Y32238D02*
X129653Y33357D01*
X129668Y33394D01*
G02X131498Y31564I1300J-530D01*
G01X131461Y31549D01*
X128638Y28726D01*
X127852D01*
Y27300D01*
X120944D01*
Y32708D01*
X127852D01*
Y32521D01*
G03X128534Y32238I400J0D01*
G37*
G36*
G01X75968Y26410D02*
X74968D01*
G02X73464Y30802I0J2454D01*
G01Y32926D01*
G02X74968Y37318I1504J1938D01*
G01X75968D01*
G02X78249Y35769I0J-2454D01*
G01X78299Y35642D01*
X83886D01*
X83924Y35658D01*
G02Y33070I544J-1294D01*
G01X83886Y33086D01*
X77658D01*
G02X77472Y32926I-1691J1777D01*
G01Y30802D01*
G02X78062Y30142I-1504J-1938D01*
G01X83886D01*
X83924Y30158D01*
G02Y27570I544J-1294D01*
G01X83886Y27586D01*
X78062D01*
G02X75968Y26410I-2095J1278D01*
G37*
G36*
G01X109746Y36886D02*
Y29762D01*
X111966Y27542D01*
X112284D01*
Y28968D01*
X119192D01*
Y23560D01*
X112284D01*
Y24986D01*
X110906D01*
X107190Y28702D01*
Y36886D01*
G02X106990Y37086I1278J1478D01*
G01X104550D01*
X104512Y37070D01*
G02Y39658I-544J1294D01*
G01X104550Y39642D01*
X106990D01*
G02X110153Y39353I1478J-1278D01*
G03X110366Y39258I173J101D01*
G02X110570I102J-494D01*
G03X110783Y39353I40J196D01*
G02X113809Y36943I1685J-989D01*
G01X113746Y36884D01*
Y36424D01*
X113866Y36304D01*
X113903Y36289D01*
G02X112073Y34459I-530J-1300D01*
G01X112058Y34496D01*
X111190Y35364D01*
Y36886D01*
G02X110783Y37375I1278J1478D01*
G03X110570Y37470I-173J-101D01*
G02X110366I-102J494D01*
G03X110153Y37375I-40J-196D01*
G02X109746Y36886I-1685J989D01*
G37*
G36*
G01X70264Y9659D02*
X67263Y12660D01*
X64925D01*
G02X62283Y13375I-957J1704D01*
G03X62070Y13470I-173J-101D01*
G02X61866I-102J494D01*
G03X61653Y13375I-40J-196D01*
G02X61246Y12886I-1685J989D01*
G01Y11355D01*
G02X59168Y9657I-778J-1168D01*
G01X59153Y9694D01*
X58690Y10157D01*
Y12886D01*
G02X61653Y15353I1278J1478D01*
G03X61866Y15258I173J101D01*
G02X62070I102J-494D01*
G03X62283Y15353I40J196D01*
G02X64925Y16068I1685J-989D01*
G01X68675D01*
X72674Y12069D01*
G02X70264Y9659I-1205J-1205D01*
G37*
G36*
G01X140306Y-1060D02*
Y-3494D01*
X140322Y-3532D01*
G02X137734I-1294J-544D01*
G01X137750Y-3494D01*
Y-1164D01*
G02X137979Y2049I1218J1528D01*
G03X138074Y2262I-101J173D01*
G02Y2466I494J102D01*
G03X137979Y2679I-196J40D01*
G02X137690Y5842I989J1685D01*
G01Y6782D01*
X137674Y6820D01*
G02X140262I1294J544D01*
G01X140246Y6782D01*
Y5842D01*
G02X139957Y2679I-1278J-1478D01*
G03X139862Y2466I101J-173D01*
G02Y2262I-494J-102D01*
G03X139957Y2049I196J-40D01*
G02X140306Y-1060I-989J-1685D01*
G37*
G36*
G01X146672Y-1274D02*
Y-4342D01*
X145353Y-5661D01*
G02X142943Y-3251I-1205J1205D01*
G01X143264Y-2930D01*
Y-1274D01*
G02X142964Y2802I1204J2138D01*
G01Y5186D01*
G02X144468Y9118I1504J1678D01*
G01X145468D01*
G02X146972Y5186I0J-2254D01*
G01Y2802D01*
G02X146672Y-1274I-1504J-1938D01*
G37*
G36*
G01X106180Y-5586D02*
X106196Y-5548D01*
Y4394D01*
X107190Y5388D01*
Y11270D01*
G02X106187Y12459I1277J2095D01*
G01X106137Y12586D01*
X103946D01*
G02X100783Y12875I-1478J1278D01*
G03X100570Y12970I-173J-101D01*
G02X100366I-102J494D01*
G03X100153Y12875I-40J-196D01*
G02X97511Y12160I-1685J989D01*
G01X95468D01*
G02Y15568I0J1704D01*
G01X97511D01*
G02X100153Y14853I957J-1704D01*
G03X100366Y14758I173J101D01*
G02X100570I102J-494D01*
G03X100783Y14853I40J196D01*
G02X103946Y15142I1685J-989D01*
G01X106137D01*
X106187Y15269D01*
G02X110406Y15868I2281J-905D01*
G01X112790D01*
G02X116722Y14364I1678J-1504D01*
G01Y13364D01*
G02X112790Y11860I-2254J0D01*
G01X110406D01*
G02X109746Y11270I-1938J1504D01*
G01Y4328D01*
X108752Y3334D01*
Y-5548D01*
X108768Y-5586D01*
G02X106180I-1294J-544D01*
G37*
G36*
G01X134674Y10358D02*
X134690Y10396D01*
Y11000D01*
X132764D01*
Y13608D01*
X132964D01*
Y16120D01*
X132764D01*
Y16420D01*
X132750D01*
G02Y18428I-982J1004D01*
G01X132764D01*
Y18728D01*
X139172D01*
Y16120D01*
X138972D01*
Y13608D01*
X139172D01*
Y11000D01*
X137246D01*
Y10396D01*
X137262Y10358D01*
G02X134674I-1294J-544D01*
G37*
G36*
G01X76182Y-2333D02*
G02X76153Y-915I-1226J684D01*
G03X76843Y-901I341J209D01*
G02X76872Y-2319I1226J-684D01*
G03X76182Y-2333I-341J-209D01*
G37*
G54D64*
X90968Y108364D03*
G54D63*
X51968Y94864D03*
X65968Y107364D03*
X52968Y108864D03*
X78468Y97364D03*
Y107364D03*
X93468Y50364D03*
X145468Y40864D03*
G54D61*
X8968Y115564D03*
X14368Y115864D03*
X-31Y108479D03*
X18368Y112191D03*
Y115864D03*
X27068Y116264D03*
X30768D03*
X40968Y116714D03*
X22468Y116064D03*
X59668Y116864D03*
X64169Y116714D03*
X50968Y116864D03*
X47268Y116814D03*
X129442Y107356D03*
X133042Y107387D03*
X140445D03*
X69619Y-4366D03*
X66119D03*
X67968Y34364D03*
Y24364D03*
Y29364D03*
X83968Y14364D03*
X103968Y53364D03*
X99669Y43364D03*
X103968Y48364D03*
X133908Y-4076D03*
X131348Y-7756D03*
X128788Y-4456D03*
X116014Y33009D03*
X131348Y28864D03*
X125968Y48364D03*
X141588Y-7756D03*
X136468Y-7636D03*
X144148Y31544D03*
X134468Y33864D03*
G54D58*
X42Y124747D03*
G54D62*
X32968Y108864D03*
X93468Y40364D03*
G54D65*
X124398Y22524D03*
G54D60*
X-10532Y110754D03*
G54D59*
X-7973Y103864D03*
%LPD*%
G75*
G54D10*
X15865Y46144D03*
G54D11*
X-20000Y46000D03*
X-16331Y90114D03*
X-17132Y115864D03*
X-4160Y-9896D03*
X-6763Y-12460D03*
X4165Y-3286D03*
X4265Y-13704D03*
X1755Y-13636D03*
X-3194Y-18798D03*
X-2030Y-16500D03*
X4680Y-18924D03*
X-7131Y-18537D03*
X8617Y-18785D03*
X-3532Y-13136D03*
X668Y93564D03*
X-8032Y89613D03*
X-13432Y116264D03*
X668Y100464D03*
X8968Y115564D03*
X14368Y115864D03*
X-4822Y110754D03*
X-4632Y115664D03*
X-3332Y100813D03*
X-31Y108479D03*
X-2300Y240300D03*
X-7242Y239516D03*
X-7429Y242660D03*
X1567Y239829D03*
X3969Y231914D03*
X4856Y240107D03*
X-7131Y249914D03*
X-5469Y246414D03*
X9869Y249314D03*
X8969Y246014D03*
X-231Y246114D03*
X43769Y10314D03*
X37033Y92839D03*
X32027Y100887D03*
X18368Y112191D03*
Y115864D03*
X27068Y116264D03*
X30768D03*
X40968Y116714D03*
X22468Y116064D03*
X31657Y244687D03*
X28302Y240414D03*
X31969Y231014D03*
X41569Y230514D03*
X25429Y232814D03*
X14569Y239114D03*
X22069Y235614D03*
X34969Y243914D03*
X38969Y234634D03*
X20428Y240414D03*
X14808Y243068D03*
X16669Y245914D03*
X41875Y248102D03*
X25816Y246661D03*
X17969Y249114D03*
X33169Y249798D03*
X69619Y-4366D03*
X66119D03*
X67968Y34364D03*
Y24364D03*
X71469Y10864D03*
X52468Y19364D03*
X67968Y29364D03*
X60468Y10187D03*
X52468Y49364D03*
X49934Y40649D03*
X52468Y44364D03*
X51468Y53364D03*
X60468Y62864D03*
X53094Y38739D03*
X59668Y116864D03*
X64169Y116714D03*
X54968Y116864D03*
X69469Y116514D03*
X50968Y116864D03*
X47268Y116814D03*
X54169Y233914D03*
X73369Y244594D03*
X63318Y230564D03*
X58768Y230364D03*
X53459Y239817D03*
X71069Y231414D03*
X59069Y234214D03*
X64827Y244587D03*
X49068Y231064D03*
X54168Y230414D03*
X48325Y240020D03*
X46325Y247214D03*
X49827Y246014D03*
X55861Y250400D03*
X55927Y246414D03*
X62869Y247489D03*
X48777Y250664D03*
X71169Y248714D03*
X74956Y-1648D03*
X78069Y-1586D03*
X95231Y-19373D03*
X84468Y34364D03*
X83968Y14364D03*
X88234Y14679D03*
Y19379D03*
X88034Y24279D03*
X83968Y19364D03*
Y24364D03*
X95468Y13864D03*
X84468Y28864D03*
X103968Y53364D03*
X99669Y43364D03*
X80319Y63341D03*
X75234Y63579D03*
X86468Y49364D03*
X84968Y59364D03*
Y54364D03*
X103968Y48364D03*
Y38364D03*
X83468Y92864D03*
X87168Y81764D03*
X97569Y92864D03*
X75369Y77814D03*
X100069Y87914D03*
X84523Y76541D03*
X88869Y72114D03*
X86968Y103364D03*
X92734Y116479D03*
X84134Y116379D03*
X76734Y116479D03*
X104134Y99179D03*
X100134Y103979D03*
X97069Y99364D03*
X104041Y147545D03*
X103468Y165864D03*
X103974Y162400D03*
X100969Y241388D03*
X95450D03*
X93169Y250214D03*
X89788Y249914D03*
X85769Y248614D03*
X77669Y248214D03*
X107474Y-6130D03*
X133908Y-4076D03*
X131348Y-7756D03*
X117474Y-6142D03*
X114916Y-19373D03*
X128788Y-4456D03*
X131768Y17424D03*
X113373Y34989D03*
X128500Y17900D03*
X130472Y14172D03*
X130968Y32864D03*
X116014Y33009D03*
X131348Y28864D03*
X118968Y38364D03*
X125968Y48364D03*
X110168Y71564D03*
X114669Y81214D03*
X118768Y71564D03*
Y79164D03*
X129442Y107356D03*
X133042Y107387D03*
X118034Y100179D03*
X114134Y104079D03*
X113434Y120979D03*
X127074Y114470D03*
X104651Y124047D03*
X118904Y143619D03*
X132468Y132364D03*
X109280Y152050D03*
X104169Y151414D03*
X104968Y141014D03*
X118968Y132364D03*
X104885Y127947D03*
X104169Y155514D03*
X109153Y155548D03*
X109468Y147050D03*
X104451Y133847D03*
X104968Y137414D03*
X108506Y160300D03*
X104379Y169244D03*
X109468Y182050D03*
X109231Y179280D03*
X109648Y163397D03*
X104586Y180363D03*
X108038Y166831D03*
X104468Y176864D03*
X106293Y163987D03*
X108269Y175914D03*
X104819Y183856D03*
X104696Y158975D03*
X109692Y172716D03*
X104369Y195714D03*
X109468Y187050D03*
X109469Y193430D03*
X104286Y187316D03*
X105169Y207314D03*
X106969Y202814D03*
X105823Y192530D03*
X129228Y243453D03*
X119468Y235364D03*
X131769Y239814D03*
X123682Y243808D03*
X122756Y228266D03*
X111417Y244962D03*
X114916Y249367D03*
X116969Y246114D03*
X107042Y250241D03*
X118853Y250400D03*
X122790Y247193D03*
X144148Y-4456D03*
X139028Y-4076D03*
X141588Y-7756D03*
X134601Y-19373D03*
X136468Y-7636D03*
X144148Y31544D03*
X136468Y28864D03*
X138968Y7364D03*
X135968Y9814D03*
X141588Y28984D03*
X134468Y33864D03*
X159618Y17206D03*
X149700Y6800D03*
X163369Y10114D03*
X157988Y28614D03*
X138999Y31340D03*
X147918Y24039D03*
X157988Y32114D03*
X155500Y24000D03*
X153468Y51864D03*
X138769Y43364D03*
X158468Y49364D03*
X138468Y38364D03*
X152369Y39814D03*
X139246Y64836D03*
X137669Y59570D03*
X160404Y87277D03*
Y95151D03*
Y91214D03*
Y99088D03*
Y114719D03*
Y103025D03*
Y118656D03*
Y122593D03*
X160391Y106599D03*
X140445Y107387D03*
X160404Y130467D03*
Y134404D03*
X139168Y149364D03*
X138718Y153114D03*
X144268Y155464D03*
X138669Y177050D03*
X144968Y165864D03*
X138654Y182050D03*
X157978Y160874D03*
X141968Y168864D03*
X144968Y159864D03*
X138654Y167050D03*
X144569Y172050D03*
X151033Y207914D03*
X150468Y193364D03*
X139154Y187050D03*
X144468Y207864D03*
X139569Y201014D03*
X138973Y193539D03*
X162400Y240300D03*
X154133Y219862D03*
X158968Y225864D03*
X158468Y216864D03*
X155968Y223864D03*
X150349Y243234D03*
X152967Y240801D03*
X145400Y233700D03*
X162264Y226038D03*
X156263Y240627D03*
X140109Y242714D03*
X136658Y243301D03*
X146093Y245887D03*
X146412Y249671D03*
X155569Y247014D03*
X134601Y248414D03*
X140433Y245999D03*
X181718Y-1636D03*
X191168Y-4636D03*
X188018Y-1636D03*
X176468Y5864D03*
X185783Y-19373D03*
X193468Y13864D03*
X168468Y19564D03*
X165518Y16414D03*
X169368Y13264D03*
X181468Y25864D03*
X188468Y21864D03*
X185468Y28864D03*
X182468Y21864D03*
X168968Y23364D03*
X190468Y31364D03*
X180968Y53864D03*
X184868Y53764D03*
X169968Y39364D03*
X191168Y53664D03*
X187968Y61465D03*
X178468Y45864D03*
X178968Y61364D03*
X183968Y42364D03*
X165968Y47364D03*
X169968Y42864D03*
X172768Y65664D03*
X188018Y56265D03*
X180089Y95151D03*
X168278Y91214D03*
Y95151D03*
X164341Y87277D03*
X172215Y91214D03*
Y87277D03*
X187847Y95151D03*
X172215D03*
X176152D03*
Y91214D03*
X180089Y87277D03*
Y91214D03*
X187847Y87277D03*
X168278D03*
X164341Y95151D03*
X191784D03*
Y91214D03*
Y87277D03*
X187847Y91214D03*
X164341D03*
X176152Y87277D03*
X192600Y75000D03*
X175068Y82464D03*
X174968Y78364D03*
X192318Y82464D03*
X172215Y106962D03*
X164341Y114719D03*
X176152Y99088D03*
X172215Y103025D03*
X164341Y99088D03*
X187947Y106700D03*
X191784Y106962D03*
X179969Y99088D03*
X188100Y103000D03*
X172215Y122593D03*
Y118656D03*
Y99088D03*
X187847Y122593D03*
X176152D03*
X168278Y103025D03*
X164341D03*
X168278Y114719D03*
X172215D03*
X168278Y99088D03*
X191784Y103025D03*
X164341Y118656D03*
X191784D03*
X187847D03*
X191784Y114719D03*
X187847D03*
X180089Y106962D03*
Y114719D03*
X176152Y118656D03*
X180089D03*
X176152Y114719D03*
Y106962D03*
Y103025D03*
X180089D03*
X168278Y106962D03*
X164341D03*
X187969Y99088D03*
X191784D03*
X168278Y118656D03*
Y122593D03*
X180089D03*
X164341D03*
X191784D03*
X191850Y130499D03*
X191784Y134404D03*
X176152Y126530D03*
X168278Y130467D03*
Y134404D03*
X180089D03*
X172215Y126530D03*
X176152Y130467D03*
Y134404D03*
X191784Y126530D03*
X187847Y130467D03*
X172215Y134404D03*
X187847D03*
X180089Y126530D03*
Y130467D03*
X164341D03*
X172215D03*
X187847Y126530D03*
X164341Y134404D03*
X177654Y153678D03*
X168069Y139364D03*
X191569Y141914D03*
X183897Y142021D03*
X179268Y149064D03*
X164154Y154050D03*
X183869Y146014D03*
X183897Y138561D03*
X168468Y145364D03*
X183169Y176914D03*
X180880Y180884D03*
X183478Y160874D03*
X177968Y175364D03*
X188408Y177175D03*
X190968Y180864D03*
X171485Y175214D03*
X192968Y171364D03*
X184769Y167114D03*
X176069Y180814D03*
X169468Y200364D03*
X186120Y214714D03*
X193552Y215362D03*
X182140Y233600D03*
X185169Y244114D03*
X192959Y232914D03*
X189468Y227414D03*
X180169Y240914D03*
X169968Y229864D03*
X165968Y240300D03*
X189862Y215643D03*
X181968Y216364D03*
X170500Y236200D03*
X190600Y240700D03*
X186468Y239627D03*
X187859Y247204D03*
X170035Y250400D03*
X189720D03*
X171989Y246100D03*
X179269Y249714D03*
X178669Y245714D03*
X168469D03*
X210068Y-4136D03*
X206918Y-2086D03*
X220543Y-5136D03*
X212968Y-8136D03*
Y-1786D03*
X200468Y-2485D03*
X218469Y-8136D03*
X196569Y14414D03*
X199968Y28864D03*
X203968Y23364D03*
Y10364D03*
Y27364D03*
X200469Y21114D03*
X194468Y31364D03*
X206968Y34364D03*
X203968Y19364D03*
Y15364D03*
X200393Y16364D03*
X197468Y42364D03*
X212968Y63364D03*
X218968Y48364D03*
X210468Y61364D03*
X205468Y41864D03*
X201468D03*
X197468Y53864D03*
X194242Y56739D03*
X216408Y50924D03*
X203168Y61164D03*
X203595Y91214D03*
Y87277D03*
X195721Y95151D03*
X207532D03*
Y91214D03*
X210069Y87177D03*
X199658Y91214D03*
X195650Y87348D03*
X195721Y91214D03*
X199658Y95151D03*
Y87277D03*
X203595Y95151D03*
X215468Y66864D03*
X220769Y88314D03*
X221528Y69364D03*
X207969Y70864D03*
X218968Y66864D03*
X222021Y101613D03*
X207532Y114719D03*
X195721D03*
X203595D03*
X207532Y118656D03*
X199658Y114719D03*
X195721Y118656D03*
X199658D03*
X195721Y122593D03*
X203595D03*
X199658Y99088D03*
Y122593D03*
X207532D03*
X199658Y103025D03*
X203595Y106962D03*
X195721D03*
X203595Y103025D03*
X195721D03*
X207532Y106962D03*
X199658D03*
X203595Y118656D03*
X195721Y99088D03*
X203595D03*
X218598Y120591D03*
X223468Y97864D03*
X195721Y126530D03*
Y130467D03*
Y134404D03*
X199658Y130467D03*
X203595D03*
Y126530D03*
X199658D03*
Y134404D03*
X207532Y126530D03*
X212069Y130914D03*
X203595Y134404D03*
X196218Y152244D03*
X201366Y140069D03*
X196218Y138884D03*
X222543Y143439D03*
X219328Y127083D03*
X199718Y152244D03*
X221569Y163814D03*
X199669Y165314D03*
X212365Y165444D03*
X218746Y161744D03*
X204728Y193814D03*
X213160Y210084D03*
X210765Y193814D03*
X204469Y187514D03*
X201136Y205386D03*
X207368Y211872D03*
X209968Y202364D03*
X217365Y194014D03*
X205040Y202443D03*
X222365Y194114D03*
X221669Y239730D03*
X218585Y241386D03*
X210968Y227364D03*
X210079Y219259D03*
X207273Y216710D03*
X214669Y241214D03*
X203468Y227364D03*
X207200Y240614D03*
X203468Y240600D03*
X198268Y240682D03*
X210968Y240700D03*
X194900Y240400D03*
X209405Y250400D03*
X218959Y245847D03*
X211167Y245914D03*
X215669Y246114D03*
X234322Y-6632D03*
X233268Y2164D03*
X248775Y-19373D03*
X247929Y-3598D03*
X248100Y35100D03*
X247984Y26016D03*
X224968Y25864D03*
X225418Y35314D03*
X226400Y15700D03*
X226569Y19100D03*
X226968Y22714D03*
X225500Y42600D03*
X224468Y61864D03*
X231109Y49774D03*
X224969Y46814D03*
X226900Y39500D03*
X227468Y50864D03*
X224468Y55864D03*
X226968Y66864D03*
X226563Y92172D03*
X230968Y66864D03*
X234276Y90185D03*
X225192Y117895D03*
X223869Y138864D03*
X233289Y131185D03*
X251448Y131403D03*
X225931Y154744D03*
X232365Y163314D03*
X252018Y163364D03*
X239409Y165514D03*
X237289Y162984D03*
X225468Y158864D03*
X247365Y164814D03*
X241369Y158914D03*
X251968Y193744D03*
X247365Y194364D03*
X232368Y210914D03*
X237454Y212014D03*
X225153Y195961D03*
X237365Y194364D03*
X237354Y223914D03*
X224968Y240414D03*
X238463Y243108D03*
X235600Y236800D03*
X252469Y233514D03*
X232365Y223314D03*
X224968Y225864D03*
X228258Y240149D03*
X252569Y242814D03*
X250664Y239261D03*
X243369Y243114D03*
X246464Y236759D03*
X234722Y239982D03*
X242997Y236276D03*
X238669Y239814D03*
X227777Y245822D03*
X229969Y250114D03*
X236068Y245648D03*
X243717Y247234D03*
X245969Y249914D03*
X265062Y19098D03*
X264968Y22864D03*
X254020Y15664D03*
X264968Y57364D03*
X265934Y54498D03*
X254100Y46064D03*
X264968Y46864D03*
X262468Y91214D03*
X263571Y88795D03*
X260968Y77864D03*
X255969Y99364D03*
X262768Y126027D03*
X260745Y127676D03*
X260968Y149364D03*
X254468Y150115D03*
X265468Y150864D03*
X261968Y163364D03*
X254468Y158864D03*
X261438Y172894D03*
X262669Y195714D03*
X262069Y186394D03*
X277569Y213214D03*
X270472Y221211D03*
X281468Y239864D03*
X279969Y225714D03*
X282946Y242815D03*
X273674Y219797D03*
X260968Y229864D03*
X261364Y235864D03*
X309438Y-10709D03*
X311492Y-12763D03*
X311767Y-19736D03*
X305227Y19097D03*
X305502Y54014D03*
X289065Y88732D03*
X290828Y84598D03*
X305502Y88381D03*
Y122881D03*
X296468Y182914D03*
X293715Y198117D03*
X303995Y241660D03*
X287468Y226864D03*
X309468Y230364D03*
X299468Y239814D03*
X287468Y239864D03*
X311361Y242128D03*
X311449Y245386D03*
X283715Y225714D03*
X293715Y225594D03*
X285970Y244414D03*
X308869Y234014D03*
X308169Y245014D03*
X294669Y241014D03*
X303893Y245414D03*
X307830Y250664D03*
X305974Y248637D03*
X311767Y250400D03*
X299956D03*
X296019D03*
X319807Y198136D03*
X320088Y225903D03*
G54D20*
X39968Y-1136D03*
X42968Y108864D03*
X51968Y94864D03*
X65968Y107364D03*
X52968Y108864D03*
X93468Y50364D03*
X78468Y97364D03*
X90968Y108364D03*
X78468Y107364D03*
X129468Y63364D03*
X113968D03*
X115914Y226864D03*
X128968D03*
X147968Y63364D03*
X145468Y40864D03*
X165468Y63364D03*
X136669Y83229D03*
X145468Y226864D03*
X168869Y218814D03*
X192968Y222364D03*
X216224Y204177D03*
Y217238D03*
X202968Y222364D03*
X251883Y86692D03*
X238281D03*
X238582Y74928D03*
X243224Y217238D03*
X229224Y204177D03*
Y217238D03*
X256724D03*
X243224Y204177D03*
X243468Y229864D03*
X271468Y-836D03*
X285968Y-1136D03*
X284487Y11922D03*
X275468Y178364D03*
X256724Y204177D03*
X269968Y203364D03*
X285968Y191864D03*
X269468Y228864D03*
G54D30*
X97442Y178027D03*
G54D12*
X-15338Y128167D03*
Y216527D03*
G54D21*
X42468Y92764D03*
Y98764D03*
X75468Y34864D03*
Y28864D03*
X144968Y6864D03*
Y864D03*
X158468Y213364D03*
Y207364D03*
X158968Y235864D03*
Y229864D03*
X152968Y235864D03*
Y229864D03*
X178968Y64864D03*
X165968Y43364D03*
Y37364D03*
X187968Y64864D03*
X188368Y76464D03*
Y82464D03*
X179168Y76464D03*
Y82464D03*
X178968Y70864D03*
X187968D03*
X183968Y106164D03*
Y100164D03*
X183862Y121645D03*
Y115645D03*
X188268Y145364D03*
Y139364D03*
X179268Y145364D03*
Y139364D03*
X172468Y145364D03*
Y139364D03*
X165968Y235864D03*
Y229864D03*
X189468Y236864D03*
Y230864D03*
X217468Y61864D03*
Y55864D03*
X213168Y121464D03*
Y127464D03*
X196468Y236864D03*
Y230864D03*
X203468Y236864D03*
Y230864D03*
X210968Y236864D03*
Y230864D03*
X228468Y61864D03*
Y55864D03*
X234276Y93776D03*
X225277Y107531D03*
Y113531D03*
X234276Y121401D03*
Y99776D03*
Y127401D03*
X264968Y37364D03*
Y43364D03*
Y71864D03*
Y77864D03*
X265468Y140864D03*
Y146864D03*
X296468Y186364D03*
Y192364D03*
G54D31*
X97442Y224047D03*
G54D40*
X183968Y93521D03*
Y88087D03*
X183868Y127108D03*
Y132542D03*
G54D22*
X32968Y108864D03*
X93468Y40364D03*
X78468Y87364D03*
X115914Y216864D03*
X128968D03*
X136669Y93229D03*
X145468Y216864D03*
X182968Y222364D03*
X271468Y9164D03*
X285468Y178364D03*
X269968Y213364D03*
G54D13*
X12554Y-29086D03*
X8617D03*
X4680D03*
X743D03*
X-3194D03*
X-7131D03*
X-11068Y260014D03*
X-7131D03*
X-3194D03*
X743D03*
X4680D03*
X8617D03*
X12554D03*
X44050Y-29086D03*
X40113D03*
X28302D03*
X24365D03*
X20428D03*
X16491D03*
Y260014D03*
X20428D03*
X24365D03*
X28302D03*
X32239D03*
X36176D03*
X40113D03*
X44050D03*
X71609Y-29086D03*
X67672D03*
X63735D03*
X59798D03*
X55861D03*
X51924D03*
X47987D03*
Y260014D03*
X51924D03*
X55861D03*
X59798D03*
X63735D03*
X67672D03*
X71609D03*
X103105Y-29086D03*
X99168D03*
X95231D03*
X91294D03*
X87357D03*
X83420D03*
X79483D03*
X75546D03*
Y260014D03*
X79483D03*
X83420D03*
X87357D03*
X91294D03*
X95231D03*
X99168D03*
X103105D03*
X130664Y-29086D03*
X126727D03*
X122790D03*
X118853D03*
X114916D03*
X110979D03*
X107042D03*
Y260014D03*
X110979D03*
X114916D03*
X118853D03*
X122790D03*
X126727D03*
X130664D03*
X162161Y-29086D03*
X158224D03*
X154287D03*
X150349D03*
X146412D03*
X142475D03*
X138538D03*
X134601D03*
Y260014D03*
X138538D03*
X142475D03*
X146412D03*
X150349D03*
X154287D03*
X158224D03*
X162161D03*
X193657Y-29086D03*
X189720D03*
X185783D03*
X181846D03*
X177909D03*
X173972D03*
X170035D03*
X166098D03*
Y260014D03*
X170035D03*
X173972D03*
X177909D03*
X181846D03*
X185783D03*
X189720D03*
X193657D03*
X221216Y-29086D03*
X217279D03*
X213342D03*
X209405D03*
X205468D03*
X201531D03*
X197594D03*
Y260014D03*
X201531D03*
X205468D03*
X209405D03*
X213342D03*
X217279D03*
X221216D03*
X252712Y-29086D03*
X248775D03*
X244838D03*
X240901D03*
X236964D03*
X233027D03*
X229090D03*
X225153D03*
Y260014D03*
X229090D03*
X233027D03*
X236964D03*
X240901D03*
X244838D03*
X248775D03*
X252712D03*
X280271Y-29086D03*
X276334D03*
X272397D03*
X268460D03*
X264523D03*
X260586D03*
X256649D03*
Y260014D03*
X260586D03*
X264523D03*
X276334D03*
X280271D03*
X311767Y-29086D03*
X307830D03*
X303893D03*
X299956D03*
X296019D03*
X292082D03*
X288145D03*
X284208D03*
Y260014D03*
X288145D03*
X292082D03*
X296019D03*
X299956D03*
X303893D03*
X307830D03*
X311767D03*
X315704Y-29086D03*
G54D50*
G01X168278Y95151D02*
X166328Y97101D01*
X158982D01*
X158869Y97214D01*
G54D32*
X124398Y22524D03*
Y30004D03*
X115738Y26264D03*
G54D23*
X75468Y45659D03*
X114468Y113069D03*
G54D14*
X-11068Y-27636D03*
X315704Y258564D03*
G54D41*
X247968Y12163D03*
Y49565D03*
G54D51*
G01X359468Y-90136D02*
Y-190136D01*
X-40532D01*
G01D02*
Y-90136D01*
X359468D01*
G01X15865Y46144D02*
X-20000Y46000D01*
G01X-6763Y-12460D02*
X-9893Y-15590D01*
Y-19833D01*
X-11068Y-21008D01*
Y-27636D01*
G01X743Y-29086D02*
Y-14648D01*
X1755Y-13636D01*
G01X-3194Y-18798D02*
Y-29086D01*
G01X-7131D02*
Y-18537D01*
G01X4680Y-29086D02*
Y-18924D01*
G01X8617Y-29086D02*
Y-18785D01*
G01X15865Y-4348D02*
X5231D01*
X4169Y-3286D01*
X4165D01*
G01X-3194Y-18798D02*
Y-17664D01*
X-2030Y-16500D01*
G01X668Y96964D02*
Y100464D01*
G01X-11068Y260014D02*
Y250031D01*
X-9044Y248007D01*
Y244275D01*
X-7429Y242660D01*
G01D02*
Y239703D01*
X-7242Y239516D01*
G01X-7131Y260014D02*
Y249914D01*
G01X15865Y46144D02*
X44439D01*
X49934Y40649D01*
G01X32027Y100887D02*
X27776Y96636D01*
X15865D01*
G01X42968Y108864D02*
Y99264D01*
X42468Y98764D01*
G01X63968Y14364D02*
X67969D01*
X71469Y10864D01*
G01X55861Y260014D02*
Y250400D01*
G01X95231Y-29086D02*
Y-19373D01*
G01X98468Y13864D02*
X95468D01*
G01X83468Y92864D02*
X86968D01*
G01X87168Y86364D02*
Y81764D01*
G01X84523Y70069D02*
X86824D01*
X88869Y72114D01*
G01X84523Y70069D02*
Y76541D01*
G01X86968Y99364D02*
Y103364D01*
G01X97442Y124047D02*
X104651D01*
G01X97442Y150147D02*
X100379D01*
X102940Y147586D01*
X104000D01*
X104041Y147545D01*
G01X104379Y169244D02*
X104209Y169414D01*
X97875D01*
X97442Y169847D01*
G01X104586Y180363D02*
X99778D01*
X97442Y178027D01*
G01X89788Y249914D02*
Y249965D01*
X87357Y252396D01*
Y260014D01*
G01X114916Y-29086D02*
Y-19373D01*
G01X125409Y38364D02*
X118968D01*
G01X138468D02*
X132889D01*
G01X104968Y71564D02*
X110168D01*
G01X123468D02*
X118768D01*
G01X123523Y88659D02*
Y79219D01*
X123468Y79164D01*
G01D02*
X118768D01*
G01X128968Y132364D02*
X132468D01*
G01X119069Y149714D02*
Y145114D01*
X118904Y144949D01*
Y143619D01*
G01X125218Y159864D02*
X109569D01*
X109133Y160300D01*
X108506D01*
G01X123968Y170364D02*
Y168615D01*
X125218Y167365D01*
Y159864D01*
G01X129968Y170364D02*
X139018D01*
X140518Y168864D01*
X141968D01*
G01X122968Y235364D02*
X119468D01*
G01X130664Y260014D02*
Y245819D01*
X131987Y244496D01*
Y242334D01*
X131769Y242116D01*
Y239814D01*
G01X118853Y260014D02*
Y250400D01*
G01X134601Y-29086D02*
Y-19373D01*
G01X144148Y-4456D02*
X144968Y-3636D01*
Y864D01*
G01X155500Y24000D02*
X153161D01*
X150268Y21107D01*
Y17664D01*
G01X165168Y72864D02*
X157468D01*
X147968Y63364D01*
G01X158468Y45164D02*
Y49364D01*
G01X165968Y37364D02*
X158668D01*
X158468Y37564D01*
G01X152369Y39814D02*
X154619Y37564D01*
X158468D01*
G01X138718Y159864D02*
Y153114D01*
G01X164154Y160874D02*
X157978D01*
G01X138718Y159864D02*
X144968D01*
G01X169468Y200364D02*
X162468Y207364D01*
X158468D01*
G01Y213364D02*
Y216864D01*
G01X134601Y260014D02*
Y248414D01*
G01X185783Y-29086D02*
Y-19373D01*
G01X175468Y25864D02*
X181468D01*
G01X175468Y35314D02*
X168018D01*
X165968Y37364D01*
G01X175468Y22714D02*
X169618D01*
X168968Y23364D01*
G01X178968Y64864D02*
Y61364D01*
G01X165968Y43364D02*
Y47364D01*
G01X187968Y64864D02*
Y61465D01*
G01X188368Y76464D02*
X191136D01*
X192600Y75000D01*
G01D02*
X195668Y71932D01*
Y70864D01*
G01X179168Y82464D02*
X175068D01*
G01D02*
X174969Y82365D01*
X169720D01*
X165168Y77813D01*
Y72864D01*
G01X179168Y76464D02*
X176868D01*
X174968Y78364D01*
G01X187968Y70864D02*
X178968D01*
G01X172768Y72864D02*
X173168Y72464D01*
X177368D01*
X178968Y70864D01*
G01X172768Y72864D02*
Y65664D01*
G01X188368Y82464D02*
X192318D01*
G01X177654Y160874D02*
Y153678D01*
G01X191569Y141914D02*
Y140714D01*
X190219Y139364D01*
X188268D01*
G01X172468D02*
X168069D01*
G01X164154Y160874D02*
Y154050D01*
G01X172468Y145364D02*
X168468D01*
G01X179268D02*
Y149064D01*
G01X183869Y146014D02*
X184169Y146314D01*
X186826D01*
X187776Y145364D01*
X188268D01*
G01X183897Y138561D02*
Y135893D01*
X183868Y135864D01*
Y132542D01*
G01X222365Y194114D02*
Y194671D01*
X219022Y198014D01*
X215708D01*
X213365Y195671D01*
Y171610D01*
X205419Y163664D01*
Y141064D01*
G01X177968Y171364D02*
Y175364D01*
G01X177654Y160874D02*
X183478D01*
G01X189468Y171364D02*
X192968D01*
G01X171968D02*
Y174574D01*
X171485Y175057D01*
Y175214D01*
G01X170035Y260014D02*
Y250400D01*
G01X189720Y260014D02*
Y250400D01*
G01X212968Y-5136D02*
Y-8136D01*
G01X219468Y25864D02*
X224968D01*
G01X210468Y56864D02*
Y61364D01*
G01X217468Y61864D02*
X214468D01*
X212968Y63364D01*
G01X210068Y47864D02*
Y52900D01*
X210468Y53300D01*
Y56864D01*
G01X216408Y50924D02*
Y54804D01*
X217468Y55864D01*
G01X203168Y61164D02*
X204468Y59864D01*
Y56864D01*
G01D02*
Y55132D01*
X206918Y52682D01*
Y47864D01*
G01X220769Y88314D02*
X217469D01*
X216468Y89315D01*
Y92364D01*
G01X211968Y93364D02*
X215468D01*
X216468Y92364D01*
G01X207969Y70864D02*
X203268D01*
G01X238281Y86692D02*
X223553Y71964D01*
X209069D01*
X207969Y70864D01*
G01X222468Y92364D02*
X226371D01*
X226563Y92172D01*
G01X213168Y121464D02*
X217719D01*
X218592Y120591D01*
X218598D01*
G01X220468Y97864D02*
X223468D01*
G01X209572Y132617D02*
Y157721D01*
X217365Y165514D01*
Y194014D01*
G01X213168Y127464D02*
X218919D01*
X219300Y127083D01*
X219328D01*
G01X209968Y209364D02*
X212440D01*
X213160Y210084D01*
G01X209968Y205364D02*
Y202364D01*
G01X209405Y260014D02*
Y250400D01*
G01X248775Y-29086D02*
Y-19373D01*
G01X228468Y61864D02*
X224468D01*
G01X228468Y55864D02*
X224468D01*
G01X234276Y93776D02*
Y90185D01*
G01Y127401D02*
Y130198D01*
X233289Y131185D01*
G01X254468Y150115D02*
X248275Y143922D01*
Y138864D01*
G01X231661Y158864D02*
X225468D01*
G01X264968Y25864D02*
Y22864D01*
G01Y60364D02*
Y57364D01*
G01X262468Y94364D02*
Y91214D01*
G01X266873Y129395D02*
X262464D01*
X260745Y127676D01*
G01X311767Y-29086D02*
Y-19736D01*
G01X311492Y-12763D02*
X309438Y-10709D01*
G01X315704Y-29086D02*
Y-19853D01*
X314463Y-18612D01*
Y-15734D01*
X311492Y-12763D01*
G01X315704Y258564D02*
Y251851D01*
X314467Y250614D01*
Y248404D01*
X311449Y245386D01*
G01X307830Y260014D02*
Y250664D01*
G01X303893Y260014D02*
Y250142D01*
X303552Y249801D01*
Y245755D01*
X303893Y245414D01*
G01X311767Y260014D02*
Y250400D01*
G01X299956Y260014D02*
Y250400D01*
G01X296019Y260014D02*
Y250400D01*
G54D24*
X66413Y70069D03*
X75468D03*
X105413Y88659D03*
X84523Y70069D03*
X123523Y88659D03*
X114468D03*
G54D15*
X15865Y-4348D03*
Y96636D03*
G54D33*
X132889Y38364D03*
G54D42*
X277115Y42144D03*
Y76944D03*
Y111444D03*
Y145944D03*
G54D52*
G01X-10532Y110754D02*
X-6678D01*
G01X-14386D02*
X-10532D01*
G01D02*
Y114608D01*
G01Y106900D02*
Y110754D01*
G01X42468Y92764D02*
X45422D01*
G01X39514D02*
X42468D01*
G01Y90310D02*
Y92764D01*
G01X63359Y70069D02*
X66413D01*
G01D02*
Y75123D01*
G01X101264Y79164D02*
X104968D01*
G01X78468Y87364D02*
X82170Y83662D01*
G01X74766D02*
X78468Y87364D01*
G01X94768Y86364D02*
X97222Y90068D01*
G01X94768Y86364D02*
X97222D01*
G01X92968Y92864D02*
X95422D01*
G01X92968D02*
Y95818D01*
G01X90968Y108364D02*
X93786Y105546D01*
G01X88150Y111182D02*
X90968Y108364D01*
G01D02*
X93786Y111182D01*
G01X92968Y99364D02*
X95422D01*
G01X92968D02*
Y102318D01*
G01Y96410D02*
Y99364D01*
G01X91838Y124047D02*
X97442D01*
G01Y121943D02*
Y124047D01*
G01X114468Y13864D02*
X116922D01*
G01X114468D02*
Y16818D01*
G01Y10910D02*
Y13864D01*
G01X124398Y22524D02*
X127852D01*
G01X120944D02*
X124398D01*
G01D02*
Y25228D01*
G01Y19820D02*
Y22524D01*
G01X132764Y14864D02*
X135968D01*
G01X104968Y79164D02*
X108672D01*
G01X104968D02*
Y81618D01*
G01X105413Y88659D02*
X108467D01*
G01X105413Y83605D02*
Y88659D01*
G01X144968Y6864D02*
X147922D01*
G01X144968D02*
Y9318D01*
G01X156268Y17664D02*
X158722D01*
G01X156268Y14710D02*
Y17664D01*
G01X135968Y14864D02*
X139172D01*
G01X142968D02*
X146172D01*
G01X139764D02*
X142968D01*
G01X158468Y45164D02*
X162172D01*
G01X154764D02*
X158468D01*
G54D34*
X125409Y38364D03*
G54D25*
X92968Y92864D03*
X86968D03*
X92968Y99364D03*
X86968D03*
X114468Y13864D03*
X108468D03*
X122968Y132364D03*
X128968D03*
X129968Y170364D03*
X123968D03*
X122968Y235364D03*
X128968D03*
X156268Y17664D03*
X150268D03*
X144468Y23864D03*
X138468D03*
X190969Y110814D03*
X170168Y110764D03*
X176168D03*
X189468Y171364D03*
X183468D03*
X171968D03*
X177968D03*
X210468Y56864D03*
X204468D03*
X222468Y92364D03*
X216468D03*
X196969Y110814D03*
X266468Y99364D03*
X260468D03*
G54D43*
X256976Y110407D03*
G54D16*
G01X-40532Y-170136D02*
X359468D01*
G01X-40532Y-140136D02*
Y-120136D01*
X359468D01*
G01X9468Y-190136D02*
Y-170136D01*
G01X135968Y17424D02*
X131768D01*
G01X134968Y-190136D02*
Y-170136D01*
G01X134468Y-120136D02*
Y-90136D01*
G01X142968Y17424D02*
X150028D01*
X150268Y17664D01*
G01X183862Y121645D02*
X182831Y120614D01*
X163611D01*
X162441Y119444D01*
Y113586D01*
X159119Y110264D01*
X159091D01*
G01X184468Y-190136D02*
Y-170136D01*
G01X183968Y88087D02*
X185969D01*
X187196Y89314D01*
X188635D01*
X189884Y90563D01*
Y92002D01*
X189922Y92040D01*
Y98262D01*
X189884Y98300D01*
Y101125D01*
X191784Y103025D01*
G01X183968Y93521D02*
Y100164D01*
G01X191784Y103025D02*
X193821Y105062D01*
X196731D01*
X197621Y105952D01*
Y107750D01*
X196969Y108402D01*
Y110814D01*
G01X191784Y103025D02*
X189847Y104962D01*
Y107546D01*
X183862Y113531D01*
Y115645D01*
G01X187947Y106700D02*
X187555D01*
X187019Y106164D01*
X183968D01*
G01X191784Y106962D02*
X191247Y107499D01*
Y108372D01*
X190969Y108650D01*
Y110814D01*
G01X188100Y103000D02*
X187822D01*
X184986Y100164D01*
X183968D01*
G01D02*
X181701D01*
X180877Y100988D01*
X179438D01*
X178189Y102237D01*
Y107613D01*
X176168Y109634D01*
Y110764D01*
G01X183868Y127108D02*
Y121651D01*
X183862Y121645D01*
G01X190969Y110814D02*
X189769Y112014D01*
Y119614D01*
X188689Y120693D01*
X187059D01*
X186107Y121645D01*
X183862D01*
G01X164525Y110264D02*
X169668D01*
X170168Y110764D01*
G01X183968Y106164D02*
Y110815D01*
X182169Y112614D01*
X179506D01*
X178189Y113931D01*
Y115507D01*
X176940Y116756D01*
X171427D01*
X170178Y115507D01*
Y113931D01*
X170168Y113921D01*
Y110764D01*
G01X179268Y139364D02*
X181070D01*
X183727Y142021D01*
X183897D01*
G01X205419Y141064D02*
Y133164D01*
X204617Y132362D01*
X200451D01*
X200446Y132367D01*
X198870D01*
X197758Y131255D01*
Y129679D01*
X196593Y128514D01*
X187143D01*
X185737Y127108D01*
X183868D01*
G01X195721Y95151D02*
Y95314D01*
X197621Y97214D01*
X208919D01*
X209069Y97364D01*
G01X213168Y121464D02*
X209091D01*
X208320Y120693D01*
X206881D01*
X205632Y119444D01*
Y113931D01*
X207486Y112077D01*
Y110914D01*
G01X202052D02*
Y113716D01*
X201646Y114122D01*
Y127127D01*
X203133Y128614D01*
X205569D01*
X209572Y132617D01*
G01X196969Y110814D02*
X201952D01*
X202052Y110914D01*
G01X228468Y55864D02*
Y51864D01*
X227468Y50864D01*
X0Y0D03*
X-316Y20983D03*
Y38305D03*
X42Y124747D03*
Y219947D03*
X84004Y140800D03*
Y198300D03*
X124004Y140800D03*
Y198300D03*
X206115Y179644D03*
X263615D03*
X310365Y6697D03*
G54D53*
G01X-15338Y128167D02*
Y117658D01*
X-17132Y115864D01*
G01X-10532Y96974D02*
X-3342D01*
X-3332Y96964D01*
G01D02*
Y100813D01*
G01X14569Y239114D02*
X12369Y241314D01*
Y245329D01*
X12554Y245514D01*
Y260014D01*
G01X3969Y231914D02*
X7263Y235208D01*
Y243320D01*
X4680Y245903D01*
Y260014D01*
G01X-3194D02*
Y247851D01*
X-4631Y246414D01*
X-5469D01*
G01X8969Y246014D02*
X7469Y247514D01*
Y250214D01*
X8617Y251362D01*
Y260014D01*
G01X-231Y246114D02*
Y251014D01*
X743Y251988D01*
Y260014D01*
G01X31969Y231014D02*
Y240614D01*
X28302Y244281D01*
Y260014D01*
G01X40113D02*
Y255558D01*
X38851Y254296D01*
Y248050D01*
X41369Y245532D01*
Y230714D01*
X41569Y230514D01*
G01X25429Y232814D02*
Y243972D01*
X23103Y246298D01*
Y250514D01*
X24365Y251776D01*
Y260014D01*
G01X20428D02*
Y245755D01*
X22603Y243580D01*
Y236148D01*
X22069Y235614D01*
G01X38969Y234634D02*
Y234999D01*
X38869Y235099D01*
Y244814D01*
X36176Y247507D01*
Y260014D01*
G01X32239D02*
Y251944D01*
X30977Y250682D01*
Y245367D01*
X31657Y244687D01*
G01X16491Y260014D02*
Y250712D01*
X15794Y250015D01*
Y246789D01*
X16669Y245914D01*
G01X59968Y14364D02*
Y10687D01*
X60468Y10187D01*
G01X51924Y260014D02*
Y247341D01*
X56069Y243196D01*
Y235814D01*
X54169Y233914D01*
G01X49827Y246014D02*
X49774D01*
X47874Y244114D01*
X44869D01*
X44050Y244933D01*
Y260014D01*
G01X73369Y244594D02*
X71524Y246439D01*
X70226D01*
X67672Y248993D01*
Y260014D01*
G01X47987D02*
Y252997D01*
X46584Y251594D01*
Y247473D01*
X46325Y247214D01*
G01X62869Y247489D02*
X62694Y247664D01*
Y250557D01*
X63735Y251598D01*
Y260014D01*
G01X64827Y244587D02*
X61774D01*
X59798Y246563D01*
Y260014D01*
G01X108468Y13864D02*
X102468D01*
G01X84468Y34364D02*
X75968D01*
X75468Y34864D01*
G01Y28864D02*
X84468D01*
G01X97442Y127947D02*
X104885D01*
G01X97442Y133847D02*
X104451D01*
G01X104968Y137414D02*
X102768Y139614D01*
X98375D01*
X97442Y140547D01*
G01X104696Y158975D02*
X104681D01*
X103709Y159947D01*
X97442D01*
G01Y209147D02*
X103336D01*
X105169Y207314D01*
G01X106969Y202814D02*
Y202680D01*
X103636Y199347D01*
X97442D01*
G01X105823Y192530D02*
X105634D01*
X102551Y189447D01*
X97442D01*
G01X108468Y13864D02*
Y4858D01*
X107474Y3864D01*
Y-6130D01*
G01X124398Y30004D02*
X128108D01*
X130968Y32864D01*
G01X115738Y26264D02*
X111436D01*
X108468Y29232D01*
Y38364D01*
G01X112468D02*
Y35894D01*
X113373Y34989D01*
G01X103968Y38364D02*
X108468D01*
G01X104169Y151414D02*
X105569D01*
X107208Y149775D01*
X115008D01*
X115069Y149714D01*
G01X122968Y132364D02*
X118968D01*
G01D02*
X109302D01*
X104885Y127947D01*
G01X109468Y187050D02*
X121755D01*
X142569Y207864D01*
X144468D01*
G01X128968Y235364D02*
Y226864D01*
G01X139028Y-4076D02*
Y304D01*
X138968Y364D01*
G01Y4364D02*
Y7364D01*
G01X135968Y12304D02*
Y9814D01*
G01X163369Y10114D02*
X150786D01*
X148599Y12301D01*
X145899D01*
X145896Y12304D01*
X142968D01*
G01X138999Y31340D02*
X139028Y31311D01*
Y24424D01*
X138468Y23864D01*
G01X144468D02*
X147619D01*
X147794Y24039D01*
X147918D01*
G01X158869Y97214D02*
X148087Y107996D01*
Y157926D01*
X148543Y158382D01*
Y168076D01*
X144569Y172050D01*
G01X188408Y177175D02*
X177669Y187914D01*
X167769D01*
X147819Y207864D01*
X144468D01*
G01X152968Y229864D02*
Y221309D01*
X154133Y220144D01*
Y219862D01*
G01X158968Y229864D02*
Y225864D01*
G01Y235864D02*
Y248570D01*
X158224Y249314D01*
Y260014D01*
G01X150349D02*
Y243234D01*
G01X154287Y260014D02*
Y251188D01*
X152968Y249869D01*
Y240802D01*
X152967Y240801D01*
G01D02*
X152968Y240800D01*
Y235864D01*
G01X162264Y226038D02*
X162279Y226023D01*
X164253D01*
X165968Y227738D01*
Y229864D01*
G01X140109Y242714D02*
Y242983D01*
X138258Y244834D01*
Y246900D01*
X138538Y247180D01*
Y260014D01*
G01X146093Y245887D02*
X145865D01*
X142475Y249277D01*
Y260014D01*
G01X162161D02*
Y248139D01*
X170500Y239800D01*
Y236200D01*
G01X146412Y260014D02*
Y249671D01*
G01X181718Y3864D02*
Y-1636D01*
G01X191168Y3864D02*
Y-4636D01*
G01X188018Y3864D02*
Y-1636D01*
G01X175468Y19564D02*
X168468D01*
G01X175468Y16414D02*
X165518D01*
G01X175468Y13264D02*
X169368D01*
G01X175468Y10114D02*
X163369D01*
G01X181718Y47864D02*
Y53114D01*
X180968Y53864D01*
G01X184868Y47864D02*
Y53764D01*
G01X169968Y39364D02*
X170868Y38464D01*
X175468D01*
G01X191168Y47864D02*
Y53664D01*
G01X169968Y42864D02*
X171218Y41614D01*
X175468D01*
G01X188018Y47864D02*
Y56265D01*
G01X183169Y176914D02*
Y176663D01*
X183468Y176364D01*
Y171364D01*
G01X182140Y233600D02*
X182000D01*
X174164Y241436D01*
Y247001D01*
X173972Y247193D01*
Y260014D01*
G01X185169Y244114D02*
X185684Y244629D01*
Y248105D01*
X185783Y248204D01*
Y260014D01*
G01X192959Y232914D02*
Y232814D01*
X191009Y230864D01*
X189468D01*
G01X180169Y240914D02*
X181846Y242591D01*
Y260014D01*
G01X170500Y236200D02*
X170164Y235864D01*
X165968D01*
G01X193657Y260014D02*
Y246745D01*
X193569Y246657D01*
X193481D01*
X186627Y239803D01*
Y239786D01*
X186468Y239627D01*
G01D02*
X189231Y236864D01*
X189468D01*
G01X178669Y245714D02*
X177094Y247289D01*
Y250615D01*
X177909Y251430D01*
Y260014D01*
G01X166098D02*
Y248085D01*
X168469Y245714D01*
G01X210068Y3864D02*
Y-4136D01*
G01X206918Y3864D02*
Y-2086D01*
G01X212968Y-1786D02*
Y3614D01*
X213218Y3864D01*
G01X218469Y-8136D02*
X218319D01*
X216968Y-6785D01*
Y-5136D01*
G01X219468Y32164D02*
X219618Y32014D01*
X228118D01*
X228468Y32364D01*
G01X219468Y29014D02*
X226655D01*
X226955Y28714D01*
X228118D01*
X228468Y28364D01*
G01X226400Y15700D02*
X225686Y16414D01*
X219468D01*
G01X226569Y19100D02*
X226105Y19564D01*
X219468D01*
G01Y22714D02*
X226968D01*
G01X219468Y41614D02*
X224514D01*
X225500Y42600D01*
G01X224969Y46814D02*
X224244Y46089D01*
X216186D01*
X214411Y47864D01*
X213218D01*
G01X203768D02*
Y43564D01*
X205468Y41864D01*
G01X200618Y47864D02*
Y42714D01*
X201468Y41864D01*
G01X226900Y39500D02*
X225864Y38464D01*
X219468D01*
G01X197468Y47864D02*
Y53864D01*
G01X219468Y35314D02*
X225418D01*
G01X194242Y56739D02*
X194318D01*
Y47864D01*
G01X207532Y106962D02*
X207698Y106796D01*
X212390D01*
G01X207532Y114719D02*
X207799Y114452D01*
X212390D01*
G01X209069Y97364D02*
X211968D01*
G01X219990Y114452D02*
X220911Y113531D01*
X225277D01*
G01X219990Y106796D02*
X220725Y107531D01*
X225277D01*
G01X211968Y97364D02*
X215968D01*
X216468Y97864D01*
G01X204728Y193814D02*
X202569Y195973D01*
Y203743D01*
X204190Y205364D01*
X205968D01*
G01Y209364D02*
Y205364D01*
G01X207368Y211872D02*
X207031D01*
X198600Y220303D01*
Y228732D01*
X196468Y230864D01*
G01X218585Y241386D02*
X218915Y241716D01*
Y241891D01*
X221216Y244192D01*
Y260014D01*
G01X210968Y230864D02*
X213243Y228589D01*
Y222423D01*
X210079Y219259D01*
G01X203468Y230864D02*
X207369Y226963D01*
Y217517D01*
X207273Y217421D01*
Y216710D01*
G01X213342Y260014D02*
Y243141D01*
X214669Y241814D01*
Y241214D01*
G01X210968Y236864D02*
Y240700D01*
G01D02*
X210900Y240768D01*
Y242841D01*
X205468Y248273D01*
Y260014D01*
G01X201531D02*
Y244876D01*
X200443Y243788D01*
Y239557D01*
X203136Y236864D01*
X203468D01*
G01X194900Y240400D02*
X196468Y238832D01*
Y236864D01*
G01X197594Y260014D02*
Y243094D01*
X194900Y240400D01*
G01X215669Y246114D02*
X215369Y246414D01*
Y249414D01*
X217279Y251324D01*
Y260014D01*
G01X228468Y32364D02*
X228643Y32189D01*
X245189D01*
X248100Y35100D01*
G01X247968Y12163D02*
Y25968D01*
X247984Y25984D01*
Y26016D01*
G01X228468Y28364D02*
X228643Y28539D01*
X245461D01*
X247984Y26016D01*
G01X248100Y35100D02*
Y49433D01*
X247968Y49565D01*
G01X234276Y115407D02*
X231344D01*
X229468Y113531D01*
X225277D01*
G01X234276Y121401D02*
Y115407D01*
G01Y105407D02*
X231092D01*
X228968Y107531D01*
X225277D01*
G01X234276Y99776D02*
Y105407D01*
G01X231661Y138864D02*
X223869D01*
G01X248275Y158864D02*
X254468D01*
G01X260586Y260014D02*
Y242627D01*
X258674Y240715D01*
Y233549D01*
X247774Y222649D01*
X238959D01*
X237694Y223914D01*
X237354D01*
G01X238463Y243108D02*
Y250110D01*
X236964Y251609D01*
Y260014D01*
G01X256649D02*
Y241731D01*
X255242Y240324D01*
Y233158D01*
X246883Y224799D01*
X242486D01*
X241020Y226265D01*
X235316D01*
X232365Y223314D01*
G01X225153Y260014D02*
Y243305D01*
X227869Y240589D01*
Y240538D01*
X228258Y240149D01*
G01X250664Y239261D02*
X248775Y241150D01*
Y260014D01*
G01X243369Y243114D02*
Y243314D01*
X240901Y245782D01*
Y260014D01*
G01X227777Y245822D02*
Y251140D01*
X229090Y252453D01*
Y260014D01*
G01X236068Y245648D02*
X235321D01*
X233027Y247942D01*
Y260014D01*
G01X252569Y242814D02*
Y259871D01*
X252712Y260014D01*
G01X243717Y247234D02*
X243032Y247919D01*
Y250477D01*
X244838Y252283D01*
Y260014D01*
G01X264968Y29864D02*
X277371D01*
X282051Y34544D01*
X290828D01*
G01X264968Y64364D02*
X268499D01*
X288733Y84598D01*
X290828D01*
G01X264968Y37364D02*
X272335D01*
X277115Y42144D01*
G01X264968Y43364D02*
Y46864D01*
G01Y71864D02*
X272035D01*
X277115Y76944D01*
G01X264968Y77864D02*
X260968D01*
G01X289065Y88732D02*
X268318D01*
X266468Y90582D01*
Y94364D01*
G01Y99364D02*
X269819D01*
X277115Y106660D01*
Y111444D01*
G01X260468Y99364D02*
X255969D01*
G01X265468Y140864D02*
X272035D01*
X277115Y145944D01*
G01X266873Y133395D02*
X275728D01*
X280677Y138344D01*
X290828D01*
G01X265468Y146864D02*
Y150864D01*
G01X303909Y211364D02*
X291019D01*
X283019Y203364D01*
X269968D01*
G01X270472Y221211D02*
X270875Y221614D01*
X271269D01*
X278421Y228766D01*
Y248989D01*
X276334Y251076D01*
Y260014D01*
G01X280271D02*
Y241061D01*
X281468Y239864D01*
G01X269468Y228864D02*
Y231532D01*
X262736Y238264D01*
Y249975D01*
X264523Y251762D01*
Y260014D01*
G01X305502Y34544D02*
Y19647D01*
X305227Y19372D01*
Y19097D01*
G01X305502Y69344D02*
Y54014D01*
G01X290828Y103844D02*
Y90457D01*
X289103Y88732D01*
X289065D01*
G01X290828Y84598D02*
Y69344D01*
G01X305502Y103844D02*
Y88381D01*
G01Y138344D02*
Y122881D01*
G01X296468Y192364D02*
Y203923D01*
X303909Y211364D01*
G01X299468Y239814D02*
X292082Y247200D01*
Y260014D01*
G01X287468Y239864D02*
X288145Y240541D01*
Y260014D01*
G01X284208D02*
Y246176D01*
X285970Y244414D01*
G54D35*
X125218Y159864D03*
X138718D03*
X164154Y160874D03*
X177654D03*
G54D26*
X104968Y71564D03*
Y79164D03*
X123468Y71564D03*
Y79164D03*
X158468Y45164D03*
Y37564D03*
G54D17*
X-10532Y96974D03*
Y110754D03*
G54D44*
X234276Y105407D03*
Y115407D03*
G54D54*
G01X274368Y244264D02*
Y272164D01*
X276368Y274164D01*
X315668D01*
X317668Y272164D01*
Y235264D01*
X319668Y233264D01*
X329468D01*
Y-2336D01*
X319668D01*
X317668Y-4336D01*
Y-41236D01*
X315668Y-43236D01*
X40068D01*
X38068Y-41236D01*
Y-13336D01*
G03X30268I-3900J0D01*
G01Y-41236D01*
X28268Y-43236D01*
X-11032D01*
X-13032Y-41236D01*
Y-4336D01*
X-15032Y-2336D01*
X-24832D01*
Y233264D01*
X-15032D01*
X-13032Y235264D01*
Y272164D01*
X-11032Y274164D01*
X264568D01*
X266568Y272164D01*
Y244264D01*
G03X274368I3900J0D01*
G54D45*
X231661Y138864D03*
X248275D03*
X231661Y158864D03*
X248275D03*
G54D27*
X94768Y86364D03*
X87168D03*
X172768Y72864D03*
X165168D03*
X195668Y70864D03*
X203268D03*
X212390Y106796D03*
X219990D03*
X212390Y114452D03*
X219990D03*
G54D36*
X135968Y17424D03*
Y14864D03*
Y12304D03*
X142968D03*
Y14864D03*
Y17424D03*
G54D18*
G01X296468Y186364D02*
Y182914D01*
X668Y96964D03*
X-3332D03*
X59968Y14364D03*
X63968D03*
X98468Y13864D03*
X102468D03*
X112468Y38364D03*
X108468D03*
X119069Y149714D03*
X115069D03*
X138968Y4364D03*
Y364D03*
X161468Y28364D03*
Y32364D03*
X165468Y28364D03*
Y32364D03*
X216968Y-5136D03*
X212968D03*
X211968Y93364D03*
Y97364D03*
X216468Y97864D03*
X220468D03*
X195968Y146864D03*
Y142864D03*
X199968Y146864D03*
Y142864D03*
X205968Y205364D03*
X209968D03*
Y209364D03*
X205968D03*
X228468Y32364D03*
Y28364D03*
X264968Y29864D03*
Y25864D03*
Y64364D03*
Y60364D03*
X266468Y94364D03*
X262468D03*
X266873Y133395D03*
Y129395D03*
G54D55*
G01X-38060Y-186247D02*
Y-179947D01*
X-39000Y-181207D01*
G01Y-186247D02*
X-37120D01*
G01X-31760D02*
Y-179947D01*
X-32700Y-181207D01*
G01Y-186247D02*
X-30820D01*
G01X-19160D02*
X-19787Y-186142D01*
X-20335Y-185722D01*
X-20805Y-185092D01*
X-21118Y-184357D01*
X-21275Y-183517D01*
Y-182677D01*
X-21118Y-181837D01*
X-20805Y-181102D01*
X-20335Y-180472D01*
X-19787Y-180052D01*
X-19160Y-179947D01*
X-18533Y-180052D01*
X-17985Y-180472D01*
X-17515Y-181102D01*
X-17202Y-181837D01*
X-17045Y-182677D01*
Y-183517D01*
X-17202Y-184357D01*
X-17515Y-185092D01*
X-17985Y-185722D01*
X-18533Y-186142D01*
X-19160Y-186247D01*
G01X-14348D02*
Y-179947D01*
X-11372D01*
G01X-12468Y-182992D02*
X-14348D01*
G01X-260Y-186247D02*
Y-179947D01*
X-1200Y-181207D01*
G01Y-186247D02*
X680D01*
G01X6980D02*
Y-179947D01*
X4082Y-184462D01*
X7998D01*
G01X-37505Y-102136D02*
Y-94636D01*
X-33959D01*
G01X-35265Y-98261D02*
X-37505D01*
G01X-30099Y-102136D02*
Y-94636D01*
X-27765D01*
X-27019Y-95011D01*
X-26552Y-95511D01*
X-26365Y-96511D01*
X-26552Y-97511D01*
X-27112Y-98136D01*
X-27765Y-98511D01*
X-30099D01*
G01X-27765D02*
X-26365Y-102136D01*
G01X-18865D02*
X-22599D01*
Y-94636D01*
X-18865D01*
G01X-20359Y-98261D02*
X-22599D01*
G01X-11365Y-102136D02*
X-15099D01*
Y-94636D01*
X-11365D01*
G01X-12859Y-98261D02*
X-15099D01*
G01X-7692Y-101136D02*
X-6945Y-101761D01*
X-6105Y-102136D01*
X-5359D01*
X-4612Y-101761D01*
X-4052Y-101136D01*
X-3772Y-100261D01*
X-3959Y-99386D01*
X-4425Y-98636D01*
X-5265Y-98136D01*
X-6385Y-97886D01*
X-7039Y-97386D01*
X-7319Y-96511D01*
X-7132Y-95636D01*
X-6665Y-95011D01*
X-6012Y-94636D01*
X-5359D01*
X-4705Y-94886D01*
X-4145Y-95511D01*
G01X3821Y-95261D02*
X3261Y-94886D01*
X2608Y-94636D01*
X1861D01*
X1021Y-95011D01*
X368Y-95636D01*
X-99Y-96386D01*
X-472Y-97636D01*
X-565Y-98761D01*
X-379Y-99886D01*
X-99Y-100636D01*
X461Y-101386D01*
X1115Y-101886D01*
X1768Y-102136D01*
X2421D01*
X3075Y-101886D01*
X3635Y-101511D01*
X4101Y-101011D01*
G01X6935Y-102136D02*
X9268Y-94636D01*
X11601Y-102136D01*
G01X10761Y-99511D02*
X7775D01*
G01X14901Y-94636D02*
Y-102136D01*
X18635D01*
G01X26135D02*
X22401D01*
Y-94636D01*
X26135D01*
G01X24641Y-98261D02*
X22401D01*
G01X37308Y-101136D02*
X38055Y-101761D01*
X38895Y-102136D01*
X39641D01*
X40388Y-101761D01*
X40948Y-101136D01*
X41228Y-100261D01*
X41041Y-99386D01*
X40575Y-98636D01*
X39735Y-98136D01*
X38615Y-97886D01*
X37961Y-97386D01*
X37681Y-96511D01*
X37868Y-95636D01*
X38335Y-95011D01*
X38988Y-94636D01*
X39641D01*
X40295Y-94886D01*
X40855Y-95511D01*
G01X48635Y-102136D02*
X44901D01*
Y-94636D01*
X48635D01*
G01X47141Y-98261D02*
X44901D01*
G01X51841Y-102136D02*
Y-94636D01*
X54268Y-100886D01*
X56695Y-94636D01*
Y-102136D01*
G01X60648Y-94636D02*
X62888D01*
G01X61768D02*
Y-102136D01*
G01X60648D02*
X62888D01*
G01X71321Y-95261D02*
X70761Y-94886D01*
X70108Y-94636D01*
X69361D01*
X68521Y-95011D01*
X67868Y-95636D01*
X67401Y-96386D01*
X67028Y-97636D01*
X66935Y-98761D01*
X67121Y-99886D01*
X67401Y-100636D01*
X67961Y-101386D01*
X68615Y-101886D01*
X69268Y-102136D01*
X69921D01*
X70575Y-101886D01*
X71135Y-101511D01*
X71601Y-101011D01*
G01X76768Y-102136D02*
X76021Y-102011D01*
X75368Y-101511D01*
X74808Y-100761D01*
X74435Y-99886D01*
X74248Y-98886D01*
Y-97886D01*
X74435Y-96886D01*
X74808Y-96011D01*
X75368Y-95261D01*
X76021Y-94761D01*
X76768Y-94636D01*
X77515Y-94761D01*
X78168Y-95261D01*
X78728Y-96011D01*
X79101Y-96886D01*
X79288Y-97886D01*
Y-98886D01*
X79101Y-99886D01*
X78728Y-100761D01*
X78168Y-101511D01*
X77515Y-102011D01*
X76768Y-102136D01*
G01X82121D02*
Y-94636D01*
X86415Y-102136D01*
Y-94636D01*
G01X89715Y-102136D02*
Y-94636D01*
X91581D01*
X92328Y-95011D01*
X92888Y-95511D01*
X93355Y-96261D01*
X93728Y-97136D01*
X93821Y-98386D01*
X93728Y-99636D01*
X93355Y-100511D01*
X92888Y-101261D01*
X92328Y-101761D01*
X91581Y-102136D01*
X89715D01*
G01X97215Y-94636D02*
Y-100011D01*
X97588Y-101136D01*
X98335Y-101886D01*
X99268Y-102136D01*
X100201Y-101886D01*
X100948Y-101136D01*
X101321Y-100011D01*
Y-94636D01*
G01X108821Y-95261D02*
X108261Y-94886D01*
X107608Y-94636D01*
X106861D01*
X106021Y-95011D01*
X105368Y-95636D01*
X104901Y-96386D01*
X104528Y-97636D01*
X104435Y-98761D01*
X104621Y-99886D01*
X104901Y-100636D01*
X105461Y-101386D01*
X106115Y-101886D01*
X106768Y-102136D01*
X107421D01*
X108075Y-101886D01*
X108635Y-101511D01*
X109101Y-101011D01*
G01X114268Y-94636D02*
Y-102136D01*
G01X112121Y-94636D02*
X116415D01*
G01X121768Y-102136D02*
X121021Y-102011D01*
X120368Y-101511D01*
X119808Y-100761D01*
X119435Y-99886D01*
X119248Y-98886D01*
Y-97886D01*
X119435Y-96886D01*
X119808Y-96011D01*
X120368Y-95261D01*
X121021Y-94761D01*
X121768Y-94636D01*
X122515Y-94761D01*
X123168Y-95261D01*
X123728Y-96011D01*
X124101Y-96886D01*
X124288Y-97886D01*
Y-98886D01*
X124101Y-99886D01*
X123728Y-100761D01*
X123168Y-101511D01*
X122515Y-102011D01*
X121768Y-102136D01*
G01X127401D02*
Y-94636D01*
X129735D01*
X130481Y-95011D01*
X130948Y-95511D01*
X131135Y-96511D01*
X130948Y-97511D01*
X130388Y-98136D01*
X129735Y-98511D01*
X127401D01*
G01X129735D02*
X131135Y-102136D01*
G01X32295Y-185407D02*
X32922Y-185932D01*
X33627Y-186247D01*
X34253D01*
X34880Y-185932D01*
X35350Y-185407D01*
X35585Y-184672D01*
X35428Y-183937D01*
X35037Y-183307D01*
X34332Y-182887D01*
X33392Y-182677D01*
X32843Y-182257D01*
X32608Y-181522D01*
X32765Y-180787D01*
X33157Y-180262D01*
X33705Y-179947D01*
X34253D01*
X34802Y-180157D01*
X35272Y-180682D01*
G01X41807Y-186247D02*
X38673D01*
Y-179947D01*
X41807D01*
G01X40553Y-182992D02*
X38673D01*
G01X48263Y-180472D02*
X47793Y-180157D01*
X47245Y-179947D01*
X46618D01*
X45913Y-180262D01*
X45365Y-180787D01*
X44973Y-181417D01*
X44660Y-182467D01*
X44582Y-183412D01*
X44738Y-184357D01*
X44973Y-184987D01*
X45443Y-185617D01*
X45992Y-186037D01*
X46540Y-186247D01*
X47088D01*
X47637Y-186037D01*
X48107Y-185722D01*
X48498Y-185302D01*
G01X52840Y-186247D02*
X52213Y-186142D01*
X51665Y-185722D01*
X51195Y-185092D01*
X50882Y-184357D01*
X50725Y-183517D01*
Y-182677D01*
X50882Y-181837D01*
X51195Y-181102D01*
X51665Y-180472D01*
X52213Y-180052D01*
X52840Y-179947D01*
X53467Y-180052D01*
X54015Y-180472D01*
X54485Y-181102D01*
X54798Y-181837D01*
X54955Y-182677D01*
Y-183517D01*
X54798Y-184357D01*
X54485Y-185092D01*
X54015Y-185722D01*
X53467Y-186142D01*
X52840Y-186247D01*
G01X57338D02*
Y-179947D01*
X60942Y-186247D01*
Y-179947D01*
G01X63717Y-186247D02*
Y-179947D01*
X65283D01*
X65910Y-180262D01*
X66380Y-180682D01*
X66772Y-181312D01*
X67085Y-182047D01*
X67163Y-183097D01*
X67085Y-184147D01*
X66772Y-184882D01*
X66380Y-185512D01*
X65910Y-185932D01*
X65283Y-186247D01*
X63717D01*
G01X69782D02*
X71740Y-179947D01*
X73698Y-186247D01*
G01X72993Y-184042D02*
X70487D01*
G01X76473Y-186247D02*
Y-179947D01*
X78432D01*
X79058Y-180262D01*
X79450Y-180682D01*
X79607Y-181522D01*
X79450Y-182362D01*
X78980Y-182887D01*
X78432Y-183202D01*
X76473D01*
G01X78432D02*
X79607Y-186247D01*
G01X84340D02*
Y-183412D01*
X82773Y-179947D01*
G01X85907D02*
X84340Y-183412D01*
G01X95295Y-185407D02*
X95922Y-185932D01*
X96627Y-186247D01*
X97253D01*
X97880Y-185932D01*
X98350Y-185407D01*
X98585Y-184672D01*
X98428Y-183937D01*
X98037Y-183307D01*
X97332Y-182887D01*
X96392Y-182677D01*
X95843Y-182257D01*
X95608Y-181522D01*
X95765Y-180787D01*
X96157Y-180262D01*
X96705Y-179947D01*
X97253D01*
X97802Y-180157D01*
X98272Y-180682D01*
G01X102300Y-179947D02*
X104180D01*
G01X103240D02*
Y-186247D01*
G01X102300D02*
X104180D01*
G01X107817D02*
Y-179947D01*
X109383D01*
X110010Y-180262D01*
X110480Y-180682D01*
X110872Y-181312D01*
X111185Y-182047D01*
X111263Y-183097D01*
X111185Y-184147D01*
X110872Y-184882D01*
X110480Y-185512D01*
X110010Y-185932D01*
X109383Y-186247D01*
X107817D01*
G01X117407D02*
X114273D01*
Y-179947D01*
X117407D01*
G01X116153Y-182992D02*
X114273D01*
G01X152173Y-147136D02*
X155463Y-140836D01*
G01X152173D02*
X155463Y-147136D01*
G01X222818Y-185136D02*
Y-178836D01*
X221878Y-180096D01*
G01Y-185136D02*
X223758D01*
G01X228961D02*
X229118Y-183771D01*
X229353Y-182616D01*
X229666Y-181566D01*
X230058Y-180411D01*
X230685Y-178836D01*
X227551D01*
G01X235418D02*
X234791Y-179046D01*
X234321Y-179571D01*
X234008Y-180201D01*
X233773Y-181041D01*
X233695Y-181986D01*
X233773Y-182931D01*
X234008Y-183771D01*
X234321Y-184401D01*
X234791Y-184926D01*
X235418Y-185136D01*
X236045Y-184926D01*
X236515Y-184401D01*
X236828Y-183771D01*
X237063Y-182931D01*
X237141Y-181986D01*
X237063Y-181041D01*
X236828Y-180201D01*
X236515Y-179571D01*
X236045Y-179046D01*
X235418Y-178836D01*
G01X240700Y-183036D02*
X242736D01*
G01X246530Y-179886D02*
X247000Y-179256D01*
X247548Y-178941D01*
X248175Y-178836D01*
X248958Y-179046D01*
X249506Y-179571D01*
X249663Y-180201D01*
X249585Y-180831D01*
X249271Y-181356D01*
X247705Y-182406D01*
X247000Y-183141D01*
X246530Y-184191D01*
X246373Y-185136D01*
X249663D01*
G01X254161D02*
X254318Y-183771D01*
X254553Y-182616D01*
X254866Y-181566D01*
X255258Y-180411D01*
X255885Y-178836D01*
X252751D01*
G01X259130Y-179886D02*
X259600Y-179256D01*
X260148Y-178941D01*
X260775Y-178836D01*
X261558Y-179046D01*
X262106Y-179571D01*
X262263Y-180201D01*
X262185Y-180831D01*
X261871Y-181356D01*
X260305Y-182406D01*
X259600Y-183141D01*
X259130Y-184191D01*
X258973Y-185136D01*
X262263D01*
G01X265586Y-184401D02*
X266135Y-184926D01*
X266761Y-185136D01*
X267388Y-184926D01*
X267936Y-184296D01*
X268328Y-183351D01*
X268485Y-182406D01*
Y-181251D01*
X268328Y-180306D01*
X267936Y-179466D01*
X267466Y-179046D01*
X266918Y-178836D01*
X266291Y-179046D01*
X265821Y-179466D01*
X265508Y-180096D01*
X265351Y-180936D01*
X265508Y-181671D01*
X265900Y-182406D01*
X266370Y-182826D01*
X266918Y-182931D01*
X267545Y-182721D01*
X268015Y-182196D01*
X268485Y-181251D01*
G01X273218Y-185136D02*
Y-178836D01*
X272278Y-180096D01*
G01Y-185136D02*
X274158D01*
G01X315751D02*
Y-178836D01*
X317710D01*
X318336Y-179151D01*
X318728Y-179571D01*
X318885Y-180411D01*
X318728Y-181251D01*
X318258Y-181776D01*
X317710Y-182091D01*
X315751D01*
G01X317710D02*
X318885Y-185136D01*
G01X325185D02*
X322051D01*
Y-178836D01*
X325185D01*
G01X323931Y-181881D02*
X322051D01*
G01X327960Y-178836D02*
X329918Y-185136D01*
X331876Y-178836D01*
G01X343145Y-181776D02*
X343458Y-181461D01*
X343693Y-180936D01*
X343850Y-180201D01*
X343693Y-179571D01*
X343380Y-179151D01*
X342831Y-178836D01*
X340716D01*
Y-185136D01*
X343301D01*
X343850Y-184716D01*
X344163Y-184086D01*
X344320Y-183351D01*
X344163Y-182616D01*
X343693Y-181986D01*
X343145Y-181776D01*
X340716D01*
G01X224818Y-105836D02*
Y-112136D01*
G01X223016Y-105836D02*
X226620D01*
G01X228768D02*
X229865Y-112136D01*
X231118Y-105836D01*
X232371Y-112136D01*
X233468Y-105836D01*
G01X235851Y-112136D02*
Y-105836D01*
X237810D01*
X238436Y-106151D01*
X238828Y-106571D01*
X238985Y-107411D01*
X238828Y-108251D01*
X238358Y-108776D01*
X237810Y-109091D01*
X235851D01*
G01X237810D02*
X238985Y-112136D01*
G01X242700Y-110036D02*
X244736D01*
G01X248295Y-112136D02*
Y-105836D01*
G01X251271D02*
X248295Y-109721D01*
G01X251741Y-112136D02*
X249626Y-107936D01*
G01X254830Y-109511D02*
X255378Y-108776D01*
X255848Y-108356D01*
X256475Y-108146D01*
X257023Y-108356D01*
X257415Y-108776D01*
X257728Y-109406D01*
X257806Y-110141D01*
X257728Y-110771D01*
X257415Y-111401D01*
X256945Y-111926D01*
X256396Y-112136D01*
X255770Y-111926D01*
X255221Y-111296D01*
X254908Y-110351D01*
X254830Y-109301D01*
X254986Y-107936D01*
X255221Y-107201D01*
X255613Y-106466D01*
X256161Y-105941D01*
X256710Y-105836D01*
X257258Y-106046D01*
X257650Y-106571D01*
G01X262618Y-105836D02*
X261991Y-106046D01*
X261521Y-106571D01*
X261208Y-107201D01*
X260973Y-108041D01*
X260895Y-108986D01*
X260973Y-109931D01*
X261208Y-110771D01*
X261521Y-111401D01*
X261991Y-111926D01*
X262618Y-112136D01*
X263245Y-111926D01*
X263715Y-111401D01*
X264028Y-110771D01*
X264263Y-109931D01*
X264341Y-108986D01*
X264263Y-108041D01*
X264028Y-107201D01*
X263715Y-106571D01*
X263245Y-106046D01*
X262618Y-105836D01*
G01X267195Y-112136D02*
Y-105836D01*
X268761D01*
X269388Y-106151D01*
X269858Y-106571D01*
X270250Y-107201D01*
X270563Y-107936D01*
X270641Y-108986D01*
X270563Y-110036D01*
X270250Y-110771D01*
X269858Y-111401D01*
X269388Y-111821D01*
X268761Y-112136D01*
X267195D01*
G01X275218D02*
Y-105836D01*
X274278Y-107096D01*
G01Y-112136D02*
X276158D01*
G01X281518Y-105836D02*
X280891Y-106046D01*
X280421Y-106571D01*
X280108Y-107201D01*
X279873Y-108041D01*
X279795Y-108986D01*
X279873Y-109931D01*
X280108Y-110771D01*
X280421Y-111401D01*
X280891Y-111926D01*
X281518Y-112136D01*
X282145Y-111926D01*
X282615Y-111401D01*
X282928Y-110771D01*
X283163Y-109931D01*
X283241Y-108986D01*
X283163Y-108041D01*
X282928Y-107201D01*
X282615Y-106571D01*
X282145Y-106046D01*
X281518Y-105836D01*
G01X287818D02*
X287191Y-106046D01*
X286721Y-106571D01*
X286408Y-107201D01*
X286173Y-108041D01*
X286095Y-108986D01*
X286173Y-109931D01*
X286408Y-110771D01*
X286721Y-111401D01*
X287191Y-111926D01*
X287818Y-112136D01*
X288445Y-111926D01*
X288915Y-111401D01*
X289228Y-110771D01*
X289463Y-109931D01*
X289541Y-108986D01*
X289463Y-108041D01*
X289228Y-107201D01*
X288915Y-106571D01*
X288445Y-106046D01*
X287818Y-105836D01*
G01X292081Y-112136D02*
Y-105836D01*
X294118Y-111086D01*
X296155Y-105836D01*
Y-112136D01*
G01X323467Y141700D02*
X319967D01*
X320667Y142400D01*
G01X323467D02*
Y141000D01*
G01Y137517D02*
X322709Y137400D01*
X322067Y137225D01*
X321484Y136992D01*
X320842Y136700D01*
X319967Y136233D01*
Y138567D01*
G01Y133100D02*
X320084Y133567D01*
X320375Y133917D01*
X320725Y134150D01*
X321192Y134325D01*
X321717Y134383D01*
X322242Y134325D01*
X322709Y134150D01*
X323059Y133917D01*
X323350Y133567D01*
X323467Y133100D01*
X323350Y132633D01*
X323059Y132283D01*
X322709Y132050D01*
X322242Y131875D01*
X321717Y131817D01*
X321192Y131875D01*
X320725Y132050D01*
X320375Y132283D01*
X320084Y132633D01*
X319967Y133100D01*
G01X322300Y129558D02*
Y128042D01*
G01X320550Y125608D02*
X320200Y125258D01*
X320025Y124850D01*
X319967Y124383D01*
X320084Y123800D01*
X320375Y123392D01*
X320725Y123275D01*
X321075Y123333D01*
X321367Y123567D01*
X321950Y124733D01*
X322359Y125258D01*
X322942Y125608D01*
X323467Y125725D01*
Y123275D01*
G01Y120317D02*
X322709Y120200D01*
X322067Y120025D01*
X321484Y119792D01*
X320842Y119500D01*
X319967Y119033D01*
Y121367D01*
G01X320550Y117008D02*
X320200Y116658D01*
X320025Y116250D01*
X319967Y115783D01*
X320084Y115200D01*
X320375Y114792D01*
X320725Y114675D01*
X321075Y114733D01*
X321367Y114967D01*
X321950Y116133D01*
X322359Y116658D01*
X322942Y117008D01*
X323467Y117125D01*
Y114675D01*
G01X323059Y112592D02*
X323350Y112183D01*
X323467Y111717D01*
X323350Y111250D01*
X323000Y110842D01*
X322475Y110550D01*
X321950Y110433D01*
X321309D01*
X320784Y110550D01*
X320317Y110842D01*
X320084Y111192D01*
X319967Y111600D01*
X320084Y112067D01*
X320317Y112417D01*
X320667Y112650D01*
X321134Y112767D01*
X321542Y112650D01*
X321950Y112358D01*
X322184Y112008D01*
X322242Y111600D01*
X322125Y111133D01*
X321834Y110783D01*
X321309Y110433D01*
G01X323467Y107300D02*
X319967D01*
X320667Y108000D01*
G01X323467D02*
Y106600D01*
G01Y99867D02*
X319967D01*
Y98408D01*
X320142Y97942D01*
X320375Y97650D01*
X320842Y97533D01*
X321309Y97650D01*
X321600Y98000D01*
X321775Y98408D01*
Y99867D01*
G01Y98408D02*
X323467Y97533D01*
G01Y93233D02*
Y95567D01*
X319967D01*
Y93233D01*
G01X321659Y94167D02*
Y95567D01*
G01X319967Y91558D02*
X323467Y90100D01*
X319967Y88642D01*
G01X321600Y81033D02*
X321425Y80800D01*
X321134Y80625D01*
X320725Y80508D01*
X320375Y80625D01*
X320142Y80858D01*
X319967Y81267D01*
Y82842D01*
X323467D01*
Y80917D01*
X323234Y80508D01*
X322884Y80275D01*
X322475Y80158D01*
X322067Y80275D01*
X321717Y80625D01*
X321600Y81033D01*
Y82842D01*
G54D28*
X97442Y124047D03*
Y127947D03*
G54D46*
X305502Y34544D03*
X290828D03*
X305502Y69344D03*
X290828D03*
X305502Y103844D03*
X290828D03*
X305502Y138344D03*
X290828D03*
G54D37*
X164525Y110264D03*
X159091D03*
X202052Y110914D03*
X207486D03*
G54D19*
X-7973Y103864D03*
G54D56*
G01X100969Y241388D02*
X99595D01*
X97900Y243083D01*
Y250308D01*
X99168Y251576D01*
Y260014D01*
G01X95231D02*
Y251577D01*
X96500Y250308D01*
Y242438D01*
X95450Y241388D01*
G01X157988Y28614D02*
X159038Y29664D01*
X160168D01*
X161468Y28364D01*
G01X157988Y32114D02*
X159038Y31064D01*
X160168D01*
X161468Y32364D01*
G01X165468Y28364D02*
X166768Y29664D01*
X171818D01*
X172468Y29014D01*
X175468D01*
G01X165468Y32364D02*
X166768Y31064D01*
X171468D01*
X172568Y32164D01*
X175468D01*
G01X196218Y152244D02*
X197268Y151194D01*
Y148164D01*
X195968Y146864D01*
G01X199968Y142864D02*
X198668Y141564D01*
Y137415D01*
X199566Y136517D01*
X200495D01*
X201369Y137391D01*
Y140066D01*
X201366Y140069D01*
G01X195968Y142864D02*
X197268Y141564D01*
Y139934D01*
X196218Y138884D01*
G01X199718Y152244D02*
X198668Y151194D01*
Y148164D01*
X199968Y146864D01*
G54D29*
X97442Y140547D03*
Y150147D03*
Y133847D03*
Y159947D03*
Y169847D03*
Y189447D03*
Y199347D03*
Y209147D03*
G54D38*
X181718Y3864D03*
X184868D03*
X188018D03*
X191168D03*
Y47864D03*
X188018D03*
X184868D03*
X181718D03*
X194318Y3864D03*
X197468D03*
X200618D03*
X203768D03*
X206918D03*
X210068D03*
X213218D03*
Y47864D03*
X210068D03*
X206918D03*
X203768D03*
X200618D03*
X197468D03*
X194318D03*
G54D47*
X298165Y34544D03*
Y69344D03*
Y103844D03*
Y138344D03*
G54D57*
G01X-37001Y-177507D02*
X-36529Y-177900D01*
X-35998Y-178136D01*
X-35526D01*
X-35054Y-177900D01*
X-34700Y-177507D01*
X-34523Y-176956D01*
X-34641Y-176405D01*
X-34936Y-175933D01*
X-35467Y-175619D01*
X-36175Y-175461D01*
X-36588Y-175147D01*
X-36765Y-174596D01*
X-36647Y-174045D01*
X-36352Y-173652D01*
X-35939Y-173416D01*
X-35526D01*
X-35113Y-173573D01*
X-34759Y-173967D01*
G01X-32281Y-178136D02*
Y-173416D01*
G01X-29803D02*
Y-178136D01*
G01Y-175776D02*
X-32281D01*
G01X-25142Y-178136D02*
X-27502D01*
Y-173416D01*
X-25142D01*
G01X-26086Y-175697D02*
X-27502D01*
G01X-20422Y-178136D02*
X-22782D01*
Y-173416D01*
X-20422D01*
G01X-21366Y-175697D02*
X-22782D01*
G01X-16882Y-173416D02*
Y-178136D01*
G01X-18239Y-173416D02*
X-15525D01*
G01X-28883Y-167136D02*
Y-162416D01*
X-26641D01*
G01X-27467Y-164697D02*
X-28883D01*
G01X-24222Y-167136D02*
Y-162416D01*
X-22747D01*
X-22275Y-162652D01*
X-21980Y-162967D01*
X-21862Y-163596D01*
X-21980Y-164225D01*
X-22334Y-164619D01*
X-22747Y-164855D01*
X-24222D01*
G01X-22747D02*
X-21862Y-167136D01*
G01X-17142D02*
X-19502D01*
Y-162416D01*
X-17142D01*
G01X-18086Y-164697D02*
X-19502D01*
G01X-12422Y-167136D02*
X-14782D01*
Y-162416D01*
X-12422D01*
G01X-13366Y-164697D02*
X-14782D01*
G01X-10121Y-166507D02*
X-9649Y-166900D01*
X-9118Y-167136D01*
X-8646D01*
X-8174Y-166900D01*
X-7820Y-166507D01*
X-7643Y-165956D01*
X-7761Y-165405D01*
X-8056Y-164933D01*
X-8587Y-164619D01*
X-9295Y-164461D01*
X-9708Y-164147D01*
X-9885Y-163596D01*
X-9767Y-163045D01*
X-9472Y-162652D01*
X-9059Y-162416D01*
X-8646D01*
X-8233Y-162573D01*
X-7879Y-162967D01*
G01X-2864Y-162809D02*
X-3218Y-162573D01*
X-3631Y-162416D01*
X-4103D01*
X-4634Y-162652D01*
X-5047Y-163045D01*
X-5342Y-163517D01*
X-5578Y-164304D01*
X-5637Y-165012D01*
X-5519Y-165720D01*
X-5342Y-166192D01*
X-4988Y-166664D01*
X-4575Y-166979D01*
X-4162Y-167136D01*
X-3749D01*
X-3336Y-166979D01*
X-2982Y-166743D01*
X-2687Y-166428D01*
G01X-917Y-167136D02*
X558Y-162416D01*
X2033Y-167136D01*
G01X1502Y-165484D02*
X-386D01*
G01X4098Y-162416D02*
Y-167136D01*
X6458D01*
G01X11178D02*
X8818D01*
Y-162416D01*
X11178D01*
G01X10234Y-164697D02*
X8818D01*
G01X14718Y-167293D02*
X14600Y-167215D01*
Y-167057D01*
X14718Y-166979D01*
X14836Y-167057D01*
Y-167215D01*
X14718Y-167293D01*
G01X-28762Y-159136D02*
X-29234Y-159057D01*
X-29647Y-158743D01*
X-30001Y-158271D01*
X-30237Y-157720D01*
X-30355Y-157091D01*
Y-156461D01*
X-30237Y-155832D01*
X-30001Y-155281D01*
X-29647Y-154809D01*
X-29234Y-154495D01*
X-28762Y-154416D01*
X-28290Y-154495D01*
X-27877Y-154809D01*
X-27523Y-155281D01*
X-27287Y-155832D01*
X-27169Y-156461D01*
Y-157091D01*
X-27287Y-157720D01*
X-27523Y-158271D01*
X-27877Y-158743D01*
X-28290Y-159057D01*
X-28762Y-159136D01*
G01X-25222D02*
Y-154416D01*
X-23747D01*
X-23275Y-154652D01*
X-22980Y-154967D01*
X-22862Y-155596D01*
X-22980Y-156225D01*
X-23334Y-156619D01*
X-23747Y-156855D01*
X-25222D01*
G01X-23747D02*
X-22862Y-159136D01*
G01X-15310Y-154416D02*
X-13894D01*
G01X-14602D02*
Y-159136D01*
G01X-15310D02*
X-13894D01*
G01X-11239D02*
Y-154416D01*
X-8525Y-159136D01*
Y-154416D01*
G01X-1622Y-159136D02*
Y-154416D01*
X-206D01*
X266Y-154652D01*
X620Y-155203D01*
X738Y-155832D01*
X620Y-156461D01*
X325Y-156933D01*
X-206Y-157169D01*
X-1622D01*
G01X2803Y-159136D02*
X4278Y-154416D01*
X5753Y-159136D01*
G01X5222Y-157484D02*
X3334D01*
G01X7818Y-159136D02*
Y-154416D01*
X9293D01*
X9765Y-154652D01*
X10060Y-154967D01*
X10178Y-155596D01*
X10060Y-156225D01*
X9706Y-156619D01*
X9293Y-156855D01*
X7818D01*
G01X9293D02*
X10178Y-159136D01*
G01X13718Y-154416D02*
Y-159136D01*
G01X12361Y-154416D02*
X15075D01*
G01X21388D02*
X22214Y-159136D01*
X23158Y-154416D01*
X24102Y-159136D01*
X24928Y-154416D01*
G01X27170D02*
X28586D01*
G01X27878D02*
Y-159136D01*
G01X27170D02*
X28586D01*
G01X32598Y-154416D02*
Y-159136D01*
G01X31241Y-154416D02*
X33955D01*
G01X36079Y-159136D02*
Y-154416D01*
G01X38557D02*
Y-159136D01*
G01Y-156776D02*
X36079D01*
G01X42038Y-159136D02*
X41566Y-159057D01*
X41153Y-158743D01*
X40799Y-158271D01*
X40563Y-157720D01*
X40445Y-157091D01*
Y-156461D01*
X40563Y-155832D01*
X40799Y-155281D01*
X41153Y-154809D01*
X41566Y-154495D01*
X42038Y-154416D01*
X42510Y-154495D01*
X42923Y-154809D01*
X43277Y-155281D01*
X43513Y-155832D01*
X43631Y-156461D01*
Y-157091D01*
X43513Y-157720D01*
X43277Y-158271D01*
X42923Y-158743D01*
X42510Y-159057D01*
X42038Y-159136D01*
G01X45460Y-154416D02*
Y-157799D01*
X45696Y-158507D01*
X46168Y-158979D01*
X46758Y-159136D01*
X47348Y-158979D01*
X47820Y-158507D01*
X48056Y-157799D01*
Y-154416D01*
G01X51478D02*
Y-159136D01*
G01X50121Y-154416D02*
X52835D01*
G01X60918D02*
Y-159136D01*
G01X59561Y-154416D02*
X62275D01*
G01X64399Y-159136D02*
Y-154416D01*
G01X66877D02*
Y-159136D01*
G01Y-156776D02*
X64399D01*
G01X71538Y-159136D02*
X69178D01*
Y-154416D01*
X71538D01*
G01X70594Y-156697D02*
X69178D01*
G01X81096Y-154809D02*
X80742Y-154573D01*
X80329Y-154416D01*
X79857D01*
X79326Y-154652D01*
X78913Y-155045D01*
X78618Y-155517D01*
X78382Y-156304D01*
X78323Y-157012D01*
X78441Y-157720D01*
X78618Y-158192D01*
X78972Y-158664D01*
X79385Y-158979D01*
X79798Y-159136D01*
X80211D01*
X80624Y-158979D01*
X80978Y-158743D01*
X81273Y-158428D01*
G01X84518Y-159136D02*
X84046Y-159057D01*
X83633Y-158743D01*
X83279Y-158271D01*
X83043Y-157720D01*
X82925Y-157091D01*
Y-156461D01*
X83043Y-155832D01*
X83279Y-155281D01*
X83633Y-154809D01*
X84046Y-154495D01*
X84518Y-154416D01*
X84990Y-154495D01*
X85403Y-154809D01*
X85757Y-155281D01*
X85993Y-155832D01*
X86111Y-156461D01*
Y-157091D01*
X85993Y-157720D01*
X85757Y-158271D01*
X85403Y-158743D01*
X84990Y-159057D01*
X84518Y-159136D01*
G01X87881D02*
Y-154416D01*
X90595Y-159136D01*
Y-154416D01*
G01X92719Y-158507D02*
X93191Y-158900D01*
X93722Y-159136D01*
X94194D01*
X94666Y-158900D01*
X95020Y-158507D01*
X95197Y-157956D01*
X95079Y-157405D01*
X94784Y-156933D01*
X94253Y-156619D01*
X93545Y-156461D01*
X93132Y-156147D01*
X92955Y-155596D01*
X93073Y-155045D01*
X93368Y-154652D01*
X93781Y-154416D01*
X94194D01*
X94607Y-154573D01*
X94961Y-154967D01*
G01X99858Y-159136D02*
X97498D01*
Y-154416D01*
X99858D01*
G01X98914Y-156697D02*
X97498D01*
G01X102041Y-159136D02*
Y-154416D01*
X104755Y-159136D01*
Y-154416D01*
G01X108118D02*
Y-159136D01*
G01X106761Y-154416D02*
X109475D01*
G01X117558Y-159136D02*
X117086Y-159057D01*
X116673Y-158743D01*
X116319Y-158271D01*
X116083Y-157720D01*
X115965Y-157091D01*
Y-156461D01*
X116083Y-155832D01*
X116319Y-155281D01*
X116673Y-154809D01*
X117086Y-154495D01*
X117558Y-154416D01*
X118030Y-154495D01*
X118443Y-154809D01*
X118797Y-155281D01*
X119033Y-155832D01*
X119151Y-156461D01*
Y-157091D01*
X119033Y-157720D01*
X118797Y-158271D01*
X118443Y-158743D01*
X118030Y-159057D01*
X117558Y-159136D01*
G01X121157D02*
Y-154416D01*
X123399D01*
G01X122573Y-156697D02*
X121157D01*
G01X-29942Y-151136D02*
Y-146416D01*
X-28526D01*
X-28054Y-146652D01*
X-27700Y-147203D01*
X-27582Y-147832D01*
X-27700Y-148461D01*
X-27995Y-148933D01*
X-28526Y-149169D01*
X-29942D01*
G01X-25222Y-151136D02*
Y-146416D01*
X-23747D01*
X-23275Y-146652D01*
X-22980Y-146967D01*
X-22862Y-147596D01*
X-22980Y-148225D01*
X-23334Y-148619D01*
X-23747Y-148855D01*
X-25222D01*
G01X-23747D02*
X-22862Y-151136D01*
G01X-19322D02*
X-19794Y-151057D01*
X-20207Y-150743D01*
X-20561Y-150271D01*
X-20797Y-149720D01*
X-20915Y-149091D01*
Y-148461D01*
X-20797Y-147832D01*
X-20561Y-147281D01*
X-20207Y-146809D01*
X-19794Y-146495D01*
X-19322Y-146416D01*
X-18850Y-146495D01*
X-18437Y-146809D01*
X-18083Y-147281D01*
X-17847Y-147832D01*
X-17729Y-148461D01*
Y-149091D01*
X-17847Y-149720D01*
X-18083Y-150271D01*
X-18437Y-150743D01*
X-18850Y-151057D01*
X-19322Y-151136D01*
G01X-13304Y-146809D02*
X-13658Y-146573D01*
X-14071Y-146416D01*
X-14543D01*
X-15074Y-146652D01*
X-15487Y-147045D01*
X-15782Y-147517D01*
X-16018Y-148304D01*
X-16077Y-149012D01*
X-15959Y-149720D01*
X-15782Y-150192D01*
X-15428Y-150664D01*
X-15015Y-150979D01*
X-14602Y-151136D01*
X-14189D01*
X-13776Y-150979D01*
X-13422Y-150743D01*
X-13127Y-150428D01*
G01X-11180Y-146416D02*
Y-149799D01*
X-10944Y-150507D01*
X-10472Y-150979D01*
X-9882Y-151136D01*
X-9292Y-150979D01*
X-8820Y-150507D01*
X-8584Y-149799D01*
Y-146416D01*
G01X-6342Y-151136D02*
Y-146416D01*
X-4867D01*
X-4395Y-146652D01*
X-4100Y-146967D01*
X-3982Y-147596D01*
X-4100Y-148225D01*
X-4454Y-148619D01*
X-4867Y-148855D01*
X-6342D01*
G01X-4867D02*
X-3982Y-151136D01*
G01X738D02*
X-1622D01*
Y-146416D01*
X738D01*
G01X-206Y-148697D02*
X-1622D01*
G01X2744Y-151136D02*
Y-146416D01*
X4278Y-150349D01*
X5812Y-146416D01*
Y-151136D01*
G01X10178D02*
X7818D01*
Y-146416D01*
X10178D01*
G01X9234Y-148697D02*
X7818D01*
G01X12361Y-151136D02*
Y-146416D01*
X15075Y-151136D01*
Y-146416D01*
G01X18438D02*
Y-151136D01*
G01X17081Y-146416D02*
X19795D01*
G01X27878Y-151136D02*
X27406Y-151057D01*
X26993Y-150743D01*
X26639Y-150271D01*
X26403Y-149720D01*
X26285Y-149091D01*
Y-148461D01*
X26403Y-147832D01*
X26639Y-147281D01*
X26993Y-146809D01*
X27406Y-146495D01*
X27878Y-146416D01*
X28350Y-146495D01*
X28763Y-146809D01*
X29117Y-147281D01*
X29353Y-147832D01*
X29471Y-148461D01*
Y-149091D01*
X29353Y-149720D01*
X29117Y-150271D01*
X28763Y-150743D01*
X28350Y-151057D01*
X27878Y-151136D01*
G01X31418D02*
Y-146416D01*
X32893D01*
X33365Y-146652D01*
X33660Y-146967D01*
X33778Y-147596D01*
X33660Y-148225D01*
X33306Y-148619D01*
X32893Y-148855D01*
X31418D01*
G01X32893D02*
X33778Y-151136D01*
G01X40504D02*
Y-146416D01*
X42038Y-150349D01*
X43572Y-146416D01*
Y-151136D01*
G01X45283D02*
X46758Y-146416D01*
X48233Y-151136D01*
G01X47702Y-149484D02*
X45814D01*
G01X50121Y-151136D02*
Y-146416D01*
X52835Y-151136D01*
Y-146416D01*
G01X54900D02*
Y-149799D01*
X55136Y-150507D01*
X55608Y-150979D01*
X56198Y-151136D01*
X56788Y-150979D01*
X57260Y-150507D01*
X57496Y-149799D01*
Y-146416D01*
G01X59797Y-151136D02*
Y-146416D01*
X62039D01*
G01X61213Y-148697D02*
X59797D01*
G01X64163Y-151136D02*
X65638Y-146416D01*
X67113Y-151136D01*
G01X66582Y-149484D02*
X64694D01*
G01X71656Y-146809D02*
X71302Y-146573D01*
X70889Y-146416D01*
X70417D01*
X69886Y-146652D01*
X69473Y-147045D01*
X69178Y-147517D01*
X68942Y-148304D01*
X68883Y-149012D01*
X69001Y-149720D01*
X69178Y-150192D01*
X69532Y-150664D01*
X69945Y-150979D01*
X70358Y-151136D01*
X70771D01*
X71184Y-150979D01*
X71538Y-150743D01*
X71833Y-150428D01*
G01X75078Y-146416D02*
Y-151136D01*
G01X73721Y-146416D02*
X76435D01*
G01X78500D02*
Y-149799D01*
X78736Y-150507D01*
X79208Y-150979D01*
X79798Y-151136D01*
X80388Y-150979D01*
X80860Y-150507D01*
X81096Y-149799D01*
Y-146416D01*
G01X83338Y-151136D02*
Y-146416D01*
X84813D01*
X85285Y-146652D01*
X85580Y-146967D01*
X85698Y-147596D01*
X85580Y-148225D01*
X85226Y-148619D01*
X84813Y-148855D01*
X83338D01*
G01X84813D02*
X85698Y-151136D01*
G01X90418D02*
X88058D01*
Y-146416D01*
X90418D01*
G01X89474Y-148697D02*
X88058D01*
G01X97970Y-146416D02*
X99386D01*
G01X98678D02*
Y-151136D01*
G01X97970D02*
X99386D01*
G01X102041D02*
Y-146416D01*
X104755Y-151136D01*
Y-146416D01*
G01X111068D02*
X111894Y-151136D01*
X112838Y-146416D01*
X113782Y-151136D01*
X114608Y-146416D01*
G01X116319Y-151136D02*
Y-146416D01*
G01X118797D02*
Y-151136D01*
G01Y-148776D02*
X116319D01*
G01X122278Y-151136D02*
X121806Y-151057D01*
X121393Y-150743D01*
X121039Y-150271D01*
X120803Y-149720D01*
X120685Y-149091D01*
Y-148461D01*
X120803Y-147832D01*
X121039Y-147281D01*
X121393Y-146809D01*
X121806Y-146495D01*
X122278Y-146416D01*
X122750Y-146495D01*
X123163Y-146809D01*
X123517Y-147281D01*
X123753Y-147832D01*
X123871Y-148461D01*
Y-149091D01*
X123753Y-149720D01*
X123517Y-150271D01*
X123163Y-150743D01*
X122750Y-151057D01*
X122278Y-151136D01*
G01X125818Y-146416D02*
Y-151136D01*
X128178D01*
G01X132898D02*
X130538D01*
Y-146416D01*
X132898D01*
G01X131954Y-148697D02*
X130538D01*
G01X-37237Y-117136D02*
X-35762Y-112416D01*
X-34287Y-117136D01*
G01X-34818Y-115484D02*
X-36706D01*
G01X-32340Y-112416D02*
Y-115799D01*
X-32104Y-116507D01*
X-31632Y-116979D01*
X-31042Y-117136D01*
X-30452Y-116979D01*
X-29980Y-116507D01*
X-29744Y-115799D01*
Y-112416D01*
G01X-27561Y-116507D02*
X-27089Y-116900D01*
X-26558Y-117136D01*
X-26086D01*
X-25614Y-116900D01*
X-25260Y-116507D01*
X-25083Y-115956D01*
X-25201Y-115405D01*
X-25496Y-114933D01*
X-26027Y-114619D01*
X-26735Y-114461D01*
X-27148Y-114147D01*
X-27325Y-113596D01*
X-27207Y-113045D01*
X-26912Y-112652D01*
X-26499Y-112416D01*
X-26086D01*
X-25673Y-112573D01*
X-25319Y-112967D01*
G01X-21602Y-112416D02*
Y-117136D01*
G01X-22959Y-112416D02*
X-20245D01*
G01X-17590D02*
X-16174D01*
G01X-16882D02*
Y-117136D01*
G01X-17590D02*
X-16174D01*
G01X-13519D02*
Y-112416D01*
X-10805Y-117136D01*
Y-112416D01*
G01X-7442Y-117293D02*
X-7560Y-117215D01*
Y-117057D01*
X-7442Y-116979D01*
X-7324Y-117057D01*
Y-117215D01*
X-7442Y-117293D01*
G01X1998Y-112416D02*
Y-117136D01*
G01X641Y-112416D02*
X3355D01*
G01X7898Y-117136D02*
X5538D01*
Y-112416D01*
X7898D01*
G01X6954Y-114697D02*
X5538D01*
G01X10199Y-117136D02*
X12677Y-112416D01*
G01X10199D02*
X12677Y-117136D01*
G01X14683D02*
X16158Y-112416D01*
X17633Y-117136D01*
G01X17102Y-115484D02*
X15214D01*
G01X19639Y-116507D02*
X20111Y-116900D01*
X20642Y-117136D01*
X21114D01*
X21586Y-116900D01*
X21940Y-116507D01*
X22117Y-115956D01*
X21999Y-115405D01*
X21704Y-114933D01*
X21173Y-114619D01*
X20465Y-114461D01*
X20052Y-114147D01*
X19875Y-113596D01*
X19993Y-113045D01*
X20288Y-112652D01*
X20701Y-112416D01*
X21114D01*
X21527Y-112573D01*
X21881Y-112967D01*
G01X30200Y-117136D02*
X30318Y-116113D01*
X30495Y-115248D01*
X30731Y-114461D01*
X31026Y-113596D01*
X31498Y-112416D01*
X29138D01*
G01X35038Y-117136D02*
X35451Y-117057D01*
X35923Y-116821D01*
X36218Y-116428D01*
X36336Y-115877D01*
X36218Y-115327D01*
X35864Y-114855D01*
X35333Y-114619D01*
X34743D01*
X34389Y-114461D01*
X34094Y-114068D01*
X33976Y-113517D01*
X34153Y-112967D01*
X34566Y-112573D01*
X35038Y-112416D01*
X35510Y-112573D01*
X35923Y-112967D01*
X36100Y-113517D01*
X35982Y-114068D01*
X35687Y-114461D01*
X35333Y-114619D01*
X34743D01*
X34212Y-114855D01*
X33858Y-115327D01*
X33740Y-115877D01*
X33858Y-116428D01*
X34153Y-116821D01*
X34625Y-117057D01*
X35038Y-117136D01*
G01X39640D02*
X39758Y-116113D01*
X39935Y-115248D01*
X40171Y-114461D01*
X40466Y-113596D01*
X40938Y-112416D01*
X38578D01*
G01X43180Y-116192D02*
X43534Y-116743D01*
X44006Y-117057D01*
X44537Y-117136D01*
X45009Y-117057D01*
X45481Y-116664D01*
X45776Y-116192D01*
X45835Y-115720D01*
X45717Y-115169D01*
X45304Y-114776D01*
X44891Y-114619D01*
X44360D01*
G01X44891D02*
X45245Y-114383D01*
X45540Y-113989D01*
X45658Y-113517D01*
X45540Y-113045D01*
X45245Y-112652D01*
X44714Y-112416D01*
X44183Y-112495D01*
X43652Y-112809D01*
G01X47900Y-116428D02*
X48254Y-116821D01*
X48667Y-117057D01*
X49198Y-117136D01*
X49729Y-116979D01*
X50142Y-116664D01*
X50437Y-116113D01*
X50496Y-115484D01*
X50378Y-114855D01*
X50083Y-114461D01*
X49670Y-114147D01*
X49257Y-114068D01*
X48844Y-114147D01*
X48313Y-114461D01*
X48490Y-112416D01*
X50083D01*
G01X57340D02*
Y-115799D01*
X57576Y-116507D01*
X58048Y-116979D01*
X58638Y-117136D01*
X59228Y-116979D01*
X59700Y-116507D01*
X59936Y-115799D01*
Y-112416D01*
G01X62119Y-116507D02*
X62591Y-116900D01*
X63122Y-117136D01*
X63594D01*
X64066Y-116900D01*
X64420Y-116507D01*
X64597Y-115956D01*
X64479Y-115405D01*
X64184Y-114933D01*
X63653Y-114619D01*
X62945Y-114461D01*
X62532Y-114147D01*
X62355Y-113596D01*
X62473Y-113045D01*
X62768Y-112652D01*
X63181Y-112416D01*
X63594D01*
X64007Y-112573D01*
X64361Y-112967D01*
G01X66603Y-117136D02*
X68078Y-112416D01*
X69553Y-117136D01*
G01X69022Y-115484D02*
X67134D01*
G01X-30119Y-143136D02*
Y-138416D01*
X-27405Y-143136D01*
Y-138416D01*
G01X-24042Y-143136D02*
X-24514Y-143057D01*
X-24927Y-142743D01*
X-25281Y-142271D01*
X-25517Y-141720D01*
X-25635Y-141091D01*
Y-140461D01*
X-25517Y-139832D01*
X-25281Y-139281D01*
X-24927Y-138809D01*
X-24514Y-138495D01*
X-24042Y-138416D01*
X-23570Y-138495D01*
X-23157Y-138809D01*
X-22803Y-139281D01*
X-22567Y-139832D01*
X-22449Y-140461D01*
Y-141091D01*
X-22567Y-141720D01*
X-22803Y-142271D01*
X-23157Y-142743D01*
X-23570Y-143057D01*
X-24042Y-143136D01*
G01X-19322Y-138416D02*
Y-143136D01*
G01X-20679Y-138416D02*
X-17965D01*
G01X-9410Y-140619D02*
X-9174Y-140383D01*
X-8997Y-139989D01*
X-8879Y-139439D01*
X-8997Y-138967D01*
X-9233Y-138652D01*
X-9646Y-138416D01*
X-11239D01*
Y-143136D01*
X-9292D01*
X-8879Y-142821D01*
X-8643Y-142349D01*
X-8525Y-141799D01*
X-8643Y-141248D01*
X-8997Y-140776D01*
X-9410Y-140619D01*
X-11239D01*
G01X-3982Y-143136D02*
X-6342D01*
Y-138416D01*
X-3982D01*
G01X-4926Y-140697D02*
X-6342D01*
G01X2980Y-138416D02*
Y-141799D01*
X3216Y-142507D01*
X3688Y-142979D01*
X4278Y-143136D01*
X4868Y-142979D01*
X5340Y-142507D01*
X5576Y-141799D01*
Y-138416D01*
G01X7759Y-142507D02*
X8231Y-142900D01*
X8762Y-143136D01*
X9234D01*
X9706Y-142900D01*
X10060Y-142507D01*
X10237Y-141956D01*
X10119Y-141405D01*
X9824Y-140933D01*
X9293Y-140619D01*
X8585Y-140461D01*
X8172Y-140147D01*
X7995Y-139596D01*
X8113Y-139045D01*
X8408Y-138652D01*
X8821Y-138416D01*
X9234D01*
X9647Y-138573D01*
X10001Y-138967D01*
G01X14898Y-143136D02*
X12538D01*
Y-138416D01*
X14898D01*
G01X13954Y-140697D02*
X12538D01*
G01X17140Y-143136D02*
Y-138416D01*
X18320D01*
X18792Y-138652D01*
X19146Y-138967D01*
X19441Y-139439D01*
X19677Y-139989D01*
X19736Y-140776D01*
X19677Y-141563D01*
X19441Y-142113D01*
X19146Y-142585D01*
X18792Y-142900D01*
X18320Y-143136D01*
X17140D01*
G01X26757D02*
Y-138416D01*
X28999D01*
G01X28173Y-140697D02*
X26757D01*
G01X32598Y-143136D02*
X32126Y-143057D01*
X31713Y-142743D01*
X31359Y-142271D01*
X31123Y-141720D01*
X31005Y-141091D01*
Y-140461D01*
X31123Y-139832D01*
X31359Y-139281D01*
X31713Y-138809D01*
X32126Y-138495D01*
X32598Y-138416D01*
X33070Y-138495D01*
X33483Y-138809D01*
X33837Y-139281D01*
X34073Y-139832D01*
X34191Y-140461D01*
Y-141091D01*
X34073Y-141720D01*
X33837Y-142271D01*
X33483Y-142743D01*
X33070Y-143057D01*
X32598Y-143136D01*
G01X36138D02*
Y-138416D01*
X37613D01*
X38085Y-138652D01*
X38380Y-138967D01*
X38498Y-139596D01*
X38380Y-140225D01*
X38026Y-140619D01*
X37613Y-140855D01*
X36138D01*
G01X37613D02*
X38498Y-143136D01*
G01X47938D02*
X45578D01*
Y-138416D01*
X47938D01*
G01X46994Y-140697D02*
X45578D01*
G01X50121Y-143136D02*
Y-138416D01*
X52835Y-143136D01*
Y-138416D01*
G01X56552Y-140776D02*
X57732D01*
Y-142192D01*
X57378Y-142664D01*
X56965Y-142979D01*
X56375Y-143136D01*
X55785Y-142979D01*
X55372Y-142664D01*
X55018Y-142192D01*
X54782Y-141641D01*
X54664Y-141012D01*
Y-140461D01*
X54782Y-139989D01*
X55018Y-139439D01*
X55372Y-138967D01*
X55726Y-138652D01*
X56198Y-138416D01*
X56611D01*
X57083Y-138573D01*
X57437Y-138888D01*
G01X60210Y-138416D02*
X61626D01*
G01X60918D02*
Y-143136D01*
G01X60210D02*
X61626D01*
G01X64281D02*
Y-138416D01*
X66995Y-143136D01*
Y-138416D01*
G01X71538Y-143136D02*
X69178D01*
Y-138416D01*
X71538D01*
G01X70594Y-140697D02*
X69178D01*
G01X76258Y-143136D02*
X73898D01*
Y-138416D01*
X76258D01*
G01X75314Y-140697D02*
X73898D01*
G01X78618Y-143136D02*
Y-138416D01*
X80093D01*
X80565Y-138652D01*
X80860Y-138967D01*
X80978Y-139596D01*
X80860Y-140225D01*
X80506Y-140619D01*
X80093Y-140855D01*
X78618D01*
G01X80093D02*
X80978Y-143136D01*
G01X83810Y-138416D02*
X85226D01*
G01X84518D02*
Y-143136D01*
G01X83810D02*
X85226D01*
G01X87881D02*
Y-138416D01*
X90595Y-143136D01*
Y-138416D01*
G01X94312Y-140776D02*
X95492D01*
Y-142192D01*
X95138Y-142664D01*
X94725Y-142979D01*
X94135Y-143136D01*
X93545Y-142979D01*
X93132Y-142664D01*
X92778Y-142192D01*
X92542Y-141641D01*
X92424Y-141012D01*
Y-140461D01*
X92542Y-139989D01*
X92778Y-139439D01*
X93132Y-138967D01*
X93486Y-138652D01*
X93958Y-138416D01*
X94371D01*
X94843Y-138573D01*
X95197Y-138888D01*
G01X102100Y-143136D02*
Y-138416D01*
X103280D01*
X103752Y-138652D01*
X104106Y-138967D01*
X104401Y-139439D01*
X104637Y-139989D01*
X104696Y-140776D01*
X104637Y-141563D01*
X104401Y-142113D01*
X104106Y-142585D01*
X103752Y-142900D01*
X103280Y-143136D01*
X102100D01*
G01X109298D02*
X106938D01*
Y-138416D01*
X109298D01*
G01X108354Y-140697D02*
X106938D01*
G01X111599Y-142507D02*
X112071Y-142900D01*
X112602Y-143136D01*
X113074D01*
X113546Y-142900D01*
X113900Y-142507D01*
X114077Y-141956D01*
X113959Y-141405D01*
X113664Y-140933D01*
X113133Y-140619D01*
X112425Y-140461D01*
X112012Y-140147D01*
X111835Y-139596D01*
X111953Y-139045D01*
X112248Y-138652D01*
X112661Y-138416D01*
X113074D01*
X113487Y-138573D01*
X113841Y-138967D01*
G01X116850Y-138416D02*
X118266D01*
G01X117558D02*
Y-143136D01*
G01X116850D02*
X118266D01*
G01X122632Y-140776D02*
X123812D01*
Y-142192D01*
X123458Y-142664D01*
X123045Y-142979D01*
X122455Y-143136D01*
X121865Y-142979D01*
X121452Y-142664D01*
X121098Y-142192D01*
X120862Y-141641D01*
X120744Y-141012D01*
Y-140461D01*
X120862Y-139989D01*
X121098Y-139439D01*
X121452Y-138967D01*
X121806Y-138652D01*
X122278Y-138416D01*
X122691D01*
X123163Y-138573D01*
X123517Y-138888D01*
G01X125641Y-143136D02*
Y-138416D01*
X128355Y-143136D01*
Y-138416D01*
G01X-29942Y-135136D02*
Y-130416D01*
X-28526D01*
X-28054Y-130652D01*
X-27700Y-131203D01*
X-27582Y-131832D01*
X-27700Y-132461D01*
X-27995Y-132933D01*
X-28526Y-133169D01*
X-29942D01*
G01X-25222Y-135136D02*
Y-130416D01*
X-23747D01*
X-23275Y-130652D01*
X-22980Y-130967D01*
X-22862Y-131596D01*
X-22980Y-132225D01*
X-23334Y-132619D01*
X-23747Y-132855D01*
X-25222D01*
G01X-23747D02*
X-22862Y-135136D01*
G01X-19322D02*
X-19794Y-135057D01*
X-20207Y-134743D01*
X-20561Y-134271D01*
X-20797Y-133720D01*
X-20915Y-133091D01*
Y-132461D01*
X-20797Y-131832D01*
X-20561Y-131281D01*
X-20207Y-130809D01*
X-19794Y-130495D01*
X-19322Y-130416D01*
X-18850Y-130495D01*
X-18437Y-130809D01*
X-18083Y-131281D01*
X-17847Y-131832D01*
X-17729Y-132461D01*
Y-133091D01*
X-17847Y-133720D01*
X-18083Y-134271D01*
X-18437Y-134743D01*
X-18850Y-135057D01*
X-19322Y-135136D01*
G01X-15782D02*
Y-130416D01*
X-14366D01*
X-13894Y-130652D01*
X-13540Y-131203D01*
X-13422Y-131832D01*
X-13540Y-132461D01*
X-13835Y-132933D01*
X-14366Y-133169D01*
X-15782D01*
G01X-11062Y-135136D02*
Y-130416D01*
X-9587D01*
X-9115Y-130652D01*
X-8820Y-130967D01*
X-8702Y-131596D01*
X-8820Y-132225D01*
X-9174Y-132619D01*
X-9587Y-132855D01*
X-11062D01*
G01X-9587D02*
X-8702Y-135136D01*
G01X-5870Y-130416D02*
X-4454D01*
G01X-5162D02*
Y-135136D01*
G01X-5870D02*
X-4454D01*
G01X738D02*
X-1622D01*
Y-130416D01*
X738D01*
G01X-206Y-132697D02*
X-1622D01*
G01X4278Y-130416D02*
Y-135136D01*
G01X2921Y-130416D02*
X5635D01*
G01X7523Y-135136D02*
X8998Y-130416D01*
X10473Y-135136D01*
G01X9942Y-133484D02*
X8054D01*
G01X12538Y-135136D02*
Y-130416D01*
X14013D01*
X14485Y-130652D01*
X14780Y-130967D01*
X14898Y-131596D01*
X14780Y-132225D01*
X14426Y-132619D01*
X14013Y-132855D01*
X12538D01*
G01X14013D02*
X14898Y-135136D01*
G01X18438D02*
Y-133012D01*
X17258Y-130416D01*
G01X19618D02*
X18438Y-133012D01*
G01X27878Y-130416D02*
Y-135136D01*
G01X26521Y-130416D02*
X29235D01*
G01X32598Y-135136D02*
X32126Y-135057D01*
X31713Y-134743D01*
X31359Y-134271D01*
X31123Y-133720D01*
X31005Y-133091D01*
Y-132461D01*
X31123Y-131832D01*
X31359Y-131281D01*
X31713Y-130809D01*
X32126Y-130495D01*
X32598Y-130416D01*
X33070Y-130495D01*
X33483Y-130809D01*
X33837Y-131281D01*
X34073Y-131832D01*
X34191Y-132461D01*
Y-133091D01*
X34073Y-133720D01*
X33837Y-134271D01*
X33483Y-134743D01*
X33070Y-135057D01*
X32598Y-135136D01*
G01X40917D02*
Y-130416D01*
X43159D01*
G01X42333Y-132697D02*
X40917D01*
G01X45578Y-135136D02*
Y-130416D01*
X47053D01*
X47525Y-130652D01*
X47820Y-130967D01*
X47938Y-131596D01*
X47820Y-132225D01*
X47466Y-132619D01*
X47053Y-132855D01*
X45578D01*
G01X47053D02*
X47938Y-135136D01*
G01X52658D02*
X50298D01*
Y-130416D01*
X52658D01*
G01X51714Y-132697D02*
X50298D01*
G01X57378Y-135136D02*
X55018D01*
Y-130416D01*
X57378D01*
G01X56434Y-132697D02*
X55018D01*
G01X59679Y-134507D02*
X60151Y-134900D01*
X60682Y-135136D01*
X61154D01*
X61626Y-134900D01*
X61980Y-134507D01*
X62157Y-133956D01*
X62039Y-133405D01*
X61744Y-132933D01*
X61213Y-132619D01*
X60505Y-132461D01*
X60092Y-132147D01*
X59915Y-131596D01*
X60033Y-131045D01*
X60328Y-130652D01*
X60741Y-130416D01*
X61154D01*
X61567Y-130573D01*
X61921Y-130967D01*
G01X66936Y-130809D02*
X66582Y-130573D01*
X66169Y-130416D01*
X65697D01*
X65166Y-130652D01*
X64753Y-131045D01*
X64458Y-131517D01*
X64222Y-132304D01*
X64163Y-133012D01*
X64281Y-133720D01*
X64458Y-134192D01*
X64812Y-134664D01*
X65225Y-134979D01*
X65638Y-135136D01*
X66051D01*
X66464Y-134979D01*
X66818Y-134743D01*
X67113Y-134428D01*
G01X68883Y-135136D02*
X70358Y-130416D01*
X71833Y-135136D01*
G01X71302Y-133484D02*
X69414D01*
G01X73898Y-130416D02*
Y-135136D01*
X76258D01*
G01X80978D02*
X78618D01*
Y-130416D01*
X80978D01*
G01X80034Y-132697D02*
X78618D01*
G01X87763Y-135136D02*
X89238Y-130416D01*
X90713Y-135136D01*
G01X90182Y-133484D02*
X88294D01*
G01X92601Y-135136D02*
Y-130416D01*
X95315Y-135136D01*
Y-130416D01*
G01X97380Y-135136D02*
Y-130416D01*
X98560D01*
X99032Y-130652D01*
X99386Y-130967D01*
X99681Y-131439D01*
X99917Y-131989D01*
X99976Y-132776D01*
X99917Y-133563D01*
X99681Y-134113D01*
X99386Y-134585D01*
X99032Y-134900D01*
X98560Y-135136D01*
X97380D01*
G01X106879Y-134507D02*
X107351Y-134900D01*
X107882Y-135136D01*
X108354D01*
X108826Y-134900D01*
X109180Y-134507D01*
X109357Y-133956D01*
X109239Y-133405D01*
X108944Y-132933D01*
X108413Y-132619D01*
X107705Y-132461D01*
X107292Y-132147D01*
X107115Y-131596D01*
X107233Y-131045D01*
X107528Y-130652D01*
X107941Y-130416D01*
X108354D01*
X108767Y-130573D01*
X109121Y-130967D01*
G01X111599Y-135136D02*
Y-130416D01*
G01X114077D02*
Y-135136D01*
G01Y-132776D02*
X111599D01*
G01X116083Y-135136D02*
X117558Y-130416D01*
X119033Y-135136D01*
G01X118502Y-133484D02*
X116614D01*
G01X121098Y-130416D02*
Y-135136D01*
X123458D01*
G01X125818Y-130416D02*
Y-135136D01*
X128178D01*
G01X-29762Y-122416D02*
Y-127136D01*
G01X-31119Y-122416D02*
X-28405D01*
G01X-26281Y-127136D02*
Y-122416D01*
G01X-23803D02*
Y-127136D01*
G01Y-124776D02*
X-26281D01*
G01X-21030Y-122416D02*
X-19614D01*
G01X-20322D02*
Y-127136D01*
G01X-21030D02*
X-19614D01*
G01X-16841Y-126507D02*
X-16369Y-126900D01*
X-15838Y-127136D01*
X-15366D01*
X-14894Y-126900D01*
X-14540Y-126507D01*
X-14363Y-125956D01*
X-14481Y-125405D01*
X-14776Y-124933D01*
X-15307Y-124619D01*
X-16015Y-124461D01*
X-16428Y-124147D01*
X-16605Y-123596D01*
X-16487Y-123045D01*
X-16192Y-122652D01*
X-15779Y-122416D01*
X-15366D01*
X-14953Y-122573D01*
X-14599Y-122967D01*
G01X-7460Y-127136D02*
Y-122416D01*
X-6280D01*
X-5808Y-122652D01*
X-5454Y-122967D01*
X-5159Y-123439D01*
X-4923Y-123989D01*
X-4864Y-124776D01*
X-4923Y-125563D01*
X-5159Y-126113D01*
X-5454Y-126585D01*
X-5808Y-126900D01*
X-6280Y-127136D01*
X-7460D01*
G01X-1442D02*
X-1914Y-127057D01*
X-2327Y-126743D01*
X-2681Y-126271D01*
X-2917Y-125720D01*
X-3035Y-125091D01*
Y-124461D01*
X-2917Y-123832D01*
X-2681Y-123281D01*
X-2327Y-122809D01*
X-1914Y-122495D01*
X-1442Y-122416D01*
X-970Y-122495D01*
X-557Y-122809D01*
X-203Y-123281D01*
X33Y-123832D01*
X151Y-124461D01*
Y-125091D01*
X33Y-125720D01*
X-203Y-126271D01*
X-557Y-126743D01*
X-970Y-127057D01*
X-1442Y-127136D01*
G01X4576Y-122809D02*
X4222Y-122573D01*
X3809Y-122416D01*
X3337D01*
X2806Y-122652D01*
X2393Y-123045D01*
X2098Y-123517D01*
X1862Y-124304D01*
X1803Y-125012D01*
X1921Y-125720D01*
X2098Y-126192D01*
X2452Y-126664D01*
X2865Y-126979D01*
X3278Y-127136D01*
X3691D01*
X4104Y-126979D01*
X4458Y-126743D01*
X4753Y-126428D01*
G01X6700Y-122416D02*
Y-125799D01*
X6936Y-126507D01*
X7408Y-126979D01*
X7998Y-127136D01*
X8588Y-126979D01*
X9060Y-126507D01*
X9296Y-125799D01*
Y-122416D01*
G01X11184Y-127136D02*
Y-122416D01*
X12718Y-126349D01*
X14252Y-122416D01*
Y-127136D01*
G01X18618D02*
X16258D01*
Y-122416D01*
X18618D01*
G01X17674Y-124697D02*
X16258D01*
G01X20801Y-127136D02*
Y-122416D01*
X23515Y-127136D01*
Y-122416D01*
G01X26878D02*
Y-127136D01*
G01X25521Y-122416D02*
X28235D01*
G01X37616Y-122809D02*
X37262Y-122573D01*
X36849Y-122416D01*
X36377D01*
X35846Y-122652D01*
X35433Y-123045D01*
X35138Y-123517D01*
X34902Y-124304D01*
X34843Y-125012D01*
X34961Y-125720D01*
X35138Y-126192D01*
X35492Y-126664D01*
X35905Y-126979D01*
X36318Y-127136D01*
X36731D01*
X37144Y-126979D01*
X37498Y-126743D01*
X37793Y-126428D01*
G01X41038Y-127136D02*
X40566Y-127057D01*
X40153Y-126743D01*
X39799Y-126271D01*
X39563Y-125720D01*
X39445Y-125091D01*
Y-124461D01*
X39563Y-123832D01*
X39799Y-123281D01*
X40153Y-122809D01*
X40566Y-122495D01*
X41038Y-122416D01*
X41510Y-122495D01*
X41923Y-122809D01*
X42277Y-123281D01*
X42513Y-123832D01*
X42631Y-124461D01*
Y-125091D01*
X42513Y-125720D01*
X42277Y-126271D01*
X41923Y-126743D01*
X41510Y-127057D01*
X41038Y-127136D01*
G01X44401D02*
Y-122416D01*
X47115Y-127136D01*
Y-122416D01*
G01X50478D02*
Y-127136D01*
G01X49121Y-122416D02*
X51835D01*
G01X53723Y-127136D02*
X55198Y-122416D01*
X56673Y-127136D01*
G01X56142Y-125484D02*
X54254D01*
G01X59210Y-122416D02*
X60626D01*
G01X59918D02*
Y-127136D01*
G01X59210D02*
X60626D01*
G01X63281D02*
Y-122416D01*
X65995Y-127136D01*
Y-122416D01*
G01X68119Y-126507D02*
X68591Y-126900D01*
X69122Y-127136D01*
X69594D01*
X70066Y-126900D01*
X70420Y-126507D01*
X70597Y-125956D01*
X70479Y-125405D01*
X70184Y-124933D01*
X69653Y-124619D01*
X68945Y-124461D01*
X68532Y-124147D01*
X68355Y-123596D01*
X68473Y-123045D01*
X68768Y-122652D01*
X69181Y-122416D01*
X69594D01*
X70007Y-122573D01*
X70361Y-122967D01*
G01X78090Y-122416D02*
X79506D01*
G01X78798D02*
Y-127136D01*
G01X78090D02*
X79506D01*
G01X82161D02*
Y-122416D01*
X84875Y-127136D01*
Y-122416D01*
G01X87117Y-127136D02*
Y-122416D01*
X89359D01*
G01X88533Y-124697D02*
X87117D01*
G01X92958Y-127136D02*
X92486Y-127057D01*
X92073Y-126743D01*
X91719Y-126271D01*
X91483Y-125720D01*
X91365Y-125091D01*
Y-124461D01*
X91483Y-123832D01*
X91719Y-123281D01*
X92073Y-122809D01*
X92486Y-122495D01*
X92958Y-122416D01*
X93430Y-122495D01*
X93843Y-122809D01*
X94197Y-123281D01*
X94433Y-123832D01*
X94551Y-124461D01*
Y-125091D01*
X94433Y-125720D01*
X94197Y-126271D01*
X93843Y-126743D01*
X93430Y-127057D01*
X92958Y-127136D01*
G01X96498D02*
Y-122416D01*
X97973D01*
X98445Y-122652D01*
X98740Y-122967D01*
X98858Y-123596D01*
X98740Y-124225D01*
X98386Y-124619D01*
X97973Y-124855D01*
X96498D01*
G01X97973D02*
X98858Y-127136D01*
G01X100864D02*
Y-122416D01*
X102398Y-126349D01*
X103932Y-122416D01*
Y-127136D01*
G01X105643D02*
X107118Y-122416D01*
X108593Y-127136D01*
G01X108062Y-125484D02*
X106174D01*
G01X111838Y-122416D02*
Y-127136D01*
G01X110481Y-122416D02*
X113195D01*
G01X115850D02*
X117266D01*
G01X116558D02*
Y-127136D01*
G01X115850D02*
X117266D01*
G01X121278D02*
X120806Y-127057D01*
X120393Y-126743D01*
X120039Y-126271D01*
X119803Y-125720D01*
X119685Y-125091D01*
Y-124461D01*
X119803Y-123832D01*
X120039Y-123281D01*
X120393Y-122809D01*
X120806Y-122495D01*
X121278Y-122416D01*
X121750Y-122495D01*
X122163Y-122809D01*
X122517Y-123281D01*
X122753Y-123832D01*
X122871Y-124461D01*
Y-125091D01*
X122753Y-125720D01*
X122517Y-126271D01*
X122163Y-126743D01*
X121750Y-127057D01*
X121278Y-127136D01*
G01X124641D02*
Y-122416D01*
X127355Y-127136D01*
Y-122416D01*
G01X-36883Y-108169D02*
X-36470Y-107619D01*
X-36116Y-107304D01*
X-35644Y-107147D01*
X-35231Y-107304D01*
X-34936Y-107619D01*
X-34700Y-108091D01*
X-34641Y-108641D01*
X-34700Y-109113D01*
X-34936Y-109585D01*
X-35290Y-109979D01*
X-35703Y-110136D01*
X-36175Y-109979D01*
X-36588Y-109507D01*
X-36824Y-108799D01*
X-36883Y-108012D01*
X-36765Y-106989D01*
X-36588Y-106439D01*
X-36293Y-105888D01*
X-35880Y-105495D01*
X-35467Y-105416D01*
X-35054Y-105573D01*
X-34759Y-105967D01*
G01X-32340Y-109428D02*
X-31986Y-109821D01*
X-31573Y-110057D01*
X-31042Y-110136D01*
X-30511Y-109979D01*
X-30098Y-109664D01*
X-29803Y-109113D01*
X-29744Y-108484D01*
X-29862Y-107855D01*
X-30157Y-107461D01*
X-30570Y-107147D01*
X-30983Y-107068D01*
X-31396Y-107147D01*
X-31927Y-107461D01*
X-31750Y-105416D01*
X-30157D01*
G01X-26322D02*
X-26794Y-105573D01*
X-27148Y-105967D01*
X-27384Y-106439D01*
X-27561Y-107068D01*
X-27620Y-107776D01*
X-27561Y-108484D01*
X-27384Y-109113D01*
X-27148Y-109585D01*
X-26794Y-109979D01*
X-26322Y-110136D01*
X-25850Y-109979D01*
X-25496Y-109585D01*
X-25260Y-109113D01*
X-25083Y-108484D01*
X-25024Y-107776D01*
X-25083Y-107068D01*
X-25260Y-106439D01*
X-25496Y-105967D01*
X-25850Y-105573D01*
X-26322Y-105416D01*
G01X-21602Y-110136D02*
Y-105416D01*
X-22310Y-106360D01*
G01Y-110136D02*
X-20894D01*
G01X-13932Y-105416D02*
X-13106Y-110136D01*
X-12162Y-105416D01*
X-11218Y-110136D01*
X-10392Y-105416D01*
G01X-8150D02*
X-6734D01*
G01X-7442D02*
Y-110136D01*
G01X-8150D02*
X-6734D01*
G01X-3902Y-105416D02*
Y-110136D01*
X-1542D01*
G01X818Y-105416D02*
Y-110136D01*
X3178D01*
G01X6010Y-105416D02*
X7426D01*
G01X6718D02*
Y-110136D01*
G01X6010D02*
X7426D01*
G01X9963D02*
X11438Y-105416D01*
X12913Y-110136D01*
G01X12382Y-108484D02*
X10494D01*
G01X14624Y-110136D02*
Y-105416D01*
X16158Y-109349D01*
X17692Y-105416D01*
Y-110136D01*
G01X26896Y-105809D02*
X26542Y-105573D01*
X26129Y-105416D01*
X25657D01*
X25126Y-105652D01*
X24713Y-106045D01*
X24418Y-106517D01*
X24182Y-107304D01*
X24123Y-108012D01*
X24241Y-108720D01*
X24418Y-109192D01*
X24772Y-109664D01*
X25185Y-109979D01*
X25598Y-110136D01*
X26011D01*
X26424Y-109979D01*
X26778Y-109743D01*
X27073Y-109428D01*
G01X28843Y-110136D02*
X30318Y-105416D01*
X31793Y-110136D01*
G01X31262Y-108484D02*
X29374D01*
G01X33681Y-110136D02*
Y-105416D01*
X36395Y-110136D01*
Y-105416D01*
G01X38401Y-110136D02*
Y-105416D01*
X41115Y-110136D01*
Y-105416D01*
G01X44478Y-110136D02*
X44006Y-110057D01*
X43593Y-109743D01*
X43239Y-109271D01*
X43003Y-108720D01*
X42885Y-108091D01*
Y-107461D01*
X43003Y-106832D01*
X43239Y-106281D01*
X43593Y-105809D01*
X44006Y-105495D01*
X44478Y-105416D01*
X44950Y-105495D01*
X45363Y-105809D01*
X45717Y-106281D01*
X45953Y-106832D01*
X46071Y-107461D01*
Y-108091D01*
X45953Y-108720D01*
X45717Y-109271D01*
X45363Y-109743D01*
X44950Y-110057D01*
X44478Y-110136D01*
G01X47841D02*
Y-105416D01*
X50555Y-110136D01*
Y-105416D01*
G01X57340Y-110136D02*
Y-105416D01*
X58520D01*
X58992Y-105652D01*
X59346Y-105967D01*
X59641Y-106439D01*
X59877Y-106989D01*
X59936Y-107776D01*
X59877Y-108563D01*
X59641Y-109113D01*
X59346Y-109585D01*
X58992Y-109900D01*
X58520Y-110136D01*
X57340D01*
G01X62178D02*
Y-105416D01*
X63653D01*
X64125Y-105652D01*
X64420Y-105967D01*
X64538Y-106596D01*
X64420Y-107225D01*
X64066Y-107619D01*
X63653Y-107855D01*
X62178D01*
G01X63653D02*
X64538Y-110136D01*
G01X67370Y-105416D02*
X68786D01*
G01X68078D02*
Y-110136D01*
G01X67370D02*
X68786D01*
G01X71323Y-105416D02*
X72798Y-110136D01*
X74273Y-105416D01*
G01X78698Y-110136D02*
X76338D01*
Y-105416D01*
X78698D01*
G01X77754Y-107697D02*
X76338D01*
G01X85188Y-105416D02*
X86014Y-110136D01*
X86958Y-105416D01*
X87902Y-110136D01*
X88728Y-105416D01*
G01X92858Y-110136D02*
X90498D01*
Y-105416D01*
X92858D01*
G01X91914Y-107697D02*
X90498D01*
G01X95159Y-109507D02*
X95631Y-109900D01*
X96162Y-110136D01*
X96634D01*
X97106Y-109900D01*
X97460Y-109507D01*
X97637Y-108956D01*
X97519Y-108405D01*
X97224Y-107933D01*
X96693Y-107619D01*
X95985Y-107461D01*
X95572Y-107147D01*
X95395Y-106596D01*
X95513Y-106045D01*
X95808Y-105652D01*
X96221Y-105416D01*
X96634D01*
X97047Y-105573D01*
X97401Y-105967D01*
G01X101118Y-105416D02*
Y-110136D01*
G01X99761Y-105416D02*
X102475D01*
G01X13117Y-178136D02*
Y-173416D01*
X15359D01*
G01X14533Y-175697D02*
X13117D01*
G01X18250Y-173416D02*
X19666D01*
G01X18958D02*
Y-178136D01*
G01X18250D02*
X19666D01*
G01X22498Y-173416D02*
Y-178136D01*
X24858D01*
G01X26864D02*
Y-173416D01*
X28398Y-177349D01*
X29932Y-173416D01*
Y-178136D01*
G01X141238Y-181416D02*
X140766Y-181573D01*
X140412Y-181967D01*
X140176Y-182439D01*
X139999Y-183068D01*
X139940Y-183776D01*
X139999Y-184484D01*
X140176Y-185113D01*
X140412Y-185585D01*
X140766Y-185979D01*
X141238Y-186136D01*
X141710Y-185979D01*
X142064Y-185585D01*
X142300Y-185113D01*
X142477Y-184484D01*
X142536Y-183776D01*
X142477Y-183068D01*
X142300Y-182439D01*
X142064Y-181967D01*
X141710Y-181573D01*
X141238Y-181416D01*
G01X145958Y-186136D02*
Y-181416D01*
X145250Y-182360D01*
G01Y-186136D02*
X146666D01*
G01X149911Y-184563D02*
X151445D01*
G01X154100Y-185192D02*
X154454Y-185743D01*
X154926Y-186057D01*
X155457Y-186136D01*
X155929Y-186057D01*
X156401Y-185664D01*
X156696Y-185192D01*
X156755Y-184720D01*
X156637Y-184169D01*
X156224Y-183776D01*
X155811Y-183619D01*
X155280D01*
G01X155811D02*
X156165Y-183383D01*
X156460Y-182989D01*
X156578Y-182517D01*
X156460Y-182045D01*
X156165Y-181652D01*
X155634Y-181416D01*
X155103Y-181495D01*
X154572Y-181809D01*
G01X160118Y-186136D02*
Y-181416D01*
X159410Y-182360D01*
G01Y-186136D02*
X160826D01*
G01X164071Y-184563D02*
X165605D01*
G01X169558Y-186136D02*
Y-181416D01*
X168850Y-182360D01*
G01Y-186136D02*
X170266D01*
G01X173157Y-182203D02*
X173511Y-181731D01*
X173924Y-181495D01*
X174396Y-181416D01*
X174986Y-181573D01*
X175399Y-181967D01*
X175517Y-182439D01*
X175458Y-182911D01*
X175222Y-183304D01*
X174042Y-184091D01*
X173511Y-184641D01*
X173157Y-185428D01*
X173039Y-186136D01*
X175517D01*
G01X137940Y-178136D02*
Y-173416D01*
X139120D01*
X139592Y-173652D01*
X139946Y-173967D01*
X140241Y-174439D01*
X140477Y-174989D01*
X140536Y-175776D01*
X140477Y-176563D01*
X140241Y-177113D01*
X139946Y-177585D01*
X139592Y-177900D01*
X139120Y-178136D01*
X137940D01*
G01X142483D02*
X143958Y-173416D01*
X145433Y-178136D01*
G01X144902Y-176484D02*
X143014D01*
G01X148678Y-173416D02*
Y-178136D01*
G01X147321Y-173416D02*
X150035D01*
G01X154578Y-178136D02*
X152218D01*
Y-173416D01*
X154578D01*
G01X153634Y-175697D02*
X152218D01*
G01X147468Y-164209D02*
X151008D01*
G01X152188D02*
X155728D01*
G01X156908D02*
X160448D01*
G01X166997Y-162636D02*
Y-157916D01*
X169239D01*
G01X168413Y-160197D02*
X166997D01*
G01X174136Y-158309D02*
X173782Y-158073D01*
X173369Y-157916D01*
X172897D01*
X172366Y-158152D01*
X171953Y-158545D01*
X171658Y-159017D01*
X171422Y-159804D01*
X171363Y-160512D01*
X171481Y-161220D01*
X171658Y-161692D01*
X172012Y-162164D01*
X172425Y-162479D01*
X172838Y-162636D01*
X173251D01*
X173664Y-162479D01*
X174018Y-162243D01*
X174313Y-161928D01*
G01X176378Y-162636D02*
Y-157916D01*
X177794D01*
X178266Y-158152D01*
X178620Y-158703D01*
X178738Y-159332D01*
X178620Y-159961D01*
X178325Y-160433D01*
X177794Y-160669D01*
X176378D01*
G01X186703Y-164209D02*
X186113Y-163423D01*
X185818Y-162636D01*
Y-159489D01*
X186113Y-158703D01*
X186703Y-157916D01*
G01X190597Y-162636D02*
Y-157916D01*
X192839D01*
G01X192013Y-160197D02*
X190597D01*
G01X195258Y-162636D02*
Y-157916D01*
X196733D01*
X197205Y-158152D01*
X197500Y-158467D01*
X197618Y-159096D01*
X197500Y-159725D01*
X197146Y-160119D01*
X196733Y-160355D01*
X195258D01*
G01X196733D02*
X197618Y-162636D01*
G01X202338D02*
X199978D01*
Y-157916D01*
X202338D01*
G01X201394Y-160197D02*
X199978D01*
G01X207058Y-162636D02*
X204698D01*
Y-157916D01*
X207058D01*
G01X206114Y-160197D02*
X204698D01*
G01X209359Y-162007D02*
X209831Y-162400D01*
X210362Y-162636D01*
X210834D01*
X211306Y-162400D01*
X211660Y-162007D01*
X211837Y-161456D01*
X211719Y-160905D01*
X211424Y-160433D01*
X210893Y-160119D01*
X210185Y-159961D01*
X209772Y-159647D01*
X209595Y-159096D01*
X209713Y-158545D01*
X210008Y-158152D01*
X210421Y-157916D01*
X210834D01*
X211247Y-158073D01*
X211601Y-158467D01*
G01X216616Y-158309D02*
X216262Y-158073D01*
X215849Y-157916D01*
X215377D01*
X214846Y-158152D01*
X214433Y-158545D01*
X214138Y-159017D01*
X213902Y-159804D01*
X213843Y-160512D01*
X213961Y-161220D01*
X214138Y-161692D01*
X214492Y-162164D01*
X214905Y-162479D01*
X215318Y-162636D01*
X215731D01*
X216144Y-162479D01*
X216498Y-162243D01*
X216793Y-161928D01*
G01X218563Y-162636D02*
X220038Y-157916D01*
X221513Y-162636D01*
G01X220982Y-160984D02*
X219094D01*
G01X223578Y-157916D02*
Y-162636D01*
X225938D01*
G01X230658D02*
X228298D01*
Y-157916D01*
X230658D01*
G01X229714Y-160197D02*
X228298D01*
G01X240216Y-158309D02*
X239862Y-158073D01*
X239449Y-157916D01*
X238977D01*
X238446Y-158152D01*
X238033Y-158545D01*
X237738Y-159017D01*
X237502Y-159804D01*
X237443Y-160512D01*
X237561Y-161220D01*
X237738Y-161692D01*
X238092Y-162164D01*
X238505Y-162479D01*
X238918Y-162636D01*
X239331D01*
X239744Y-162479D01*
X240098Y-162243D01*
X240393Y-161928D01*
G01X243638Y-162636D02*
X243166Y-162557D01*
X242753Y-162243D01*
X242399Y-161771D01*
X242163Y-161220D01*
X242045Y-160591D01*
Y-159961D01*
X242163Y-159332D01*
X242399Y-158781D01*
X242753Y-158309D01*
X243166Y-157995D01*
X243638Y-157916D01*
X244110Y-157995D01*
X244523Y-158309D01*
X244877Y-158781D01*
X245113Y-159332D01*
X245231Y-159961D01*
Y-160591D01*
X245113Y-161220D01*
X244877Y-161771D01*
X244523Y-162243D01*
X244110Y-162557D01*
X243638Y-162636D01*
G01X247001D02*
Y-157916D01*
X249715Y-162636D01*
Y-157916D01*
G01X251957Y-162636D02*
Y-157916D01*
X254199D01*
G01X253373Y-160197D02*
X251957D01*
G01X257090Y-157916D02*
X258506D01*
G01X257798D02*
Y-162636D01*
G01X257090D02*
X258506D01*
G01X261220D02*
Y-157916D01*
X262400D01*
X262872Y-158152D01*
X263226Y-158467D01*
X263521Y-158939D01*
X263757Y-159489D01*
X263816Y-160276D01*
X263757Y-161063D01*
X263521Y-161613D01*
X263226Y-162085D01*
X262872Y-162400D01*
X262400Y-162636D01*
X261220D01*
G01X268418D02*
X266058D01*
Y-157916D01*
X268418D01*
G01X267474Y-160197D02*
X266058D01*
G01X270601Y-162636D02*
Y-157916D01*
X273315Y-162636D01*
Y-157916D01*
G01X276678D02*
Y-162636D01*
G01X275321Y-157916D02*
X278035D01*
G01X280690D02*
X282106D01*
G01X281398D02*
Y-162636D01*
G01X280690D02*
X282106D01*
G01X284643D02*
X286118Y-157916D01*
X287593Y-162636D01*
G01X287062Y-160984D02*
X285174D01*
G01X289658Y-157916D02*
Y-162636D01*
X292018D01*
G01X299098D02*
Y-157916D01*
X300514D01*
X300986Y-158152D01*
X301340Y-158703D01*
X301458Y-159332D01*
X301340Y-159961D01*
X301045Y-160433D01*
X300514Y-160669D01*
X299098D01*
G01X303818Y-162636D02*
Y-157916D01*
X305293D01*
X305765Y-158152D01*
X306060Y-158467D01*
X306178Y-159096D01*
X306060Y-159725D01*
X305706Y-160119D01*
X305293Y-160355D01*
X303818D01*
G01X305293D02*
X306178Y-162636D01*
G01X309718D02*
X309246Y-162557D01*
X308833Y-162243D01*
X308479Y-161771D01*
X308243Y-161220D01*
X308125Y-160591D01*
Y-159961D01*
X308243Y-159332D01*
X308479Y-158781D01*
X308833Y-158309D01*
X309246Y-157995D01*
X309718Y-157916D01*
X310190Y-157995D01*
X310603Y-158309D01*
X310957Y-158781D01*
X311193Y-159332D01*
X311311Y-159961D01*
Y-160591D01*
X311193Y-161220D01*
X310957Y-161771D01*
X310603Y-162243D01*
X310190Y-162557D01*
X309718Y-162636D01*
G01X313258D02*
Y-157916D01*
X314674D01*
X315146Y-158152D01*
X315500Y-158703D01*
X315618Y-159332D01*
X315500Y-159961D01*
X315205Y-160433D01*
X314674Y-160669D01*
X313258D01*
G01X317978Y-162636D02*
Y-157916D01*
X319453D01*
X319925Y-158152D01*
X320220Y-158467D01*
X320338Y-159096D01*
X320220Y-159725D01*
X319866Y-160119D01*
X319453Y-160355D01*
X317978D01*
G01X319453D02*
X320338Y-162636D01*
G01X323170Y-157916D02*
X324586D01*
G01X323878D02*
Y-162636D01*
G01X323170D02*
X324586D01*
G01X329778D02*
X327418D01*
Y-157916D01*
X329778D01*
G01X328834Y-160197D02*
X327418D01*
G01X333318Y-157916D02*
Y-162636D01*
G01X331961Y-157916D02*
X334675D01*
G01X336563Y-162636D02*
X338038Y-157916D01*
X339513Y-162636D01*
G01X338982Y-160984D02*
X337094D01*
G01X341578Y-162636D02*
Y-157916D01*
X343053D01*
X343525Y-158152D01*
X343820Y-158467D01*
X343938Y-159096D01*
X343820Y-159725D01*
X343466Y-160119D01*
X343053Y-160355D01*
X341578D01*
G01X343053D02*
X343938Y-162636D01*
G01X347478D02*
Y-160512D01*
X346298Y-157916D01*
G01X348658D02*
X347478Y-160512D01*
G01X352493Y-164209D02*
X353083Y-163423D01*
X353378Y-162636D01*
Y-159489D01*
X353083Y-158703D01*
X352493Y-157916D01*
G01X147468Y-147709D02*
X151008D01*
G01X152188D02*
X155728D01*
G01X156908D02*
X160448D01*
G01X166997Y-146136D02*
Y-141416D01*
X169239D01*
G01X168413Y-143697D02*
X166997D01*
G01X172130Y-141416D02*
X173546D01*
G01X172838D02*
Y-146136D01*
G01X172130D02*
X173546D01*
G01X176260Y-141416D02*
Y-144799D01*
X176496Y-145507D01*
X176968Y-145979D01*
X177558Y-146136D01*
X178148Y-145979D01*
X178620Y-145507D01*
X178856Y-144799D01*
Y-141416D01*
G01X182278Y-146136D02*
X181806Y-146057D01*
X181393Y-145743D01*
X181039Y-145271D01*
X180803Y-144720D01*
X180685Y-144091D01*
Y-143461D01*
X180803Y-142832D01*
X181039Y-142281D01*
X181393Y-141809D01*
X181806Y-141495D01*
X182278Y-141416D01*
X182750Y-141495D01*
X183163Y-141809D01*
X183517Y-142281D01*
X183753Y-142832D01*
X183871Y-143461D01*
Y-144091D01*
X183753Y-144720D01*
X183517Y-145271D01*
X183163Y-145743D01*
X182750Y-146057D01*
X182278Y-146136D01*
G01X191423Y-147709D02*
X190833Y-146923D01*
X190538Y-146136D01*
Y-142989D01*
X190833Y-142203D01*
X191423Y-141416D01*
G01X195317Y-146136D02*
Y-141416D01*
X197559D01*
G01X196733Y-143697D02*
X195317D01*
G01X199978Y-146136D02*
Y-141416D01*
X201453D01*
X201925Y-141652D01*
X202220Y-141967D01*
X202338Y-142596D01*
X202220Y-143225D01*
X201866Y-143619D01*
X201453Y-143855D01*
X199978D01*
G01X201453D02*
X202338Y-146136D01*
G01X207058D02*
X204698D01*
Y-141416D01*
X207058D01*
G01X206114Y-143697D02*
X204698D01*
G01X211778Y-146136D02*
X209418D01*
Y-141416D01*
X211778D01*
G01X210834Y-143697D02*
X209418D01*
G01X214079Y-145507D02*
X214551Y-145900D01*
X215082Y-146136D01*
X215554D01*
X216026Y-145900D01*
X216380Y-145507D01*
X216557Y-144956D01*
X216439Y-144405D01*
X216144Y-143933D01*
X215613Y-143619D01*
X214905Y-143461D01*
X214492Y-143147D01*
X214315Y-142596D01*
X214433Y-142045D01*
X214728Y-141652D01*
X215141Y-141416D01*
X215554D01*
X215967Y-141573D01*
X216321Y-141967D01*
G01X221336Y-141809D02*
X220982Y-141573D01*
X220569Y-141416D01*
X220097D01*
X219566Y-141652D01*
X219153Y-142045D01*
X218858Y-142517D01*
X218622Y-143304D01*
X218563Y-144012D01*
X218681Y-144720D01*
X218858Y-145192D01*
X219212Y-145664D01*
X219625Y-145979D01*
X220038Y-146136D01*
X220451D01*
X220864Y-145979D01*
X221218Y-145743D01*
X221513Y-145428D01*
G01X223283Y-146136D02*
X224758Y-141416D01*
X226233Y-146136D01*
G01X225702Y-144484D02*
X223814D01*
G01X228298Y-141416D02*
Y-146136D01*
X230658D01*
G01X235378D02*
X233018D01*
Y-141416D01*
X235378D01*
G01X234434Y-143697D02*
X233018D01*
G01X242930Y-141416D02*
X244346D01*
G01X243638D02*
Y-146136D01*
G01X242930D02*
X244346D01*
G01X247001D02*
Y-141416D01*
X249715Y-146136D01*
Y-141416D01*
G01X253078D02*
Y-146136D01*
G01X251721Y-141416D02*
X254435D01*
G01X258978Y-146136D02*
X256618D01*
Y-141416D01*
X258978D01*
G01X258034Y-143697D02*
X256618D01*
G01X261338Y-146136D02*
Y-141416D01*
X262813D01*
X263285Y-141652D01*
X263580Y-141967D01*
X263698Y-142596D01*
X263580Y-143225D01*
X263226Y-143619D01*
X262813Y-143855D01*
X261338D01*
G01X262813D02*
X263698Y-146136D01*
G01X265881D02*
Y-141416D01*
X268595Y-146136D01*
Y-141416D01*
G01X270483Y-146136D02*
X271958Y-141416D01*
X273433Y-146136D01*
G01X272902Y-144484D02*
X271014D01*
G01X275498Y-141416D02*
Y-146136D01*
X277858D01*
G01X284820Y-141416D02*
Y-144799D01*
X285056Y-145507D01*
X285528Y-145979D01*
X286118Y-146136D01*
X286708Y-145979D01*
X287180Y-145507D01*
X287416Y-144799D01*
Y-141416D01*
G01X289599Y-145507D02*
X290071Y-145900D01*
X290602Y-146136D01*
X291074D01*
X291546Y-145900D01*
X291900Y-145507D01*
X292077Y-144956D01*
X291959Y-144405D01*
X291664Y-143933D01*
X291133Y-143619D01*
X290425Y-143461D01*
X290012Y-143147D01*
X289835Y-142596D01*
X289953Y-142045D01*
X290248Y-141652D01*
X290661Y-141416D01*
X291074D01*
X291487Y-141573D01*
X291841Y-141967D01*
G01X296738Y-146136D02*
X294378D01*
Y-141416D01*
X296738D01*
G01X295794Y-143697D02*
X294378D01*
G01X304998Y-146136D02*
X304526Y-146057D01*
X304113Y-145743D01*
X303759Y-145271D01*
X303523Y-144720D01*
X303405Y-144091D01*
Y-143461D01*
X303523Y-142832D01*
X303759Y-142281D01*
X304113Y-141809D01*
X304526Y-141495D01*
X304998Y-141416D01*
X305470Y-141495D01*
X305883Y-141809D01*
X306237Y-142281D01*
X306473Y-142832D01*
X306591Y-143461D01*
Y-144091D01*
X306473Y-144720D01*
X306237Y-145271D01*
X305883Y-145743D01*
X305470Y-146057D01*
X304998Y-146136D01*
G01X308361D02*
Y-141416D01*
X311075Y-146136D01*
Y-141416D01*
G01X313258D02*
Y-146136D01*
X315618D01*
G01X319158D02*
Y-144012D01*
X317978Y-141416D01*
G01X320338D02*
X319158Y-144012D01*
G01X324173Y-147709D02*
X324763Y-146923D01*
X325058Y-146136D01*
Y-142989D01*
X324763Y-142203D01*
X324173Y-141416D01*
G01X147468Y-131709D02*
X151008D01*
G01X152188D02*
X155728D01*
G01X156908D02*
X160448D01*
G01X166938Y-130136D02*
Y-125416D01*
X168354D01*
X168826Y-125652D01*
X169180Y-126203D01*
X169298Y-126832D01*
X169180Y-127461D01*
X168885Y-127933D01*
X168354Y-128169D01*
X166938D01*
G01X171540Y-125416D02*
Y-128799D01*
X171776Y-129507D01*
X172248Y-129979D01*
X172838Y-130136D01*
X173428Y-129979D01*
X173900Y-129507D01*
X174136Y-128799D01*
Y-125416D01*
G01X178030Y-127619D02*
X178266Y-127383D01*
X178443Y-126989D01*
X178561Y-126439D01*
X178443Y-125967D01*
X178207Y-125652D01*
X177794Y-125416D01*
X176201D01*
Y-130136D01*
X178148D01*
X178561Y-129821D01*
X178797Y-129349D01*
X178915Y-128799D01*
X178797Y-128248D01*
X178443Y-127776D01*
X178030Y-127619D01*
X176201D01*
G01X181570Y-125416D02*
X182986D01*
G01X182278D02*
Y-130136D01*
G01X181570D02*
X182986D01*
G01X191423Y-131709D02*
X190833Y-130923D01*
X190538Y-130136D01*
Y-126989D01*
X190833Y-126203D01*
X191423Y-125416D01*
G01X195258Y-130136D02*
Y-125416D01*
X196674D01*
X197146Y-125652D01*
X197500Y-126203D01*
X197618Y-126832D01*
X197500Y-127461D01*
X197205Y-127933D01*
X196674Y-128169D01*
X195258D01*
G01X199860Y-125416D02*
Y-128799D01*
X200096Y-129507D01*
X200568Y-129979D01*
X201158Y-130136D01*
X201748Y-129979D01*
X202220Y-129507D01*
X202456Y-128799D01*
Y-125416D01*
G01X206350Y-127619D02*
X206586Y-127383D01*
X206763Y-126989D01*
X206881Y-126439D01*
X206763Y-125967D01*
X206527Y-125652D01*
X206114Y-125416D01*
X204521D01*
Y-130136D01*
X206468D01*
X206881Y-129821D01*
X207117Y-129349D01*
X207235Y-128799D01*
X207117Y-128248D01*
X206763Y-127776D01*
X206350Y-127619D01*
X204521D01*
G01X209418Y-125416D02*
Y-130136D01*
X211778D01*
G01X214610Y-125416D02*
X216026D01*
G01X215318D02*
Y-130136D01*
G01X214610D02*
X216026D01*
G01X221336Y-125809D02*
X220982Y-125573D01*
X220569Y-125416D01*
X220097D01*
X219566Y-125652D01*
X219153Y-126045D01*
X218858Y-126517D01*
X218622Y-127304D01*
X218563Y-128012D01*
X218681Y-128720D01*
X218858Y-129192D01*
X219212Y-129664D01*
X219625Y-129979D01*
X220038Y-130136D01*
X220451D01*
X220864Y-129979D01*
X221218Y-129743D01*
X221513Y-129428D01*
G01X228770Y-125416D02*
X230186D01*
G01X229478D02*
Y-130136D01*
G01X228770D02*
X230186D01*
G01X232841D02*
Y-125416D01*
X235555Y-130136D01*
Y-125416D01*
G01X237797Y-130136D02*
Y-125416D01*
X240039D01*
G01X239213Y-127697D02*
X237797D01*
G01X243638Y-130136D02*
X243166Y-130057D01*
X242753Y-129743D01*
X242399Y-129271D01*
X242163Y-128720D01*
X242045Y-128091D01*
Y-127461D01*
X242163Y-126832D01*
X242399Y-126281D01*
X242753Y-125809D01*
X243166Y-125495D01*
X243638Y-125416D01*
X244110Y-125495D01*
X244523Y-125809D01*
X244877Y-126281D01*
X245113Y-126832D01*
X245231Y-127461D01*
Y-128091D01*
X245113Y-128720D01*
X244877Y-129271D01*
X244523Y-129743D01*
X244110Y-130057D01*
X243638Y-130136D01*
G01X247178D02*
Y-125416D01*
X248653D01*
X249125Y-125652D01*
X249420Y-125967D01*
X249538Y-126596D01*
X249420Y-127225D01*
X249066Y-127619D01*
X248653Y-127855D01*
X247178D01*
G01X248653D02*
X249538Y-130136D01*
G01X251544D02*
Y-125416D01*
X253078Y-129349D01*
X254612Y-125416D01*
Y-130136D01*
G01X256323D02*
X257798Y-125416D01*
X259273Y-130136D01*
G01X258742Y-128484D02*
X256854D01*
G01X262518Y-125416D02*
Y-130136D01*
G01X261161Y-125416D02*
X263875D01*
G01X266530D02*
X267946D01*
G01X267238D02*
Y-130136D01*
G01X266530D02*
X267946D01*
G01X271958D02*
X271486Y-130057D01*
X271073Y-129743D01*
X270719Y-129271D01*
X270483Y-128720D01*
X270365Y-128091D01*
Y-127461D01*
X270483Y-126832D01*
X270719Y-126281D01*
X271073Y-125809D01*
X271486Y-125495D01*
X271958Y-125416D01*
X272430Y-125495D01*
X272843Y-125809D01*
X273197Y-126281D01*
X273433Y-126832D01*
X273551Y-127461D01*
Y-128091D01*
X273433Y-128720D01*
X273197Y-129271D01*
X272843Y-129743D01*
X272430Y-130057D01*
X271958Y-130136D01*
G01X275321D02*
Y-125416D01*
X278035Y-130136D01*
Y-125416D01*
G01X281693Y-131709D02*
X282283Y-130923D01*
X282578Y-130136D01*
Y-126989D01*
X282283Y-126203D01*
X281693Y-125416D01*
G01X137881Y-98136D02*
Y-93416D01*
X140595Y-98136D01*
Y-93416D01*
G01X142483Y-98136D02*
X143958Y-93416D01*
X145433Y-98136D01*
G01X144902Y-96484D02*
X143014D01*
G01X147144Y-98136D02*
Y-93416D01*
X148678Y-97349D01*
X150212Y-93416D01*
Y-98136D01*
G01X154578D02*
X152218D01*
Y-93416D01*
X154578D01*
G01X153634Y-95697D02*
X152218D01*
G01X187881Y-178136D02*
Y-173416D01*
X190595Y-178136D01*
Y-173416D01*
G01X192660D02*
Y-176799D01*
X192896Y-177507D01*
X193368Y-177979D01*
X193958Y-178136D01*
X194548Y-177979D01*
X195020Y-177507D01*
X195256Y-176799D01*
Y-173416D01*
G01X197144Y-178136D02*
Y-173416D01*
X198678Y-177349D01*
X200212Y-173416D01*
Y-178136D01*
G01X203870Y-175619D02*
X204106Y-175383D01*
X204283Y-174989D01*
X204401Y-174439D01*
X204283Y-173967D01*
X204047Y-173652D01*
X203634Y-173416D01*
X202041D01*
Y-178136D01*
X203988D01*
X204401Y-177821D01*
X204637Y-177349D01*
X204755Y-176799D01*
X204637Y-176248D01*
X204283Y-175776D01*
X203870Y-175619D01*
X202041D01*
G01X209298Y-178136D02*
X206938D01*
Y-173416D01*
X209298D01*
G01X208354Y-175697D02*
X206938D01*
G01X211658Y-178136D02*
Y-173416D01*
X213133D01*
X213605Y-173652D01*
X213900Y-173967D01*
X214018Y-174596D01*
X213900Y-175225D01*
X213546Y-175619D01*
X213133Y-175855D01*
X211658D01*
G01X213133D02*
X214018Y-178136D01*
G54D39*
X175468Y35314D03*
Y32164D03*
Y29014D03*
Y25864D03*
Y22714D03*
Y19564D03*
Y16414D03*
Y13264D03*
Y10114D03*
Y41614D03*
Y38464D03*
X219468Y10114D03*
Y13264D03*
Y16414D03*
Y19564D03*
Y22714D03*
Y25864D03*
Y29014D03*
Y32164D03*
Y35314D03*
Y38464D03*
Y41614D03*
G54D48*
X303909Y211364D03*
Y221364D03*
G54D49*
Y201364D03*
M02*
