G04 ================== begin FILE IDENTIFICATION RECORD ==================*
G04 Layout Name:  LAY-27291_B.brd*
G04 Film Name:    sss.art*
G04 File Format:  Gerber RS274X*
G04 File Origin:  Cadence Allegro 16.3-S019*
G04 Origin Date:  Wed Feb 01 13:28:49 2012*
G04 *
G04 Layer:  REF DES/SILKSCREEN_BOTTOM*
G04 Layer:  PACKAGE GEOMETRY/SILKSCREEN_BOTTOM*
G04 Layer:  DRAWING FORMAT/FILM_TITLE_BLOCK*
G04 Layer:  BOARD GEOMETRY/OUTLINE*
G04 Layer:  BOARD GEOMETRY/SILKSCREEN_BOTTOM*
G04 *
G04 Offset:    (0.00 0.00)*
G04 Mirror:    No*
G04 Mode:      Positive*
G04 Rotation:  0*
G04 FullContactRelief:  No*
G04 UndefLineWidth:     8.00*
G04 ================== end FILE IDENTIFICATION RECORD ====================*
%FSLAX55Y55*MOIN*%
%IR0*IPPOS*OFA0.00000B0.00000*MIA0B0*SFA1.00000B1.00000*%
%ADD10C,.01*%
%ADD11C,.02*%
%ADD12C,.003*%
%ADD13C,.005*%
%ADD14C,.008*%
%ADD15C,.006*%
%ADD16C,.00591*%
%ADD17C,.0079*%
%ADD18C,.00598*%
G75*
%LPD*%
G75*
G36*
G01X-12262Y241637D02*
X265798D01*
Y249668D01*
X-12262D01*
Y241637D01*
G37*
G36*
G01X-3282Y249929D02*
G02I0J730D01*
G37*
G36*
G01X24365Y-18290D02*
G02I0J730D01*
G37*
G36*
G01X36197Y249979D02*
G02I0J729D01*
G37*
G36*
G01X71609Y-18290D02*
G02I0J730D01*
G37*
G36*
G01X75748Y31864D02*
G03I-276J0D01*
G37*
G36*
G01X75485Y249979D02*
G02I0J729D01*
G37*
G36*
G01X110979Y-18290D02*
G02I0J730D01*
G37*
G36*
G01X126244Y132368D02*
G03I-276J0D01*
G37*
G36*
G01X114901Y249947D02*
G02I0J730D01*
G37*
G36*
G01X150349Y-18290D02*
G02I0J730D01*
G37*
G36*
G01X141744Y23860D02*
G03I-276J0D01*
G37*
G36*
G01X158972Y233140D02*
G02I0J-276D01*
G37*
G36*
G01X152972D02*
G02I0J-276D01*
G37*
G36*
G01X154285Y249947D02*
G02I0J730D01*
G37*
G36*
G01X189720Y-18290D02*
G02I0J730D01*
G37*
G36*
G01X165972Y233140D02*
G02I0J-276D01*
G37*
G36*
G01X189748Y233864D02*
G02I-276J0D01*
G37*
G36*
G01X196748D02*
G02I-276J0D01*
G37*
G36*
G01X203748D02*
G02I-276J0D01*
G37*
G36*
G01X211248D02*
G02I-276J0D01*
G37*
G36*
G01X193605Y249979D02*
G02I0J729D01*
G37*
G36*
G01X229090Y-18290D02*
G02I0J730D01*
G37*
G36*
G01X225549Y110531D02*
G02I-276J0D01*
G37*
G36*
G01X232925Y250010D02*
G02I0J730D01*
G37*
G36*
G01X268460Y-18290D02*
G02I0J730D01*
G37*
G36*
G01X265240Y40364D02*
G03I-276J0D01*
G37*
G36*
G01Y74864D02*
G03I-276J0D01*
G37*
G36*
G01X263744Y99360D02*
G03I-276J0D01*
G37*
G36*
G01X265740Y143864D02*
G03I-276J0D01*
G37*
G36*
G01X280310Y249916D02*
G02I0J729D01*
G37*
G36*
G01X307830Y-18290D02*
G02I0J730D01*
G37*
G36*
G01X274951Y241637D02*
Y249668D01*
X312444D01*
Y241637D01*
X274951D01*
G37*
G54D10*
G01X-40532Y-170136D02*
X359468D01*
G01X-40532Y-140136D02*
Y-120136D01*
X359468D01*
G01X9468Y-190136D02*
Y-170136D01*
G01X134968Y-190136D02*
Y-170136D01*
G01X134468Y-120136D02*
Y-90136D01*
G01X184468Y-190136D02*
Y-170136D01*
G54D11*
G01X359468Y-90136D02*
Y-190136D01*
X-40532D01*
G01D02*
Y-90136D01*
X359468D01*
G54D12*
G01X-1182Y96964D02*
G03I-150J0D01*
G01X62118Y14364D02*
G03I-150J0D01*
G01X100618Y13864D02*
G03I-150J0D01*
G01X110618Y38364D02*
G03I-150J0D01*
G01X117219Y149714D02*
G03I-150J0D01*
G01X139118Y2364D02*
G03I-150J0D01*
G01X163618Y28364D02*
G02I-150J0D01*
G01Y32364D02*
G02I-150J0D01*
G01X215118Y-5136D02*
G03I-150J0D01*
G01X212118Y95364D02*
G03I-150J0D01*
G01X218618Y97864D02*
G03I-150J0D01*
G01X196118Y144864D02*
G03I-150J0D01*
G01X200118D02*
G03I-150J0D01*
G01X208118Y205364D02*
G03I-150J0D01*
G01Y209364D02*
G03I-150J0D01*
G01X228618Y30364D02*
G02I-150J0D01*
G01X265118Y27864D02*
G03I-150J0D01*
G01Y62364D02*
G03I-150J0D01*
G01X264618Y94364D02*
G03I-150J0D01*
G01X267023Y131395D02*
G03I-150J0D01*
G54D13*
G01X158669Y123414D02*
X152569D01*
X149069Y119914D01*
Y99114D01*
X148969Y99014D01*
X143169D01*
X142969Y99214D01*
Y120514D01*
X140369Y123114D01*
X119769D01*
X118269Y124614D01*
Y127814D01*
X119769Y129314D01*
X140669D01*
X142269Y130914D01*
Y154014D01*
X142969Y154714D01*
X146669D01*
X148269Y153114D01*
Y132514D01*
X152169Y128614D01*
X170169D01*
G01X116533Y159833D02*
X119733D01*
G01X118000Y158100D02*
Y161567D01*
G01X115889Y193316D02*
X185889D01*
Y180816D01*
X115889D01*
Y193316D01*
G01X209269Y105214D02*
X190369D01*
X189669Y104514D01*
Y86714D01*
X188169Y85214D01*
X179669D01*
X178269Y86614D01*
Y104214D01*
X177669Y104814D01*
X157669D01*
X156169Y106314D01*
Y113814D01*
X158769Y116414D01*
X176769D01*
X178169Y117814D01*
Y134814D01*
X179569Y136214D01*
X188369D01*
X189969Y134614D01*
Y116214D01*
X209169D01*
X209269Y116314D01*
G01X185879Y164484D02*
X182679D01*
G01X184412Y166217D02*
Y162750D01*
G01X186400Y235600D02*
Y238000D01*
X187800Y239400D01*
X214200D01*
X214800Y238800D01*
X231600D01*
X232400Y238000D01*
Y227400D01*
X230400Y225400D01*
X215200D01*
X212200Y228400D01*
X187600D01*
X186400Y229600D01*
Y235600D01*
G01X209969Y105714D02*
Y117014D01*
X210969Y118014D01*
X221269D01*
X222269Y117014D01*
Y103914D01*
X224869Y101314D01*
Y90614D01*
X226869Y88614D01*
X234269D01*
X234669Y88214D01*
Y69514D01*
X233669Y68514D01*
X220769D01*
X218669Y70614D01*
Y80414D01*
X218769Y80514D01*
Y84914D01*
X212769Y90914D01*
X210469D01*
X209969Y91414D01*
Y105714D01*
G01X202206Y196870D02*
X272206D01*
Y184370D01*
X202206D01*
Y196870D01*
G01X258166Y169624D02*
X328166D01*
Y157124D01*
X258166D01*
Y169624D01*
G54D14*
G01X274368Y244264D02*
Y272164D01*
X276368Y274164D01*
X315668D01*
X317668Y272164D01*
Y235264D01*
X319668Y233264D01*
X329468D01*
Y-2336D01*
X319668D01*
X317668Y-4336D01*
Y-41236D01*
X315668Y-43236D01*
X40068D01*
X38068Y-41236D01*
Y-13336D01*
G03X30268I-3900J0D01*
G01Y-41236D01*
X28268Y-43236D01*
X-11032D01*
X-13032Y-41236D01*
Y-4336D01*
X-15032Y-2336D01*
X-24832D01*
Y233264D01*
X-15032D01*
X-13032Y235264D01*
Y272164D01*
X-11032Y274164D01*
X264568D01*
X266568Y272164D01*
Y244264D01*
G03X274368I3900J0D01*
G01X237519Y61588D02*
Y140D01*
X241503D01*
G01X237519Y61588D02*
X242464D01*
G01X254814Y140D02*
X258417D01*
Y61588D01*
G01X253625D02*
X258417D01*
G54D15*
G01X-38560Y-187247D02*
Y-180947D01*
X-39500Y-182207D01*
G01Y-187247D02*
X-37620D01*
G01X-31320D02*
Y-180947D01*
X-34218Y-185462D01*
X-30302D01*
G01X-19660Y-187247D02*
X-20287Y-187142D01*
X-20835Y-186722D01*
X-21305Y-186092D01*
X-21618Y-185357D01*
X-21775Y-184517D01*
Y-183677D01*
X-21618Y-182837D01*
X-21305Y-182102D01*
X-20835Y-181472D01*
X-20287Y-181052D01*
X-19660Y-180947D01*
X-19033Y-181052D01*
X-18485Y-181472D01*
X-18015Y-182102D01*
X-17702Y-182837D01*
X-17545Y-183677D01*
Y-184517D01*
X-17702Y-185357D01*
X-18015Y-186092D01*
X-18485Y-186722D01*
X-19033Y-187142D01*
X-19660Y-187247D01*
G01X-14848D02*
Y-180947D01*
X-11872D01*
G01X-12968Y-183992D02*
X-14848D01*
G01X-760Y-187247D02*
Y-180947D01*
X-1700Y-182207D01*
G01Y-187247D02*
X180D01*
G01X6480D02*
Y-180947D01*
X3582Y-185462D01*
X7498D01*
G01X-37505Y-102136D02*
Y-94636D01*
X-33959D01*
G01X-35265Y-98261D02*
X-37505D01*
G01X-30099Y-102136D02*
Y-94636D01*
X-27765D01*
X-27019Y-95011D01*
X-26552Y-95511D01*
X-26365Y-96511D01*
X-26552Y-97511D01*
X-27112Y-98136D01*
X-27765Y-98511D01*
X-30099D01*
G01X-27765D02*
X-26365Y-102136D01*
G01X-18865D02*
X-22599D01*
Y-94636D01*
X-18865D01*
G01X-20359Y-98261D02*
X-22599D01*
G01X-11365Y-102136D02*
X-15099D01*
Y-94636D01*
X-11365D01*
G01X-12859Y-98261D02*
X-15099D01*
G01X-7692Y-101136D02*
X-6945Y-101761D01*
X-6105Y-102136D01*
X-5359D01*
X-4612Y-101761D01*
X-4052Y-101136D01*
X-3772Y-100261D01*
X-3959Y-99386D01*
X-4425Y-98636D01*
X-5265Y-98136D01*
X-6385Y-97886D01*
X-7039Y-97386D01*
X-7319Y-96511D01*
X-7132Y-95636D01*
X-6665Y-95011D01*
X-6012Y-94636D01*
X-5359D01*
X-4705Y-94886D01*
X-4145Y-95511D01*
G01X3821Y-95261D02*
X3261Y-94886D01*
X2608Y-94636D01*
X1861D01*
X1021Y-95011D01*
X368Y-95636D01*
X-99Y-96386D01*
X-472Y-97636D01*
X-565Y-98761D01*
X-379Y-99886D01*
X-99Y-100636D01*
X461Y-101386D01*
X1115Y-101886D01*
X1768Y-102136D01*
X2421D01*
X3075Y-101886D01*
X3635Y-101511D01*
X4101Y-101011D01*
G01X6935Y-102136D02*
X9268Y-94636D01*
X11601Y-102136D01*
G01X10761Y-99511D02*
X7775D01*
G01X14901Y-94636D02*
Y-102136D01*
X18635D01*
G01X26135D02*
X22401D01*
Y-94636D01*
X26135D01*
G01X24641Y-98261D02*
X22401D01*
G01X37308Y-101136D02*
X38055Y-101761D01*
X38895Y-102136D01*
X39641D01*
X40388Y-101761D01*
X40948Y-101136D01*
X41228Y-100261D01*
X41041Y-99386D01*
X40575Y-98636D01*
X39735Y-98136D01*
X38615Y-97886D01*
X37961Y-97386D01*
X37681Y-96511D01*
X37868Y-95636D01*
X38335Y-95011D01*
X38988Y-94636D01*
X39641D01*
X40295Y-94886D01*
X40855Y-95511D01*
G01X48635Y-102136D02*
X44901D01*
Y-94636D01*
X48635D01*
G01X47141Y-98261D02*
X44901D01*
G01X51841Y-102136D02*
Y-94636D01*
X54268Y-100886D01*
X56695Y-94636D01*
Y-102136D01*
G01X60648Y-94636D02*
X62888D01*
G01X61768D02*
Y-102136D01*
G01X60648D02*
X62888D01*
G01X71321Y-95261D02*
X70761Y-94886D01*
X70108Y-94636D01*
X69361D01*
X68521Y-95011D01*
X67868Y-95636D01*
X67401Y-96386D01*
X67028Y-97636D01*
X66935Y-98761D01*
X67121Y-99886D01*
X67401Y-100636D01*
X67961Y-101386D01*
X68615Y-101886D01*
X69268Y-102136D01*
X69921D01*
X70575Y-101886D01*
X71135Y-101511D01*
X71601Y-101011D01*
G01X76768Y-102136D02*
X76021Y-102011D01*
X75368Y-101511D01*
X74808Y-100761D01*
X74435Y-99886D01*
X74248Y-98886D01*
Y-97886D01*
X74435Y-96886D01*
X74808Y-96011D01*
X75368Y-95261D01*
X76021Y-94761D01*
X76768Y-94636D01*
X77515Y-94761D01*
X78168Y-95261D01*
X78728Y-96011D01*
X79101Y-96886D01*
X79288Y-97886D01*
Y-98886D01*
X79101Y-99886D01*
X78728Y-100761D01*
X78168Y-101511D01*
X77515Y-102011D01*
X76768Y-102136D01*
G01X82121D02*
Y-94636D01*
X86415Y-102136D01*
Y-94636D01*
G01X89715Y-102136D02*
Y-94636D01*
X91581D01*
X92328Y-95011D01*
X92888Y-95511D01*
X93355Y-96261D01*
X93728Y-97136D01*
X93821Y-98386D01*
X93728Y-99636D01*
X93355Y-100511D01*
X92888Y-101261D01*
X92328Y-101761D01*
X91581Y-102136D01*
X89715D01*
G01X97215Y-94636D02*
Y-100011D01*
X97588Y-101136D01*
X98335Y-101886D01*
X99268Y-102136D01*
X100201Y-101886D01*
X100948Y-101136D01*
X101321Y-100011D01*
Y-94636D01*
G01X108821Y-95261D02*
X108261Y-94886D01*
X107608Y-94636D01*
X106861D01*
X106021Y-95011D01*
X105368Y-95636D01*
X104901Y-96386D01*
X104528Y-97636D01*
X104435Y-98761D01*
X104621Y-99886D01*
X104901Y-100636D01*
X105461Y-101386D01*
X106115Y-101886D01*
X106768Y-102136D01*
X107421D01*
X108075Y-101886D01*
X108635Y-101511D01*
X109101Y-101011D01*
G01X114268Y-94636D02*
Y-102136D01*
G01X112121Y-94636D02*
X116415D01*
G01X121768Y-102136D02*
X121021Y-102011D01*
X120368Y-101511D01*
X119808Y-100761D01*
X119435Y-99886D01*
X119248Y-98886D01*
Y-97886D01*
X119435Y-96886D01*
X119808Y-96011D01*
X120368Y-95261D01*
X121021Y-94761D01*
X121768Y-94636D01*
X122515Y-94761D01*
X123168Y-95261D01*
X123728Y-96011D01*
X124101Y-96886D01*
X124288Y-97886D01*
Y-98886D01*
X124101Y-99886D01*
X123728Y-100761D01*
X123168Y-101511D01*
X122515Y-102011D01*
X121768Y-102136D01*
G01X127401D02*
Y-94636D01*
X129735D01*
X130481Y-95011D01*
X130948Y-95511D01*
X131135Y-96511D01*
X130948Y-97511D01*
X130388Y-98136D01*
X129735Y-98511D01*
X127401D01*
G01X129735D02*
X131135Y-102136D01*
G01X3267Y88664D02*
X-19962D01*
G03X-23899Y84727I0J-3937D01*
G01Y7561D01*
G03X-19962Y3624I3937J0D01*
G01X3660D01*
G01X-22200Y107350D02*
Y105950D01*
G01Y106650D02*
X-18700D01*
G01Y107350D02*
Y105950D01*
G01Y103517D02*
X-22200D01*
Y102058D01*
X-22025Y101592D01*
X-21792Y101300D01*
X-21325Y101183D01*
X-20858Y101300D01*
X-20567Y101650D01*
X-20392Y102058D01*
Y103517D01*
G01Y102058D02*
X-18700Y101183D01*
G01Y99333D02*
X-22200D01*
Y98167D01*
X-22025Y97700D01*
X-21792Y97350D01*
X-21442Y97058D01*
X-21033Y96825D01*
X-20450Y96767D01*
X-19867Y96825D01*
X-19458Y97058D01*
X-19108Y97350D01*
X-18875Y97700D01*
X-18700Y98167D01*
Y99333D01*
G01Y95208D02*
X-22200Y93750D01*
X-18700Y92292D01*
G01X-19925Y92817D02*
Y94683D01*
G01X-17281Y109514D02*
X-16814Y109572D01*
X-16406Y109806D01*
X-16056Y110156D01*
X-15823Y110564D01*
X-15706Y111031D01*
Y111497D01*
X-15823Y111964D01*
X-16056Y112372D01*
X-16406Y112722D01*
X-16814Y112956D01*
X-17281Y113014D01*
X-17748Y112956D01*
X-18156Y112722D01*
X-18506Y112372D01*
X-18739Y111964D01*
X-18856Y111497D01*
Y111031D01*
X-18739Y110564D01*
X-18506Y110156D01*
X-18156Y109806D01*
X-17748Y109572D01*
X-17281Y109514D01*
G01X-17748Y110447D02*
X-18448Y109514D01*
G01X-20473Y112431D02*
X-20823Y112781D01*
X-21231Y112956D01*
X-21698Y113014D01*
X-22281Y112897D01*
X-22689Y112606D01*
X-22806Y112256D01*
X-22748Y111906D01*
X-22514Y111614D01*
X-21348Y111031D01*
X-20823Y110622D01*
X-20473Y110039D01*
X-20356Y109514D01*
X-22806D01*
G01X-22058Y122397D02*
Y118247D01*
X92942D01*
Y121897D01*
G01X-22058Y210547D02*
Y134097D01*
G01X92942Y229247D02*
X-22058D01*
Y222347D01*
G01X9795Y-186407D02*
X10422Y-186932D01*
X11127Y-187247D01*
X11753D01*
X12380Y-186932D01*
X12850Y-186407D01*
X13085Y-185672D01*
X12928Y-184937D01*
X12537Y-184307D01*
X11832Y-183887D01*
X10892Y-183677D01*
X10343Y-183257D01*
X10108Y-182522D01*
X10265Y-181787D01*
X10657Y-181262D01*
X11205Y-180947D01*
X11753D01*
X12302Y-181157D01*
X12772Y-181682D01*
G01X19307Y-187247D02*
X16173D01*
Y-180947D01*
X19307D01*
G01X18053Y-183992D02*
X16173D01*
G01X25763Y-181472D02*
X25293Y-181157D01*
X24745Y-180947D01*
X24118D01*
X23413Y-181262D01*
X22865Y-181787D01*
X22473Y-182417D01*
X22160Y-183467D01*
X22082Y-184412D01*
X22238Y-185357D01*
X22473Y-185987D01*
X22943Y-186617D01*
X23492Y-187037D01*
X24040Y-187247D01*
X24588D01*
X25137Y-187037D01*
X25607Y-186722D01*
X25998Y-186302D01*
G01X30340Y-187247D02*
X29713Y-187142D01*
X29165Y-186722D01*
X28695Y-186092D01*
X28382Y-185357D01*
X28225Y-184517D01*
Y-183677D01*
X28382Y-182837D01*
X28695Y-182102D01*
X29165Y-181472D01*
X29713Y-181052D01*
X30340Y-180947D01*
X30967Y-181052D01*
X31515Y-181472D01*
X31985Y-182102D01*
X32298Y-182837D01*
X32455Y-183677D01*
Y-184517D01*
X32298Y-185357D01*
X31985Y-186092D01*
X31515Y-186722D01*
X30967Y-187142D01*
X30340Y-187247D01*
G01X34838D02*
Y-180947D01*
X38442Y-187247D01*
Y-180947D01*
G01X41217Y-187247D02*
Y-180947D01*
X42783D01*
X43410Y-181262D01*
X43880Y-181682D01*
X44272Y-182312D01*
X44585Y-183047D01*
X44663Y-184097D01*
X44585Y-185147D01*
X44272Y-185882D01*
X43880Y-186512D01*
X43410Y-186932D01*
X42783Y-187247D01*
X41217D01*
G01X47282D02*
X49240Y-180947D01*
X51198Y-187247D01*
G01X50493Y-185042D02*
X47987D01*
G01X53973Y-187247D02*
Y-180947D01*
X55932D01*
X56558Y-181262D01*
X56950Y-181682D01*
X57107Y-182522D01*
X56950Y-183362D01*
X56480Y-183887D01*
X55932Y-184202D01*
X53973D01*
G01X55932D02*
X57107Y-187247D01*
G01X61840D02*
Y-184412D01*
X60273Y-180947D01*
G01X63407D02*
X61840Y-184412D01*
G01X72795Y-186407D02*
X73422Y-186932D01*
X74127Y-187247D01*
X74753D01*
X75380Y-186932D01*
X75850Y-186407D01*
X76085Y-185672D01*
X75928Y-184937D01*
X75537Y-184307D01*
X74832Y-183887D01*
X73892Y-183677D01*
X73343Y-183257D01*
X73108Y-182522D01*
X73265Y-181787D01*
X73657Y-181262D01*
X74205Y-180947D01*
X74753D01*
X75302Y-181157D01*
X75772Y-181682D01*
G01X79800Y-180947D02*
X81680D01*
G01X80740D02*
Y-187247D01*
G01X79800D02*
X81680D01*
G01X85473Y-180947D02*
Y-187247D01*
X88607D01*
G01X91617D02*
Y-180947D01*
G01X94593D02*
X91617Y-184832D01*
G01X95063Y-187247D02*
X92948Y-183047D01*
G01X97995Y-186407D02*
X98622Y-186932D01*
X99327Y-187247D01*
X99953D01*
X100580Y-186932D01*
X101050Y-186407D01*
X101285Y-185672D01*
X101128Y-184937D01*
X100737Y-184307D01*
X100032Y-183887D01*
X99092Y-183677D01*
X98543Y-183257D01*
X98308Y-182522D01*
X98465Y-181787D01*
X98857Y-181262D01*
X99405Y-180947D01*
X99953D01*
X100502Y-181157D01*
X100972Y-181682D01*
G01X107663Y-181472D02*
X107193Y-181157D01*
X106645Y-180947D01*
X106018D01*
X105313Y-181262D01*
X104765Y-181787D01*
X104373Y-182417D01*
X104060Y-183467D01*
X103982Y-184412D01*
X104138Y-185357D01*
X104373Y-185987D01*
X104843Y-186617D01*
X105392Y-187037D01*
X105940Y-187247D01*
X106488D01*
X107037Y-187037D01*
X107507Y-186722D01*
X107898Y-186302D01*
G01X110673Y-187247D02*
Y-180947D01*
X112632D01*
X113258Y-181262D01*
X113650Y-181682D01*
X113807Y-182522D01*
X113650Y-183362D01*
X113180Y-183887D01*
X112632Y-184202D01*
X110673D01*
G01X112632D02*
X113807Y-187247D01*
G01X120107D02*
X116973D01*
Y-180947D01*
X120107D01*
G01X118853Y-183992D02*
X116973D01*
G01X126407Y-187247D02*
X123273D01*
Y-180947D01*
X126407D01*
G01X125153Y-183992D02*
X123273D01*
G01X129338Y-187247D02*
Y-180947D01*
X132942Y-187247D01*
Y-180947D01*
G01X2327Y-4569D02*
X1977Y-4219D01*
X1569Y-4044D01*
X1102Y-3986D01*
X519Y-4103D01*
X111Y-4394D01*
X-6Y-4744D01*
X52Y-5094D01*
X286Y-5386D01*
X1452Y-5969D01*
X1977Y-6378D01*
X2327Y-6961D01*
X2444Y-7486D01*
X-6D01*
G01X-8364Y-13878D02*
X-8014Y-13703D01*
X-7606Y-13586D01*
X-7139D01*
X-6614Y-13761D01*
X-6206Y-14053D01*
X-5914Y-14403D01*
X-5681Y-14986D01*
X-5623Y-15511D01*
X-5739Y-16036D01*
X-5914Y-16386D01*
X-6264Y-16736D01*
X-6673Y-16969D01*
X-7081Y-17086D01*
X-7489D01*
X-7898Y-16969D01*
X-8248Y-16794D01*
X-8539Y-16561D01*
G01X-11381Y-17086D02*
Y-13586D01*
X-10681Y-14286D01*
G01Y-17086D02*
X-12081D01*
G01X4367Y109667D02*
X867D01*
Y108208D01*
X1042Y107742D01*
X1275Y107450D01*
X1742Y107333D01*
X2209Y107450D01*
X2500Y107800D01*
X2675Y108208D01*
Y109667D01*
G01Y108208D02*
X4367Y107333D01*
G01X2909Y105308D02*
X2500Y104900D01*
X2267Y104550D01*
X2150Y104083D01*
X2267Y103675D01*
X2500Y103383D01*
X2850Y103150D01*
X3259Y103092D01*
X3609Y103150D01*
X3959Y103383D01*
X4250Y103733D01*
X4367Y104142D01*
X4250Y104608D01*
X3900Y105017D01*
X3375Y105250D01*
X2792Y105308D01*
X2034Y105192D01*
X1625Y105017D01*
X1217Y104725D01*
X925Y104317D01*
X867Y103908D01*
X984Y103500D01*
X1275Y103208D01*
G01X4367Y99200D02*
X867D01*
X3375Y101358D01*
Y98442D01*
G01X-5296Y111453D02*
Y114953D01*
X-4596Y114253D01*
G01Y111453D02*
X-5996D01*
G01X14219Y108214D02*
Y111714D01*
X14919Y111014D01*
G01Y108214D02*
X13519D01*
G01X12344Y230781D02*
X11877Y230489D01*
X11352Y230314D01*
X10886D01*
X10419Y230489D01*
X10069Y230781D01*
X9894Y231189D01*
X10011Y231597D01*
X10302Y231947D01*
X10827Y232181D01*
X11527Y232297D01*
X11936Y232531D01*
X12111Y232939D01*
X11994Y233347D01*
X11702Y233639D01*
X11294Y233814D01*
X10886D01*
X10477Y233697D01*
X10127Y233406D01*
G01X8102Y230314D02*
Y233814D01*
X6936D01*
X6469Y233639D01*
X6119Y233406D01*
X5827Y233056D01*
X5594Y232647D01*
X5536Y232064D01*
X5594Y231481D01*
X5827Y231072D01*
X6119Y230722D01*
X6469Y230489D01*
X6936Y230314D01*
X8102D01*
G01X3569Y230197D02*
X1469Y233814D01*
G01X-264Y230314D02*
Y233814D01*
X-1781Y230897D01*
X-3298Y233814D01*
Y230314D01*
G01X-4564D02*
Y233814D01*
X-6081Y230897D01*
X-7598Y233814D01*
Y230314D01*
G01X-11664Y233522D02*
X-11314Y233697D01*
X-10906Y233814D01*
X-10439D01*
X-9914Y233639D01*
X-9506Y233347D01*
X-9214Y232997D01*
X-8981Y232414D01*
X-8923Y231889D01*
X-9039Y231364D01*
X-9214Y231014D01*
X-9564Y230664D01*
X-9973Y230431D01*
X-10381Y230314D01*
X-10789D01*
X-11198Y230431D01*
X-11548Y230606D01*
X-11839Y230839D01*
G01X33767Y-4376D02*
X27056D01*
G01X30717Y-512D02*
X30514D01*
Y-7629D01*
G01X28070Y3624D02*
X35944D01*
X55629Y23309D01*
Y68585D01*
X35550Y88664D01*
X28463D01*
G01X36136Y97722D02*
X36486Y97897D01*
X36894Y98014D01*
X37361D01*
X37886Y97839D01*
X38294Y97547D01*
X38586Y97197D01*
X38819Y96614D01*
X38877Y96089D01*
X38761Y95564D01*
X38586Y95214D01*
X38236Y94864D01*
X37827Y94631D01*
X37419Y94514D01*
X37011D01*
X36602Y94631D01*
X36252Y94806D01*
X35961Y95039D01*
G01X34402Y95214D02*
X34052Y94806D01*
X33586Y94572D01*
X33061Y94514D01*
X32594Y94572D01*
X32127Y94864D01*
X31836Y95214D01*
X31777Y95564D01*
X31894Y95972D01*
X32302Y96264D01*
X32711Y96381D01*
X33236D01*
G01X32711D02*
X32361Y96556D01*
X32069Y96847D01*
X31952Y97197D01*
X32069Y97547D01*
X32361Y97839D01*
X32886Y98014D01*
X33411Y97956D01*
X33936Y97722D01*
G01X29927Y97431D02*
X29577Y97781D01*
X29169Y97956D01*
X28702Y98014D01*
X28119Y97897D01*
X27711Y97606D01*
X27594Y97256D01*
X27652Y96906D01*
X27886Y96614D01*
X29052Y96031D01*
X29577Y95622D01*
X29927Y95039D01*
X30044Y94514D01*
X27594D01*
G01X39968Y96264D02*
X44968D01*
Y95264D01*
X39968D01*
Y96264D01*
G01X27669Y109414D02*
Y112914D01*
X28369Y112214D01*
G01Y109414D02*
X26969D01*
G01X48436Y114814D02*
X48144Y114464D01*
X47794Y114231D01*
X47386Y114114D01*
X46919Y114231D01*
X46569Y114464D01*
X46219Y114814D01*
X46102Y115281D01*
Y117614D01*
G01X42969Y114114D02*
Y117614D01*
X43669Y116914D01*
G01Y114114D02*
X42269D01*
G01X39777Y117031D02*
X39427Y117381D01*
X39019Y117556D01*
X38552Y117614D01*
X37969Y117497D01*
X37561Y117206D01*
X37444Y116856D01*
X37502Y116506D01*
X37736Y116214D01*
X38902Y115631D01*
X39427Y115222D01*
X39777Y114639D01*
X39894Y114114D01*
X37444D01*
G01X20948Y113960D02*
Y108469D01*
X21152D01*
G01X17695Y111316D02*
X23999D01*
G01X61756Y38647D02*
X61581Y38997D01*
X61464Y39405D01*
Y39872D01*
X61639Y40397D01*
X61931Y40805D01*
X62281Y41097D01*
X62864Y41330D01*
X63389Y41388D01*
X63914Y41272D01*
X64264Y41097D01*
X64614Y40747D01*
X64847Y40338D01*
X64964Y39930D01*
Y39522D01*
X64847Y39113D01*
X64672Y38763D01*
X64439Y38472D01*
G01X64964Y35630D02*
X64906Y36097D01*
X64672Y36505D01*
X64322Y36855D01*
X63914Y37088D01*
X63447Y37205D01*
X62981D01*
X62514Y37088D01*
X62106Y36855D01*
X61756Y36505D01*
X61522Y36097D01*
X61464Y35630D01*
X61522Y35163D01*
X61756Y34755D01*
X62106Y34405D01*
X62514Y34172D01*
X62981Y34055D01*
X63447D01*
X63914Y34172D01*
X64322Y34405D01*
X64672Y34755D01*
X64906Y35163D01*
X64964Y35630D01*
G01X61464Y32030D02*
Y30630D01*
G01Y31330D02*
X64964D01*
G01Y32030D02*
Y30630D01*
G01Y28372D02*
X61464D01*
X64964Y25688D01*
X61464D01*
G01X57250Y58258D02*
X56900Y57908D01*
X56725Y57500D01*
X56667Y57033D01*
X56784Y56450D01*
X57075Y56042D01*
X57425Y55925D01*
X57775Y55983D01*
X58067Y56217D01*
X58650Y57383D01*
X59059Y57908D01*
X59642Y58258D01*
X60167Y58375D01*
Y55925D01*
G01X56667Y52850D02*
X56784Y53317D01*
X57075Y53667D01*
X57425Y53900D01*
X57892Y54075D01*
X58417Y54133D01*
X58942Y54075D01*
X59409Y53900D01*
X59759Y53667D01*
X60050Y53317D01*
X60167Y52850D01*
X60050Y52383D01*
X59759Y52033D01*
X59409Y51800D01*
X58942Y51625D01*
X58417Y51567D01*
X57892Y51625D01*
X57425Y51800D01*
X57075Y52033D01*
X56784Y52383D01*
X56667Y52850D01*
G01X60167Y48550D02*
X56667D01*
X57367Y49250D01*
G01X60167D02*
Y47850D01*
G01X58709Y45358D02*
X58300Y44950D01*
X58067Y44600D01*
X57950Y44133D01*
X58067Y43725D01*
X58300Y43433D01*
X58650Y43200D01*
X59059Y43142D01*
X59409Y43200D01*
X59759Y43433D01*
X60050Y43783D01*
X60167Y44192D01*
X60050Y44658D01*
X59700Y45067D01*
X59175Y45300D01*
X58592Y45358D01*
X57834Y45242D01*
X57425Y45067D01*
X57017Y44775D01*
X56725Y44367D01*
X56667Y43958D01*
X56784Y43550D01*
X57075Y43258D01*
G01X60284Y41000D02*
X56667Y38900D01*
G01X57250Y36758D02*
X56900Y36408D01*
X56725Y36000D01*
X56667Y35533D01*
X56784Y34950D01*
X57075Y34542D01*
X57425Y34425D01*
X57775Y34483D01*
X58067Y34717D01*
X58650Y35883D01*
X59059Y36408D01*
X59642Y36758D01*
X60167Y36875D01*
Y34425D01*
G01X59642Y32633D02*
X59934Y32283D01*
X60109Y31875D01*
X60167Y31350D01*
X60050Y30825D01*
X59817Y30417D01*
X59409Y30125D01*
X58942Y30067D01*
X58475Y30183D01*
X58184Y30475D01*
X57950Y30883D01*
X57892Y31292D01*
X57950Y31700D01*
X58184Y32225D01*
X56667Y32050D01*
Y30475D01*
G01X60284Y28100D02*
X56667Y26000D01*
G01X59467Y24033D02*
X59875Y23683D01*
X60109Y23217D01*
X60167Y22692D01*
X60109Y22225D01*
X59817Y21758D01*
X59467Y21467D01*
X59117Y21408D01*
X58709Y21525D01*
X58417Y21933D01*
X58300Y22342D01*
Y22867D01*
G01Y22342D02*
X58125Y21992D01*
X57834Y21700D01*
X57484Y21583D01*
X57134Y21700D01*
X56842Y21992D01*
X56667Y22517D01*
X56725Y23042D01*
X56959Y23567D01*
G01X57250Y19558D02*
X56900Y19208D01*
X56725Y18800D01*
X56667Y18333D01*
X56784Y17750D01*
X57075Y17342D01*
X57425Y17225D01*
X57775Y17283D01*
X58067Y17517D01*
X58650Y18683D01*
X59059Y19208D01*
X59642Y19558D01*
X60167Y19675D01*
Y17225D01*
G01X67359Y37167D02*
X67184Y37517D01*
X67067Y37925D01*
Y38392D01*
X67242Y38917D01*
X67534Y39325D01*
X67884Y39617D01*
X68467Y39850D01*
X68992Y39908D01*
X69517Y39792D01*
X69867Y39617D01*
X70217Y39267D01*
X70450Y38858D01*
X70567Y38450D01*
Y38042D01*
X70450Y37633D01*
X70275Y37283D01*
X70042Y36992D01*
G01X70567Y32983D02*
Y35317D01*
X67067D01*
Y32983D01*
G01X68759Y33917D02*
Y35317D01*
G01X67067Y31017D02*
X70567D01*
Y28683D01*
G01X67067Y26717D02*
X70567D01*
Y24383D01*
G01X77067Y13633D02*
Y17133D01*
X75608D01*
X75142Y16958D01*
X74850Y16725D01*
X74733Y16258D01*
X74850Y15791D01*
X75200Y15500D01*
X75608Y15325D01*
X77067D01*
G01X75608D02*
X74733Y13633D01*
G01X71717D02*
X71600Y14391D01*
X71425Y15033D01*
X71192Y15616D01*
X70900Y16258D01*
X70433Y17133D01*
X72767D01*
G01X68292Y14041D02*
X67883Y13750D01*
X67417Y13633D01*
X66950Y13750D01*
X66542Y14100D01*
X66250Y14625D01*
X66133Y15150D01*
Y15791D01*
X66250Y16316D01*
X66542Y16783D01*
X66892Y17016D01*
X67300Y17133D01*
X67767Y17016D01*
X68117Y16783D01*
X68350Y16433D01*
X68467Y15966D01*
X68350Y15558D01*
X68058Y15150D01*
X67708Y14916D01*
X67300Y14858D01*
X66833Y14975D01*
X66483Y15266D01*
X66133Y15791D01*
G01X67418Y49864D02*
X61568D01*
Y65864D01*
X63368D01*
G01X72800Y85033D02*
Y88533D01*
X73500Y87833D01*
G01Y85033D02*
X72100D01*
G01X73369Y104281D02*
X73719Y103989D01*
X73952Y103639D01*
X74069Y103231D01*
X73952Y102764D01*
X73719Y102414D01*
X73369Y102064D01*
X72902Y101947D01*
X70569D01*
G01X74069Y98814D02*
X70569D01*
X71269Y99514D01*
G01X74069D02*
Y98114D01*
G01X73369Y95797D02*
X73777Y95447D01*
X74011Y94981D01*
X74069Y94456D01*
X74011Y93989D01*
X73719Y93522D01*
X73369Y93231D01*
X73019Y93172D01*
X72611Y93289D01*
X72319Y93697D01*
X72202Y94106D01*
Y94631D01*
G01Y94106D02*
X72027Y93756D01*
X71736Y93464D01*
X71386Y93347D01*
X71036Y93464D01*
X70744Y93756D01*
X70569Y94281D01*
X70627Y94806D01*
X70861Y95331D01*
G01X56202Y73314D02*
X55852Y72906D01*
X55386Y72672D01*
X54861Y72614D01*
X54394Y72672D01*
X53927Y72964D01*
X53636Y73314D01*
X53577Y73664D01*
X53694Y74072D01*
X54102Y74364D01*
X54511Y74481D01*
X55036D01*
G01X54511D02*
X54161Y74656D01*
X53869Y74947D01*
X53752Y75297D01*
X53869Y75647D01*
X54161Y75939D01*
X54686Y76114D01*
X55211Y76056D01*
X55736Y75822D01*
G01X53452Y82581D02*
X53219Y82756D01*
X53044Y83047D01*
X52927Y83456D01*
X53044Y83806D01*
X53277Y84039D01*
X53686Y84214D01*
X55261D01*
Y80714D01*
X53336D01*
X52927Y80947D01*
X52694Y81297D01*
X52577Y81706D01*
X52694Y82114D01*
X53044Y82464D01*
X53452Y82581D01*
X55261D01*
G01X49619Y84214D02*
Y80714D01*
G01X50961Y84214D02*
X48277D01*
G01X45319Y80714D02*
Y84214D01*
X46019Y83514D01*
G01Y80714D02*
X44619D01*
G01X57050Y77957D02*
Y70636D01*
X56846D01*
G01X72552Y80614D02*
Y78106D01*
X72319Y77581D01*
X71852Y77231D01*
X71269Y77114D01*
X70686Y77231D01*
X70219Y77581D01*
X69986Y78106D01*
Y80614D01*
G01X66969Y77114D02*
Y80614D01*
X67669Y79914D01*
G01Y77114D02*
X66269D01*
G01X62669Y80614D02*
X63136Y80497D01*
X63486Y80206D01*
X63719Y79856D01*
X63894Y79389D01*
X63952Y78864D01*
X63894Y78339D01*
X63719Y77872D01*
X63486Y77522D01*
X63136Y77231D01*
X62669Y77114D01*
X62202Y77231D01*
X61852Y77522D01*
X61619Y77872D01*
X61444Y78339D01*
X61386Y78864D01*
X61444Y79389D01*
X61619Y79856D01*
X61852Y80206D01*
X62202Y80497D01*
X62669Y80614D01*
G01X60969Y68714D02*
Y72214D01*
X61669Y71514D01*
G01Y68714D02*
X60269D01*
G01X69468Y65864D02*
X72418D01*
G01X73619Y115314D02*
Y111814D01*
G01X74961Y115314D02*
X72277D01*
G01X70486Y111814D02*
Y115314D01*
X69086D01*
X68619Y115139D01*
X68269Y114731D01*
X68152Y114264D01*
X68269Y113797D01*
X68561Y113447D01*
X69086Y113272D01*
X70486D01*
G01X65019Y111814D02*
Y115314D01*
X65719Y114614D01*
G01Y111814D02*
X64319D01*
G01X62002Y112514D02*
X61652Y112106D01*
X61186Y111872D01*
X60661Y111814D01*
X60194Y111872D01*
X59727Y112164D01*
X59436Y112514D01*
X59377Y112864D01*
X59494Y113272D01*
X59902Y113564D01*
X60311Y113681D01*
X60836D01*
G01X60311D02*
X59961Y113856D01*
X59669Y114147D01*
X59552Y114497D01*
X59669Y114847D01*
X59961Y115139D01*
X60486Y115314D01*
X61011Y115256D01*
X61536Y115022D01*
G01X61019Y102614D02*
Y99114D01*
G01X62361Y102614D02*
X59677D01*
G01X57886Y99114D02*
Y102614D01*
X56486D01*
X56019Y102439D01*
X55669Y102031D01*
X55552Y101564D01*
X55669Y101097D01*
X55961Y100747D01*
X56486Y100572D01*
X57886D01*
G01X52419Y99114D02*
Y102614D01*
X53119Y101914D01*
G01Y99114D02*
X51719D01*
G01X49402Y99639D02*
X49052Y99347D01*
X48644Y99172D01*
X48119Y99114D01*
X47594Y99231D01*
X47186Y99464D01*
X46894Y99872D01*
X46836Y100339D01*
X46952Y100806D01*
X47244Y101097D01*
X47652Y101331D01*
X48061Y101389D01*
X48469Y101331D01*
X48994Y101097D01*
X48819Y102614D01*
X47244D01*
G01X59883Y107333D02*
X59533Y106925D01*
X59067Y106691D01*
X58542Y106633D01*
X58075Y106691D01*
X57608Y106983D01*
X57317Y107333D01*
X57258Y107683D01*
X57375Y108091D01*
X57783Y108383D01*
X58192Y108500D01*
X58717D01*
G01X58192D02*
X57842Y108675D01*
X57550Y108966D01*
X57433Y109316D01*
X57550Y109666D01*
X57842Y109958D01*
X58367Y110133D01*
X58892Y110075D01*
X59417Y109841D01*
G01X80136Y237214D02*
X79844Y236864D01*
X79494Y236631D01*
X79086Y236514D01*
X78619Y236631D01*
X78269Y236864D01*
X77919Y237214D01*
X77802Y237681D01*
Y240014D01*
G01X74669Y236514D02*
Y240014D01*
X75369Y239314D01*
G01Y236514D02*
X73969D01*
G01X70369D02*
Y240014D01*
X71069Y239314D01*
G01Y236514D02*
X69669D01*
G01X102867Y16033D02*
Y19533D01*
X101408D01*
X100942Y19358D01*
X100650Y19125D01*
X100533Y18658D01*
X100650Y18191D01*
X101000Y17900D01*
X101408Y17725D01*
X102867D01*
G01X101408D02*
X100533Y16033D01*
G01X97400D02*
X96992Y16091D01*
X96525Y16266D01*
X96233Y16558D01*
X96117Y16966D01*
X96233Y17375D01*
X96583Y17725D01*
X97108Y17900D01*
X97692D01*
X98042Y18016D01*
X98333Y18308D01*
X98450Y18716D01*
X98275Y19125D01*
X97867Y19416D01*
X97400Y19533D01*
X96933Y19416D01*
X96525Y19125D01*
X96350Y18716D01*
X96467Y18308D01*
X96758Y18016D01*
X97108Y17900D01*
X97692D01*
X98217Y17725D01*
X98567Y17375D01*
X98683Y16966D01*
X98567Y16558D01*
X98275Y16266D01*
X97808Y16091D01*
X97400Y16033D01*
G01X93100Y19533D02*
X93567Y19416D01*
X93917Y19125D01*
X94150Y18775D01*
X94325Y18308D01*
X94383Y17783D01*
X94325Y17258D01*
X94150Y16791D01*
X93917Y16441D01*
X93567Y16150D01*
X93100Y16033D01*
X92633Y16150D01*
X92283Y16441D01*
X92050Y16791D01*
X91875Y17258D01*
X91817Y17783D01*
X91875Y18308D01*
X92050Y18775D01*
X92283Y19125D01*
X92633Y19416D01*
X93100Y19533D01*
G01X81967Y36067D02*
X78467D01*
Y34608D01*
X78642Y34142D01*
X78875Y33850D01*
X79342Y33733D01*
X79809Y33850D01*
X80100Y34200D01*
X80275Y34608D01*
Y36067D01*
G01Y34608D02*
X81967Y33733D01*
G01Y30717D02*
X81209Y30600D01*
X80567Y30425D01*
X79984Y30192D01*
X79342Y29900D01*
X78467Y29433D01*
Y31767D01*
G01X81967Y25600D02*
X78467D01*
X80975Y27758D01*
Y24842D01*
G01X75968Y31864D02*
G03I-500J0D01*
G01X100036Y32714D02*
X99744Y32364D01*
X99394Y32131D01*
X98986Y32014D01*
X98519Y32131D01*
X98169Y32364D01*
X97819Y32714D01*
X97702Y33181D01*
Y35514D01*
G01X94569Y32014D02*
Y35514D01*
X95269Y34814D01*
G01Y32014D02*
X93869D01*
G01X91552Y32539D02*
X91202Y32247D01*
X90794Y32072D01*
X90269Y32014D01*
X89744Y32131D01*
X89336Y32364D01*
X89044Y32772D01*
X88986Y33239D01*
X89102Y33706D01*
X89394Y33997D01*
X89802Y34231D01*
X90211Y34289D01*
X90619Y34231D01*
X91144Y33997D01*
X90969Y35514D01*
X89394D01*
G01X113286Y40814D02*
Y44314D01*
X111827D01*
X111361Y44139D01*
X111069Y43906D01*
X110952Y43439D01*
X111069Y42972D01*
X111419Y42681D01*
X111827Y42506D01*
X113286D01*
G01X111827D02*
X110952Y40814D01*
G01X107936D02*
X107819Y41572D01*
X107644Y42214D01*
X107411Y42797D01*
X107119Y43439D01*
X106652Y44314D01*
X108986D01*
G01X104627Y43731D02*
X104277Y44081D01*
X103869Y44256D01*
X103402Y44314D01*
X102819Y44197D01*
X102411Y43906D01*
X102294Y43556D01*
X102352Y43206D01*
X102586Y42914D01*
X103752Y42331D01*
X104277Y41922D01*
X104627Y41339D01*
X104744Y40814D01*
X102294D01*
G01X87568Y65864D02*
X89368D01*
Y49864D01*
X83518D01*
G01X98169Y37314D02*
Y40814D01*
X98869Y40114D01*
G01Y37314D02*
X97469D01*
G01X84669Y101414D02*
Y82014D01*
X88669Y78114D01*
Y68714D01*
X89769Y67614D01*
X100069D01*
X101369Y68914D01*
Y81714D01*
X97069Y86014D01*
Y100214D01*
X94869Y102414D01*
X85769D01*
X84669Y101414D01*
G01X102468Y76314D02*
Y74414D01*
X107468D01*
Y76314D01*
X102468D01*
G01X97836Y71722D02*
X98186Y71897D01*
X98594Y72014D01*
X99061D01*
X99586Y71839D01*
X99994Y71547D01*
X100286Y71197D01*
X100519Y70614D01*
X100577Y70089D01*
X100461Y69564D01*
X100286Y69214D01*
X99936Y68864D01*
X99527Y68631D01*
X99119Y68514D01*
X98711D01*
X98302Y68631D01*
X97952Y68806D01*
X97661Y69039D01*
G01X96102Y69214D02*
X95752Y68806D01*
X95286Y68572D01*
X94761Y68514D01*
X94294Y68572D01*
X93827Y68864D01*
X93536Y69214D01*
X93477Y69564D01*
X93594Y69972D01*
X94002Y70264D01*
X94411Y70381D01*
X94936D01*
G01X94411D02*
X94061Y70556D01*
X93769Y70847D01*
X93652Y71197D01*
X93769Y71547D01*
X94061Y71839D01*
X94586Y72014D01*
X95111Y71956D01*
X95636Y71722D01*
G01X91802Y69039D02*
X91452Y68747D01*
X91044Y68572D01*
X90519Y68514D01*
X89994Y68631D01*
X89586Y68864D01*
X89294Y69272D01*
X89236Y69739D01*
X89352Y70206D01*
X89644Y70497D01*
X90052Y70731D01*
X90461Y70789D01*
X90869Y70731D01*
X91394Y70497D01*
X91219Y72014D01*
X89644D01*
G01X90018Y83864D02*
X91918D01*
Y88864D01*
X90018D01*
Y83864D01*
G01X97636Y80822D02*
X97986Y80997D01*
X98394Y81114D01*
X98861D01*
X99386Y80939D01*
X99794Y80647D01*
X100086Y80297D01*
X100319Y79714D01*
X100377Y79189D01*
X100261Y78664D01*
X100086Y78314D01*
X99736Y77964D01*
X99327Y77731D01*
X98919Y77614D01*
X98511D01*
X98102Y77731D01*
X97752Y77906D01*
X97461Y78139D01*
G01X95902Y78314D02*
X95552Y77906D01*
X95086Y77672D01*
X94561Y77614D01*
X94094Y77672D01*
X93627Y77964D01*
X93336Y78314D01*
X93277Y78664D01*
X93394Y79072D01*
X93802Y79364D01*
X94211Y79481D01*
X94736D01*
G01X94211D02*
X93861Y79656D01*
X93569Y79947D01*
X93452Y80297D01*
X93569Y80647D01*
X93861Y80939D01*
X94386Y81114D01*
X94911Y81056D01*
X95436Y80822D01*
G01X90319Y81114D02*
X90786Y80997D01*
X91136Y80706D01*
X91369Y80356D01*
X91544Y79889D01*
X91602Y79364D01*
X91544Y78839D01*
X91369Y78372D01*
X91136Y78022D01*
X90786Y77731D01*
X90319Y77614D01*
X89852Y77731D01*
X89502Y78022D01*
X89269Y78372D01*
X89094Y78839D01*
X89036Y79364D01*
X89094Y79889D01*
X89269Y80356D01*
X89502Y80706D01*
X89852Y80997D01*
X90319Y81114D01*
G01X97936Y76122D02*
X98286Y76297D01*
X98694Y76414D01*
X99161D01*
X99686Y76239D01*
X100094Y75947D01*
X100386Y75597D01*
X100619Y75014D01*
X100677Y74489D01*
X100561Y73964D01*
X100386Y73614D01*
X100036Y73264D01*
X99627Y73031D01*
X99219Y72914D01*
X98811D01*
X98402Y73031D01*
X98052Y73206D01*
X97761Y73439D01*
G01X96202Y73614D02*
X95852Y73206D01*
X95386Y72972D01*
X94861Y72914D01*
X94394Y72972D01*
X93927Y73264D01*
X93636Y73614D01*
X93577Y73964D01*
X93694Y74372D01*
X94102Y74664D01*
X94511Y74781D01*
X95036D01*
G01X94511D02*
X94161Y74956D01*
X93869Y75247D01*
X93752Y75597D01*
X93869Y75947D01*
X94161Y76239D01*
X94686Y76414D01*
X95211Y76356D01*
X95736Y76122D01*
G01X91902Y73614D02*
X91552Y73206D01*
X91086Y72972D01*
X90561Y72914D01*
X90094Y72972D01*
X89627Y73264D01*
X89336Y73614D01*
X89277Y73964D01*
X89394Y74372D01*
X89802Y74664D01*
X90211Y74781D01*
X90736D01*
G01X90211D02*
X89861Y74956D01*
X89569Y75247D01*
X89452Y75597D01*
X89569Y75947D01*
X89861Y76239D01*
X90386Y76414D01*
X90911Y76356D01*
X91436Y76122D01*
G01X89468Y90364D02*
Y95364D01*
X90468D01*
Y90364D01*
X89468D01*
G01X101352Y86014D02*
X101002Y85606D01*
X100536Y85372D01*
X100011Y85314D01*
X99544Y85372D01*
X99077Y85664D01*
X98786Y86014D01*
X98727Y86364D01*
X98844Y86772D01*
X99252Y87064D01*
X99661Y87181D01*
X100186D01*
G01X99661D02*
X99311Y87356D01*
X99019Y87647D01*
X98902Y87997D01*
X99019Y88347D01*
X99311Y88639D01*
X99836Y88814D01*
X100361Y88756D01*
X100886Y88522D01*
G01X102368Y92864D02*
X100568D01*
Y108864D01*
X106418D01*
G01X79277Y78431D02*
X78927Y78781D01*
X78519Y78956D01*
X78052Y79014D01*
X77469Y78897D01*
X77061Y78606D01*
X76944Y78256D01*
X77002Y77906D01*
X77236Y77614D01*
X78402Y77031D01*
X78927Y76622D01*
X79277Y76039D01*
X79394Y75514D01*
X76944D01*
G01X86552Y76214D02*
X86202Y75806D01*
X85736Y75572D01*
X85211Y75514D01*
X84744Y75572D01*
X84277Y75864D01*
X83986Y76214D01*
X83927Y76564D01*
X84044Y76972D01*
X84452Y77264D01*
X84861Y77381D01*
X85386D01*
G01X84861D02*
X84511Y77556D01*
X84219Y77847D01*
X84102Y78197D01*
X84219Y78547D01*
X84511Y78839D01*
X85036Y79014D01*
X85561Y78956D01*
X86086Y78722D01*
G01X78518Y65864D02*
X81468D01*
G01X99450Y116033D02*
Y112533D01*
G01X100792Y116033D02*
X98108D01*
G01X96317Y112533D02*
Y116033D01*
X94917D01*
X94450Y115858D01*
X94100Y115450D01*
X93983Y114983D01*
X94100Y114516D01*
X94392Y114166D01*
X94917Y113991D01*
X96317D01*
G01X90850Y112533D02*
Y116033D01*
X91550Y115333D01*
G01Y112533D02*
X90150D01*
G01X87658Y115450D02*
X87308Y115800D01*
X86900Y115975D01*
X86433Y116033D01*
X85850Y115916D01*
X85442Y115625D01*
X85325Y115275D01*
X85383Y114925D01*
X85617Y114633D01*
X86783Y114050D01*
X87308Y113641D01*
X87658Y113058D01*
X87775Y112533D01*
X85325D01*
G01X89468Y96864D02*
Y101864D01*
X90468D01*
Y96864D01*
X89468D01*
G01X84683Y108333D02*
X84333Y107925D01*
X83867Y107691D01*
X83342Y107633D01*
X82875Y107691D01*
X82408Y107983D01*
X82117Y108333D01*
X82058Y108683D01*
X82175Y109091D01*
X82583Y109383D01*
X82992Y109500D01*
X83517D01*
G01X82992D02*
X82642Y109675D01*
X82350Y109966D01*
X82233Y110316D01*
X82350Y110666D01*
X82642Y110958D01*
X83167Y111133D01*
X83692Y111075D01*
X84217Y110841D01*
G01X100249Y117786D02*
Y121286D01*
X100949Y120586D01*
G01Y117786D02*
X99549D01*
G01X95949D02*
Y121286D01*
X96649Y120586D01*
G01Y117786D02*
X95249D01*
G01X92942Y152347D02*
Y157647D01*
G01Y142947D02*
Y147947D01*
G01Y135997D02*
Y138297D01*
G01Y129997D02*
Y131547D01*
G01Y181847D02*
Y187147D01*
G01Y172147D02*
Y174197D01*
G01Y162147D02*
Y167597D01*
G01Y211347D02*
Y221247D01*
G01Y201597D02*
Y206947D01*
G01Y191697D02*
Y197047D01*
G01X100067Y231533D02*
X99775Y231183D01*
X99425Y230950D01*
X99017Y230833D01*
X98550Y230950D01*
X98200Y231183D01*
X97850Y231533D01*
X97733Y232000D01*
Y234333D01*
G01X95708Y233750D02*
X95358Y234100D01*
X94950Y234275D01*
X94483Y234333D01*
X93900Y234216D01*
X93492Y233925D01*
X93375Y233575D01*
X93433Y233225D01*
X93667Y232933D01*
X94833Y232350D01*
X95358Y231941D01*
X95708Y231358D01*
X95825Y230833D01*
X93375D01*
G01X90300Y234333D02*
X90767Y234216D01*
X91117Y233925D01*
X91350Y233575D01*
X91525Y233108D01*
X91583Y232583D01*
X91525Y232058D01*
X91350Y231591D01*
X91117Y231241D01*
X90767Y230950D01*
X90300Y230833D01*
X89833Y230950D01*
X89483Y231241D01*
X89250Y231591D01*
X89075Y232058D01*
X89017Y232583D01*
X89075Y233108D01*
X89250Y233575D01*
X89483Y233925D01*
X89833Y234216D01*
X90300Y234333D01*
G01X92942Y226797D02*
Y229247D01*
G01X115036Y236314D02*
Y239814D01*
X113636D01*
X113169Y239639D01*
X112819Y239231D01*
X112702Y238764D01*
X112819Y238297D01*
X113111Y237947D01*
X113636Y237772D01*
X115036D01*
G01X110736Y236314D02*
Y239814D01*
X109277D01*
X108811Y239639D01*
X108519Y239406D01*
X108402Y238939D01*
X108519Y238472D01*
X108869Y238181D01*
X109277Y238006D01*
X110736D01*
G01X109277D02*
X108402Y236314D01*
G01X105969Y239814D02*
X104569D01*
G01X105269D02*
Y236314D01*
G01X105969D02*
X104569D01*
G01X102486D02*
Y239814D01*
X100969Y236897D01*
X99452Y239814D01*
Y236314D01*
G01X98127D02*
X96669Y239814D01*
X95211Y236314D01*
G01X95736Y237539D02*
X97602D01*
G01X93536Y236314D02*
Y239814D01*
X92077D01*
X91611Y239639D01*
X91319Y239406D01*
X91202Y238939D01*
X91319Y238472D01*
X91669Y238181D01*
X92077Y238006D01*
X93536D01*
G01X92077D02*
X91202Y236314D01*
G01X88069D02*
Y237889D01*
X89236Y239814D01*
G01X86902D02*
X88069Y237889D01*
G01X113317Y20541D02*
X113667Y20716D01*
X114075Y20833D01*
X114542D01*
X115067Y20658D01*
X115475Y20366D01*
X115767Y20016D01*
X116000Y19433D01*
X116058Y18908D01*
X115942Y18383D01*
X115767Y18033D01*
X115417Y17683D01*
X115008Y17450D01*
X114600Y17333D01*
X114192D01*
X113783Y17450D01*
X113433Y17625D01*
X113142Y17858D01*
G01X109600Y17333D02*
Y20833D01*
X111758Y18325D01*
X108842D01*
G01X106000Y17333D02*
X105592Y17391D01*
X105125Y17566D01*
X104833Y17858D01*
X104717Y18266D01*
X104833Y18675D01*
X105183Y19025D01*
X105708Y19200D01*
X106292D01*
X106642Y19316D01*
X106933Y19608D01*
X107050Y20016D01*
X106875Y20425D01*
X106467Y20716D01*
X106000Y20833D01*
X105533Y20716D01*
X105125Y20425D01*
X104950Y20016D01*
X105067Y19608D01*
X105358Y19316D01*
X105708Y19200D01*
X106292D01*
X106817Y19025D01*
X107167Y18675D01*
X107283Y18266D01*
X107167Y17858D01*
X106875Y17566D01*
X106408Y17391D01*
X106000Y17333D01*
G01X110968Y11364D02*
Y16364D01*
X111968D01*
Y11364D01*
X110968D01*
G01X128600Y28833D02*
Y32333D01*
X129300Y31633D01*
G01Y28833D02*
X127900D01*
G01X109419Y23614D02*
X109886Y23672D01*
X110294Y23906D01*
X110644Y24256D01*
X110877Y24664D01*
X110994Y25131D01*
Y25597D01*
X110877Y26064D01*
X110644Y26472D01*
X110294Y26822D01*
X109886Y27056D01*
X109419Y27114D01*
X108952Y27056D01*
X108544Y26822D01*
X108194Y26472D01*
X107961Y26064D01*
X107844Y25597D01*
Y25131D01*
X107961Y24664D01*
X108194Y24256D01*
X108544Y23906D01*
X108952Y23672D01*
X109419Y23614D01*
G01X108952Y24547D02*
X108252Y23614D01*
G01X106402Y24314D02*
X106052Y23906D01*
X105586Y23672D01*
X105061Y23614D01*
X104594Y23672D01*
X104127Y23964D01*
X103836Y24314D01*
X103777Y24664D01*
X103894Y25072D01*
X104302Y25364D01*
X104711Y25481D01*
X105236D01*
G01X104711D02*
X104361Y25656D01*
X104069Y25947D01*
X103952Y26297D01*
X104069Y26647D01*
X104361Y26939D01*
X104886Y27114D01*
X105411Y27056D01*
X105936Y26822D01*
G01X120968Y32764D02*
X116668D01*
Y29264D01*
G01Y23264D02*
Y19764D01*
X120968D01*
G01X123418Y27004D02*
Y25524D01*
G01X134508Y21291D02*
X134100Y21700D01*
X133750Y21933D01*
X133283Y22050D01*
X132875Y21933D01*
X132583Y21700D01*
X132350Y21350D01*
X132292Y20941D01*
X132350Y20591D01*
X132583Y20241D01*
X132933Y19950D01*
X133342Y19833D01*
X133808Y19950D01*
X134217Y20300D01*
X134450Y20825D01*
X134508Y21408D01*
X134392Y22166D01*
X134217Y22575D01*
X133925Y22983D01*
X133517Y23275D01*
X133108Y23333D01*
X132700Y23216D01*
X132408Y22925D01*
G01X131752Y15714D02*
Y13206D01*
X131519Y12681D01*
X131052Y12331D01*
X130469Y12214D01*
X129886Y12331D01*
X129419Y12681D01*
X129186Y13206D01*
Y15714D01*
G01X126169Y12214D02*
Y15714D01*
X126869Y15014D01*
G01Y12214D02*
X125469D01*
G01X122977Y15131D02*
X122627Y15481D01*
X122219Y15656D01*
X121752Y15714D01*
X121169Y15597D01*
X120761Y15306D01*
X120644Y14956D01*
X120702Y14606D01*
X120936Y14314D01*
X122102Y13731D01*
X122627Y13322D01*
X122977Y12739D01*
X123094Y12214D01*
X120644D01*
G01X140450Y59133D02*
Y55633D01*
G01X141792Y59133D02*
X139108D01*
G01X137317Y55633D02*
Y59133D01*
X135917D01*
X135450Y58958D01*
X135100Y58550D01*
X134983Y58083D01*
X135100Y57616D01*
X135392Y57266D01*
X135917Y57091D01*
X137317D01*
G01X131850Y55633D02*
Y59133D01*
X132550Y58433D01*
G01Y55633D02*
X131150D01*
G01X128542Y56041D02*
X128133Y55750D01*
X127667Y55633D01*
X127200Y55750D01*
X126792Y56100D01*
X126500Y56625D01*
X126383Y57150D01*
Y57791D01*
X126500Y58316D01*
X126792Y58783D01*
X127142Y59016D01*
X127550Y59133D01*
X128017Y59016D01*
X128367Y58783D01*
X128600Y58433D01*
X128717Y57966D01*
X128600Y57558D01*
X128308Y57150D01*
X127958Y56916D01*
X127550Y56858D01*
X127083Y56975D01*
X126733Y57266D01*
X126383Y57791D01*
G01X122050Y58333D02*
Y54833D01*
G01X123392Y58333D02*
X120708D01*
G01X118917Y54833D02*
Y58333D01*
X117517D01*
X117050Y58158D01*
X116700Y57750D01*
X116583Y57283D01*
X116700Y56816D01*
X116992Y56466D01*
X117517Y56291D01*
X118917D01*
G01X113450Y54833D02*
Y58333D01*
X114150Y57633D01*
G01Y54833D02*
X112750D01*
G01X109150D02*
X108742Y54891D01*
X108275Y55066D01*
X107983Y55358D01*
X107867Y55766D01*
X107983Y56175D01*
X108333Y56525D01*
X108858Y56700D01*
X109442D01*
X109792Y56816D01*
X110083Y57108D01*
X110200Y57516D01*
X110025Y57925D01*
X109617Y58216D01*
X109150Y58333D01*
X108683Y58216D01*
X108275Y57925D01*
X108100Y57516D01*
X108217Y57108D01*
X108508Y56816D01*
X108858Y56700D01*
X109442D01*
X109967Y56525D01*
X110317Y56175D01*
X110433Y55766D01*
X110317Y55358D01*
X110025Y55066D01*
X109558Y54891D01*
X109150Y54833D01*
G01X118036Y44222D02*
X118386Y44397D01*
X118794Y44514D01*
X119261D01*
X119786Y44339D01*
X120194Y44047D01*
X120486Y43697D01*
X120719Y43114D01*
X120777Y42589D01*
X120661Y42064D01*
X120486Y41714D01*
X120136Y41364D01*
X119727Y41131D01*
X119319Y41014D01*
X118911D01*
X118502Y41131D01*
X118152Y41306D01*
X117861Y41539D01*
G01X133002Y49714D02*
Y53214D01*
X131836D01*
X131369Y53039D01*
X131019Y52806D01*
X130727Y52456D01*
X130494Y52047D01*
X130436Y51464D01*
X130494Y50881D01*
X130727Y50472D01*
X131019Y50122D01*
X131369Y49889D01*
X131836Y49714D01*
X133002D01*
G01X127419D02*
Y53214D01*
X128119Y52514D01*
G01Y49714D02*
X126719D01*
G01X123119Y53214D02*
X123586Y53097D01*
X123936Y52806D01*
X124169Y52456D01*
X124344Y51989D01*
X124402Y51464D01*
X124344Y50939D01*
X124169Y50472D01*
X123936Y50122D01*
X123586Y49831D01*
X123119Y49714D01*
X122652Y49831D01*
X122302Y50122D01*
X122069Y50472D01*
X121894Y50939D01*
X121836Y51464D01*
X121894Y51989D01*
X122069Y52456D01*
X122302Y52806D01*
X122652Y53097D01*
X123119Y53214D01*
G01X126201Y45473D02*
X128701Y47973D01*
Y42973D01*
X126201Y45473D01*
X123201D01*
G01X128701D02*
X132201D01*
G01X126201Y47973D02*
Y42473D01*
G01X122755Y41746D02*
X133236D01*
Y41722D01*
G01X122799Y34801D02*
X133279D01*
Y34777D01*
G01X127461Y77381D02*
X127286Y77731D01*
X127169Y78139D01*
Y78606D01*
X127344Y79131D01*
X127636Y79539D01*
X127986Y79831D01*
X128569Y80064D01*
X129094Y80122D01*
X129619Y80006D01*
X129969Y79831D01*
X130319Y79481D01*
X130552Y79072D01*
X130669Y78664D01*
Y78256D01*
X130552Y77847D01*
X130377Y77497D01*
X130144Y77206D01*
G01X129969Y75647D02*
X130377Y75297D01*
X130611Y74831D01*
X130669Y74306D01*
X130611Y73839D01*
X130319Y73372D01*
X129969Y73081D01*
X129619Y73022D01*
X129211Y73139D01*
X128919Y73547D01*
X128802Y73956D01*
Y74481D01*
G01Y73956D02*
X128627Y73606D01*
X128336Y73314D01*
X127986Y73197D01*
X127636Y73314D01*
X127344Y73606D01*
X127169Y74131D01*
X127227Y74656D01*
X127461Y75181D01*
G01X130669Y70064D02*
X130611Y69656D01*
X130436Y69189D01*
X130144Y68897D01*
X129736Y68781D01*
X129327Y68897D01*
X128977Y69247D01*
X128802Y69772D01*
Y70356D01*
X128686Y70706D01*
X128394Y70997D01*
X127986Y71114D01*
X127577Y70939D01*
X127286Y70531D01*
X127169Y70064D01*
X127286Y69597D01*
X127577Y69189D01*
X127986Y69014D01*
X128394Y69131D01*
X128686Y69422D01*
X128802Y69772D01*
Y70356D01*
X128977Y70881D01*
X129327Y71231D01*
X129736Y71347D01*
X130144Y71231D01*
X130436Y70939D01*
X130611Y70472D01*
X130669Y70064D01*
G01X120968Y76314D02*
Y74414D01*
X125968D01*
Y76314D01*
X120968D01*
G01X109361Y78781D02*
X109186Y79131D01*
X109069Y79539D01*
Y80006D01*
X109244Y80531D01*
X109536Y80939D01*
X109886Y81231D01*
X110469Y81464D01*
X110994Y81522D01*
X111519Y81406D01*
X111869Y81231D01*
X112219Y80881D01*
X112452Y80472D01*
X112569Y80064D01*
Y79656D01*
X112452Y79247D01*
X112277Y78897D01*
X112044Y78606D01*
G01X111869Y77047D02*
X112277Y76697D01*
X112511Y76231D01*
X112569Y75706D01*
X112511Y75239D01*
X112219Y74772D01*
X111869Y74481D01*
X111519Y74422D01*
X111111Y74539D01*
X110819Y74947D01*
X110702Y75356D01*
Y75881D01*
G01Y75356D02*
X110527Y75006D01*
X110236Y74714D01*
X109886Y74597D01*
X109536Y74714D01*
X109244Y75006D01*
X109069Y75531D01*
X109127Y76056D01*
X109361Y76581D01*
G01X112161Y72456D02*
X112452Y72047D01*
X112569Y71581D01*
X112452Y71114D01*
X112102Y70706D01*
X111577Y70414D01*
X111052Y70297D01*
X110411D01*
X109886Y70414D01*
X109419Y70706D01*
X109186Y71056D01*
X109069Y71464D01*
X109186Y71931D01*
X109419Y72281D01*
X109769Y72514D01*
X110236Y72631D01*
X110644Y72514D01*
X111052Y72222D01*
X111286Y71872D01*
X111344Y71464D01*
X111227Y70997D01*
X110936Y70647D01*
X110411Y70297D01*
G01X128269Y84014D02*
Y87514D01*
X128969Y86814D01*
G01Y84014D02*
X127569D01*
G01X117477Y82831D02*
X117127Y83181D01*
X116719Y83356D01*
X116252Y83414D01*
X115669Y83297D01*
X115261Y83006D01*
X115144Y82656D01*
X115202Y82306D01*
X115436Y82014D01*
X116602Y81431D01*
X117127Y81022D01*
X117477Y80439D01*
X117594Y79914D01*
X115144D01*
G01X111418Y92864D02*
X108468D01*
G01X120468D02*
X117518D01*
G01X122518Y108864D02*
X128368D01*
Y92864D01*
X126568D01*
G01X125786Y127314D02*
Y123814D01*
X123452D01*
G01X120436D02*
X120319Y124572D01*
X120144Y125214D01*
X119911Y125797D01*
X119619Y126439D01*
X119152Y127314D01*
X121486D01*
G01X137036Y127522D02*
X137386Y127697D01*
X137794Y127814D01*
X138261D01*
X138786Y127639D01*
X139194Y127347D01*
X139486Y126997D01*
X139719Y126414D01*
X139777Y125889D01*
X139661Y125364D01*
X139486Y125014D01*
X139136Y124664D01*
X138727Y124431D01*
X138319Y124314D01*
X137911D01*
X137502Y124431D01*
X137152Y124606D01*
X136861Y124839D01*
G01X135127Y127231D02*
X134777Y127581D01*
X134369Y127756D01*
X133902Y127814D01*
X133319Y127697D01*
X132911Y127406D01*
X132794Y127056D01*
X132852Y126706D01*
X133086Y126414D01*
X134252Y125831D01*
X134777Y125422D01*
X135127Y124839D01*
X135244Y124314D01*
X132794D01*
G01X129719D02*
X129311Y124372D01*
X128844Y124547D01*
X128552Y124839D01*
X128436Y125247D01*
X128552Y125656D01*
X128902Y126006D01*
X129427Y126181D01*
X130011D01*
X130361Y126297D01*
X130652Y126589D01*
X130769Y126997D01*
X130594Y127406D01*
X130186Y127697D01*
X129719Y127814D01*
X129252Y127697D01*
X128844Y127406D01*
X128669Y126997D01*
X128786Y126589D01*
X129077Y126297D01*
X129427Y126181D01*
X130011D01*
X130536Y126006D01*
X130886Y125656D01*
X131002Y125247D01*
X130886Y124839D01*
X130594Y124547D01*
X130127Y124372D01*
X129719Y124314D01*
G01X131202Y119714D02*
Y117206D01*
X130969Y116681D01*
X130502Y116331D01*
X129919Y116214D01*
X129336Y116331D01*
X128869Y116681D01*
X128636Y117206D01*
Y119714D01*
G01X126611Y116622D02*
X126202Y116331D01*
X125736Y116214D01*
X125269Y116331D01*
X124861Y116681D01*
X124569Y117206D01*
X124452Y117731D01*
Y118372D01*
X124569Y118897D01*
X124861Y119364D01*
X125211Y119597D01*
X125619Y119714D01*
X126086Y119597D01*
X126436Y119364D01*
X126669Y119014D01*
X126786Y118547D01*
X126669Y118139D01*
X126377Y117731D01*
X126027Y117497D01*
X125619Y117439D01*
X125152Y117556D01*
X124802Y117847D01*
X124452Y118372D01*
G01X142636Y99214D02*
X142344Y98864D01*
X141994Y98631D01*
X141586Y98514D01*
X141119Y98631D01*
X140769Y98864D01*
X140419Y99214D01*
X140302Y99681D01*
Y102014D01*
G01X137169Y98514D02*
Y102014D01*
X137869Y101314D01*
G01Y98514D02*
X136469D01*
G01X132169D02*
Y102014D01*
X134327Y99506D01*
X131411D01*
G01X123968Y154664D02*
Y153264D01*
X139968D01*
Y154664D01*
G01X132586Y147514D02*
Y151014D01*
X131127D01*
X130661Y150839D01*
X130369Y150606D01*
X130252Y150139D01*
X130369Y149672D01*
X130719Y149381D01*
X131127Y149206D01*
X132586D01*
G01X131127D02*
X130252Y147514D01*
G01X128402Y148039D02*
X128052Y147747D01*
X127644Y147572D01*
X127119Y147514D01*
X126594Y147631D01*
X126186Y147864D01*
X125894Y148272D01*
X125836Y148739D01*
X125952Y149206D01*
X126244Y149497D01*
X126652Y149731D01*
X127061Y149789D01*
X127469Y149731D01*
X127994Y149497D01*
X127819Y151014D01*
X126244D01*
G01X124102Y148214D02*
X123752Y147806D01*
X123286Y147572D01*
X122761Y147514D01*
X122294Y147572D01*
X121827Y147864D01*
X121536Y148214D01*
X121477Y148564D01*
X121594Y148972D01*
X122002Y149264D01*
X122411Y149381D01*
X122936D01*
G01X122411D02*
X122061Y149556D01*
X121769Y149847D01*
X121652Y150197D01*
X121769Y150547D01*
X122061Y150839D01*
X122586Y151014D01*
X123111Y150956D01*
X123636Y150722D01*
G01X140586Y135114D02*
Y138614D01*
X139127D01*
X138661Y138439D01*
X138369Y138206D01*
X138252Y137739D01*
X138369Y137272D01*
X138719Y136981D01*
X139127Y136806D01*
X140586D01*
G01X139127D02*
X138252Y135114D01*
G01X136402Y135639D02*
X136052Y135347D01*
X135644Y135172D01*
X135119Y135114D01*
X134594Y135231D01*
X134186Y135464D01*
X133894Y135872D01*
X133836Y136339D01*
X133952Y136806D01*
X134244Y137097D01*
X134652Y137331D01*
X135061Y137389D01*
X135469Y137331D01*
X135994Y137097D01*
X135819Y138614D01*
X134244D01*
G01X130936Y135114D02*
X130819Y135872D01*
X130644Y136514D01*
X130411Y137097D01*
X130119Y137739D01*
X129652Y138614D01*
X131986D01*
G01X126468Y132364D02*
G03I-500J0D01*
G01X109319Y126114D02*
Y129614D01*
X110019Y128914D01*
G01Y126114D02*
X108619D01*
G01X105019Y129614D02*
X105486Y129497D01*
X105836Y129206D01*
X106069Y128856D01*
X106244Y128389D01*
X106302Y127864D01*
X106244Y127339D01*
X106069Y126872D01*
X105836Y126522D01*
X105486Y126231D01*
X105019Y126114D01*
X104552Y126231D01*
X104202Y126522D01*
X103969Y126872D01*
X103794Y127339D01*
X103736Y127864D01*
X103794Y128389D01*
X103969Y128856D01*
X104202Y129206D01*
X104552Y129497D01*
X105019Y129614D01*
G01X106842Y132017D02*
X106434Y132075D01*
X105967Y132250D01*
X105675Y132542D01*
X105559Y132950D01*
X105675Y133359D01*
X106025Y133709D01*
X106550Y133884D01*
X107134D01*
X107484Y134000D01*
X107775Y134292D01*
X107892Y134700D01*
X107717Y135109D01*
X107309Y135400D01*
X106842Y135517D01*
X106375Y135400D01*
X105967Y135109D01*
X105792Y134700D01*
X105909Y134292D01*
X106200Y134000D01*
X106550Y133884D01*
X107134D01*
X107659Y133709D01*
X108009Y133359D01*
X108125Y132950D01*
X108009Y132542D01*
X107717Y132250D01*
X107250Y132075D01*
X106842Y132017D01*
G01X106859Y139117D02*
X106742Y139875D01*
X106567Y140517D01*
X106334Y141100D01*
X106042Y141742D01*
X105575Y142617D01*
X107909D01*
G01X107127Y149872D02*
X106719Y150281D01*
X106369Y150514D01*
X105902Y150631D01*
X105494Y150514D01*
X105202Y150281D01*
X104969Y149931D01*
X104911Y149522D01*
X104969Y149172D01*
X105202Y148822D01*
X105552Y148531D01*
X105961Y148414D01*
X106427Y148531D01*
X106836Y148881D01*
X107069Y149406D01*
X107127Y149989D01*
X107011Y150747D01*
X106836Y151156D01*
X106544Y151564D01*
X106136Y151856D01*
X105727Y151914D01*
X105319Y151797D01*
X105027Y151506D01*
G01X140813Y174367D02*
X141163Y174542D01*
X141571Y174659D01*
X142038D01*
X142563Y174484D01*
X142971Y174192D01*
X143263Y173842D01*
X143496Y173259D01*
X143554Y172734D01*
X143438Y172209D01*
X143263Y171859D01*
X142913Y171509D01*
X142504Y171276D01*
X142096Y171159D01*
X141688D01*
X141279Y171276D01*
X140929Y171451D01*
X140638Y171684D01*
G01X137796Y171159D02*
Y174659D01*
X138496Y173959D01*
G01Y171159D02*
X137096D01*
G01X133496D02*
X133088Y171217D01*
X132621Y171392D01*
X132329Y171684D01*
X132213Y172092D01*
X132329Y172501D01*
X132679Y172851D01*
X133204Y173026D01*
X133788D01*
X134138Y173142D01*
X134429Y173434D01*
X134546Y173842D01*
X134371Y174251D01*
X133963Y174542D01*
X133496Y174659D01*
X133029Y174542D01*
X132621Y174251D01*
X132446Y173842D01*
X132563Y173434D01*
X132854Y173142D01*
X133204Y173026D01*
X133788D01*
X134313Y172851D01*
X134663Y172501D01*
X134779Y172092D01*
X134663Y171684D01*
X134371Y171392D01*
X133904Y171217D01*
X133496Y171159D01*
G01X119017Y168241D02*
X119367Y168416D01*
X119775Y168533D01*
X120242D01*
X120767Y168358D01*
X121175Y168066D01*
X121467Y167716D01*
X121700Y167133D01*
X121758Y166608D01*
X121642Y166083D01*
X121467Y165733D01*
X121117Y165383D01*
X120708Y165150D01*
X120300Y165033D01*
X119892D01*
X119483Y165150D01*
X119133Y165325D01*
X118842Y165558D01*
G01X117108Y167950D02*
X116758Y168300D01*
X116350Y168475D01*
X115883Y168533D01*
X115300Y168416D01*
X114892Y168125D01*
X114775Y167775D01*
X114833Y167425D01*
X115067Y167133D01*
X116233Y166550D01*
X116758Y166141D01*
X117108Y165558D01*
X117225Y165033D01*
X114775D01*
G01X111700Y168533D02*
X112167Y168416D01*
X112517Y168125D01*
X112750Y167775D01*
X112925Y167308D01*
X112983Y166783D01*
X112925Y166258D01*
X112750Y165791D01*
X112517Y165441D01*
X112167Y165150D01*
X111700Y165033D01*
X111233Y165150D01*
X110883Y165441D01*
X110650Y165791D01*
X110475Y166258D01*
X110417Y166783D01*
X110475Y167308D01*
X110650Y167775D01*
X110883Y168125D01*
X111233Y168416D01*
X111700Y168533D01*
G01X139968Y165064D02*
Y166464D01*
X123968D01*
Y165064D01*
G01X126468Y167864D02*
Y172864D01*
X127468D01*
Y167864D01*
X126468D01*
G01X106002Y158339D02*
X105652Y158047D01*
X105244Y157872D01*
X104719Y157814D01*
X104194Y157931D01*
X103786Y158164D01*
X103494Y158572D01*
X103436Y159039D01*
X103552Y159506D01*
X103844Y159797D01*
X104252Y160031D01*
X104661Y160089D01*
X105069Y160031D01*
X105594Y159797D01*
X105419Y161314D01*
X103844D01*
G01X105719Y167414D02*
Y170914D01*
X107877Y168406D01*
X104961D01*
G01X107702Y177414D02*
X107352Y177006D01*
X106886Y176772D01*
X106361Y176714D01*
X105894Y176772D01*
X105427Y177064D01*
X105136Y177414D01*
X105077Y177764D01*
X105194Y178172D01*
X105602Y178464D01*
X106011Y178581D01*
X106536D01*
G01X106011D02*
X105661Y178756D01*
X105369Y179047D01*
X105252Y179397D01*
X105369Y179747D01*
X105661Y180039D01*
X106186Y180214D01*
X106711Y180156D01*
X107236Y179922D01*
G01X106327Y191331D02*
X105977Y191681D01*
X105569Y191856D01*
X105102Y191914D01*
X104519Y191797D01*
X104111Y191506D01*
X103994Y191156D01*
X104052Y190806D01*
X104286Y190514D01*
X105452Y189931D01*
X105977Y189522D01*
X106327Y188939D01*
X106444Y188414D01*
X103994D01*
G01X104519Y198414D02*
Y201914D01*
X105219Y201214D01*
G01Y198414D02*
X103819D01*
G01X105511Y210322D02*
X105102Y210031D01*
X104636Y209914D01*
X104169Y210031D01*
X103761Y210381D01*
X103469Y210906D01*
X103352Y211431D01*
Y212072D01*
X103469Y212597D01*
X103761Y213064D01*
X104111Y213297D01*
X104519Y213414D01*
X104986Y213297D01*
X105336Y213064D01*
X105569Y212714D01*
X105686Y212247D01*
X105569Y211839D01*
X105277Y211431D01*
X104927Y211197D01*
X104519Y211139D01*
X104052Y211256D01*
X103702Y211547D01*
X103352Y212072D01*
G01X119031Y208564D02*
X118739Y208214D01*
X118389Y207981D01*
X117981Y207864D01*
X117514Y207981D01*
X117164Y208214D01*
X116814Y208564D01*
X116697Y209031D01*
Y211364D01*
G01X114672Y210781D02*
X114322Y211131D01*
X113914Y211306D01*
X113447Y211364D01*
X112864Y211247D01*
X112456Y210956D01*
X112339Y210606D01*
X112397Y210256D01*
X112631Y209964D01*
X113797Y209381D01*
X114322Y208972D01*
X114672Y208389D01*
X114789Y207864D01*
X112339D01*
G01X133386Y208914D02*
X133094Y208564D01*
X132744Y208331D01*
X132336Y208214D01*
X131869Y208331D01*
X131519Y208564D01*
X131169Y208914D01*
X131052Y209381D01*
Y211714D01*
G01X129202Y208914D02*
X128852Y208506D01*
X128386Y208272D01*
X127861Y208214D01*
X127394Y208272D01*
X126927Y208564D01*
X126636Y208914D01*
X126577Y209264D01*
X126694Y209672D01*
X127102Y209964D01*
X127511Y210081D01*
X128036D01*
G01X127511D02*
X127161Y210256D01*
X126869Y210547D01*
X126752Y210897D01*
X126869Y211247D01*
X127161Y211539D01*
X127686Y211714D01*
X128211Y211656D01*
X128736Y211422D01*
G01X140217Y237041D02*
X140567Y237216D01*
X140975Y237333D01*
X141442D01*
X141967Y237158D01*
X142375Y236866D01*
X142667Y236516D01*
X142900Y235933D01*
X142958Y235408D01*
X142842Y234883D01*
X142667Y234533D01*
X142317Y234183D01*
X141908Y233950D01*
X141500Y233833D01*
X141092D01*
X140683Y233950D01*
X140333Y234125D01*
X140042Y234358D01*
G01X137200Y233833D02*
Y237333D01*
X137900Y236633D01*
G01Y233833D02*
X136500D01*
G01X134183Y234533D02*
X133833Y234125D01*
X133367Y233891D01*
X132842Y233833D01*
X132375Y233891D01*
X131908Y234183D01*
X131617Y234533D01*
X131558Y234883D01*
X131675Y235291D01*
X132083Y235583D01*
X132492Y235700D01*
X133017D01*
G01X132492D02*
X132142Y235875D01*
X131850Y236166D01*
X131733Y236516D01*
X131850Y236866D01*
X132142Y237158D01*
X132667Y237333D01*
X133192Y237275D01*
X133717Y237041D01*
G01X126468Y237864D02*
Y232864D01*
X125468D01*
Y237864D01*
X126468D01*
G01X121069Y215114D02*
Y218614D01*
X121769Y217914D01*
G01Y215114D02*
X120369D01*
G01X133556Y216279D02*
Y219779D01*
X134256Y219079D01*
G01Y216279D02*
X132856D01*
G01X152173Y-147136D02*
X155463Y-140836D01*
G01X152173D02*
X155463Y-147136D01*
G01X136067Y7767D02*
X132567D01*
Y6308D01*
X132742Y5842D01*
X132975Y5550D01*
X133442Y5433D01*
X133909Y5550D01*
X134200Y5900D01*
X134375Y6308D01*
Y7767D01*
G01Y6308D02*
X136067Y5433D01*
G01Y2300D02*
X136009Y1892D01*
X135834Y1425D01*
X135542Y1133D01*
X135134Y1017D01*
X134725Y1133D01*
X134375Y1483D01*
X134200Y2008D01*
Y2592D01*
X134084Y2942D01*
X133792Y3233D01*
X133384Y3350D01*
X132975Y3175D01*
X132684Y2767D01*
X132567Y2300D01*
X132684Y1833D01*
X132975Y1425D01*
X133384Y1250D01*
X133792Y1367D01*
X134084Y1658D01*
X134200Y2008D01*
Y2592D01*
X134375Y3117D01*
X134725Y3467D01*
X135134Y3583D01*
X135542Y3467D01*
X135834Y3175D01*
X136009Y2708D01*
X136067Y2300D01*
G01Y-2000D02*
X132567D01*
X133267Y-1300D01*
G01X136067D02*
Y-2700D01*
G01X148461Y6781D02*
X148286Y7131D01*
X148169Y7539D01*
Y8006D01*
X148344Y8531D01*
X148636Y8939D01*
X148986Y9231D01*
X149569Y9464D01*
X150094Y9522D01*
X150619Y9406D01*
X150969Y9231D01*
X151319Y8881D01*
X151552Y8472D01*
X151669Y8064D01*
Y7656D01*
X151552Y7247D01*
X151377Y6897D01*
X151144Y6606D01*
G01X151669Y3064D02*
X148169D01*
X150677Y5222D01*
Y2306D01*
G01X151261Y456D02*
X151552Y47D01*
X151669Y-419D01*
X151552Y-886D01*
X151202Y-1294D01*
X150677Y-1586D01*
X150152Y-1703D01*
X149511D01*
X148986Y-1586D01*
X148519Y-1294D01*
X148286Y-944D01*
X148169Y-536D01*
X148286Y-69D01*
X148519Y281D01*
X148869Y514D01*
X149336Y631D01*
X149744Y514D01*
X150152Y222D01*
X150386Y-128D01*
X150444Y-536D01*
X150327Y-1003D01*
X150036Y-1353D01*
X149511Y-1703D01*
G01X147468Y3364D02*
X142468D01*
Y4364D01*
X147468D01*
Y3364D01*
G01X173294Y-13819D02*
X172827Y-14111D01*
X172302Y-14286D01*
X171836D01*
X171369Y-14111D01*
X171019Y-13819D01*
X170844Y-13411D01*
X170961Y-13003D01*
X171252Y-12653D01*
X171777Y-12419D01*
X172477Y-12303D01*
X172886Y-12069D01*
X173061Y-11661D01*
X172944Y-11253D01*
X172652Y-10961D01*
X172244Y-10786D01*
X171836D01*
X171427Y-10903D01*
X171077Y-11194D01*
G01X166602Y-14286D02*
X168936D01*
Y-10786D01*
X166602D01*
G01X167536Y-12478D02*
X168936D01*
G01X162186Y-11078D02*
X162536Y-10903D01*
X162944Y-10786D01*
X163411D01*
X163936Y-10961D01*
X164344Y-11253D01*
X164636Y-11603D01*
X164869Y-12186D01*
X164927Y-12711D01*
X164811Y-13236D01*
X164636Y-13586D01*
X164286Y-13936D01*
X163877Y-14169D01*
X163469Y-14286D01*
X163061D01*
X162652Y-14169D01*
X162302Y-13994D01*
X162011Y-13761D01*
G01X159169Y-14286D02*
X159636Y-14228D01*
X160044Y-13994D01*
X160394Y-13644D01*
X160627Y-13236D01*
X160744Y-12769D01*
Y-12303D01*
X160627Y-11836D01*
X160394Y-11428D01*
X160044Y-11078D01*
X159636Y-10844D01*
X159169Y-10786D01*
X158702Y-10844D01*
X158294Y-11078D01*
X157944Y-11428D01*
X157711Y-11836D01*
X157594Y-12303D01*
Y-12769D01*
X157711Y-13236D01*
X157944Y-13644D01*
X158294Y-13994D01*
X158702Y-14228D01*
X159169Y-14286D01*
G01X156211D02*
Y-10786D01*
X153527Y-14286D01*
Y-10786D01*
G01X151852Y-14286D02*
Y-10786D01*
X150686D01*
X150219Y-10961D01*
X149869Y-11194D01*
X149577Y-11544D01*
X149344Y-11953D01*
X149286Y-12536D01*
X149344Y-13119D01*
X149577Y-13528D01*
X149869Y-13878D01*
X150219Y-14111D01*
X150686Y-14286D01*
X151852D01*
G01X147727D02*
X146269Y-10786D01*
X144811Y-14286D01*
G01X145336Y-13061D02*
X147202D01*
G01X143136Y-14286D02*
Y-10786D01*
X141677D01*
X141211Y-10961D01*
X140919Y-11194D01*
X140802Y-11661D01*
X140919Y-12128D01*
X141269Y-12419D01*
X141677Y-12594D01*
X143136D01*
G01X141677D02*
X140802Y-14286D01*
G01X137669D02*
Y-12711D01*
X138836Y-10786D01*
G01X136502D02*
X137669Y-12711D01*
G01X167867Y22633D02*
Y26133D01*
X166408D01*
X165942Y25958D01*
X165650Y25725D01*
X165533Y25258D01*
X165650Y24791D01*
X166000Y24500D01*
X166408Y24325D01*
X167867D01*
G01X166408D02*
X165533Y22633D01*
G01X162517D02*
X162400Y23391D01*
X162225Y24033D01*
X161992Y24616D01*
X161700Y25258D01*
X161233Y26133D01*
X163567D01*
G01X159208Y24091D02*
X158800Y24500D01*
X158450Y24733D01*
X157983Y24850D01*
X157575Y24733D01*
X157283Y24500D01*
X157050Y24150D01*
X156992Y23741D01*
X157050Y23391D01*
X157283Y23041D01*
X157633Y22750D01*
X158042Y22633D01*
X158508Y22750D01*
X158917Y23100D01*
X159150Y23625D01*
X159208Y24208D01*
X159092Y24966D01*
X158917Y25375D01*
X158625Y25783D01*
X158217Y26075D01*
X157808Y26133D01*
X157400Y26016D01*
X157108Y25725D01*
G01X159067Y31233D02*
Y34733D01*
X157608D01*
X157142Y34558D01*
X156850Y34325D01*
X156733Y33858D01*
X156850Y33391D01*
X157200Y33100D01*
X157608Y32925D01*
X159067D01*
G01X157608D02*
X156733Y31233D01*
G01X153717D02*
X153600Y31991D01*
X153425Y32633D01*
X153192Y33216D01*
X152900Y33858D01*
X152433Y34733D01*
X154767D01*
G01X150583Y31933D02*
X150233Y31525D01*
X149767Y31291D01*
X149242Y31233D01*
X148775Y31291D01*
X148308Y31583D01*
X148017Y31933D01*
X147958Y32283D01*
X148075Y32691D01*
X148483Y32983D01*
X148892Y33100D01*
X149417D01*
G01X148892D02*
X148542Y33275D01*
X148250Y33566D01*
X148133Y33916D01*
X148250Y34266D01*
X148542Y34558D01*
X149067Y34733D01*
X149592Y34675D01*
X150117Y34441D01*
G01X155767Y26733D02*
Y30233D01*
X154308D01*
X153842Y30058D01*
X153550Y29825D01*
X153433Y29358D01*
X153550Y28891D01*
X153900Y28600D01*
X154308Y28425D01*
X155767D01*
G01X154308D02*
X153433Y26733D01*
G01X150417D02*
X150300Y27491D01*
X150125Y28133D01*
X149892Y28716D01*
X149600Y29358D01*
X149133Y30233D01*
X151467D01*
G01X146000Y26733D02*
X145592Y26791D01*
X145125Y26966D01*
X144833Y27258D01*
X144717Y27666D01*
X144833Y28075D01*
X145183Y28425D01*
X145708Y28600D01*
X146292D01*
X146642Y28716D01*
X146933Y29008D01*
X147050Y29416D01*
X146875Y29825D01*
X146467Y30116D01*
X146000Y30233D01*
X145533Y30116D01*
X145125Y29825D01*
X144950Y29416D01*
X145067Y29008D01*
X145358Y28716D01*
X145708Y28600D01*
X146292D01*
X146817Y28425D01*
X147167Y28075D01*
X147283Y27666D01*
X147167Y27258D01*
X146875Y26966D01*
X146408Y26791D01*
X146000Y26733D01*
G01X141968Y23864D02*
G03I-500J0D01*
G01X159217Y14041D02*
X159567Y14216D01*
X159975Y14333D01*
X160442D01*
X160967Y14158D01*
X161375Y13866D01*
X161667Y13516D01*
X161900Y12933D01*
X161958Y12408D01*
X161842Y11883D01*
X161667Y11533D01*
X161317Y11183D01*
X160908Y10950D01*
X160500Y10833D01*
X160092D01*
X159683Y10950D01*
X159333Y11125D01*
X159042Y11358D01*
G01X155500Y10833D02*
Y14333D01*
X157658Y11825D01*
X154742D01*
G01X152017Y10833D02*
X151900Y11591D01*
X151725Y12233D01*
X151492Y12816D01*
X151200Y13458D01*
X150733Y14333D01*
X153067D01*
G01X152768Y15164D02*
Y20164D01*
X153768D01*
Y15164D01*
X152768D01*
G01X149083Y10733D02*
X148733Y10325D01*
X148267Y10091D01*
X147742Y10033D01*
X147275Y10091D01*
X146808Y10383D01*
X146517Y10733D01*
X146458Y11083D01*
X146575Y11491D01*
X146983Y11783D01*
X147392Y11900D01*
X147917D01*
G01X147392D02*
X147042Y12075D01*
X146750Y12366D01*
X146633Y12716D01*
X146750Y13066D01*
X147042Y13358D01*
X147567Y13533D01*
X148092Y13475D01*
X148617Y13241D01*
G01X147000Y17433D02*
Y20933D01*
X147700Y20233D01*
G01Y17433D02*
X146300D01*
G01X143068Y18714D02*
Y20064D01*
X140518D01*
G03X140468Y20014I0J-50D01*
G01Y19864D01*
G02X138468I-1000J0D01*
G01Y20064D01*
G03X138418I-25J0D01*
G01X135868D01*
Y18714D01*
G01Y11014D02*
Y9664D01*
X143068D01*
Y11014D01*
G01X151719Y48714D02*
Y45214D01*
G01X153061Y48714D02*
X150377D01*
G01X148586Y45214D02*
Y48714D01*
X147186D01*
X146719Y48539D01*
X146369Y48131D01*
X146252Y47664D01*
X146369Y47197D01*
X146661Y46847D01*
X147186Y46672D01*
X148586D01*
G01X144227Y48131D02*
X143877Y48481D01*
X143469Y48656D01*
X143002Y48714D01*
X142419Y48597D01*
X142011Y48306D01*
X141894Y47956D01*
X141952Y47606D01*
X142186Y47314D01*
X143352Y46731D01*
X143877Y46322D01*
X144227Y45739D01*
X144344Y45214D01*
X141894D01*
G01X139927Y48131D02*
X139577Y48481D01*
X139169Y48656D01*
X138702Y48714D01*
X138119Y48597D01*
X137711Y48306D01*
X137594Y47956D01*
X137652Y47606D01*
X137886Y47314D01*
X139052Y46731D01*
X139577Y46322D01*
X139927Y45739D01*
X140044Y45214D01*
X137594D01*
G01X157969Y76264D02*
X161469D01*
G01X157969Y77606D02*
Y74922D01*
G01X161469Y73131D02*
X157969D01*
Y71731D01*
X158144Y71264D01*
X158552Y70914D01*
X159019Y70797D01*
X159486Y70914D01*
X159836Y71206D01*
X160011Y71731D01*
Y73131D01*
G01X158552Y68772D02*
X158202Y68422D01*
X158027Y68014D01*
X157969Y67547D01*
X158086Y66964D01*
X158377Y66556D01*
X158727Y66439D01*
X159077Y66497D01*
X159369Y66731D01*
X159952Y67897D01*
X160361Y68422D01*
X160944Y68772D01*
X161469Y68889D01*
Y66439D01*
G01Y63364D02*
X157969D01*
X158669Y64064D01*
G01X161469D02*
Y62664D01*
G01X138177Y39814D02*
X136719Y43314D01*
X135261Y39814D01*
G01X135786Y41039D02*
X137652D01*
G01X156559Y57017D02*
X156384Y57367D01*
X156267Y57775D01*
Y58242D01*
X156442Y58767D01*
X156734Y59175D01*
X157084Y59467D01*
X157667Y59700D01*
X158192Y59758D01*
X158717Y59642D01*
X159067Y59467D01*
X159417Y59117D01*
X159650Y58708D01*
X159767Y58300D01*
Y57892D01*
X159650Y57483D01*
X159475Y57133D01*
X159242Y56842D01*
G01X159767Y53300D02*
X156267D01*
X158775Y55458D01*
Y52542D01*
G01X159242Y50983D02*
X159534Y50633D01*
X159709Y50225D01*
X159767Y49700D01*
X159650Y49175D01*
X159417Y48767D01*
X159009Y48475D01*
X158542Y48417D01*
X158075Y48533D01*
X157784Y48825D01*
X157550Y49233D01*
X157492Y49642D01*
X157550Y50050D01*
X157784Y50575D01*
X156267Y50400D01*
Y48825D01*
G01X160968Y40414D02*
Y42314D01*
X155968D01*
Y40414D01*
X160968D01*
G01X161961Y56481D02*
X161786Y56831D01*
X161669Y57239D01*
Y57706D01*
X161844Y58231D01*
X162136Y58639D01*
X162486Y58931D01*
X163069Y59164D01*
X163594Y59222D01*
X164119Y59106D01*
X164469Y58931D01*
X164819Y58581D01*
X165052Y58172D01*
X165169Y57764D01*
Y57356D01*
X165052Y56947D01*
X164877Y56597D01*
X164644Y56306D01*
G01X165169Y52764D02*
X161669D01*
X164177Y54922D01*
Y52006D01*
G01X163711Y50272D02*
X163302Y49864D01*
X163069Y49514D01*
X162952Y49047D01*
X163069Y48639D01*
X163302Y48347D01*
X163652Y48114D01*
X164061Y48056D01*
X164411Y48114D01*
X164761Y48347D01*
X165052Y48697D01*
X165169Y49106D01*
X165052Y49572D01*
X164702Y49981D01*
X164177Y50214D01*
X163594Y50272D01*
X162836Y50156D01*
X162427Y49981D01*
X162019Y49689D01*
X161727Y49281D01*
X161669Y48872D01*
X161786Y48464D01*
X162077Y48172D01*
G01X155250Y87000D02*
Y90500D01*
X155950Y89800D01*
G01Y87000D02*
X154550D01*
G01X161708Y83500D02*
X160250Y87000D01*
X158792Y83500D01*
G01X159317Y84725D02*
X161183D01*
G01X153858Y93917D02*
X153508Y94267D01*
X153100Y94442D01*
X152633Y94500D01*
X152050Y94383D01*
X151642Y94092D01*
X151525Y93742D01*
X151583Y93392D01*
X151817Y93100D01*
X152983Y92517D01*
X153508Y92108D01*
X153858Y91525D01*
X153975Y91000D01*
X151525D01*
G01X153619Y71314D02*
Y67814D01*
G01X154961Y71314D02*
X152277D01*
G01X150486Y67814D02*
Y71314D01*
X149086D01*
X148619Y71139D01*
X148269Y70731D01*
X148152Y70264D01*
X148269Y69797D01*
X148561Y69447D01*
X149086Y69272D01*
X150486D01*
G01X146127Y70731D02*
X145777Y71081D01*
X145369Y71256D01*
X144902Y71314D01*
X144319Y71197D01*
X143911Y70906D01*
X143794Y70556D01*
X143852Y70206D01*
X144086Y69914D01*
X145252Y69331D01*
X145777Y68922D01*
X146127Y68339D01*
X146244Y67814D01*
X143794D01*
G01X140719Y71314D02*
X141186Y71197D01*
X141536Y70906D01*
X141769Y70556D01*
X141944Y70089D01*
X142002Y69564D01*
X141944Y69039D01*
X141769Y68572D01*
X141536Y68222D01*
X141186Y67931D01*
X140719Y67814D01*
X140252Y67931D01*
X139902Y68222D01*
X139669Y68572D01*
X139494Y69039D01*
X139436Y69564D01*
X139494Y70089D01*
X139669Y70556D01*
X139902Y70906D01*
X140252Y71197D01*
X140719Y71314D01*
G01X173386Y76614D02*
Y80114D01*
X171927D01*
X171461Y79939D01*
X171169Y79706D01*
X171052Y79239D01*
X171169Y78772D01*
X171519Y78481D01*
X171927Y78306D01*
X173386D01*
G01X171927D02*
X171052Y76614D01*
G01X169027Y78072D02*
X168619Y78481D01*
X168269Y78714D01*
X167802Y78831D01*
X167394Y78714D01*
X167102Y78481D01*
X166869Y78131D01*
X166811Y77722D01*
X166869Y77372D01*
X167102Y77022D01*
X167452Y76731D01*
X167861Y76614D01*
X168327Y76731D01*
X168736Y77081D01*
X168969Y77606D01*
X169027Y78189D01*
X168911Y78947D01*
X168736Y79356D01*
X168444Y79764D01*
X168036Y80056D01*
X167627Y80114D01*
X167219Y79997D01*
X166927Y79706D01*
G01X163619Y76614D02*
X163211Y76672D01*
X162744Y76847D01*
X162452Y77139D01*
X162336Y77547D01*
X162452Y77956D01*
X162802Y78306D01*
X163327Y78481D01*
X163911D01*
X164261Y78597D01*
X164552Y78889D01*
X164669Y79297D01*
X164494Y79706D01*
X164086Y79997D01*
X163619Y80114D01*
X163152Y79997D01*
X162744Y79706D01*
X162569Y79297D01*
X162686Y78889D01*
X162977Y78597D01*
X163327Y78481D01*
X163911D01*
X164436Y78306D01*
X164786Y77956D01*
X164902Y77547D01*
X164786Y77139D01*
X164494Y76847D01*
X164027Y76672D01*
X163619Y76614D01*
G01X142069Y91914D02*
Y95414D01*
X142769Y94714D01*
G01Y91914D02*
X141369D01*
G01X156033Y96200D02*
X155683Y95792D01*
X155217Y95558D01*
X154692Y95500D01*
X154225Y95558D01*
X153758Y95850D01*
X153467Y96200D01*
X153408Y96550D01*
X153525Y96958D01*
X153933Y97250D01*
X154342Y97367D01*
X154867D01*
G01X154342D02*
X153992Y97542D01*
X153700Y97833D01*
X153583Y98183D01*
X153700Y98533D01*
X153992Y98825D01*
X154517Y99000D01*
X155042Y98942D01*
X155567Y98708D01*
G01X156033Y102525D02*
X155683Y102233D01*
X155275Y102058D01*
X154750Y102000D01*
X154225Y102117D01*
X153817Y102350D01*
X153525Y102758D01*
X153467Y103225D01*
X153583Y103692D01*
X153875Y103983D01*
X154283Y104217D01*
X154692Y104275D01*
X155100Y104217D01*
X155625Y103983D01*
X155450Y105500D01*
X153875D01*
G01X154367Y110500D02*
X154250Y111258D01*
X154075Y111900D01*
X153842Y112483D01*
X153550Y113125D01*
X153083Y114000D01*
X155417D01*
G01X152250Y115000D02*
X151842Y115058D01*
X151375Y115233D01*
X151083Y115525D01*
X150967Y115933D01*
X151083Y116342D01*
X151433Y116692D01*
X151958Y116867D01*
X152542D01*
X152892Y116983D01*
X153183Y117275D01*
X153300Y117683D01*
X153125Y118092D01*
X152717Y118383D01*
X152250Y118500D01*
X151783Y118383D01*
X151375Y118092D01*
X151200Y117683D01*
X151317Y117275D01*
X151608Y116983D01*
X151958Y116867D01*
X152542D01*
X153067Y116692D01*
X153417Y116342D01*
X153533Y115933D01*
X153417Y115525D01*
X153125Y115233D01*
X152658Y115058D01*
X152250Y115000D01*
G01X153358Y108958D02*
X152950Y109367D01*
X152600Y109600D01*
X152133Y109717D01*
X151725Y109600D01*
X151433Y109367D01*
X151200Y109017D01*
X151142Y108608D01*
X151200Y108258D01*
X151433Y107908D01*
X151783Y107617D01*
X152192Y107500D01*
X152658Y107617D01*
X153067Y107967D01*
X153300Y108492D01*
X153358Y109075D01*
X153242Y109833D01*
X153067Y110242D01*
X152775Y110650D01*
X152367Y110942D01*
X151958Y111000D01*
X151550Y110883D01*
X151258Y110592D01*
G01X152050Y99000D02*
Y102500D01*
X154208Y99992D01*
X151292D01*
G01X156032Y119019D02*
X155623Y118728D01*
X155157Y118611D01*
X154690Y118728D01*
X154282Y119078D01*
X153990Y119603D01*
X153873Y120128D01*
Y120769D01*
X153990Y121294D01*
X154282Y121761D01*
X154632Y121994D01*
X155040Y122111D01*
X155507Y121994D01*
X155857Y121761D01*
X156090Y121411D01*
X156207Y120944D01*
X156090Y120536D01*
X155798Y120128D01*
X155448Y119894D01*
X155040Y119836D01*
X154573Y119953D01*
X154223Y120244D01*
X153873Y120769D01*
G01X143769Y106831D02*
X147269D01*
Y104497D01*
G01Y101364D02*
X147211Y100956D01*
X147036Y100489D01*
X146744Y100197D01*
X146336Y100081D01*
X145927Y100197D01*
X145577Y100547D01*
X145402Y101072D01*
Y101656D01*
X145286Y102006D01*
X144994Y102297D01*
X144586Y102414D01*
X144177Y102239D01*
X143886Y101831D01*
X143769Y101364D01*
X143886Y100897D01*
X144177Y100489D01*
X144586Y100314D01*
X144994Y100431D01*
X145286Y100722D01*
X145402Y101072D01*
Y101656D01*
X145577Y102181D01*
X145927Y102531D01*
X146336Y102647D01*
X146744Y102531D01*
X147036Y102239D01*
X147211Y101772D01*
X147269Y101364D01*
G01X164808Y107964D02*
X158808D01*
G01Y112564D02*
X164808D01*
G01X157836Y127222D02*
X158186Y127397D01*
X158594Y127514D01*
X159061D01*
X159586Y127339D01*
X159994Y127047D01*
X160286Y126697D01*
X160519Y126114D01*
X160577Y125589D01*
X160461Y125064D01*
X160286Y124714D01*
X159936Y124364D01*
X159527Y124131D01*
X159119Y124014D01*
X158711D01*
X158302Y124131D01*
X157952Y124306D01*
X157661Y124539D01*
G01X155927Y126931D02*
X155577Y127281D01*
X155169Y127456D01*
X154702Y127514D01*
X154119Y127397D01*
X153711Y127106D01*
X153594Y126756D01*
X153652Y126406D01*
X153886Y126114D01*
X155052Y125531D01*
X155577Y125122D01*
X155927Y124539D01*
X156044Y124014D01*
X153594D01*
G01X150636D02*
X150519Y124772D01*
X150344Y125414D01*
X150111Y125997D01*
X149819Y126639D01*
X149352Y127514D01*
X151686D01*
G01X144261Y117981D02*
X144086Y118331D01*
X143969Y118739D01*
Y119206D01*
X144144Y119731D01*
X144436Y120139D01*
X144786Y120431D01*
X145369Y120664D01*
X145894Y120722D01*
X146419Y120606D01*
X146769Y120431D01*
X147119Y120081D01*
X147352Y119672D01*
X147469Y119264D01*
Y118856D01*
X147352Y118447D01*
X147177Y118097D01*
X146944Y117806D01*
G01X144552Y116072D02*
X144202Y115722D01*
X144027Y115314D01*
X143969Y114847D01*
X144086Y114264D01*
X144377Y113856D01*
X144727Y113739D01*
X145077Y113797D01*
X145369Y114031D01*
X145952Y115197D01*
X146361Y115722D01*
X146944Y116072D01*
X147469Y116189D01*
Y113739D01*
G01X147061Y111656D02*
X147352Y111247D01*
X147469Y110781D01*
X147352Y110314D01*
X147002Y109906D01*
X146477Y109614D01*
X145952Y109497D01*
X145311D01*
X144786Y109614D01*
X144319Y109906D01*
X144086Y110256D01*
X143969Y110664D01*
X144086Y111131D01*
X144319Y111481D01*
X144669Y111714D01*
X145136Y111831D01*
X145544Y111714D01*
X145952Y111422D01*
X146186Y111072D01*
X146244Y110664D01*
X146127Y110197D01*
X145836Y109847D01*
X145311Y109497D01*
G01X156250Y131500D02*
Y135000D01*
X156950Y134300D01*
G01Y131500D02*
X155550D01*
G01X153058Y134417D02*
X152708Y134767D01*
X152300Y134942D01*
X151833Y135000D01*
X151250Y134883D01*
X150842Y134592D01*
X150725Y134242D01*
X150783Y133892D01*
X151017Y133600D01*
X152183Y133017D01*
X152708Y132608D01*
X153058Y132025D01*
X153175Y131500D01*
X150725D01*
G01X152277Y151714D02*
X150819Y155214D01*
X149361Y151714D01*
G01X149886Y152939D02*
X151752D01*
G01X142969Y153731D02*
X146469D01*
Y151397D01*
G01X145944Y149547D02*
X146236Y149197D01*
X146411Y148789D01*
X146469Y148264D01*
X146352Y147739D01*
X146119Y147331D01*
X145711Y147039D01*
X145244Y146981D01*
X144777Y147097D01*
X144486Y147389D01*
X144252Y147797D01*
X144194Y148206D01*
X144252Y148614D01*
X144486Y149139D01*
X142969Y148964D01*
Y147389D01*
G01X143761Y141281D02*
X143586Y141631D01*
X143469Y142039D01*
Y142506D01*
X143644Y143031D01*
X143936Y143439D01*
X144286Y143731D01*
X144869Y143964D01*
X145394Y144022D01*
X145919Y143906D01*
X146269Y143731D01*
X146619Y143381D01*
X146852Y142972D01*
X146969Y142564D01*
Y142156D01*
X146852Y141747D01*
X146677Y141397D01*
X146444Y141106D01*
G01X144052Y139372D02*
X143702Y139022D01*
X143527Y138614D01*
X143469Y138147D01*
X143586Y137564D01*
X143877Y137156D01*
X144227Y137039D01*
X144577Y137097D01*
X144869Y137331D01*
X145452Y138497D01*
X145861Y139022D01*
X146444Y139372D01*
X146969Y139489D01*
Y137039D01*
G01X145511Y135072D02*
X145102Y134664D01*
X144869Y134314D01*
X144752Y133847D01*
X144869Y133439D01*
X145102Y133147D01*
X145452Y132914D01*
X145861Y132856D01*
X146211Y132914D01*
X146561Y133147D01*
X146852Y133497D01*
X146969Y133906D01*
X146852Y134372D01*
X146502Y134781D01*
X145977Y135014D01*
X145394Y135072D01*
X144636Y134956D01*
X144227Y134781D01*
X143819Y134489D01*
X143527Y134081D01*
X143469Y133672D01*
X143586Y133264D01*
X143877Y132972D01*
G01X156336Y166222D02*
X156686Y166397D01*
X157094Y166514D01*
X157561D01*
X158086Y166339D01*
X158494Y166047D01*
X158786Y165697D01*
X159019Y165114D01*
X159077Y164589D01*
X158961Y164064D01*
X158786Y163714D01*
X158436Y163364D01*
X158027Y163131D01*
X157619Y163014D01*
X157211D01*
X156802Y163131D01*
X156452Y163306D01*
X156161Y163539D01*
G01X153319Y163014D02*
Y166514D01*
X154019Y165814D01*
G01Y163014D02*
X152619D01*
G01X150011Y163422D02*
X149602Y163131D01*
X149136Y163014D01*
X148669Y163131D01*
X148261Y163481D01*
X147969Y164006D01*
X147852Y164531D01*
Y165172D01*
X147969Y165697D01*
X148261Y166164D01*
X148611Y166397D01*
X149019Y166514D01*
X149486Y166397D01*
X149836Y166164D01*
X150069Y165814D01*
X150186Y165347D01*
X150069Y164939D01*
X149777Y164531D01*
X149427Y164297D01*
X149019Y164239D01*
X148552Y164356D01*
X148202Y164647D01*
X147852Y165172D01*
G01X166136Y173622D02*
X166486Y173797D01*
X166894Y173914D01*
X167361D01*
X167886Y173739D01*
X168294Y173447D01*
X168586Y173097D01*
X168819Y172514D01*
X168877Y171989D01*
X168761Y171464D01*
X168586Y171114D01*
X168236Y170764D01*
X167827Y170531D01*
X167419Y170414D01*
X167011D01*
X166602Y170531D01*
X166252Y170706D01*
X165961Y170939D01*
G01X163119Y170414D02*
Y173914D01*
X163819Y173214D01*
G01Y170414D02*
X162419D01*
G01X158936D02*
X158819Y171172D01*
X158644Y171814D01*
X158411Y172397D01*
X158119Y173039D01*
X157652Y173914D01*
X159986D01*
G01X170217Y207641D02*
X170567Y207816D01*
X170975Y207933D01*
X171442D01*
X171967Y207758D01*
X172375Y207466D01*
X172667Y207116D01*
X172900Y206533D01*
X172958Y206008D01*
X172842Y205483D01*
X172667Y205133D01*
X172317Y204783D01*
X171908Y204550D01*
X171500Y204433D01*
X171092D01*
X170683Y204550D01*
X170333Y204725D01*
X170042Y204958D01*
G01X167200Y204433D02*
Y207933D01*
X167900Y207233D01*
G01Y204433D02*
X166500D01*
G01X162200D02*
Y207933D01*
X164358Y205425D01*
X161442D01*
G01X160968Y209864D02*
X155968D01*
Y210864D01*
X160968D01*
Y209864D01*
G01X147986Y209714D02*
X147694Y209364D01*
X147344Y209131D01*
X146936Y209014D01*
X146469Y209131D01*
X146119Y209364D01*
X145769Y209714D01*
X145652Y210181D01*
Y212514D01*
G01X141819Y209014D02*
Y212514D01*
X143977Y210006D01*
X141061D01*
G01X163767Y227467D02*
X160267D01*
Y226008D01*
X160442Y225542D01*
X160675Y225250D01*
X161142Y225133D01*
X161609Y225250D01*
X161900Y225600D01*
X162075Y226008D01*
Y227467D01*
G01Y226008D02*
X163767Y225133D01*
G01Y221300D02*
X160267D01*
X162775Y223458D01*
Y220542D01*
G01X163767Y217700D02*
X163709Y217292D01*
X163534Y216825D01*
X163242Y216533D01*
X162834Y216417D01*
X162425Y216533D01*
X162075Y216883D01*
X161900Y217408D01*
Y217992D01*
X161784Y218342D01*
X161492Y218633D01*
X161084Y218750D01*
X160675Y218575D01*
X160384Y218167D01*
X160267Y217700D01*
X160384Y217233D01*
X160675Y216825D01*
X161084Y216650D01*
X161492Y216767D01*
X161784Y217058D01*
X161900Y217408D01*
Y217992D01*
X162075Y218517D01*
X162425Y218867D01*
X162834Y218983D01*
X163242Y218867D01*
X163534Y218575D01*
X163709Y218108D01*
X163767Y217700D01*
G01X158968Y232364D02*
G02I0J500D01*
G01X149767Y241067D02*
X146267D01*
Y239608D01*
X146442Y239142D01*
X146675Y238850D01*
X147142Y238733D01*
X147609Y238850D01*
X147900Y239200D01*
X148075Y239608D01*
Y241067D01*
G01Y239608D02*
X149767Y238733D01*
G01Y234900D02*
X146267D01*
X148775Y237058D01*
Y234142D01*
G01X149359Y232292D02*
X149650Y231883D01*
X149767Y231417D01*
X149650Y230950D01*
X149300Y230542D01*
X148775Y230250D01*
X148250Y230133D01*
X147609D01*
X147084Y230250D01*
X146617Y230542D01*
X146384Y230892D01*
X146267Y231300D01*
X146384Y231767D01*
X146617Y232117D01*
X146967Y232350D01*
X147434Y232467D01*
X147842Y232350D01*
X148250Y232058D01*
X148484Y231708D01*
X148542Y231300D01*
X148425Y230833D01*
X148134Y230483D01*
X147609Y230133D01*
G01X152968Y232364D02*
G02I0J500D01*
G01X139769Y215214D02*
Y218714D01*
X140469Y218014D01*
G01Y215214D02*
X139069D01*
G01X177819Y-2086D02*
Y1414D01*
X178519Y714D01*
G01Y-2086D02*
X177119D01*
G01X173519D02*
Y1414D01*
X174219Y714D01*
G01Y-2086D02*
X172819D01*
G01X170473Y5645D02*
Y9145D01*
X171173Y8445D01*
G01Y5645D02*
X169773D01*
G01X167281Y8562D02*
X166931Y8912D01*
X166523Y9087D01*
X166056Y9145D01*
X165473Y9028D01*
X165065Y8737D01*
X164948Y8387D01*
X165006Y8037D01*
X165240Y7745D01*
X166406Y7162D01*
X166931Y6753D01*
X167281Y6170D01*
X167398Y5645D01*
X164948D01*
G01X176768Y8114D02*
Y5164D01*
X179718D01*
G01X168468Y39864D02*
X163468D01*
Y40864D01*
X168468D01*
Y39864D01*
G01X179217Y62041D02*
X179567Y62216D01*
X179975Y62333D01*
X180442D01*
X180967Y62158D01*
X181375Y61866D01*
X181667Y61516D01*
X181900Y60933D01*
X181958Y60408D01*
X181842Y59883D01*
X181667Y59533D01*
X181317Y59183D01*
X180908Y58950D01*
X180500Y58833D01*
X180092D01*
X179683Y58950D01*
X179333Y59125D01*
X179042Y59358D01*
G01X175500Y58833D02*
Y62333D01*
X177658Y59825D01*
X174742D01*
G01X171900Y58833D02*
Y62333D01*
X172600Y61633D01*
G01Y58833D02*
X171200D01*
G01X195217Y62041D02*
X195567Y62216D01*
X195975Y62333D01*
X196442D01*
X196967Y62158D01*
X197375Y61866D01*
X197667Y61516D01*
X197900Y60933D01*
X197958Y60408D01*
X197842Y59883D01*
X197667Y59533D01*
X197317Y59183D01*
X196908Y58950D01*
X196500Y58833D01*
X196092D01*
X195683Y58950D01*
X195333Y59125D01*
X195042Y59358D01*
G01X191500Y58833D02*
Y62333D01*
X193658Y59825D01*
X190742D01*
G01X187900Y62333D02*
X188367Y62216D01*
X188717Y61925D01*
X188950Y61575D01*
X189125Y61108D01*
X189183Y60583D01*
X189125Y60058D01*
X188950Y59591D01*
X188717Y59241D01*
X188367Y58950D01*
X187900Y58833D01*
X187433Y58950D01*
X187083Y59241D01*
X186850Y59591D01*
X186675Y60058D01*
X186617Y60583D01*
X186675Y61108D01*
X186850Y61575D01*
X187083Y61925D01*
X187433Y62216D01*
X187900Y62333D01*
G01X175627Y47731D02*
X175277Y48081D01*
X174869Y48256D01*
X174402Y48314D01*
X173819Y48197D01*
X173411Y47906D01*
X173294Y47556D01*
X173352Y47206D01*
X173586Y46914D01*
X174752Y46331D01*
X175277Y45922D01*
X175627Y45339D01*
X175744Y44814D01*
X173294D01*
G01X171327Y47731D02*
X170977Y48081D01*
X170569Y48256D01*
X170102Y48314D01*
X169519Y48197D01*
X169111Y47906D01*
X168994Y47556D01*
X169052Y47206D01*
X169286Y46914D01*
X170452Y46331D01*
X170977Y45922D01*
X171327Y45339D01*
X171444Y44814D01*
X168994D01*
G01X179327Y52931D02*
X178977Y53281D01*
X178569Y53456D01*
X178102Y53514D01*
X177519Y53397D01*
X177111Y53106D01*
X176994Y52756D01*
X177052Y52406D01*
X177286Y52114D01*
X178452Y51531D01*
X178977Y51122D01*
X179327Y50539D01*
X179444Y50014D01*
X176994D01*
G01X175202Y50714D02*
X174852Y50306D01*
X174386Y50072D01*
X173861Y50014D01*
X173394Y50072D01*
X172927Y50364D01*
X172636Y50714D01*
X172577Y51064D01*
X172694Y51472D01*
X173102Y51764D01*
X173511Y51881D01*
X174036D01*
G01X173511D02*
X173161Y52056D01*
X172869Y52347D01*
X172752Y52697D01*
X172869Y53047D01*
X173161Y53339D01*
X173686Y53514D01*
X174211Y53456D01*
X174736Y53222D01*
G01X179718Y46564D02*
X176768D01*
Y43614D01*
G01X168018Y70364D02*
X169918D01*
Y75364D01*
X168018D01*
Y70364D01*
G01X186268Y93804D02*
Y87804D01*
G01X181668D02*
Y93804D01*
G01X185868Y79964D02*
X190868D01*
Y78964D01*
X185868D01*
Y79964D01*
G01X173217Y84041D02*
X173567Y84216D01*
X173975Y84333D01*
X174442D01*
X174967Y84158D01*
X175375Y83866D01*
X175667Y83516D01*
X175900Y82933D01*
X175958Y82408D01*
X175842Y81883D01*
X175667Y81533D01*
X175317Y81183D01*
X174908Y80950D01*
X174500Y80833D01*
X174092D01*
X173683Y80950D01*
X173333Y81125D01*
X173042Y81358D01*
G01X171483Y81533D02*
X171133Y81125D01*
X170667Y80891D01*
X170142Y80833D01*
X169675Y80891D01*
X169208Y81183D01*
X168917Y81533D01*
X168858Y81883D01*
X168975Y82291D01*
X169383Y82583D01*
X169792Y82700D01*
X170317D01*
G01X169792D02*
X169442Y82875D01*
X169150Y83166D01*
X169033Y83516D01*
X169150Y83866D01*
X169442Y84158D01*
X169967Y84333D01*
X170492Y84275D01*
X171017Y84041D01*
G01X166017Y80833D02*
X165900Y81591D01*
X165725Y82233D01*
X165492Y82816D01*
X165200Y83458D01*
X164733Y84333D01*
X167067D01*
G01X176668Y79964D02*
X181668D01*
Y78964D01*
X176668D01*
Y79964D01*
G01X176468Y68364D02*
X181468D01*
Y67364D01*
X176468D01*
Y68364D01*
G01X185468D02*
X190468D01*
Y67364D01*
X185468D01*
Y68364D01*
G01X169686Y128014D02*
Y124514D01*
X167352D01*
G01X165327Y125972D02*
X164919Y126381D01*
X164569Y126614D01*
X164102Y126731D01*
X163694Y126614D01*
X163402Y126381D01*
X163169Y126031D01*
X163111Y125622D01*
X163169Y125272D01*
X163402Y124922D01*
X163752Y124631D01*
X164161Y124514D01*
X164627Y124631D01*
X165036Y124981D01*
X165269Y125506D01*
X165327Y126089D01*
X165211Y126847D01*
X165036Y127256D01*
X164744Y127664D01*
X164336Y127956D01*
X163927Y128014D01*
X163519Y127897D01*
X163227Y127606D01*
G01X186362Y118145D02*
X181362D01*
Y119145D01*
X186362D01*
Y118145D01*
G01X173668Y113264D02*
Y108264D01*
X172668D01*
Y113264D01*
X173668D01*
G01X186468Y102664D02*
X181468D01*
Y103664D01*
X186468D01*
Y102664D01*
G01X194077Y136314D02*
X192619Y139814D01*
X191161Y136314D01*
G01X191686Y137539D02*
X193552D01*
G01X181568Y126825D02*
Y132825D01*
G01X186168D02*
Y126825D01*
G01X181136Y151622D02*
X181486Y151797D01*
X181894Y151914D01*
X182361D01*
X182886Y151739D01*
X183294Y151447D01*
X183586Y151097D01*
X183819Y150514D01*
X183877Y149989D01*
X183761Y149464D01*
X183586Y149114D01*
X183236Y148764D01*
X182827Y148531D01*
X182419Y148414D01*
X182011D01*
X181602Y148531D01*
X181252Y148706D01*
X180961Y148939D01*
G01X179227Y151331D02*
X178877Y151681D01*
X178469Y151856D01*
X178002Y151914D01*
X177419Y151797D01*
X177011Y151506D01*
X176894Y151156D01*
X176952Y150806D01*
X177186Y150514D01*
X178352Y149931D01*
X178877Y149522D01*
X179227Y148939D01*
X179344Y148414D01*
X176894D01*
G01X174927Y151331D02*
X174577Y151681D01*
X174169Y151856D01*
X173702Y151914D01*
X173119Y151797D01*
X172711Y151506D01*
X172594Y151156D01*
X172652Y150806D01*
X172886Y150514D01*
X174052Y149931D01*
X174577Y149522D01*
X174927Y148939D01*
X175044Y148414D01*
X172594D01*
G01X181768Y141864D02*
X176768D01*
Y142864D01*
X181768D01*
Y141864D01*
G01X186561Y157181D02*
X186386Y157531D01*
X186269Y157939D01*
Y158406D01*
X186444Y158931D01*
X186736Y159339D01*
X187086Y159631D01*
X187669Y159864D01*
X188194Y159922D01*
X188719Y159806D01*
X189069Y159631D01*
X189419Y159281D01*
X189652Y158872D01*
X189769Y158464D01*
Y158056D01*
X189652Y157647D01*
X189477Y157297D01*
X189244Y157006D01*
G01X186852Y155272D02*
X186502Y154922D01*
X186327Y154514D01*
X186269Y154047D01*
X186386Y153464D01*
X186677Y153056D01*
X187027Y152939D01*
X187377Y152997D01*
X187669Y153231D01*
X188252Y154397D01*
X188661Y154922D01*
X189244Y155272D01*
X189769Y155389D01*
Y152939D01*
G01Y149864D02*
X186269D01*
X186969Y150564D01*
G01X189769D02*
Y149164D01*
G01X190768Y141864D02*
X185768D01*
Y142864D01*
X190768D01*
Y141864D01*
G01X166261Y148581D02*
X166086Y148931D01*
X165969Y149339D01*
Y149806D01*
X166144Y150331D01*
X166436Y150739D01*
X166786Y151031D01*
X167369Y151264D01*
X167894Y151322D01*
X168419Y151206D01*
X168769Y151031D01*
X169119Y150681D01*
X169352Y150272D01*
X169469Y149864D01*
Y149456D01*
X169352Y149047D01*
X169177Y148697D01*
X168944Y148406D01*
G01X166552Y146672D02*
X166202Y146322D01*
X166027Y145914D01*
X165969Y145447D01*
X166086Y144864D01*
X166377Y144456D01*
X166727Y144339D01*
X167077Y144397D01*
X167369Y144631D01*
X167952Y145797D01*
X168361Y146322D01*
X168944Y146672D01*
X169469Y146789D01*
Y144339D01*
G01X168769Y142547D02*
X169177Y142197D01*
X169411Y141731D01*
X169469Y141206D01*
X169411Y140739D01*
X169119Y140272D01*
X168769Y139981D01*
X168419Y139922D01*
X168011Y140039D01*
X167719Y140447D01*
X167602Y140856D01*
Y141381D01*
G01Y140856D02*
X167427Y140506D01*
X167136Y140214D01*
X166786Y140097D01*
X166436Y140214D01*
X166144Y140506D01*
X165969Y141031D01*
X166027Y141556D01*
X166261Y142081D01*
G01X174968Y141864D02*
X169968D01*
Y142864D01*
X174968D01*
Y141864D01*
G01X162904Y155674D02*
Y154274D01*
X178904D01*
Y155674D01*
G01Y166074D02*
Y167474D01*
X162904D01*
Y166074D01*
G01X175468Y173864D02*
Y168864D01*
X174468D01*
Y173864D01*
X175468D01*
G01X199036Y177222D02*
X199386Y177397D01*
X199794Y177514D01*
X200261D01*
X200786Y177339D01*
X201194Y177047D01*
X201486Y176697D01*
X201719Y176114D01*
X201777Y175589D01*
X201661Y175064D01*
X201486Y174714D01*
X201136Y174364D01*
X200727Y174131D01*
X200319Y174014D01*
X199911D01*
X199502Y174131D01*
X199152Y174306D01*
X198861Y174539D01*
G01X196019Y174014D02*
Y177514D01*
X196719Y176814D01*
G01Y174014D02*
X195319D01*
G01X192827Y175472D02*
X192419Y175881D01*
X192069Y176114D01*
X191602Y176231D01*
X191194Y176114D01*
X190902Y175881D01*
X190669Y175531D01*
X190611Y175122D01*
X190669Y174772D01*
X190902Y174422D01*
X191252Y174131D01*
X191661Y174014D01*
X192127Y174131D01*
X192536Y174481D01*
X192769Y175006D01*
X192827Y175589D01*
X192711Y176347D01*
X192536Y176756D01*
X192244Y177164D01*
X191836Y177456D01*
X191427Y177514D01*
X191019Y177397D01*
X190727Y177106D01*
G01X185968Y168864D02*
Y173864D01*
X186968D01*
Y168864D01*
X185968D01*
G01X198624Y187603D02*
X198157Y187311D01*
X197632Y187136D01*
X197166D01*
X196699Y187311D01*
X196349Y187603D01*
X196174Y188011D01*
X196291Y188419D01*
X196582Y188769D01*
X197107Y189003D01*
X197807Y189119D01*
X198216Y189353D01*
X198391Y189761D01*
X198274Y190169D01*
X197982Y190461D01*
X197574Y190636D01*
X197166D01*
X196757Y190519D01*
X196407Y190228D01*
G01X194149Y187019D02*
X192049Y190636D01*
G01X190141Y187136D02*
Y190636D01*
X187457Y187136D01*
Y190636D01*
G01X173700Y214333D02*
Y210833D01*
G01X175042Y214333D02*
X172358D01*
G01X170567Y210833D02*
Y214333D01*
X169167D01*
X168700Y214158D01*
X168350Y213750D01*
X168233Y213283D01*
X168350Y212816D01*
X168642Y212466D01*
X169167Y212291D01*
X170567D01*
G01X166383Y211533D02*
X166033Y211125D01*
X165567Y210891D01*
X165042Y210833D01*
X164575Y210891D01*
X164108Y211183D01*
X163817Y211533D01*
X163758Y211883D01*
X163875Y212291D01*
X164283Y212583D01*
X164692Y212700D01*
X165217D01*
G01X164692D02*
X164342Y212875D01*
X164050Y213166D01*
X163933Y213516D01*
X164050Y213866D01*
X164342Y214158D01*
X164867Y214333D01*
X165392Y214275D01*
X165917Y214041D01*
G01X202186Y202614D02*
Y206114D01*
X200727D01*
X200261Y205939D01*
X199969Y205706D01*
X199852Y205239D01*
X199969Y204772D01*
X200319Y204481D01*
X200727Y204306D01*
X202186D01*
G01X200727D02*
X199852Y202614D01*
G01X198002Y203139D02*
X197652Y202847D01*
X197244Y202672D01*
X196719Y202614D01*
X196194Y202731D01*
X195786Y202964D01*
X195494Y203372D01*
X195436Y203839D01*
X195552Y204306D01*
X195844Y204597D01*
X196252Y204831D01*
X196661Y204889D01*
X197069Y204831D01*
X197594Y204597D01*
X197419Y206114D01*
X195844D01*
G01X193527Y205531D02*
X193177Y205881D01*
X192769Y206056D01*
X192302Y206114D01*
X191719Y205997D01*
X191311Y205706D01*
X191194Y205356D01*
X191252Y205006D01*
X191486Y204714D01*
X192652Y204131D01*
X193177Y203722D01*
X193527Y203139D01*
X193644Y202614D01*
X191194D01*
G01X202886Y207914D02*
Y211414D01*
X201427D01*
X200961Y211239D01*
X200669Y211006D01*
X200552Y210539D01*
X200669Y210072D01*
X201019Y209781D01*
X201427Y209606D01*
X202886D01*
G01X201427D02*
X200552Y207914D01*
G01X198702Y208439D02*
X198352Y208147D01*
X197944Y207972D01*
X197419Y207914D01*
X196894Y208031D01*
X196486Y208264D01*
X196194Y208672D01*
X196136Y209139D01*
X196252Y209606D01*
X196544Y209897D01*
X196952Y210131D01*
X197361Y210189D01*
X197769Y210131D01*
X198294Y209897D01*
X198119Y211414D01*
X196544D01*
G01X193119Y207914D02*
Y211414D01*
X193819Y210714D01*
G01Y207914D02*
X192419D01*
G01X175867Y237667D02*
X172367D01*
Y236208D01*
X172542Y235742D01*
X172775Y235450D01*
X173242Y235333D01*
X173709Y235450D01*
X174000Y235800D01*
X174175Y236208D01*
Y237667D01*
G01Y236208D02*
X175867Y235333D01*
G01Y231500D02*
X172367D01*
X174875Y233658D01*
Y230742D01*
G01X175867Y228017D02*
X175109Y227900D01*
X174467Y227725D01*
X173884Y227492D01*
X173242Y227200D01*
X172367Y226733D01*
Y229067D01*
G01X165968Y232364D02*
G02I0J500D01*
G01X189968Y233864D02*
G02I-500J0D01*
G01X182469Y227114D02*
Y230614D01*
X183169Y229914D01*
G01Y227114D02*
X181769D01*
G01X222818Y-185136D02*
Y-178836D01*
X221878Y-180096D01*
G01Y-185136D02*
X223758D01*
G01X228961D02*
X229118Y-183771D01*
X229353Y-182616D01*
X229666Y-181566D01*
X230058Y-180411D01*
X230685Y-178836D01*
X227551D01*
G01X235418D02*
X234791Y-179046D01*
X234321Y-179571D01*
X234008Y-180201D01*
X233773Y-181041D01*
X233695Y-181986D01*
X233773Y-182931D01*
X234008Y-183771D01*
X234321Y-184401D01*
X234791Y-184926D01*
X235418Y-185136D01*
X236045Y-184926D01*
X236515Y-184401D01*
X236828Y-183771D01*
X237063Y-182931D01*
X237141Y-181986D01*
X237063Y-181041D01*
X236828Y-180201D01*
X236515Y-179571D01*
X236045Y-179046D01*
X235418Y-178836D01*
G01X240700Y-183036D02*
X242736D01*
G01X246530Y-179886D02*
X247000Y-179256D01*
X247548Y-178941D01*
X248175Y-178836D01*
X248958Y-179046D01*
X249506Y-179571D01*
X249663Y-180201D01*
X249585Y-180831D01*
X249271Y-181356D01*
X247705Y-182406D01*
X247000Y-183141D01*
X246530Y-184191D01*
X246373Y-185136D01*
X249663D01*
G01X254161D02*
X254318Y-183771D01*
X254553Y-182616D01*
X254866Y-181566D01*
X255258Y-180411D01*
X255885Y-178836D01*
X252751D01*
G01X259130Y-179886D02*
X259600Y-179256D01*
X260148Y-178941D01*
X260775Y-178836D01*
X261558Y-179046D01*
X262106Y-179571D01*
X262263Y-180201D01*
X262185Y-180831D01*
X261871Y-181356D01*
X260305Y-182406D01*
X259600Y-183141D01*
X259130Y-184191D01*
X258973Y-185136D01*
X262263D01*
G01X265586Y-184401D02*
X266135Y-184926D01*
X266761Y-185136D01*
X267388Y-184926D01*
X267936Y-184296D01*
X268328Y-183351D01*
X268485Y-182406D01*
Y-181251D01*
X268328Y-180306D01*
X267936Y-179466D01*
X267466Y-179046D01*
X266918Y-178836D01*
X266291Y-179046D01*
X265821Y-179466D01*
X265508Y-180096D01*
X265351Y-180936D01*
X265508Y-181671D01*
X265900Y-182406D01*
X266370Y-182826D01*
X266918Y-182931D01*
X267545Y-182721D01*
X268015Y-182196D01*
X268485Y-181251D01*
G01X273218Y-185136D02*
Y-178836D01*
X272278Y-180096D01*
G01Y-185136D02*
X274158D01*
G01X315751D02*
Y-178836D01*
X317710D01*
X318336Y-179151D01*
X318728Y-179571D01*
X318885Y-180411D01*
X318728Y-181251D01*
X318258Y-181776D01*
X317710Y-182091D01*
X315751D01*
G01X317710D02*
X318885Y-185136D01*
G01X325185D02*
X322051D01*
Y-178836D01*
X325185D01*
G01X323931Y-181881D02*
X322051D01*
G01X327960Y-178836D02*
X329918Y-185136D01*
X331876Y-178836D01*
G01X343145Y-181776D02*
X343458Y-181461D01*
X343693Y-180936D01*
X343850Y-180201D01*
X343693Y-179571D01*
X343380Y-179151D01*
X342831Y-178836D01*
X340716D01*
Y-185136D01*
X343301D01*
X343850Y-184716D01*
X344163Y-184086D01*
X344320Y-183351D01*
X344163Y-182616D01*
X343693Y-181986D01*
X343145Y-181776D01*
X340716D01*
G01X229667Y-3567D02*
Y-67D01*
X228208D01*
X227742Y-242D01*
X227450Y-475D01*
X227333Y-942D01*
X227450Y-1409D01*
X227800Y-1700D01*
X228208Y-1875D01*
X229667D01*
G01X228208D02*
X227333Y-3567D01*
G01X224200D02*
X223792Y-3509D01*
X223325Y-3334D01*
X223033Y-3042D01*
X222917Y-2634D01*
X223033Y-2225D01*
X223383Y-1875D01*
X223908Y-1700D01*
X224492D01*
X224842Y-1584D01*
X225133Y-1292D01*
X225250Y-884D01*
X225075Y-475D01*
X224667Y-184D01*
X224200Y-67D01*
X223733Y-184D01*
X223325Y-475D01*
X223150Y-884D01*
X223267Y-1292D01*
X223558Y-1584D01*
X223908Y-1700D01*
X224492D01*
X225017Y-1875D01*
X225367Y-2225D01*
X225483Y-2634D01*
X225367Y-3042D01*
X225075Y-3334D01*
X224608Y-3509D01*
X224200Y-3567D01*
G01X221008Y-650D02*
X220658Y-300D01*
X220250Y-125D01*
X219783Y-67D01*
X219200Y-184D01*
X218792Y-475D01*
X218675Y-825D01*
X218733Y-1175D01*
X218967Y-1467D01*
X220133Y-2050D01*
X220658Y-2459D01*
X221008Y-3042D01*
X221125Y-3567D01*
X218675D01*
G01X215569Y-986D02*
Y2514D01*
X216269Y1814D01*
G01Y-986D02*
X214869D01*
G01X229383Y6133D02*
Y3625D01*
X229150Y3100D01*
X228683Y2750D01*
X228100Y2633D01*
X227517Y2750D01*
X227050Y3100D01*
X226817Y3625D01*
Y6133D01*
G01X223800Y2633D02*
Y6133D01*
X224500Y5433D01*
G01Y2633D02*
X223100D01*
G01X219500D02*
Y6133D01*
X220200Y5433D01*
G01Y2633D02*
X218800D01*
G01X215218Y5164D02*
X215268D01*
X218168Y8064D01*
Y8114D01*
G01X209017Y65441D02*
X209367Y65616D01*
X209775Y65733D01*
X210242D01*
X210767Y65558D01*
X211175Y65266D01*
X211467Y64916D01*
X211700Y64333D01*
X211758Y63808D01*
X211642Y63283D01*
X211467Y62933D01*
X211117Y62583D01*
X210708Y62350D01*
X210300Y62233D01*
X209892D01*
X209483Y62350D01*
X209133Y62525D01*
X208842Y62758D01*
G01X205300Y62233D02*
Y65733D01*
X207458Y63225D01*
X204542D01*
G01X201000Y62233D02*
Y65733D01*
X203158Y63225D01*
X200242D01*
G01X206968Y54364D02*
Y59364D01*
X207968D01*
Y54364D01*
X206968D01*
G01X220761Y64881D02*
X220586Y65231D01*
X220469Y65639D01*
Y66106D01*
X220644Y66631D01*
X220936Y67039D01*
X221286Y67331D01*
X221869Y67564D01*
X222394Y67622D01*
X222919Y67506D01*
X223269Y67331D01*
X223619Y66981D01*
X223852Y66572D01*
X223969Y66164D01*
Y65756D01*
X223852Y65347D01*
X223677Y64997D01*
X223444Y64706D01*
G01X223969Y61164D02*
X220469D01*
X222977Y63322D01*
Y60406D01*
G01X223269Y58847D02*
X223677Y58497D01*
X223911Y58031D01*
X223969Y57506D01*
X223911Y57039D01*
X223619Y56572D01*
X223269Y56281D01*
X222919Y56222D01*
X222511Y56339D01*
X222219Y56747D01*
X222102Y57156D01*
Y57681D01*
G01Y57156D02*
X221927Y56806D01*
X221636Y56514D01*
X221286Y56397D01*
X220936Y56514D01*
X220644Y56806D01*
X220469Y57331D01*
X220527Y57856D01*
X220761Y58381D01*
G01X219968Y58364D02*
X214968D01*
Y59364D01*
X219968D01*
Y58364D01*
G01X222224Y50558D02*
X221874Y50150D01*
X221408Y49916D01*
X220883Y49858D01*
X220416Y49916D01*
X219949Y50208D01*
X219658Y50558D01*
X219599Y50908D01*
X219716Y51316D01*
X220124Y51608D01*
X220533Y51725D01*
X221058D01*
G01X220533D02*
X220183Y51900D01*
X219891Y52191D01*
X219774Y52541D01*
X219891Y52891D01*
X220183Y53183D01*
X220708Y53358D01*
X221233Y53300D01*
X221758Y53066D01*
G01X217924Y50558D02*
X217574Y50150D01*
X217108Y49916D01*
X216583Y49858D01*
X216116Y49916D01*
X215649Y50208D01*
X215358Y50558D01*
X215299Y50908D01*
X215416Y51316D01*
X215824Y51608D01*
X216233Y51725D01*
X216758D01*
G01X216233D02*
X215883Y51900D01*
X215591Y52191D01*
X215474Y52541D01*
X215591Y52891D01*
X215883Y53183D01*
X216408Y53358D01*
X216933Y53300D01*
X217458Y53066D01*
G01X218168Y43614D02*
Y46564D01*
X215218D01*
G01X212750Y86000D02*
Y89500D01*
X213450Y88800D01*
G01Y86000D02*
X212050D01*
G01X211767Y81500D02*
Y85000D01*
X210250Y82083D01*
X208733Y85000D01*
Y81500D01*
G01X208867Y74733D02*
Y78233D01*
X207408D01*
X206942Y78058D01*
X206650Y77825D01*
X206533Y77358D01*
X206650Y76891D01*
X207000Y76600D01*
X207408Y76425D01*
X208867D01*
G01X207408D02*
X206533Y74733D01*
G01X204508Y76191D02*
X204100Y76600D01*
X203750Y76833D01*
X203283Y76950D01*
X202875Y76833D01*
X202583Y76600D01*
X202350Y76250D01*
X202292Y75841D01*
X202350Y75491D01*
X202583Y75141D01*
X202933Y74850D01*
X203342Y74733D01*
X203808Y74850D01*
X204217Y75200D01*
X204450Y75725D01*
X204508Y76308D01*
X204392Y77066D01*
X204217Y77475D01*
X203925Y77883D01*
X203517Y78175D01*
X203108Y78233D01*
X202700Y78116D01*
X202408Y77825D01*
G01X200092Y75141D02*
X199683Y74850D01*
X199217Y74733D01*
X198750Y74850D01*
X198342Y75200D01*
X198050Y75725D01*
X197933Y76250D01*
Y76891D01*
X198050Y77416D01*
X198342Y77883D01*
X198692Y78116D01*
X199100Y78233D01*
X199567Y78116D01*
X199917Y77883D01*
X200150Y77533D01*
X200267Y77066D01*
X200150Y76658D01*
X199858Y76250D01*
X199508Y76016D01*
X199100Y75958D01*
X198633Y76075D01*
X198283Y76366D01*
X197933Y76891D01*
G01X200418Y73364D02*
X198518D01*
Y68364D01*
X200418D01*
Y73364D01*
G01X222767Y83267D02*
X219267D01*
Y81808D01*
X219442Y81342D01*
X219675Y81050D01*
X220142Y80933D01*
X220609Y81050D01*
X220900Y81400D01*
X221075Y81808D01*
Y83267D01*
G01Y81808D02*
X222767Y80933D01*
G01X221309Y78908D02*
X220900Y78500D01*
X220667Y78150D01*
X220550Y77683D01*
X220667Y77275D01*
X220900Y76983D01*
X221250Y76750D01*
X221659Y76692D01*
X222009Y76750D01*
X222359Y76983D01*
X222650Y77333D01*
X222767Y77742D01*
X222650Y78208D01*
X222300Y78617D01*
X221775Y78850D01*
X221192Y78908D01*
X220434Y78792D01*
X220025Y78617D01*
X219617Y78325D01*
X219325Y77917D01*
X219267Y77508D01*
X219384Y77100D01*
X219675Y76808D01*
G01X222242Y74783D02*
X222534Y74433D01*
X222709Y74025D01*
X222767Y73500D01*
X222650Y72975D01*
X222417Y72567D01*
X222009Y72275D01*
X221542Y72217D01*
X221075Y72333D01*
X220784Y72625D01*
X220550Y73033D01*
X220492Y73442D01*
X220550Y73850D01*
X220784Y74375D01*
X219267Y74200D01*
Y72625D01*
G01X202836Y84122D02*
X203186Y84297D01*
X203594Y84414D01*
X204061D01*
X204586Y84239D01*
X204994Y83947D01*
X205286Y83597D01*
X205519Y83014D01*
X205577Y82489D01*
X205461Y81964D01*
X205286Y81614D01*
X204936Y81264D01*
X204527Y81031D01*
X204119Y80914D01*
X203711D01*
X203302Y81031D01*
X202952Y81206D01*
X202661Y81439D01*
G01X201102Y81614D02*
X200752Y81206D01*
X200286Y80972D01*
X199761Y80914D01*
X199294Y80972D01*
X198827Y81264D01*
X198536Y81614D01*
X198477Y81964D01*
X198594Y82372D01*
X199002Y82664D01*
X199411Y82781D01*
X199936D01*
G01X199411D02*
X199061Y82956D01*
X198769Y83247D01*
X198652Y83597D01*
X198769Y83947D01*
X199061Y84239D01*
X199586Y84414D01*
X200111Y84356D01*
X200636Y84122D01*
G01X196627Y82372D02*
X196219Y82781D01*
X195869Y83014D01*
X195402Y83131D01*
X194994Y83014D01*
X194702Y82781D01*
X194469Y82431D01*
X194411Y82022D01*
X194469Y81672D01*
X194702Y81322D01*
X195052Y81031D01*
X195461Y80914D01*
X195927Y81031D01*
X196336Y81381D01*
X196569Y81906D01*
X196627Y82489D01*
X196511Y83247D01*
X196336Y83656D01*
X196044Y84064D01*
X195636Y84356D01*
X195227Y84414D01*
X194819Y84297D01*
X194527Y84006D01*
G01X218968Y89864D02*
Y94864D01*
X219968D01*
Y89864D01*
X218968D01*
G01X217140Y109296D02*
X215240D01*
Y104296D01*
X217140D01*
Y109296D01*
G01Y116952D02*
X215240D01*
Y111952D01*
X217140D01*
Y116952D01*
G01X201769Y113214D02*
X207769D01*
G01Y108614D02*
X201769D01*
G01X194469Y113314D02*
Y108314D01*
X193469D01*
Y113314D01*
X194469D01*
G01X215668Y123964D02*
X210668D01*
Y124964D01*
X215668D01*
Y123964D01*
G01X205769Y148631D02*
X202269D01*
Y147172D01*
X202444Y146706D01*
X202677Y146414D01*
X203144Y146297D01*
X203611Y146414D01*
X203902Y146764D01*
X204077Y147172D01*
Y148631D01*
G01Y147172D02*
X205769Y146297D01*
G01X205244Y144447D02*
X205536Y144097D01*
X205711Y143689D01*
X205769Y143164D01*
X205652Y142639D01*
X205419Y142231D01*
X205011Y141939D01*
X204544Y141881D01*
X204077Y141997D01*
X203786Y142289D01*
X203552Y142697D01*
X203494Y143106D01*
X203552Y143514D01*
X203786Y144039D01*
X202269Y143864D01*
Y142289D01*
G01X205244Y140147D02*
X205536Y139797D01*
X205711Y139389D01*
X205769Y138864D01*
X205652Y138339D01*
X205419Y137931D01*
X205011Y137639D01*
X204544Y137581D01*
X204077Y137697D01*
X203786Y137989D01*
X203552Y138397D01*
X203494Y138806D01*
X203552Y139214D01*
X203786Y139739D01*
X202269Y139564D01*
Y137989D01*
G01X210069Y148531D02*
X206569D01*
Y147072D01*
X206744Y146606D01*
X206977Y146314D01*
X207444Y146197D01*
X207911Y146314D01*
X208202Y146664D01*
X208377Y147072D01*
Y148531D01*
G01Y147072D02*
X210069Y146197D01*
G01X209544Y144347D02*
X209836Y143997D01*
X210011Y143589D01*
X210069Y143064D01*
X209952Y142539D01*
X209719Y142131D01*
X209311Y141839D01*
X208844Y141781D01*
X208377Y141897D01*
X208086Y142189D01*
X207852Y142597D01*
X207794Y143006D01*
X207852Y143414D01*
X208086Y143939D01*
X206569Y143764D01*
Y142189D01*
G01X210069Y138064D02*
X206569D01*
X209077Y140222D01*
Y137306D01*
G01X218336Y133522D02*
X218686Y133697D01*
X219094Y133814D01*
X219561D01*
X220086Y133639D01*
X220494Y133347D01*
X220786Y132997D01*
X221019Y132414D01*
X221077Y131889D01*
X220961Y131364D01*
X220786Y131014D01*
X220436Y130664D01*
X220027Y130431D01*
X219619Y130314D01*
X219211D01*
X218802Y130431D01*
X218452Y130606D01*
X218161Y130839D01*
G01X216427Y133231D02*
X216077Y133581D01*
X215669Y133756D01*
X215202Y133814D01*
X214619Y133697D01*
X214211Y133406D01*
X214094Y133056D01*
X214152Y132706D01*
X214386Y132414D01*
X215552Y131831D01*
X216077Y131422D01*
X216427Y130839D01*
X216544Y130314D01*
X214094D01*
G01X210319D02*
Y133814D01*
X212477Y131306D01*
X209561D01*
G01X267756Y188853D02*
X267639Y189611D01*
X267464Y190253D01*
X267231Y190836D01*
X266939Y191478D01*
X266472Y192353D01*
X268806D01*
G01X263339D02*
X263806Y192236D01*
X264156Y191945D01*
X264389Y191595D01*
X264564Y191128D01*
X264622Y190603D01*
X264564Y190078D01*
X264389Y189611D01*
X264156Y189261D01*
X263806Y188970D01*
X263339Y188853D01*
X262872Y188970D01*
X262522Y189261D01*
X262289Y189611D01*
X262114Y190078D01*
X262056Y190603D01*
X262114Y191128D01*
X262289Y191595D01*
X262522Y191945D01*
X262872Y192236D01*
X263339Y192353D01*
G01X259039D02*
X259506Y192236D01*
X259856Y191945D01*
X260089Y191595D01*
X260264Y191128D01*
X260322Y190603D01*
X260264Y190078D01*
X260089Y189611D01*
X259856Y189261D01*
X259506Y188970D01*
X259039Y188853D01*
X258572Y188970D01*
X258222Y189261D01*
X257989Y189611D01*
X257814Y190078D01*
X257756Y190603D01*
X257814Y191128D01*
X257989Y191595D01*
X258222Y191945D01*
X258572Y192236D01*
X259039Y192353D01*
G01X255497Y190020D02*
X253981D01*
G01X251664Y188853D02*
X249214Y192353D01*
G01X251664D02*
X249214Y188853D01*
G01X247364D02*
X244914Y192353D01*
G01X247364D02*
X244914Y188853D01*
G01X243064D02*
X240614Y192353D01*
G01X243064D02*
X240614Y188853D01*
G01X238764D02*
X236314Y192353D01*
G01X238764D02*
X236314Y188853D01*
G01X234464D02*
X232014Y192353D01*
G01X234464D02*
X232014Y188853D01*
G01X225806D02*
Y192353D01*
X224347D01*
X223881Y192178D01*
X223589Y191945D01*
X223472Y191478D01*
X223589Y191011D01*
X223939Y190720D01*
X224347Y190545D01*
X225806D01*
G01X224347D02*
X223472Y188853D01*
G01X219172D02*
X221506D01*
Y192353D01*
X219172D01*
G01X220106Y190661D02*
X221506D01*
G01X217497Y192353D02*
X216039Y188853D01*
X214581Y192353D01*
G01X208664Y188853D02*
X206214Y192353D01*
G01X208664D02*
X206214Y188853D01*
G01X222400Y211633D02*
Y208133D01*
G01X223742Y211633D02*
X221058D01*
G01X219267Y208133D02*
Y211633D01*
X217867D01*
X217400Y211458D01*
X217050Y211050D01*
X216933Y210583D01*
X217050Y210116D01*
X217342Y209766D01*
X217867Y209591D01*
X219267D01*
G01X213800Y208133D02*
X213392Y208191D01*
X212925Y208366D01*
X212633Y208658D01*
X212517Y209066D01*
X212633Y209475D01*
X212983Y209825D01*
X213508Y210000D01*
X214092D01*
X214442Y210116D01*
X214733Y210408D01*
X214850Y210816D01*
X214675Y211225D01*
X214267Y211516D01*
X213800Y211633D01*
X213333Y211516D01*
X212925Y211225D01*
X212750Y210816D01*
X212867Y210408D01*
X213158Y210116D01*
X213508Y210000D01*
X214092D01*
X214617Y209825D01*
X214967Y209475D01*
X215083Y209066D01*
X214967Y208658D01*
X214675Y208366D01*
X214208Y208191D01*
X213800Y208133D01*
G01X222067Y223300D02*
X225567D01*
G01X222067Y224642D02*
Y221958D01*
G01X225567Y220167D02*
X222067D01*
Y218767D01*
X222242Y218300D01*
X222650Y217950D01*
X223117Y217833D01*
X223584Y217950D01*
X223934Y218242D01*
X224109Y218767D01*
Y220167D01*
G01X225042Y215983D02*
X225334Y215633D01*
X225509Y215225D01*
X225567Y214700D01*
X225450Y214175D01*
X225217Y213767D01*
X224809Y213475D01*
X224342Y213417D01*
X223875Y213533D01*
X223584Y213825D01*
X223350Y214233D01*
X223292Y214642D01*
X223350Y215050D01*
X223584Y215575D01*
X222067Y215400D01*
Y213825D01*
G01X203486Y215214D02*
X203194Y214864D01*
X202844Y214631D01*
X202436Y214514D01*
X201969Y214631D01*
X201619Y214864D01*
X201269Y215214D01*
X201152Y215681D01*
Y218014D01*
G01X198019Y214514D02*
Y218014D01*
X198719Y217314D01*
G01Y214514D02*
X197319D01*
G01X219300Y224733D02*
Y221233D01*
G01X220642Y224733D02*
X217958D01*
G01X216167Y221233D02*
Y224733D01*
X214767D01*
X214300Y224558D01*
X213950Y224150D01*
X213833Y223683D01*
X213950Y223216D01*
X214242Y222866D01*
X214767Y222691D01*
X216167D01*
G01X210000Y221233D02*
Y224733D01*
X212158Y222225D01*
X209242D01*
G01X217669Y238031D02*
X214169D01*
Y236572D01*
X214344Y236106D01*
X214577Y235814D01*
X215044Y235697D01*
X215511Y235814D01*
X215802Y236164D01*
X215977Y236572D01*
Y238031D01*
G01Y236572D02*
X217669Y235697D01*
G01Y231864D02*
X214169D01*
X216677Y234022D01*
Y231106D01*
G01X216211Y229372D02*
X215802Y228964D01*
X215569Y228614D01*
X215452Y228147D01*
X215569Y227739D01*
X215802Y227447D01*
X216152Y227214D01*
X216561Y227156D01*
X216911Y227214D01*
X217261Y227447D01*
X217552Y227797D01*
X217669Y228206D01*
X217552Y228672D01*
X217202Y229081D01*
X216677Y229314D01*
X216094Y229372D01*
X215336Y229256D01*
X214927Y229081D01*
X214519Y228789D01*
X214227Y228381D01*
X214169Y227972D01*
X214286Y227564D01*
X214577Y227272D01*
G01X221869Y237931D02*
X218369D01*
Y236472D01*
X218544Y236006D01*
X218777Y235714D01*
X219244Y235597D01*
X219711Y235714D01*
X220002Y236064D01*
X220177Y236472D01*
Y237931D01*
G01Y236472D02*
X221869Y235597D01*
G01Y231764D02*
X218369D01*
X220877Y233922D01*
Y231006D01*
G01X221344Y229447D02*
X221636Y229097D01*
X221811Y228689D01*
X221869Y228164D01*
X221752Y227639D01*
X221519Y227231D01*
X221111Y226939D01*
X220644Y226881D01*
X220177Y226997D01*
X219886Y227289D01*
X219652Y227697D01*
X219594Y228106D01*
X219652Y228514D01*
X219886Y229039D01*
X218369Y228864D01*
Y227289D01*
G01X196968Y233864D02*
G02I-500J0D01*
G01X203968D02*
G02I-500J0D01*
G01X211468D02*
G02I-500J0D01*
G01X208883Y224533D02*
X208533Y224125D01*
X208067Y223891D01*
X207542Y223833D01*
X207075Y223891D01*
X206608Y224183D01*
X206317Y224533D01*
X206258Y224883D01*
X206375Y225291D01*
X206783Y225583D01*
X207192Y225700D01*
X207717D01*
G01X207192D02*
X206842Y225875D01*
X206550Y226166D01*
X206433Y226516D01*
X206550Y226866D01*
X206842Y227158D01*
X207367Y227333D01*
X207892Y227275D01*
X208417Y227041D01*
G01X224818Y-105836D02*
Y-112136D01*
G01X223016Y-105836D02*
X226620D01*
G01X228768D02*
X229865Y-112136D01*
X231118Y-105836D01*
X232371Y-112136D01*
X233468Y-105836D01*
G01X235851Y-112136D02*
Y-105836D01*
X237810D01*
X238436Y-106151D01*
X238828Y-106571D01*
X238985Y-107411D01*
X238828Y-108251D01*
X238358Y-108776D01*
X237810Y-109091D01*
X235851D01*
G01X237810D02*
X238985Y-112136D01*
G01X242700Y-110036D02*
X244736D01*
G01X248295Y-112136D02*
Y-105836D01*
G01X251271D02*
X248295Y-109721D01*
G01X251741Y-112136D02*
X249626Y-107936D01*
G01X254830Y-109511D02*
X255378Y-108776D01*
X255848Y-108356D01*
X256475Y-108146D01*
X257023Y-108356D01*
X257415Y-108776D01*
X257728Y-109406D01*
X257806Y-110141D01*
X257728Y-110771D01*
X257415Y-111401D01*
X256945Y-111926D01*
X256396Y-112136D01*
X255770Y-111926D01*
X255221Y-111296D01*
X254908Y-110351D01*
X254830Y-109301D01*
X254986Y-107936D01*
X255221Y-107201D01*
X255613Y-106466D01*
X256161Y-105941D01*
X256710Y-105836D01*
X257258Y-106046D01*
X257650Y-106571D01*
G01X262618Y-105836D02*
X261991Y-106046D01*
X261521Y-106571D01*
X261208Y-107201D01*
X260973Y-108041D01*
X260895Y-108986D01*
X260973Y-109931D01*
X261208Y-110771D01*
X261521Y-111401D01*
X261991Y-111926D01*
X262618Y-112136D01*
X263245Y-111926D01*
X263715Y-111401D01*
X264028Y-110771D01*
X264263Y-109931D01*
X264341Y-108986D01*
X264263Y-108041D01*
X264028Y-107201D01*
X263715Y-106571D01*
X263245Y-106046D01*
X262618Y-105836D01*
G01X267195Y-112136D02*
Y-105836D01*
X268761D01*
X269388Y-106151D01*
X269858Y-106571D01*
X270250Y-107201D01*
X270563Y-107936D01*
X270641Y-108986D01*
X270563Y-110036D01*
X270250Y-110771D01*
X269858Y-111401D01*
X269388Y-111821D01*
X268761Y-112136D01*
X267195D01*
G01X275218D02*
Y-105836D01*
X274278Y-107096D01*
G01Y-112136D02*
X276158D01*
G01X281518Y-105836D02*
X280891Y-106046D01*
X280421Y-106571D01*
X280108Y-107201D01*
X279873Y-108041D01*
X279795Y-108986D01*
X279873Y-109931D01*
X280108Y-110771D01*
X280421Y-111401D01*
X280891Y-111926D01*
X281518Y-112136D01*
X282145Y-111926D01*
X282615Y-111401D01*
X282928Y-110771D01*
X283163Y-109931D01*
X283241Y-108986D01*
X283163Y-108041D01*
X282928Y-107201D01*
X282615Y-106571D01*
X282145Y-106046D01*
X281518Y-105836D01*
G01X287818D02*
X287191Y-106046D01*
X286721Y-106571D01*
X286408Y-107201D01*
X286173Y-108041D01*
X286095Y-108986D01*
X286173Y-109931D01*
X286408Y-110771D01*
X286721Y-111401D01*
X287191Y-111926D01*
X287818Y-112136D01*
X288445Y-111926D01*
X288915Y-111401D01*
X289228Y-110771D01*
X289463Y-109931D01*
X289541Y-108986D01*
X289463Y-108041D01*
X289228Y-107201D01*
X288915Y-106571D01*
X288445Y-106046D01*
X287818Y-105836D01*
G01X292081Y-112136D02*
Y-105836D01*
X294118Y-111086D01*
X296155Y-105836D01*
Y-112136D01*
G01X243675Y-2169D02*
X243325Y-1819D01*
X242917Y-1644D01*
X242450Y-1586D01*
X241867Y-1703D01*
X241459Y-1994D01*
X241342Y-2344D01*
X241400Y-2694D01*
X241634Y-2986D01*
X242800Y-3569D01*
X243325Y-3978D01*
X243675Y-4561D01*
X243792Y-5086D01*
X241342D01*
G01X234469Y34731D02*
X230969D01*
Y33272D01*
X231144Y32806D01*
X231377Y32514D01*
X231844Y32397D01*
X232311Y32514D01*
X232602Y32864D01*
X232777Y33272D01*
Y34731D01*
G01Y33272D02*
X234469Y32397D01*
G01Y29381D02*
X233711Y29264D01*
X233069Y29089D01*
X232486Y28856D01*
X231844Y28564D01*
X230969Y28097D01*
Y30431D01*
G01X233944Y26247D02*
X234236Y25897D01*
X234411Y25489D01*
X234469Y24964D01*
X234352Y24439D01*
X234119Y24031D01*
X233711Y23739D01*
X233244Y23681D01*
X232777Y23797D01*
X232486Y24089D01*
X232252Y24497D01*
X232194Y24906D01*
X232252Y25314D01*
X232486Y25839D01*
X230969Y25664D01*
Y24089D01*
G01X229465Y7662D02*
Y11162D01*
X231623Y8654D01*
X228707D01*
G01X225165Y7662D02*
Y11162D01*
X227323Y8654D01*
X224407D01*
G01X235800Y49633D02*
Y53133D01*
X236500Y52433D01*
G01Y49633D02*
X235100D01*
G01X250950Y63833D02*
Y65408D01*
X252117Y67333D01*
G01X249783D02*
X250950Y65408D01*
G01X247933Y64533D02*
X247583Y64125D01*
X247117Y63891D01*
X246592Y63833D01*
X246125Y63891D01*
X245658Y64183D01*
X245367Y64533D01*
X245308Y64883D01*
X245425Y65291D01*
X245833Y65583D01*
X246242Y65700D01*
X246767D01*
G01X246242D02*
X245892Y65875D01*
X245600Y66166D01*
X245483Y66516D01*
X245600Y66866D01*
X245892Y67158D01*
X246417Y67333D01*
X246942Y67275D01*
X247467Y67041D01*
G01X231761Y63581D02*
X231586Y63931D01*
X231469Y64339D01*
Y64806D01*
X231644Y65331D01*
X231936Y65739D01*
X232286Y66031D01*
X232869Y66264D01*
X233394Y66322D01*
X233919Y66206D01*
X234269Y66031D01*
X234619Y65681D01*
X234852Y65272D01*
X234969Y64864D01*
Y64456D01*
X234852Y64047D01*
X234677Y63697D01*
X234444Y63406D01*
G01X234969Y59864D02*
X231469D01*
X233977Y62022D01*
Y59106D01*
G01X232052Y57372D02*
X231702Y57022D01*
X231527Y56614D01*
X231469Y56147D01*
X231586Y55564D01*
X231877Y55156D01*
X232227Y55039D01*
X232577Y55097D01*
X232869Y55331D01*
X233452Y56497D01*
X233861Y57022D01*
X234444Y57372D01*
X234969Y57489D01*
Y55039D01*
G01X230968Y58364D02*
X225968D01*
Y59364D01*
X230968D01*
Y58364D01*
G01X231233Y41533D02*
X230883Y41125D01*
X230417Y40891D01*
X229892Y40833D01*
X229425Y40891D01*
X228958Y41183D01*
X228667Y41533D01*
X228608Y41883D01*
X228725Y42291D01*
X229133Y42583D01*
X229542Y42700D01*
X230067D01*
G01X229542D02*
X229192Y42875D01*
X228900Y43166D01*
X228783Y43516D01*
X228900Y43866D01*
X229192Y44158D01*
X229717Y44333D01*
X230242Y44275D01*
X230767Y44041D01*
G01X224950Y40833D02*
Y44333D01*
X227108Y41825D01*
X224192D01*
G01X256757Y78596D02*
Y75096D01*
G01X258099Y78596D02*
X255415D01*
G01X253624Y75096D02*
Y78596D01*
X252224D01*
X251757Y78421D01*
X251407Y78013D01*
X251290Y77546D01*
X251407Y77079D01*
X251699Y76729D01*
X252224Y76554D01*
X253624D01*
G01X248157Y75096D02*
Y78596D01*
X248857Y77896D01*
G01Y75096D02*
X247457D01*
G01X244965Y76554D02*
X244557Y76963D01*
X244207Y77196D01*
X243740Y77313D01*
X243332Y77196D01*
X243040Y76963D01*
X242807Y76613D01*
X242749Y76204D01*
X242807Y75854D01*
X243040Y75504D01*
X243390Y75213D01*
X243799Y75096D01*
X244265Y75213D01*
X244674Y75563D01*
X244907Y76088D01*
X244965Y76671D01*
X244849Y77429D01*
X244674Y77838D01*
X244382Y78246D01*
X243974Y78538D01*
X243565Y78596D01*
X243157Y78479D01*
X242865Y78188D01*
G01X245179Y93465D02*
Y89965D01*
G01X246521Y93465D02*
X243837D01*
G01X240879Y89965D02*
Y93465D01*
X241579Y92765D01*
G01Y89965D02*
X240179D01*
G01X234086Y79314D02*
Y82814D01*
X232627D01*
X232161Y82639D01*
X231869Y82406D01*
X231752Y81939D01*
X231869Y81472D01*
X232219Y81181D01*
X232627Y81006D01*
X234086D01*
G01X232627D02*
X231752Y79314D01*
G01X229727Y80772D02*
X229319Y81181D01*
X228969Y81414D01*
X228502Y81531D01*
X228094Y81414D01*
X227802Y81181D01*
X227569Y80831D01*
X227511Y80422D01*
X227569Y80072D01*
X227802Y79722D01*
X228152Y79431D01*
X228561Y79314D01*
X229027Y79431D01*
X229436Y79781D01*
X229669Y80306D01*
X229727Y80889D01*
X229611Y81647D01*
X229436Y82056D01*
X229144Y82464D01*
X228736Y82756D01*
X228327Y82814D01*
X227919Y82697D01*
X227627Y82406D01*
G01X224319Y79314D02*
Y82814D01*
X225019Y82114D01*
G01Y79314D02*
X223619D01*
G01X233786Y84314D02*
Y87814D01*
X232327D01*
X231861Y87639D01*
X231569Y87406D01*
X231452Y86939D01*
X231569Y86472D01*
X231919Y86181D01*
X232327Y86006D01*
X233786D01*
G01X232327D02*
X231452Y84314D01*
G01X229602Y84839D02*
X229252Y84547D01*
X228844Y84372D01*
X228319Y84314D01*
X227794Y84431D01*
X227386Y84664D01*
X227094Y85072D01*
X227036Y85539D01*
X227152Y86006D01*
X227444Y86297D01*
X227852Y86531D01*
X228261Y86589D01*
X228669Y86531D01*
X229194Y86297D01*
X229019Y87814D01*
X227444D01*
G01X225011Y84722D02*
X224602Y84431D01*
X224136Y84314D01*
X223669Y84431D01*
X223261Y84781D01*
X222969Y85306D01*
X222852Y85831D01*
Y86472D01*
X222969Y86997D01*
X223261Y87464D01*
X223611Y87697D01*
X224019Y87814D01*
X224486Y87697D01*
X224836Y87464D01*
X225069Y87114D01*
X225186Y86647D01*
X225069Y86239D01*
X224777Y85831D01*
X224427Y85597D01*
X224019Y85539D01*
X223552Y85656D01*
X223202Y85947D01*
X222852Y86472D01*
G01X234067Y73633D02*
Y77133D01*
X232608D01*
X232142Y76958D01*
X231850Y76725D01*
X231733Y76258D01*
X231850Y75791D01*
X232200Y75500D01*
X232608Y75325D01*
X234067D01*
G01X232608D02*
X231733Y73633D01*
G01X229708Y75091D02*
X229300Y75500D01*
X228950Y75733D01*
X228483Y75850D01*
X228075Y75733D01*
X227783Y75500D01*
X227550Y75150D01*
X227492Y74741D01*
X227550Y74391D01*
X227783Y74041D01*
X228133Y73750D01*
X228542Y73633D01*
X229008Y73750D01*
X229417Y74100D01*
X229650Y74625D01*
X229708Y75208D01*
X229592Y75966D01*
X229417Y76375D01*
X229125Y76783D01*
X228717Y77075D01*
X228308Y77133D01*
X227900Y77016D01*
X227608Y76725D01*
G01X225583Y74333D02*
X225233Y73925D01*
X224767Y73691D01*
X224242Y73633D01*
X223775Y73691D01*
X223308Y73983D01*
X223017Y74333D01*
X222958Y74683D01*
X223075Y75091D01*
X223483Y75383D01*
X223892Y75500D01*
X224417D01*
G01X223892D02*
X223542Y75675D01*
X223250Y75966D01*
X223133Y76316D01*
X223250Y76666D01*
X223542Y76958D01*
X224067Y77133D01*
X224592Y77075D01*
X225117Y76841D01*
G01X231336Y72422D02*
X231686Y72597D01*
X232094Y72714D01*
X232561D01*
X233086Y72539D01*
X233494Y72247D01*
X233786Y71897D01*
X234019Y71314D01*
X234077Y70789D01*
X233961Y70264D01*
X233786Y69914D01*
X233436Y69564D01*
X233027Y69331D01*
X232619Y69214D01*
X232211D01*
X231802Y69331D01*
X231452Y69506D01*
X231161Y69739D01*
G01X229602Y69914D02*
X229252Y69506D01*
X228786Y69272D01*
X228261Y69214D01*
X227794Y69272D01*
X227327Y69564D01*
X227036Y69914D01*
X226977Y70264D01*
X227094Y70672D01*
X227502Y70964D01*
X227911Y71081D01*
X228436D01*
G01X227911D02*
X227561Y71256D01*
X227269Y71547D01*
X227152Y71897D01*
X227269Y72247D01*
X227561Y72539D01*
X228086Y72714D01*
X228611Y72656D01*
X229136Y72422D01*
G01X223319Y69214D02*
Y72714D01*
X225477Y70206D01*
X222561D01*
G01X245820Y100811D02*
X246170Y100986D01*
X246578Y101103D01*
X247045D01*
X247570Y100928D01*
X247978Y100636D01*
X248270Y100286D01*
X248503Y99703D01*
X248561Y99178D01*
X248445Y98653D01*
X248270Y98303D01*
X247920Y97953D01*
X247511Y97720D01*
X247103Y97603D01*
X246695D01*
X246286Y97720D01*
X245936Y97895D01*
X245645Y98128D01*
G01X244086Y98303D02*
X243736Y97895D01*
X243270Y97661D01*
X242745Y97603D01*
X242278Y97661D01*
X241811Y97953D01*
X241520Y98303D01*
X241461Y98653D01*
X241578Y99061D01*
X241986Y99353D01*
X242395Y99470D01*
X242920D01*
G01X242395D02*
X242045Y99645D01*
X241753Y99936D01*
X241636Y100286D01*
X241753Y100636D01*
X242045Y100928D01*
X242570Y101103D01*
X243095Y101045D01*
X243620Y100811D01*
G01X238503Y97603D02*
Y101103D01*
X239203Y100403D01*
G01Y97603D02*
X237803D01*
G01X238669Y120114D02*
Y123614D01*
X239369Y122914D01*
G01Y120114D02*
X237969D01*
G01X256419Y119314D02*
Y120889D01*
X257586Y122814D01*
G01X255252D02*
X256419Y120889D01*
G01X253227Y122231D02*
X252877Y122581D01*
X252469Y122756D01*
X252002Y122814D01*
X251419Y122697D01*
X251011Y122406D01*
X250894Y122056D01*
X250952Y121706D01*
X251186Y121414D01*
X252352Y120831D01*
X252877Y120422D01*
X253227Y119839D01*
X253344Y119314D01*
X250894D01*
G01X270976Y118107D02*
X228576D01*
Y102707D01*
X270976D01*
Y118107D01*
G01X226967Y127667D02*
X223467D01*
Y126208D01*
X223642Y125742D01*
X223875Y125450D01*
X224342Y125333D01*
X224809Y125450D01*
X225100Y125800D01*
X225275Y126208D01*
Y127667D01*
G01Y126208D02*
X226967Y125333D01*
G01X225509Y123308D02*
X225100Y122900D01*
X224867Y122550D01*
X224750Y122083D01*
X224867Y121675D01*
X225100Y121383D01*
X225450Y121150D01*
X225859Y121092D01*
X226209Y121150D01*
X226559Y121383D01*
X226850Y121733D01*
X226967Y122142D01*
X226850Y122608D01*
X226500Y123017D01*
X225975Y123250D01*
X225392Y123308D01*
X224634Y123192D01*
X224225Y123017D01*
X223817Y122725D01*
X223525Y122317D01*
X223467Y121908D01*
X223584Y121500D01*
X223875Y121208D01*
G01X223467Y117900D02*
X223584Y118367D01*
X223875Y118717D01*
X224225Y118950D01*
X224692Y119125D01*
X225217Y119183D01*
X225742Y119125D01*
X226209Y118950D01*
X226559Y118717D01*
X226850Y118367D01*
X226967Y117900D01*
X226850Y117433D01*
X226559Y117083D01*
X226209Y116850D01*
X225742Y116675D01*
X225217Y116617D01*
X224692Y116675D01*
X224225Y116850D01*
X223875Y117083D01*
X223584Y117433D01*
X223467Y117900D01*
G01X225777Y110531D02*
G02I-500J0D01*
G01X231776Y124901D02*
X236776D01*
Y123901D01*
X231776D01*
Y124901D01*
G01X236776Y96276D02*
X231776D01*
Y97276D01*
X236776D01*
Y96276D01*
G01X246223Y129422D02*
X246573Y129597D01*
X246981Y129714D01*
X247448D01*
X247973Y129539D01*
X248381Y129247D01*
X248673Y128897D01*
X248906Y128314D01*
X248964Y127789D01*
X248848Y127264D01*
X248673Y126914D01*
X248323Y126564D01*
X247914Y126331D01*
X247506Y126214D01*
X247098D01*
X246689Y126331D01*
X246339Y126506D01*
X246048Y126739D01*
G01X244314Y129131D02*
X243964Y129481D01*
X243556Y129656D01*
X243089Y129714D01*
X242506Y129597D01*
X242098Y129306D01*
X241981Y128956D01*
X242039Y128606D01*
X242273Y128314D01*
X243439Y127731D01*
X243964Y127322D01*
X244314Y126739D01*
X244431Y126214D01*
X241981D01*
G01X240189Y126739D02*
X239839Y126447D01*
X239431Y126272D01*
X238906Y126214D01*
X238381Y126331D01*
X237973Y126564D01*
X237681Y126972D01*
X237623Y127439D01*
X237739Y127906D01*
X238031Y128197D01*
X238439Y128431D01*
X238848Y128489D01*
X239256Y128431D01*
X239781Y128197D01*
X239606Y129714D01*
X238031D01*
G01X226019Y133714D02*
Y137214D01*
X226719Y136514D01*
G01Y133714D02*
X225319D01*
G01X257319Y142814D02*
Y144389D01*
X258486Y146314D01*
G01X256152D02*
X257319Y144389D01*
G01X253019Y142814D02*
Y146314D01*
X253719Y145614D01*
G01Y142814D02*
X252319D01*
G01X231068Y130864D02*
G03I-1000J0D01*
G01X237368Y133014D02*
G02X242568I2600J-436D01*
G01D02*
X250918D01*
Y135114D01*
G01X237368Y133014D02*
X229018D01*
Y134414D01*
G01X250918Y142614D02*
Y155114D01*
G01X229018Y142614D02*
Y155114D01*
G01X227327Y165731D02*
X226977Y166081D01*
X226569Y166256D01*
X226102Y166314D01*
X225519Y166197D01*
X225111Y165906D01*
X224994Y165556D01*
X225052Y165206D01*
X225286Y164914D01*
X226452Y164331D01*
X226977Y163922D01*
X227327Y163339D01*
X227444Y162814D01*
X224994D01*
G01X250918Y162614D02*
Y164714D01*
X229018D01*
Y162614D01*
G01X233169Y208214D02*
X236669D01*
G01X233169Y209556D02*
Y206872D01*
G01X236669Y205081D02*
X233169D01*
Y203681D01*
X233344Y203214D01*
X233752Y202864D01*
X234219Y202747D01*
X234686Y202864D01*
X235036Y203156D01*
X235211Y203681D01*
Y205081D01*
G01X236261Y200606D02*
X236552Y200197D01*
X236669Y199731D01*
X236552Y199264D01*
X236202Y198856D01*
X235677Y198564D01*
X235152Y198447D01*
X234511D01*
X233986Y198564D01*
X233519Y198856D01*
X233286Y199206D01*
X233169Y199614D01*
X233286Y200081D01*
X233519Y200431D01*
X233869Y200664D01*
X234336Y200781D01*
X234744Y200664D01*
X235152Y200372D01*
X235386Y200022D01*
X235444Y199614D01*
X235327Y199147D01*
X235036Y198797D01*
X234511Y198447D01*
G01X250450Y213333D02*
Y209833D01*
G01X251792Y213333D02*
X249108D01*
G01X247317Y209833D02*
Y213333D01*
X245917D01*
X245450Y213158D01*
X245100Y212750D01*
X244983Y212283D01*
X245100Y211816D01*
X245392Y211466D01*
X245917Y211291D01*
X247317D01*
G01X241850Y209833D02*
Y213333D01*
X242550Y212633D01*
G01Y209833D02*
X241150D01*
G01X237550Y213333D02*
X238017Y213216D01*
X238367Y212925D01*
X238600Y212575D01*
X238775Y212108D01*
X238833Y211583D01*
X238775Y211058D01*
X238600Y210591D01*
X238367Y210241D01*
X238017Y209950D01*
X237550Y209833D01*
X237083Y209950D01*
X236733Y210241D01*
X236500Y210591D01*
X236325Y211058D01*
X236267Y211583D01*
X236325Y212108D01*
X236500Y212575D01*
X236733Y212925D01*
X237083Y213216D01*
X237550Y213333D01*
G01X248269Y225314D02*
Y221814D01*
G01X249611Y225314D02*
X246927D01*
G01X245136Y221814D02*
Y225314D01*
X243736D01*
X243269Y225139D01*
X242919Y224731D01*
X242802Y224264D01*
X242919Y223797D01*
X243211Y223447D01*
X243736Y223272D01*
X245136D01*
G01X240777D02*
X240369Y223681D01*
X240019Y223914D01*
X239552Y224031D01*
X239144Y223914D01*
X238852Y223681D01*
X238619Y223331D01*
X238561Y222922D01*
X238619Y222572D01*
X238852Y222222D01*
X239202Y221931D01*
X239611Y221814D01*
X240077Y221931D01*
X240486Y222281D01*
X240719Y222806D01*
X240777Y223389D01*
X240661Y224147D01*
X240486Y224556D01*
X240194Y224964D01*
X239786Y225256D01*
X239377Y225314D01*
X238969Y225197D01*
X238677Y224906D01*
G01X257469Y231614D02*
Y228114D01*
G01X258811Y231614D02*
X256127D01*
G01X254336Y228114D02*
Y231614D01*
X252936D01*
X252469Y231439D01*
X252119Y231031D01*
X252002Y230564D01*
X252119Y230097D01*
X252411Y229747D01*
X252936Y229572D01*
X254336D01*
G01X248869Y228114D02*
Y231614D01*
X249569Y230914D01*
G01Y228114D02*
X248169D01*
G01X262169Y225214D02*
Y221714D01*
G01X263511Y225214D02*
X260827D01*
G01X259036Y221714D02*
Y225214D01*
X257636D01*
X257169Y225039D01*
X256819Y224631D01*
X256702Y224164D01*
X256819Y223697D01*
X257111Y223347D01*
X257636Y223172D01*
X259036D01*
G01X253686Y221714D02*
X253569Y222472D01*
X253394Y223114D01*
X253161Y223697D01*
X252869Y224339D01*
X252402Y225214D01*
X254736D01*
G01X226369Y237631D02*
X222869D01*
Y236172D01*
X223044Y235706D01*
X223277Y235414D01*
X223744Y235297D01*
X224211Y235414D01*
X224502Y235764D01*
X224677Y236172D01*
Y237631D01*
G01Y236172D02*
X226369Y235297D01*
G01Y231464D02*
X222869D01*
X225377Y233622D01*
Y230706D01*
G01X226369Y227164D02*
X222869D01*
X225377Y229322D01*
Y226406D01*
G01X230569Y237631D02*
X227069D01*
Y236172D01*
X227244Y235706D01*
X227477Y235414D01*
X227944Y235297D01*
X228411Y235414D01*
X228702Y235764D01*
X228877Y236172D01*
Y237631D01*
G01Y236172D02*
X230569Y235297D01*
G01Y231464D02*
X227069D01*
X229577Y233622D01*
Y230706D01*
G01X229869Y229147D02*
X230277Y228797D01*
X230511Y228331D01*
X230569Y227806D01*
X230511Y227339D01*
X230219Y226872D01*
X229869Y226581D01*
X229519Y226522D01*
X229111Y226639D01*
X228819Y227047D01*
X228702Y227456D01*
Y227981D01*
G01Y227456D02*
X228527Y227106D01*
X228236Y226814D01*
X227886Y226697D01*
X227536Y226814D01*
X227244Y227106D01*
X227069Y227631D01*
X227127Y228156D01*
X227361Y228681D01*
G01X295335Y19616D02*
Y16116D01*
G01X296677Y19616D02*
X293993D01*
G01X292202Y16116D02*
Y19616D01*
X290802D01*
X290335Y19441D01*
X289985Y19033D01*
X289868Y18566D01*
X289985Y18099D01*
X290277Y17749D01*
X290802Y17574D01*
X292202D01*
G01X286735Y16116D02*
Y19616D01*
X287435Y18916D01*
G01Y16116D02*
X286035D01*
G01X282552D02*
X282435Y16874D01*
X282260Y17516D01*
X282027Y18099D01*
X281735Y18741D01*
X281268Y19616D01*
X283602D01*
G01X272369Y31431D02*
X268869D01*
Y29972D01*
X269044Y29506D01*
X269277Y29214D01*
X269744Y29097D01*
X270211Y29214D01*
X270502Y29564D01*
X270677Y29972D01*
Y31431D01*
G01Y29972D02*
X272369Y29097D01*
G01Y26081D02*
X271611Y25964D01*
X270969Y25789D01*
X270386Y25556D01*
X269744Y25264D01*
X268869Y24797D01*
Y27131D01*
G01X272369Y21781D02*
X271611Y21664D01*
X270969Y21489D01*
X270386Y21256D01*
X269744Y20964D01*
X268869Y20497D01*
Y22831D01*
G01X272369Y45331D02*
X268869D01*
Y43872D01*
X269044Y43406D01*
X269277Y43114D01*
X269744Y42997D01*
X270211Y43114D01*
X270502Y43464D01*
X270677Y43872D01*
Y45331D01*
G01Y43872D02*
X272369Y42997D01*
G01Y39981D02*
X271611Y39864D01*
X270969Y39689D01*
X270386Y39456D01*
X269744Y39164D01*
X268869Y38697D01*
Y41031D01*
G01X272369Y35564D02*
X268869D01*
X269569Y36264D01*
G01X272369D02*
Y34864D01*
G01X264168Y8164D02*
Y11664D01*
X264868Y10964D01*
G01Y8164D02*
X263468D01*
G01X278036Y14014D02*
X277744Y13664D01*
X277394Y13431D01*
X276986Y13314D01*
X276519Y13431D01*
X276169Y13664D01*
X275819Y14014D01*
X275702Y14481D01*
Y16814D01*
G01X272569Y13314D02*
Y16814D01*
X273269Y16114D01*
G01Y13314D02*
X271869D01*
G01X269261Y13722D02*
X268852Y13431D01*
X268386Y13314D01*
X267919Y13431D01*
X267511Y13781D01*
X267219Y14306D01*
X267102Y14831D01*
Y15472D01*
X267219Y15997D01*
X267511Y16464D01*
X267861Y16697D01*
X268269Y16814D01*
X268736Y16697D01*
X269086Y16464D01*
X269319Y16114D01*
X269436Y15647D01*
X269319Y15239D01*
X269027Y14831D01*
X268677Y14597D01*
X268269Y14539D01*
X267802Y14656D01*
X267452Y14947D01*
X267102Y15472D01*
G01X272369Y67031D02*
X268869D01*
Y65572D01*
X269044Y65106D01*
X269277Y64814D01*
X269744Y64697D01*
X270211Y64814D01*
X270502Y65164D01*
X270677Y65572D01*
Y67031D01*
G01Y65572D02*
X272369Y64697D01*
G01Y61681D02*
X271611Y61564D01*
X270969Y61389D01*
X270386Y61156D01*
X269744Y60864D01*
X268869Y60397D01*
Y62731D01*
G01Y57264D02*
X268986Y57731D01*
X269277Y58081D01*
X269627Y58314D01*
X270094Y58489D01*
X270619Y58547D01*
X271144Y58489D01*
X271611Y58314D01*
X271961Y58081D01*
X272252Y57731D01*
X272369Y57264D01*
X272252Y56797D01*
X271961Y56447D01*
X271611Y56214D01*
X271144Y56039D01*
X270619Y55981D01*
X270094Y56039D01*
X269627Y56214D01*
X269277Y56447D01*
X268986Y56797D01*
X268869Y57264D01*
G01X265468Y40364D02*
G03I-500J0D01*
G01X269954Y86821D02*
Y83321D01*
G01X271296Y86821D02*
X268612D01*
G01X266821Y83321D02*
Y86821D01*
X265421D01*
X264954Y86646D01*
X264604Y86238D01*
X264487Y85771D01*
X264604Y85304D01*
X264896Y84954D01*
X265421Y84779D01*
X266821D01*
G01X261354Y83321D02*
Y86821D01*
X262054Y86121D01*
G01Y83321D02*
X260654D01*
G01X256354D02*
Y86821D01*
X258512Y84313D01*
X255596D01*
G01X281086Y92114D02*
Y95614D01*
X279627D01*
X279161Y95439D01*
X278869Y95206D01*
X278752Y94739D01*
X278869Y94272D01*
X279219Y93981D01*
X279627Y93806D01*
X281086D01*
G01X279627D02*
X278752Y92114D01*
G01X276727Y93572D02*
X276319Y93981D01*
X275969Y94214D01*
X275502Y94331D01*
X275094Y94214D01*
X274802Y93981D01*
X274569Y93631D01*
X274511Y93222D01*
X274569Y92872D01*
X274802Y92522D01*
X275152Y92231D01*
X275561Y92114D01*
X276027Y92231D01*
X276436Y92581D01*
X276669Y93106D01*
X276727Y93689D01*
X276611Y94447D01*
X276436Y94856D01*
X276144Y95264D01*
X275736Y95556D01*
X275327Y95614D01*
X274919Y95497D01*
X274627Y95206D01*
G01X272427Y93572D02*
X272019Y93981D01*
X271669Y94214D01*
X271202Y94331D01*
X270794Y94214D01*
X270502Y93981D01*
X270269Y93631D01*
X270211Y93222D01*
X270269Y92872D01*
X270502Y92522D01*
X270852Y92231D01*
X271261Y92114D01*
X271727Y92231D01*
X272136Y92581D01*
X272369Y93106D01*
X272427Y93689D01*
X272311Y94447D01*
X272136Y94856D01*
X271844Y95264D01*
X271436Y95556D01*
X271027Y95614D01*
X270619Y95497D01*
X270327Y95206D01*
G01X272069Y80631D02*
X268569D01*
Y79172D01*
X268744Y78706D01*
X268977Y78414D01*
X269444Y78297D01*
X269911Y78414D01*
X270202Y78764D01*
X270377Y79172D01*
Y80631D01*
G01Y79172D02*
X272069Y78297D01*
G01X270611Y76272D02*
X270202Y75864D01*
X269969Y75514D01*
X269852Y75047D01*
X269969Y74639D01*
X270202Y74347D01*
X270552Y74114D01*
X270961Y74056D01*
X271311Y74114D01*
X271661Y74347D01*
X271952Y74697D01*
X272069Y75106D01*
X271952Y75572D01*
X271602Y75981D01*
X271077Y76214D01*
X270494Y76272D01*
X269736Y76156D01*
X269327Y75981D01*
X268919Y75689D01*
X268627Y75281D01*
X268569Y74872D01*
X268686Y74464D01*
X268977Y74172D01*
G01X272069Y70981D02*
X271311Y70864D01*
X270669Y70689D01*
X270086Y70456D01*
X269444Y70164D01*
X268569Y69697D01*
Y72031D01*
G01X265468Y74864D02*
G03I-500J0D01*
G01X273369Y134331D02*
X269869D01*
Y132872D01*
X270044Y132406D01*
X270277Y132114D01*
X270744Y131997D01*
X271211Y132114D01*
X271502Y132464D01*
X271677Y132872D01*
Y134331D01*
G01Y132872D02*
X273369Y131997D01*
G01X272844Y130147D02*
X273136Y129797D01*
X273311Y129389D01*
X273369Y128864D01*
X273252Y128339D01*
X273019Y127931D01*
X272611Y127639D01*
X272144Y127581D01*
X271677Y127697D01*
X271386Y127989D01*
X271152Y128397D01*
X271094Y128806D01*
X271152Y129214D01*
X271386Y129739D01*
X269869Y129564D01*
Y127989D01*
G01X273369Y124564D02*
X273311Y124156D01*
X273136Y123689D01*
X272844Y123397D01*
X272436Y123281D01*
X272027Y123397D01*
X271677Y123747D01*
X271502Y124272D01*
Y124856D01*
X271386Y125206D01*
X271094Y125497D01*
X270686Y125614D01*
X270277Y125439D01*
X269986Y125031D01*
X269869Y124564D01*
X269986Y124097D01*
X270277Y123689D01*
X270686Y123514D01*
X271094Y123631D01*
X271386Y123922D01*
X271502Y124272D01*
Y124856D01*
X271677Y125381D01*
X272027Y125731D01*
X272436Y125847D01*
X272844Y125731D01*
X273136Y125439D01*
X273311Y124972D01*
X273369Y124564D01*
G01X280886Y97914D02*
Y101414D01*
X279427D01*
X278961Y101239D01*
X278669Y101006D01*
X278552Y100539D01*
X278669Y100072D01*
X279019Y99781D01*
X279427Y99606D01*
X280886D01*
G01X279427D02*
X278552Y97914D01*
G01X276527Y99372D02*
X276119Y99781D01*
X275769Y100014D01*
X275302Y100131D01*
X274894Y100014D01*
X274602Y99781D01*
X274369Y99431D01*
X274311Y99022D01*
X274369Y98672D01*
X274602Y98322D01*
X274952Y98031D01*
X275361Y97914D01*
X275827Y98031D01*
X276236Y98381D01*
X276469Y98906D01*
X276527Y99489D01*
X276411Y100247D01*
X276236Y100656D01*
X275944Y101064D01*
X275536Y101356D01*
X275127Y101414D01*
X274719Y101297D01*
X274427Y101006D01*
G01X272227Y100831D02*
X271877Y101181D01*
X271469Y101356D01*
X271002Y101414D01*
X270419Y101297D01*
X270011Y101006D01*
X269894Y100656D01*
X269952Y100306D01*
X270186Y100014D01*
X271352Y99431D01*
X271877Y99022D01*
X272227Y98439D01*
X272344Y97914D01*
X269894D01*
G01X263968Y99364D02*
G03I-500J0D01*
G01X272869Y149031D02*
X269369D01*
Y147572D01*
X269544Y147106D01*
X269777Y146814D01*
X270244Y146697D01*
X270711Y146814D01*
X271002Y147164D01*
X271177Y147572D01*
Y149031D01*
G01Y147572D02*
X272869Y146697D01*
G01X272344Y144847D02*
X272636Y144497D01*
X272811Y144089D01*
X272869Y143564D01*
X272752Y143039D01*
X272519Y142631D01*
X272111Y142339D01*
X271644Y142281D01*
X271177Y142397D01*
X270886Y142689D01*
X270652Y143097D01*
X270594Y143506D01*
X270652Y143914D01*
X270886Y144439D01*
X269369Y144264D01*
Y142689D01*
G01X271411Y140372D02*
X271002Y139964D01*
X270769Y139614D01*
X270652Y139147D01*
X270769Y138739D01*
X271002Y138447D01*
X271352Y138214D01*
X271761Y138156D01*
X272111Y138214D01*
X272461Y138447D01*
X272752Y138797D01*
X272869Y139206D01*
X272752Y139672D01*
X272402Y140081D01*
X271877Y140314D01*
X271294Y140372D01*
X270536Y140256D01*
X270127Y140081D01*
X269719Y139789D01*
X269427Y139381D01*
X269369Y138972D01*
X269486Y138564D01*
X269777Y138272D01*
G01X265968Y143864D02*
G03I-500J0D01*
G01X253719Y135514D02*
Y139014D01*
X255877Y136506D01*
X252961D01*
G01X325253Y162168D02*
X324786Y161876D01*
X324261Y161701D01*
X323795D01*
X323328Y161876D01*
X322978Y162168D01*
X322803Y162576D01*
X322920Y162984D01*
X323211Y163334D01*
X323736Y163568D01*
X324436Y163684D01*
X324845Y163918D01*
X325020Y164326D01*
X324903Y164734D01*
X324611Y165026D01*
X324203Y165201D01*
X323795D01*
X323386Y165084D01*
X323036Y164793D01*
G01X318445Y164909D02*
X318795Y165084D01*
X319203Y165201D01*
X319670D01*
X320195Y165026D01*
X320603Y164734D01*
X320895Y164384D01*
X321128Y163801D01*
X321186Y163276D01*
X321070Y162751D01*
X320895Y162401D01*
X320545Y162051D01*
X320136Y161818D01*
X319728Y161701D01*
X319320D01*
X318911Y161818D01*
X318561Y161993D01*
X318270Y162226D01*
G01X316653Y161701D02*
Y165201D01*
G01X314203D02*
Y161701D01*
G01Y163451D02*
X316653D01*
G01X311886Y162868D02*
X310370D01*
G01X308053Y161701D02*
X305603Y165201D01*
G01X308053D02*
X305603Y161701D01*
G01X303753D02*
X301303Y165201D01*
G01X303753D02*
X301303Y161701D01*
G01X299453D02*
X297003Y165201D01*
G01X299453D02*
X297003Y161701D01*
G01X295153D02*
X292703Y165201D01*
G01X295153D02*
X292703Y161701D01*
G01X290853D02*
X288403Y165201D01*
G01X290853D02*
X288403Y161701D01*
G01X282195D02*
Y165201D01*
X280736D01*
X280270Y165026D01*
X279978Y164793D01*
X279861Y164326D01*
X279978Y163859D01*
X280328Y163568D01*
X280736Y163393D01*
X282195D01*
G01X280736D02*
X279861Y161701D01*
G01X275561D02*
X277895D01*
Y165201D01*
X275561D01*
G01X276495Y163509D02*
X277895D01*
G01X273886Y165201D02*
X272428Y161701D01*
X270970Y165201D01*
G01X265053Y161701D02*
X262603Y165201D01*
G01X265053D02*
X262603Y161701D01*
G01X255702Y162614D02*
X255352Y162206D01*
X254886Y161972D01*
X254361Y161914D01*
X253894Y161972D01*
X253427Y162264D01*
X253136Y162614D01*
X253077Y162964D01*
X253194Y163372D01*
X253602Y163664D01*
X254011Y163781D01*
X254536D01*
G01X254011D02*
X253661Y163956D01*
X253369Y164247D01*
X253252Y164597D01*
X253369Y164947D01*
X253661Y165239D01*
X254186Y165414D01*
X254711Y165356D01*
X255236Y165122D01*
G01X281269Y182714D02*
Y186214D01*
X281969Y185514D01*
G01Y182714D02*
X280569D01*
G01X260469Y211664D02*
X263969D01*
G01X260469Y213006D02*
Y210322D01*
G01X263969Y208531D02*
X260469D01*
Y207131D01*
X260644Y206664D01*
X261052Y206314D01*
X261519Y206197D01*
X261986Y206314D01*
X262336Y206606D01*
X262511Y207131D01*
Y208531D01*
G01X263969Y203064D02*
X260469D01*
X261169Y203764D01*
G01X263969D02*
Y202364D01*
G01Y198764D02*
X260469D01*
X261169Y199464D01*
G01X263969D02*
Y198064D01*
G01X282286Y207414D02*
X281994Y207064D01*
X281644Y206831D01*
X281236Y206714D01*
X280769Y206831D01*
X280419Y207064D01*
X280069Y207414D01*
X279952Y207881D01*
Y210214D01*
G01X278102Y207239D02*
X277752Y206947D01*
X277344Y206772D01*
X276819Y206714D01*
X276294Y206831D01*
X275886Y207064D01*
X275594Y207472D01*
X275536Y207939D01*
X275652Y208406D01*
X275944Y208697D01*
X276352Y208931D01*
X276761Y208989D01*
X277169Y208931D01*
X277694Y208697D01*
X277519Y210214D01*
X275944D01*
G01X277069Y236514D02*
Y233014D01*
G01X278411Y236514D02*
X275727D01*
G01X273936Y233014D02*
Y236514D01*
X272536D01*
X272069Y236339D01*
X271719Y235931D01*
X271602Y235464D01*
X271719Y234997D01*
X272011Y234647D01*
X272536Y234472D01*
X273936D01*
G01X269577Y235931D02*
X269227Y236281D01*
X268819Y236456D01*
X268352Y236514D01*
X267769Y236397D01*
X267361Y236106D01*
X267244Y235756D01*
X267302Y235406D01*
X267536Y235114D01*
X268702Y234531D01*
X269227Y234122D01*
X269577Y233539D01*
X269694Y233014D01*
X267244D01*
G01X268000Y217833D02*
Y221333D01*
X268700Y220633D01*
G01Y217833D02*
X267300D01*
G01X285877Y32314D02*
X284419Y35814D01*
X282961Y32314D01*
G01X283486Y33539D02*
X285352D01*
G01X312186Y36722D02*
X312536Y36897D01*
X312944Y37014D01*
X313411D01*
X313936Y36839D01*
X314344Y36547D01*
X314636Y36197D01*
X314869Y35614D01*
X314927Y35089D01*
X314811Y34564D01*
X314636Y34214D01*
X314286Y33864D01*
X313877Y33631D01*
X313469Y33514D01*
X313061D01*
X312652Y33631D01*
X312302Y33806D01*
X312011Y34039D01*
G01X301965Y30694D02*
X305165D01*
G01X291165D02*
X294365D01*
G01X319502Y44314D02*
Y47814D01*
X318336D01*
X317869Y47639D01*
X317519Y47406D01*
X317227Y47056D01*
X316994Y46647D01*
X316936Y46064D01*
X316994Y45481D01*
X317227Y45072D01*
X317519Y44722D01*
X317869Y44489D01*
X318336Y44314D01*
X319502D01*
G01X313919D02*
Y47814D01*
X314619Y47114D01*
G01Y44314D02*
X313219D01*
G01X309619D02*
Y47814D01*
X310319Y47114D01*
G01Y44314D02*
X308919D01*
G01X294365Y38394D02*
X291165D01*
G01X301865D02*
X305165D01*
G01X300511Y44261D02*
X303011D01*
G01X295511Y41761D02*
Y46761D01*
X300511Y44261D01*
X295511Y41761D01*
G01Y44261D02*
X293011D01*
G01X300511Y41761D02*
Y46761D01*
G01X317402Y81314D02*
Y84814D01*
X316236D01*
X315769Y84639D01*
X315419Y84406D01*
X315127Y84056D01*
X314894Y83647D01*
X314836Y83064D01*
X314894Y82481D01*
X315127Y82072D01*
X315419Y81722D01*
X315769Y81489D01*
X316236Y81314D01*
X317402D01*
G01X312811Y81722D02*
X312402Y81431D01*
X311936Y81314D01*
X311469Y81431D01*
X311061Y81781D01*
X310769Y82306D01*
X310652Y82831D01*
Y83472D01*
X310769Y83997D01*
X311061Y84464D01*
X311411Y84697D01*
X311819Y84814D01*
X312286Y84697D01*
X312636Y84464D01*
X312869Y84114D01*
X312986Y83647D01*
X312869Y83239D01*
X312577Y82831D01*
X312227Y82597D01*
X311819Y82539D01*
X311352Y82656D01*
X311002Y82947D01*
X310652Y83472D01*
G01X285677Y73514D02*
X284219Y77014D01*
X282761Y73514D01*
G01X283286Y74739D02*
X285152D01*
G01X310555Y76982D02*
X310905Y77157D01*
X311313Y77274D01*
X311780D01*
X312305Y77099D01*
X312713Y76807D01*
X313005Y76457D01*
X313238Y75874D01*
X313296Y75349D01*
X313180Y74824D01*
X313005Y74474D01*
X312655Y74124D01*
X312246Y73891D01*
X311838Y73774D01*
X311430D01*
X311021Y73891D01*
X310671Y74066D01*
X310380Y74299D01*
G01X301965Y65494D02*
X305165D01*
G01X291165D02*
X294365D01*
G01Y73194D02*
X291165D01*
G01X301865D02*
X305165D01*
G01X300511Y79061D02*
X303011D01*
G01X295511Y76561D02*
Y81561D01*
X300511Y79061D01*
X295511Y76561D01*
G01Y79061D02*
X293011D01*
G01X300511Y76561D02*
Y81561D01*
G01X315202Y115414D02*
Y118914D01*
X314036D01*
X313569Y118739D01*
X313219Y118506D01*
X312927Y118156D01*
X312694Y117747D01*
X312636Y117164D01*
X312694Y116581D01*
X312927Y116172D01*
X313219Y115822D01*
X313569Y115589D01*
X314036Y115414D01*
X315202D01*
G01X309619D02*
X309211Y115472D01*
X308744Y115647D01*
X308452Y115939D01*
X308336Y116347D01*
X308452Y116756D01*
X308802Y117106D01*
X309327Y117281D01*
X309911D01*
X310261Y117397D01*
X310552Y117689D01*
X310669Y118097D01*
X310494Y118506D01*
X310086Y118797D01*
X309619Y118914D01*
X309152Y118797D01*
X308744Y118506D01*
X308569Y118097D01*
X308686Y117689D01*
X308977Y117397D01*
X309327Y117281D01*
X309911D01*
X310436Y117106D01*
X310786Y116756D01*
X310902Y116347D01*
X310786Y115939D01*
X310494Y115647D01*
X310027Y115472D01*
X309619Y115414D01*
G01X285677Y108014D02*
X284219Y111514D01*
X282761Y108014D01*
G01X283286Y109239D02*
X285152D01*
G01X310555Y111482D02*
X310905Y111657D01*
X311313Y111774D01*
X311780D01*
X312305Y111599D01*
X312713Y111307D01*
X313005Y110957D01*
X313238Y110374D01*
X313296Y109849D01*
X313180Y109324D01*
X313005Y108974D01*
X312655Y108624D01*
X312246Y108391D01*
X311838Y108274D01*
X311430D01*
X311021Y108391D01*
X310671Y108566D01*
X310380Y108799D01*
G01X301965Y99994D02*
X305165D01*
G01X291165D02*
X294365D01*
G01Y107694D02*
X291165D01*
G01X301865D02*
X305165D01*
G01X300511Y113561D02*
X303011D01*
G01X295511Y111061D02*
Y116061D01*
X300511Y113561D01*
X295511Y111061D01*
G01Y113561D02*
X293011D01*
G01X300511Y111061D02*
Y116061D01*
G01X313202Y149614D02*
Y153114D01*
X312036D01*
X311569Y152939D01*
X311219Y152706D01*
X310927Y152356D01*
X310694Y151947D01*
X310636Y151364D01*
X310694Y150781D01*
X310927Y150372D01*
X311219Y150022D01*
X311569Y149789D01*
X312036Y149614D01*
X313202D01*
G01X307736D02*
X307619Y150372D01*
X307444Y151014D01*
X307211Y151597D01*
X306919Y152239D01*
X306452Y153114D01*
X308786D01*
G01X285677Y142514D02*
X284219Y146014D01*
X282761Y142514D01*
G01X283286Y143739D02*
X285152D01*
G01X310555Y145982D02*
X310905Y146157D01*
X311313Y146274D01*
X311780D01*
X312305Y146099D01*
X312713Y145807D01*
X313005Y145457D01*
X313238Y144874D01*
X313296Y144349D01*
X313180Y143824D01*
X313005Y143474D01*
X312655Y143124D01*
X312246Y142891D01*
X311838Y142774D01*
X311430D01*
X311021Y142891D01*
X310671Y143066D01*
X310380Y143299D01*
G01X301965Y134494D02*
X305165D01*
G01X291165D02*
X294365D01*
G01Y142194D02*
X291165D01*
G01X301865D02*
X305165D01*
G01X300511Y148061D02*
X303011D01*
G01X295511Y145561D02*
Y150561D01*
X300511Y148061D01*
X295511Y145561D01*
G01Y148061D02*
X293011D01*
G01X300511Y145561D02*
Y150561D01*
G01X309436Y187522D02*
X309786Y187697D01*
X310194Y187814D01*
X310661D01*
X311186Y187639D01*
X311594Y187347D01*
X311886Y186997D01*
X312119Y186414D01*
X312177Y185889D01*
X312061Y185364D01*
X311886Y185014D01*
X311536Y184664D01*
X311127Y184431D01*
X310719Y184314D01*
X310311D01*
X309902Y184431D01*
X309552Y184606D01*
X309261Y184839D01*
G01X306419Y184314D02*
Y187814D01*
X307119Y187114D01*
G01Y184314D02*
X305719D01*
G01X303402Y184839D02*
X303052Y184547D01*
X302644Y184372D01*
X302119Y184314D01*
X301594Y184431D01*
X301186Y184664D01*
X300894Y185072D01*
X300836Y185539D01*
X300952Y186006D01*
X301244Y186297D01*
X301652Y186531D01*
X302061Y186589D01*
X302469Y186531D01*
X302994Y186297D01*
X302819Y187814D01*
X301244D01*
G01X300086Y177814D02*
X299794Y177464D01*
X299444Y177231D01*
X299036Y177114D01*
X298569Y177231D01*
X298219Y177464D01*
X297869Y177814D01*
X297752Y178281D01*
Y180614D01*
G01X294736Y177114D02*
X294619Y177872D01*
X294444Y178514D01*
X294211Y179097D01*
X293919Y179739D01*
X293452Y180614D01*
X295786D01*
G01X293968Y189864D02*
X298968D01*
Y188864D01*
X293968D01*
Y189864D01*
G01X292119Y199714D02*
Y203214D01*
X292819Y202514D01*
G01Y199714D02*
X291419D01*
G01X315208Y230332D02*
G02X304984Y195388I0J-18968D01*
G01X304828Y227556D02*
X293760D01*
Y195172D01*
X304828D01*
G01X304486Y229414D02*
Y232914D01*
X303027D01*
X302561Y232739D01*
X302269Y232506D01*
X302152Y232039D01*
X302269Y231572D01*
X302619Y231281D01*
X303027Y231106D01*
X304486D01*
G01X303027D02*
X302152Y229414D01*
G01X300302Y229939D02*
X299952Y229647D01*
X299544Y229472D01*
X299019Y229414D01*
X298494Y229531D01*
X298086Y229764D01*
X297794Y230172D01*
X297736Y230639D01*
X297852Y231106D01*
X298144Y231397D01*
X298552Y231631D01*
X298961Y231689D01*
X299369Y231631D01*
X299894Y231397D01*
X299719Y232914D01*
X298144D01*
G01X294719D02*
X295186Y232797D01*
X295536Y232506D01*
X295769Y232156D01*
X295944Y231689D01*
X296002Y231164D01*
X295944Y230639D01*
X295769Y230172D01*
X295536Y229822D01*
X295186Y229531D01*
X294719Y229414D01*
X294252Y229531D01*
X293902Y229822D01*
X293669Y230172D01*
X293494Y230639D01*
X293436Y231164D01*
X293494Y231689D01*
X293669Y232156D01*
X293902Y232506D01*
X294252Y232797D01*
X294719Y232914D01*
G01X305164Y227454D02*
G02X315208Y230332I10045J-16090D01*
G01X316469Y248522D02*
X312969Y247064D01*
X316469Y245606D01*
G01X315244Y246131D02*
Y247997D01*
G01X316469Y242764D02*
X312969D01*
X313669Y243464D01*
G01X316469D02*
Y242064D01*
G54D16*
G01X-14945Y108457D02*
G03X-14865Y99293I2091J-4564D01*
G54D17*
G01X-37001Y-177507D02*
X-36529Y-177900D01*
X-35998Y-178136D01*
X-35526D01*
X-35054Y-177900D01*
X-34700Y-177507D01*
X-34523Y-176956D01*
X-34641Y-176405D01*
X-34936Y-175933D01*
X-35467Y-175619D01*
X-36175Y-175461D01*
X-36588Y-175147D01*
X-36765Y-174596D01*
X-36647Y-174045D01*
X-36352Y-173652D01*
X-35939Y-173416D01*
X-35526D01*
X-35113Y-173573D01*
X-34759Y-173967D01*
G01X-32281Y-178136D02*
Y-173416D01*
G01X-29803D02*
Y-178136D01*
G01Y-175776D02*
X-32281D01*
G01X-25142Y-178136D02*
X-27502D01*
Y-173416D01*
X-25142D01*
G01X-26086Y-175697D02*
X-27502D01*
G01X-20422Y-178136D02*
X-22782D01*
Y-173416D01*
X-20422D01*
G01X-21366Y-175697D02*
X-22782D01*
G01X-16882Y-173416D02*
Y-178136D01*
G01X-18239Y-173416D02*
X-15525D01*
G01X-28883Y-167136D02*
Y-162416D01*
X-26641D01*
G01X-27467Y-164697D02*
X-28883D01*
G01X-24222Y-167136D02*
Y-162416D01*
X-22747D01*
X-22275Y-162652D01*
X-21980Y-162967D01*
X-21862Y-163596D01*
X-21980Y-164225D01*
X-22334Y-164619D01*
X-22747Y-164855D01*
X-24222D01*
G01X-22747D02*
X-21862Y-167136D01*
G01X-17142D02*
X-19502D01*
Y-162416D01*
X-17142D01*
G01X-18086Y-164697D02*
X-19502D01*
G01X-12422Y-167136D02*
X-14782D01*
Y-162416D01*
X-12422D01*
G01X-13366Y-164697D02*
X-14782D01*
G01X-10121Y-166507D02*
X-9649Y-166900D01*
X-9118Y-167136D01*
X-8646D01*
X-8174Y-166900D01*
X-7820Y-166507D01*
X-7643Y-165956D01*
X-7761Y-165405D01*
X-8056Y-164933D01*
X-8587Y-164619D01*
X-9295Y-164461D01*
X-9708Y-164147D01*
X-9885Y-163596D01*
X-9767Y-163045D01*
X-9472Y-162652D01*
X-9059Y-162416D01*
X-8646D01*
X-8233Y-162573D01*
X-7879Y-162967D01*
G01X-2864Y-162809D02*
X-3218Y-162573D01*
X-3631Y-162416D01*
X-4103D01*
X-4634Y-162652D01*
X-5047Y-163045D01*
X-5342Y-163517D01*
X-5578Y-164304D01*
X-5637Y-165012D01*
X-5519Y-165720D01*
X-5342Y-166192D01*
X-4988Y-166664D01*
X-4575Y-166979D01*
X-4162Y-167136D01*
X-3749D01*
X-3336Y-166979D01*
X-2982Y-166743D01*
X-2687Y-166428D01*
G01X-917Y-167136D02*
X558Y-162416D01*
X2033Y-167136D01*
G01X1502Y-165484D02*
X-386D01*
G01X4098Y-162416D02*
Y-167136D01*
X6458D01*
G01X11178D02*
X8818D01*
Y-162416D01*
X11178D01*
G01X10234Y-164697D02*
X8818D01*
G01X14718Y-167293D02*
X14600Y-167215D01*
Y-167057D01*
X14718Y-166979D01*
X14836Y-167057D01*
Y-167215D01*
X14718Y-167293D01*
G01X-28762Y-159136D02*
X-29234Y-159057D01*
X-29647Y-158743D01*
X-30001Y-158271D01*
X-30237Y-157720D01*
X-30355Y-157091D01*
Y-156461D01*
X-30237Y-155832D01*
X-30001Y-155281D01*
X-29647Y-154809D01*
X-29234Y-154495D01*
X-28762Y-154416D01*
X-28290Y-154495D01*
X-27877Y-154809D01*
X-27523Y-155281D01*
X-27287Y-155832D01*
X-27169Y-156461D01*
Y-157091D01*
X-27287Y-157720D01*
X-27523Y-158271D01*
X-27877Y-158743D01*
X-28290Y-159057D01*
X-28762Y-159136D01*
G01X-25222D02*
Y-154416D01*
X-23747D01*
X-23275Y-154652D01*
X-22980Y-154967D01*
X-22862Y-155596D01*
X-22980Y-156225D01*
X-23334Y-156619D01*
X-23747Y-156855D01*
X-25222D01*
G01X-23747D02*
X-22862Y-159136D01*
G01X-15310Y-154416D02*
X-13894D01*
G01X-14602D02*
Y-159136D01*
G01X-15310D02*
X-13894D01*
G01X-11239D02*
Y-154416D01*
X-8525Y-159136D01*
Y-154416D01*
G01X-1622Y-159136D02*
Y-154416D01*
X-206D01*
X266Y-154652D01*
X620Y-155203D01*
X738Y-155832D01*
X620Y-156461D01*
X325Y-156933D01*
X-206Y-157169D01*
X-1622D01*
G01X2803Y-159136D02*
X4278Y-154416D01*
X5753Y-159136D01*
G01X5222Y-157484D02*
X3334D01*
G01X7818Y-159136D02*
Y-154416D01*
X9293D01*
X9765Y-154652D01*
X10060Y-154967D01*
X10178Y-155596D01*
X10060Y-156225D01*
X9706Y-156619D01*
X9293Y-156855D01*
X7818D01*
G01X9293D02*
X10178Y-159136D01*
G01X13718Y-154416D02*
Y-159136D01*
G01X12361Y-154416D02*
X15075D01*
G01X21388D02*
X22214Y-159136D01*
X23158Y-154416D01*
X24102Y-159136D01*
X24928Y-154416D01*
G01X27170D02*
X28586D01*
G01X27878D02*
Y-159136D01*
G01X27170D02*
X28586D01*
G01X32598Y-154416D02*
Y-159136D01*
G01X31241Y-154416D02*
X33955D01*
G01X36079Y-159136D02*
Y-154416D01*
G01X38557D02*
Y-159136D01*
G01Y-156776D02*
X36079D01*
G01X42038Y-159136D02*
X41566Y-159057D01*
X41153Y-158743D01*
X40799Y-158271D01*
X40563Y-157720D01*
X40445Y-157091D01*
Y-156461D01*
X40563Y-155832D01*
X40799Y-155281D01*
X41153Y-154809D01*
X41566Y-154495D01*
X42038Y-154416D01*
X42510Y-154495D01*
X42923Y-154809D01*
X43277Y-155281D01*
X43513Y-155832D01*
X43631Y-156461D01*
Y-157091D01*
X43513Y-157720D01*
X43277Y-158271D01*
X42923Y-158743D01*
X42510Y-159057D01*
X42038Y-159136D01*
G01X45460Y-154416D02*
Y-157799D01*
X45696Y-158507D01*
X46168Y-158979D01*
X46758Y-159136D01*
X47348Y-158979D01*
X47820Y-158507D01*
X48056Y-157799D01*
Y-154416D01*
G01X51478D02*
Y-159136D01*
G01X50121Y-154416D02*
X52835D01*
G01X60918D02*
Y-159136D01*
G01X59561Y-154416D02*
X62275D01*
G01X64399Y-159136D02*
Y-154416D01*
G01X66877D02*
Y-159136D01*
G01Y-156776D02*
X64399D01*
G01X71538Y-159136D02*
X69178D01*
Y-154416D01*
X71538D01*
G01X70594Y-156697D02*
X69178D01*
G01X81096Y-154809D02*
X80742Y-154573D01*
X80329Y-154416D01*
X79857D01*
X79326Y-154652D01*
X78913Y-155045D01*
X78618Y-155517D01*
X78382Y-156304D01*
X78323Y-157012D01*
X78441Y-157720D01*
X78618Y-158192D01*
X78972Y-158664D01*
X79385Y-158979D01*
X79798Y-159136D01*
X80211D01*
X80624Y-158979D01*
X80978Y-158743D01*
X81273Y-158428D01*
G01X84518Y-159136D02*
X84046Y-159057D01*
X83633Y-158743D01*
X83279Y-158271D01*
X83043Y-157720D01*
X82925Y-157091D01*
Y-156461D01*
X83043Y-155832D01*
X83279Y-155281D01*
X83633Y-154809D01*
X84046Y-154495D01*
X84518Y-154416D01*
X84990Y-154495D01*
X85403Y-154809D01*
X85757Y-155281D01*
X85993Y-155832D01*
X86111Y-156461D01*
Y-157091D01*
X85993Y-157720D01*
X85757Y-158271D01*
X85403Y-158743D01*
X84990Y-159057D01*
X84518Y-159136D01*
G01X87881D02*
Y-154416D01*
X90595Y-159136D01*
Y-154416D01*
G01X92719Y-158507D02*
X93191Y-158900D01*
X93722Y-159136D01*
X94194D01*
X94666Y-158900D01*
X95020Y-158507D01*
X95197Y-157956D01*
X95079Y-157405D01*
X94784Y-156933D01*
X94253Y-156619D01*
X93545Y-156461D01*
X93132Y-156147D01*
X92955Y-155596D01*
X93073Y-155045D01*
X93368Y-154652D01*
X93781Y-154416D01*
X94194D01*
X94607Y-154573D01*
X94961Y-154967D01*
G01X99858Y-159136D02*
X97498D01*
Y-154416D01*
X99858D01*
G01X98914Y-156697D02*
X97498D01*
G01X102041Y-159136D02*
Y-154416D01*
X104755Y-159136D01*
Y-154416D01*
G01X108118D02*
Y-159136D01*
G01X106761Y-154416D02*
X109475D01*
G01X117558Y-159136D02*
X117086Y-159057D01*
X116673Y-158743D01*
X116319Y-158271D01*
X116083Y-157720D01*
X115965Y-157091D01*
Y-156461D01*
X116083Y-155832D01*
X116319Y-155281D01*
X116673Y-154809D01*
X117086Y-154495D01*
X117558Y-154416D01*
X118030Y-154495D01*
X118443Y-154809D01*
X118797Y-155281D01*
X119033Y-155832D01*
X119151Y-156461D01*
Y-157091D01*
X119033Y-157720D01*
X118797Y-158271D01*
X118443Y-158743D01*
X118030Y-159057D01*
X117558Y-159136D01*
G01X121157D02*
Y-154416D01*
X123399D01*
G01X122573Y-156697D02*
X121157D01*
G01X-29942Y-151136D02*
Y-146416D01*
X-28526D01*
X-28054Y-146652D01*
X-27700Y-147203D01*
X-27582Y-147832D01*
X-27700Y-148461D01*
X-27995Y-148933D01*
X-28526Y-149169D01*
X-29942D01*
G01X-25222Y-151136D02*
Y-146416D01*
X-23747D01*
X-23275Y-146652D01*
X-22980Y-146967D01*
X-22862Y-147596D01*
X-22980Y-148225D01*
X-23334Y-148619D01*
X-23747Y-148855D01*
X-25222D01*
G01X-23747D02*
X-22862Y-151136D01*
G01X-19322D02*
X-19794Y-151057D01*
X-20207Y-150743D01*
X-20561Y-150271D01*
X-20797Y-149720D01*
X-20915Y-149091D01*
Y-148461D01*
X-20797Y-147832D01*
X-20561Y-147281D01*
X-20207Y-146809D01*
X-19794Y-146495D01*
X-19322Y-146416D01*
X-18850Y-146495D01*
X-18437Y-146809D01*
X-18083Y-147281D01*
X-17847Y-147832D01*
X-17729Y-148461D01*
Y-149091D01*
X-17847Y-149720D01*
X-18083Y-150271D01*
X-18437Y-150743D01*
X-18850Y-151057D01*
X-19322Y-151136D01*
G01X-13304Y-146809D02*
X-13658Y-146573D01*
X-14071Y-146416D01*
X-14543D01*
X-15074Y-146652D01*
X-15487Y-147045D01*
X-15782Y-147517D01*
X-16018Y-148304D01*
X-16077Y-149012D01*
X-15959Y-149720D01*
X-15782Y-150192D01*
X-15428Y-150664D01*
X-15015Y-150979D01*
X-14602Y-151136D01*
X-14189D01*
X-13776Y-150979D01*
X-13422Y-150743D01*
X-13127Y-150428D01*
G01X-11180Y-146416D02*
Y-149799D01*
X-10944Y-150507D01*
X-10472Y-150979D01*
X-9882Y-151136D01*
X-9292Y-150979D01*
X-8820Y-150507D01*
X-8584Y-149799D01*
Y-146416D01*
G01X-6342Y-151136D02*
Y-146416D01*
X-4867D01*
X-4395Y-146652D01*
X-4100Y-146967D01*
X-3982Y-147596D01*
X-4100Y-148225D01*
X-4454Y-148619D01*
X-4867Y-148855D01*
X-6342D01*
G01X-4867D02*
X-3982Y-151136D01*
G01X738D02*
X-1622D01*
Y-146416D01*
X738D01*
G01X-206Y-148697D02*
X-1622D01*
G01X2744Y-151136D02*
Y-146416D01*
X4278Y-150349D01*
X5812Y-146416D01*
Y-151136D01*
G01X10178D02*
X7818D01*
Y-146416D01*
X10178D01*
G01X9234Y-148697D02*
X7818D01*
G01X12361Y-151136D02*
Y-146416D01*
X15075Y-151136D01*
Y-146416D01*
G01X18438D02*
Y-151136D01*
G01X17081Y-146416D02*
X19795D01*
G01X27878Y-151136D02*
X27406Y-151057D01*
X26993Y-150743D01*
X26639Y-150271D01*
X26403Y-149720D01*
X26285Y-149091D01*
Y-148461D01*
X26403Y-147832D01*
X26639Y-147281D01*
X26993Y-146809D01*
X27406Y-146495D01*
X27878Y-146416D01*
X28350Y-146495D01*
X28763Y-146809D01*
X29117Y-147281D01*
X29353Y-147832D01*
X29471Y-148461D01*
Y-149091D01*
X29353Y-149720D01*
X29117Y-150271D01*
X28763Y-150743D01*
X28350Y-151057D01*
X27878Y-151136D01*
G01X31418D02*
Y-146416D01*
X32893D01*
X33365Y-146652D01*
X33660Y-146967D01*
X33778Y-147596D01*
X33660Y-148225D01*
X33306Y-148619D01*
X32893Y-148855D01*
X31418D01*
G01X32893D02*
X33778Y-151136D01*
G01X40504D02*
Y-146416D01*
X42038Y-150349D01*
X43572Y-146416D01*
Y-151136D01*
G01X45283D02*
X46758Y-146416D01*
X48233Y-151136D01*
G01X47702Y-149484D02*
X45814D01*
G01X50121Y-151136D02*
Y-146416D01*
X52835Y-151136D01*
Y-146416D01*
G01X54900D02*
Y-149799D01*
X55136Y-150507D01*
X55608Y-150979D01*
X56198Y-151136D01*
X56788Y-150979D01*
X57260Y-150507D01*
X57496Y-149799D01*
Y-146416D01*
G01X59797Y-151136D02*
Y-146416D01*
X62039D01*
G01X61213Y-148697D02*
X59797D01*
G01X64163Y-151136D02*
X65638Y-146416D01*
X67113Y-151136D01*
G01X66582Y-149484D02*
X64694D01*
G01X71656Y-146809D02*
X71302Y-146573D01*
X70889Y-146416D01*
X70417D01*
X69886Y-146652D01*
X69473Y-147045D01*
X69178Y-147517D01*
X68942Y-148304D01*
X68883Y-149012D01*
X69001Y-149720D01*
X69178Y-150192D01*
X69532Y-150664D01*
X69945Y-150979D01*
X70358Y-151136D01*
X70771D01*
X71184Y-150979D01*
X71538Y-150743D01*
X71833Y-150428D01*
G01X75078Y-146416D02*
Y-151136D01*
G01X73721Y-146416D02*
X76435D01*
G01X78500D02*
Y-149799D01*
X78736Y-150507D01*
X79208Y-150979D01*
X79798Y-151136D01*
X80388Y-150979D01*
X80860Y-150507D01*
X81096Y-149799D01*
Y-146416D01*
G01X83338Y-151136D02*
Y-146416D01*
X84813D01*
X85285Y-146652D01*
X85580Y-146967D01*
X85698Y-147596D01*
X85580Y-148225D01*
X85226Y-148619D01*
X84813Y-148855D01*
X83338D01*
G01X84813D02*
X85698Y-151136D01*
G01X90418D02*
X88058D01*
Y-146416D01*
X90418D01*
G01X89474Y-148697D02*
X88058D01*
G01X97970Y-146416D02*
X99386D01*
G01X98678D02*
Y-151136D01*
G01X97970D02*
X99386D01*
G01X102041D02*
Y-146416D01*
X104755Y-151136D01*
Y-146416D01*
G01X111068D02*
X111894Y-151136D01*
X112838Y-146416D01*
X113782Y-151136D01*
X114608Y-146416D01*
G01X116319Y-151136D02*
Y-146416D01*
G01X118797D02*
Y-151136D01*
G01Y-148776D02*
X116319D01*
G01X122278Y-151136D02*
X121806Y-151057D01*
X121393Y-150743D01*
X121039Y-150271D01*
X120803Y-149720D01*
X120685Y-149091D01*
Y-148461D01*
X120803Y-147832D01*
X121039Y-147281D01*
X121393Y-146809D01*
X121806Y-146495D01*
X122278Y-146416D01*
X122750Y-146495D01*
X123163Y-146809D01*
X123517Y-147281D01*
X123753Y-147832D01*
X123871Y-148461D01*
Y-149091D01*
X123753Y-149720D01*
X123517Y-150271D01*
X123163Y-150743D01*
X122750Y-151057D01*
X122278Y-151136D01*
G01X125818Y-146416D02*
Y-151136D01*
X128178D01*
G01X132898D02*
X130538D01*
Y-146416D01*
X132898D01*
G01X131954Y-148697D02*
X130538D01*
G01X-37237Y-117136D02*
X-35762Y-112416D01*
X-34287Y-117136D01*
G01X-34818Y-115484D02*
X-36706D01*
G01X-32340Y-112416D02*
Y-115799D01*
X-32104Y-116507D01*
X-31632Y-116979D01*
X-31042Y-117136D01*
X-30452Y-116979D01*
X-29980Y-116507D01*
X-29744Y-115799D01*
Y-112416D01*
G01X-27561Y-116507D02*
X-27089Y-116900D01*
X-26558Y-117136D01*
X-26086D01*
X-25614Y-116900D01*
X-25260Y-116507D01*
X-25083Y-115956D01*
X-25201Y-115405D01*
X-25496Y-114933D01*
X-26027Y-114619D01*
X-26735Y-114461D01*
X-27148Y-114147D01*
X-27325Y-113596D01*
X-27207Y-113045D01*
X-26912Y-112652D01*
X-26499Y-112416D01*
X-26086D01*
X-25673Y-112573D01*
X-25319Y-112967D01*
G01X-21602Y-112416D02*
Y-117136D01*
G01X-22959Y-112416D02*
X-20245D01*
G01X-17590D02*
X-16174D01*
G01X-16882D02*
Y-117136D01*
G01X-17590D02*
X-16174D01*
G01X-13519D02*
Y-112416D01*
X-10805Y-117136D01*
Y-112416D01*
G01X-7442Y-117293D02*
X-7560Y-117215D01*
Y-117057D01*
X-7442Y-116979D01*
X-7324Y-117057D01*
Y-117215D01*
X-7442Y-117293D01*
G01X1998Y-112416D02*
Y-117136D01*
G01X641Y-112416D02*
X3355D01*
G01X7898Y-117136D02*
X5538D01*
Y-112416D01*
X7898D01*
G01X6954Y-114697D02*
X5538D01*
G01X10199Y-117136D02*
X12677Y-112416D01*
G01X10199D02*
X12677Y-117136D01*
G01X14683D02*
X16158Y-112416D01*
X17633Y-117136D01*
G01X17102Y-115484D02*
X15214D01*
G01X19639Y-116507D02*
X20111Y-116900D01*
X20642Y-117136D01*
X21114D01*
X21586Y-116900D01*
X21940Y-116507D01*
X22117Y-115956D01*
X21999Y-115405D01*
X21704Y-114933D01*
X21173Y-114619D01*
X20465Y-114461D01*
X20052Y-114147D01*
X19875Y-113596D01*
X19993Y-113045D01*
X20288Y-112652D01*
X20701Y-112416D01*
X21114D01*
X21527Y-112573D01*
X21881Y-112967D01*
G01X30200Y-117136D02*
X30318Y-116113D01*
X30495Y-115248D01*
X30731Y-114461D01*
X31026Y-113596D01*
X31498Y-112416D01*
X29138D01*
G01X35038Y-117136D02*
X35451Y-117057D01*
X35923Y-116821D01*
X36218Y-116428D01*
X36336Y-115877D01*
X36218Y-115327D01*
X35864Y-114855D01*
X35333Y-114619D01*
X34743D01*
X34389Y-114461D01*
X34094Y-114068D01*
X33976Y-113517D01*
X34153Y-112967D01*
X34566Y-112573D01*
X35038Y-112416D01*
X35510Y-112573D01*
X35923Y-112967D01*
X36100Y-113517D01*
X35982Y-114068D01*
X35687Y-114461D01*
X35333Y-114619D01*
X34743D01*
X34212Y-114855D01*
X33858Y-115327D01*
X33740Y-115877D01*
X33858Y-116428D01*
X34153Y-116821D01*
X34625Y-117057D01*
X35038Y-117136D01*
G01X39640D02*
X39758Y-116113D01*
X39935Y-115248D01*
X40171Y-114461D01*
X40466Y-113596D01*
X40938Y-112416D01*
X38578D01*
G01X43180Y-116192D02*
X43534Y-116743D01*
X44006Y-117057D01*
X44537Y-117136D01*
X45009Y-117057D01*
X45481Y-116664D01*
X45776Y-116192D01*
X45835Y-115720D01*
X45717Y-115169D01*
X45304Y-114776D01*
X44891Y-114619D01*
X44360D01*
G01X44891D02*
X45245Y-114383D01*
X45540Y-113989D01*
X45658Y-113517D01*
X45540Y-113045D01*
X45245Y-112652D01*
X44714Y-112416D01*
X44183Y-112495D01*
X43652Y-112809D01*
G01X47900Y-116428D02*
X48254Y-116821D01*
X48667Y-117057D01*
X49198Y-117136D01*
X49729Y-116979D01*
X50142Y-116664D01*
X50437Y-116113D01*
X50496Y-115484D01*
X50378Y-114855D01*
X50083Y-114461D01*
X49670Y-114147D01*
X49257Y-114068D01*
X48844Y-114147D01*
X48313Y-114461D01*
X48490Y-112416D01*
X50083D01*
G01X57340D02*
Y-115799D01*
X57576Y-116507D01*
X58048Y-116979D01*
X58638Y-117136D01*
X59228Y-116979D01*
X59700Y-116507D01*
X59936Y-115799D01*
Y-112416D01*
G01X62119Y-116507D02*
X62591Y-116900D01*
X63122Y-117136D01*
X63594D01*
X64066Y-116900D01*
X64420Y-116507D01*
X64597Y-115956D01*
X64479Y-115405D01*
X64184Y-114933D01*
X63653Y-114619D01*
X62945Y-114461D01*
X62532Y-114147D01*
X62355Y-113596D01*
X62473Y-113045D01*
X62768Y-112652D01*
X63181Y-112416D01*
X63594D01*
X64007Y-112573D01*
X64361Y-112967D01*
G01X66603Y-117136D02*
X68078Y-112416D01*
X69553Y-117136D01*
G01X69022Y-115484D02*
X67134D01*
G01X-30119Y-143136D02*
Y-138416D01*
X-27405Y-143136D01*
Y-138416D01*
G01X-24042Y-143136D02*
X-24514Y-143057D01*
X-24927Y-142743D01*
X-25281Y-142271D01*
X-25517Y-141720D01*
X-25635Y-141091D01*
Y-140461D01*
X-25517Y-139832D01*
X-25281Y-139281D01*
X-24927Y-138809D01*
X-24514Y-138495D01*
X-24042Y-138416D01*
X-23570Y-138495D01*
X-23157Y-138809D01*
X-22803Y-139281D01*
X-22567Y-139832D01*
X-22449Y-140461D01*
Y-141091D01*
X-22567Y-141720D01*
X-22803Y-142271D01*
X-23157Y-142743D01*
X-23570Y-143057D01*
X-24042Y-143136D01*
G01X-19322Y-138416D02*
Y-143136D01*
G01X-20679Y-138416D02*
X-17965D01*
G01X-9410Y-140619D02*
X-9174Y-140383D01*
X-8997Y-139989D01*
X-8879Y-139439D01*
X-8997Y-138967D01*
X-9233Y-138652D01*
X-9646Y-138416D01*
X-11239D01*
Y-143136D01*
X-9292D01*
X-8879Y-142821D01*
X-8643Y-142349D01*
X-8525Y-141799D01*
X-8643Y-141248D01*
X-8997Y-140776D01*
X-9410Y-140619D01*
X-11239D01*
G01X-3982Y-143136D02*
X-6342D01*
Y-138416D01*
X-3982D01*
G01X-4926Y-140697D02*
X-6342D01*
G01X2980Y-138416D02*
Y-141799D01*
X3216Y-142507D01*
X3688Y-142979D01*
X4278Y-143136D01*
X4868Y-142979D01*
X5340Y-142507D01*
X5576Y-141799D01*
Y-138416D01*
G01X7759Y-142507D02*
X8231Y-142900D01*
X8762Y-143136D01*
X9234D01*
X9706Y-142900D01*
X10060Y-142507D01*
X10237Y-141956D01*
X10119Y-141405D01*
X9824Y-140933D01*
X9293Y-140619D01*
X8585Y-140461D01*
X8172Y-140147D01*
X7995Y-139596D01*
X8113Y-139045D01*
X8408Y-138652D01*
X8821Y-138416D01*
X9234D01*
X9647Y-138573D01*
X10001Y-138967D01*
G01X14898Y-143136D02*
X12538D01*
Y-138416D01*
X14898D01*
G01X13954Y-140697D02*
X12538D01*
G01X17140Y-143136D02*
Y-138416D01*
X18320D01*
X18792Y-138652D01*
X19146Y-138967D01*
X19441Y-139439D01*
X19677Y-139989D01*
X19736Y-140776D01*
X19677Y-141563D01*
X19441Y-142113D01*
X19146Y-142585D01*
X18792Y-142900D01*
X18320Y-143136D01*
X17140D01*
G01X26757D02*
Y-138416D01*
X28999D01*
G01X28173Y-140697D02*
X26757D01*
G01X32598Y-143136D02*
X32126Y-143057D01*
X31713Y-142743D01*
X31359Y-142271D01*
X31123Y-141720D01*
X31005Y-141091D01*
Y-140461D01*
X31123Y-139832D01*
X31359Y-139281D01*
X31713Y-138809D01*
X32126Y-138495D01*
X32598Y-138416D01*
X33070Y-138495D01*
X33483Y-138809D01*
X33837Y-139281D01*
X34073Y-139832D01*
X34191Y-140461D01*
Y-141091D01*
X34073Y-141720D01*
X33837Y-142271D01*
X33483Y-142743D01*
X33070Y-143057D01*
X32598Y-143136D01*
G01X36138D02*
Y-138416D01*
X37613D01*
X38085Y-138652D01*
X38380Y-138967D01*
X38498Y-139596D01*
X38380Y-140225D01*
X38026Y-140619D01*
X37613Y-140855D01*
X36138D01*
G01X37613D02*
X38498Y-143136D01*
G01X47938D02*
X45578D01*
Y-138416D01*
X47938D01*
G01X46994Y-140697D02*
X45578D01*
G01X50121Y-143136D02*
Y-138416D01*
X52835Y-143136D01*
Y-138416D01*
G01X56552Y-140776D02*
X57732D01*
Y-142192D01*
X57378Y-142664D01*
X56965Y-142979D01*
X56375Y-143136D01*
X55785Y-142979D01*
X55372Y-142664D01*
X55018Y-142192D01*
X54782Y-141641D01*
X54664Y-141012D01*
Y-140461D01*
X54782Y-139989D01*
X55018Y-139439D01*
X55372Y-138967D01*
X55726Y-138652D01*
X56198Y-138416D01*
X56611D01*
X57083Y-138573D01*
X57437Y-138888D01*
G01X60210Y-138416D02*
X61626D01*
G01X60918D02*
Y-143136D01*
G01X60210D02*
X61626D01*
G01X64281D02*
Y-138416D01*
X66995Y-143136D01*
Y-138416D01*
G01X71538Y-143136D02*
X69178D01*
Y-138416D01*
X71538D01*
G01X70594Y-140697D02*
X69178D01*
G01X76258Y-143136D02*
X73898D01*
Y-138416D01*
X76258D01*
G01X75314Y-140697D02*
X73898D01*
G01X78618Y-143136D02*
Y-138416D01*
X80093D01*
X80565Y-138652D01*
X80860Y-138967D01*
X80978Y-139596D01*
X80860Y-140225D01*
X80506Y-140619D01*
X80093Y-140855D01*
X78618D01*
G01X80093D02*
X80978Y-143136D01*
G01X83810Y-138416D02*
X85226D01*
G01X84518D02*
Y-143136D01*
G01X83810D02*
X85226D01*
G01X87881D02*
Y-138416D01*
X90595Y-143136D01*
Y-138416D01*
G01X94312Y-140776D02*
X95492D01*
Y-142192D01*
X95138Y-142664D01*
X94725Y-142979D01*
X94135Y-143136D01*
X93545Y-142979D01*
X93132Y-142664D01*
X92778Y-142192D01*
X92542Y-141641D01*
X92424Y-141012D01*
Y-140461D01*
X92542Y-139989D01*
X92778Y-139439D01*
X93132Y-138967D01*
X93486Y-138652D01*
X93958Y-138416D01*
X94371D01*
X94843Y-138573D01*
X95197Y-138888D01*
G01X102100Y-143136D02*
Y-138416D01*
X103280D01*
X103752Y-138652D01*
X104106Y-138967D01*
X104401Y-139439D01*
X104637Y-139989D01*
X104696Y-140776D01*
X104637Y-141563D01*
X104401Y-142113D01*
X104106Y-142585D01*
X103752Y-142900D01*
X103280Y-143136D01*
X102100D01*
G01X109298D02*
X106938D01*
Y-138416D01*
X109298D01*
G01X108354Y-140697D02*
X106938D01*
G01X111599Y-142507D02*
X112071Y-142900D01*
X112602Y-143136D01*
X113074D01*
X113546Y-142900D01*
X113900Y-142507D01*
X114077Y-141956D01*
X113959Y-141405D01*
X113664Y-140933D01*
X113133Y-140619D01*
X112425Y-140461D01*
X112012Y-140147D01*
X111835Y-139596D01*
X111953Y-139045D01*
X112248Y-138652D01*
X112661Y-138416D01*
X113074D01*
X113487Y-138573D01*
X113841Y-138967D01*
G01X116850Y-138416D02*
X118266D01*
G01X117558D02*
Y-143136D01*
G01X116850D02*
X118266D01*
G01X122632Y-140776D02*
X123812D01*
Y-142192D01*
X123458Y-142664D01*
X123045Y-142979D01*
X122455Y-143136D01*
X121865Y-142979D01*
X121452Y-142664D01*
X121098Y-142192D01*
X120862Y-141641D01*
X120744Y-141012D01*
Y-140461D01*
X120862Y-139989D01*
X121098Y-139439D01*
X121452Y-138967D01*
X121806Y-138652D01*
X122278Y-138416D01*
X122691D01*
X123163Y-138573D01*
X123517Y-138888D01*
G01X125641Y-143136D02*
Y-138416D01*
X128355Y-143136D01*
Y-138416D01*
G01X-29942Y-135136D02*
Y-130416D01*
X-28526D01*
X-28054Y-130652D01*
X-27700Y-131203D01*
X-27582Y-131832D01*
X-27700Y-132461D01*
X-27995Y-132933D01*
X-28526Y-133169D01*
X-29942D01*
G01X-25222Y-135136D02*
Y-130416D01*
X-23747D01*
X-23275Y-130652D01*
X-22980Y-130967D01*
X-22862Y-131596D01*
X-22980Y-132225D01*
X-23334Y-132619D01*
X-23747Y-132855D01*
X-25222D01*
G01X-23747D02*
X-22862Y-135136D01*
G01X-19322D02*
X-19794Y-135057D01*
X-20207Y-134743D01*
X-20561Y-134271D01*
X-20797Y-133720D01*
X-20915Y-133091D01*
Y-132461D01*
X-20797Y-131832D01*
X-20561Y-131281D01*
X-20207Y-130809D01*
X-19794Y-130495D01*
X-19322Y-130416D01*
X-18850Y-130495D01*
X-18437Y-130809D01*
X-18083Y-131281D01*
X-17847Y-131832D01*
X-17729Y-132461D01*
Y-133091D01*
X-17847Y-133720D01*
X-18083Y-134271D01*
X-18437Y-134743D01*
X-18850Y-135057D01*
X-19322Y-135136D01*
G01X-15782D02*
Y-130416D01*
X-14366D01*
X-13894Y-130652D01*
X-13540Y-131203D01*
X-13422Y-131832D01*
X-13540Y-132461D01*
X-13835Y-132933D01*
X-14366Y-133169D01*
X-15782D01*
G01X-11062Y-135136D02*
Y-130416D01*
X-9587D01*
X-9115Y-130652D01*
X-8820Y-130967D01*
X-8702Y-131596D01*
X-8820Y-132225D01*
X-9174Y-132619D01*
X-9587Y-132855D01*
X-11062D01*
G01X-9587D02*
X-8702Y-135136D01*
G01X-5870Y-130416D02*
X-4454D01*
G01X-5162D02*
Y-135136D01*
G01X-5870D02*
X-4454D01*
G01X738D02*
X-1622D01*
Y-130416D01*
X738D01*
G01X-206Y-132697D02*
X-1622D01*
G01X4278Y-130416D02*
Y-135136D01*
G01X2921Y-130416D02*
X5635D01*
G01X7523Y-135136D02*
X8998Y-130416D01*
X10473Y-135136D01*
G01X9942Y-133484D02*
X8054D01*
G01X12538Y-135136D02*
Y-130416D01*
X14013D01*
X14485Y-130652D01*
X14780Y-130967D01*
X14898Y-131596D01*
X14780Y-132225D01*
X14426Y-132619D01*
X14013Y-132855D01*
X12538D01*
G01X14013D02*
X14898Y-135136D01*
G01X18438D02*
Y-133012D01*
X17258Y-130416D01*
G01X19618D02*
X18438Y-133012D01*
G01X27878Y-130416D02*
Y-135136D01*
G01X26521Y-130416D02*
X29235D01*
G01X32598Y-135136D02*
X32126Y-135057D01*
X31713Y-134743D01*
X31359Y-134271D01*
X31123Y-133720D01*
X31005Y-133091D01*
Y-132461D01*
X31123Y-131832D01*
X31359Y-131281D01*
X31713Y-130809D01*
X32126Y-130495D01*
X32598Y-130416D01*
X33070Y-130495D01*
X33483Y-130809D01*
X33837Y-131281D01*
X34073Y-131832D01*
X34191Y-132461D01*
Y-133091D01*
X34073Y-133720D01*
X33837Y-134271D01*
X33483Y-134743D01*
X33070Y-135057D01*
X32598Y-135136D01*
G01X40917D02*
Y-130416D01*
X43159D01*
G01X42333Y-132697D02*
X40917D01*
G01X45578Y-135136D02*
Y-130416D01*
X47053D01*
X47525Y-130652D01*
X47820Y-130967D01*
X47938Y-131596D01*
X47820Y-132225D01*
X47466Y-132619D01*
X47053Y-132855D01*
X45578D01*
G01X47053D02*
X47938Y-135136D01*
G01X52658D02*
X50298D01*
Y-130416D01*
X52658D01*
G01X51714Y-132697D02*
X50298D01*
G01X57378Y-135136D02*
X55018D01*
Y-130416D01*
X57378D01*
G01X56434Y-132697D02*
X55018D01*
G01X59679Y-134507D02*
X60151Y-134900D01*
X60682Y-135136D01*
X61154D01*
X61626Y-134900D01*
X61980Y-134507D01*
X62157Y-133956D01*
X62039Y-133405D01*
X61744Y-132933D01*
X61213Y-132619D01*
X60505Y-132461D01*
X60092Y-132147D01*
X59915Y-131596D01*
X60033Y-131045D01*
X60328Y-130652D01*
X60741Y-130416D01*
X61154D01*
X61567Y-130573D01*
X61921Y-130967D01*
G01X66936Y-130809D02*
X66582Y-130573D01*
X66169Y-130416D01*
X65697D01*
X65166Y-130652D01*
X64753Y-131045D01*
X64458Y-131517D01*
X64222Y-132304D01*
X64163Y-133012D01*
X64281Y-133720D01*
X64458Y-134192D01*
X64812Y-134664D01*
X65225Y-134979D01*
X65638Y-135136D01*
X66051D01*
X66464Y-134979D01*
X66818Y-134743D01*
X67113Y-134428D01*
G01X68883Y-135136D02*
X70358Y-130416D01*
X71833Y-135136D01*
G01X71302Y-133484D02*
X69414D01*
G01X73898Y-130416D02*
Y-135136D01*
X76258D01*
G01X80978D02*
X78618D01*
Y-130416D01*
X80978D01*
G01X80034Y-132697D02*
X78618D01*
G01X87763Y-135136D02*
X89238Y-130416D01*
X90713Y-135136D01*
G01X90182Y-133484D02*
X88294D01*
G01X92601Y-135136D02*
Y-130416D01*
X95315Y-135136D01*
Y-130416D01*
G01X97380Y-135136D02*
Y-130416D01*
X98560D01*
X99032Y-130652D01*
X99386Y-130967D01*
X99681Y-131439D01*
X99917Y-131989D01*
X99976Y-132776D01*
X99917Y-133563D01*
X99681Y-134113D01*
X99386Y-134585D01*
X99032Y-134900D01*
X98560Y-135136D01*
X97380D01*
G01X106879Y-134507D02*
X107351Y-134900D01*
X107882Y-135136D01*
X108354D01*
X108826Y-134900D01*
X109180Y-134507D01*
X109357Y-133956D01*
X109239Y-133405D01*
X108944Y-132933D01*
X108413Y-132619D01*
X107705Y-132461D01*
X107292Y-132147D01*
X107115Y-131596D01*
X107233Y-131045D01*
X107528Y-130652D01*
X107941Y-130416D01*
X108354D01*
X108767Y-130573D01*
X109121Y-130967D01*
G01X111599Y-135136D02*
Y-130416D01*
G01X114077D02*
Y-135136D01*
G01Y-132776D02*
X111599D01*
G01X116083Y-135136D02*
X117558Y-130416D01*
X119033Y-135136D01*
G01X118502Y-133484D02*
X116614D01*
G01X121098Y-130416D02*
Y-135136D01*
X123458D01*
G01X125818Y-130416D02*
Y-135136D01*
X128178D01*
G01X-29762Y-122416D02*
Y-127136D01*
G01X-31119Y-122416D02*
X-28405D01*
G01X-26281Y-127136D02*
Y-122416D01*
G01X-23803D02*
Y-127136D01*
G01Y-124776D02*
X-26281D01*
G01X-21030Y-122416D02*
X-19614D01*
G01X-20322D02*
Y-127136D01*
G01X-21030D02*
X-19614D01*
G01X-16841Y-126507D02*
X-16369Y-126900D01*
X-15838Y-127136D01*
X-15366D01*
X-14894Y-126900D01*
X-14540Y-126507D01*
X-14363Y-125956D01*
X-14481Y-125405D01*
X-14776Y-124933D01*
X-15307Y-124619D01*
X-16015Y-124461D01*
X-16428Y-124147D01*
X-16605Y-123596D01*
X-16487Y-123045D01*
X-16192Y-122652D01*
X-15779Y-122416D01*
X-15366D01*
X-14953Y-122573D01*
X-14599Y-122967D01*
G01X-7460Y-127136D02*
Y-122416D01*
X-6280D01*
X-5808Y-122652D01*
X-5454Y-122967D01*
X-5159Y-123439D01*
X-4923Y-123989D01*
X-4864Y-124776D01*
X-4923Y-125563D01*
X-5159Y-126113D01*
X-5454Y-126585D01*
X-5808Y-126900D01*
X-6280Y-127136D01*
X-7460D01*
G01X-1442D02*
X-1914Y-127057D01*
X-2327Y-126743D01*
X-2681Y-126271D01*
X-2917Y-125720D01*
X-3035Y-125091D01*
Y-124461D01*
X-2917Y-123832D01*
X-2681Y-123281D01*
X-2327Y-122809D01*
X-1914Y-122495D01*
X-1442Y-122416D01*
X-970Y-122495D01*
X-557Y-122809D01*
X-203Y-123281D01*
X33Y-123832D01*
X151Y-124461D01*
Y-125091D01*
X33Y-125720D01*
X-203Y-126271D01*
X-557Y-126743D01*
X-970Y-127057D01*
X-1442Y-127136D01*
G01X4576Y-122809D02*
X4222Y-122573D01*
X3809Y-122416D01*
X3337D01*
X2806Y-122652D01*
X2393Y-123045D01*
X2098Y-123517D01*
X1862Y-124304D01*
X1803Y-125012D01*
X1921Y-125720D01*
X2098Y-126192D01*
X2452Y-126664D01*
X2865Y-126979D01*
X3278Y-127136D01*
X3691D01*
X4104Y-126979D01*
X4458Y-126743D01*
X4753Y-126428D01*
G01X6700Y-122416D02*
Y-125799D01*
X6936Y-126507D01*
X7408Y-126979D01*
X7998Y-127136D01*
X8588Y-126979D01*
X9060Y-126507D01*
X9296Y-125799D01*
Y-122416D01*
G01X11184Y-127136D02*
Y-122416D01*
X12718Y-126349D01*
X14252Y-122416D01*
Y-127136D01*
G01X18618D02*
X16258D01*
Y-122416D01*
X18618D01*
G01X17674Y-124697D02*
X16258D01*
G01X20801Y-127136D02*
Y-122416D01*
X23515Y-127136D01*
Y-122416D01*
G01X26878D02*
Y-127136D01*
G01X25521Y-122416D02*
X28235D01*
G01X37616Y-122809D02*
X37262Y-122573D01*
X36849Y-122416D01*
X36377D01*
X35846Y-122652D01*
X35433Y-123045D01*
X35138Y-123517D01*
X34902Y-124304D01*
X34843Y-125012D01*
X34961Y-125720D01*
X35138Y-126192D01*
X35492Y-126664D01*
X35905Y-126979D01*
X36318Y-127136D01*
X36731D01*
X37144Y-126979D01*
X37498Y-126743D01*
X37793Y-126428D01*
G01X41038Y-127136D02*
X40566Y-127057D01*
X40153Y-126743D01*
X39799Y-126271D01*
X39563Y-125720D01*
X39445Y-125091D01*
Y-124461D01*
X39563Y-123832D01*
X39799Y-123281D01*
X40153Y-122809D01*
X40566Y-122495D01*
X41038Y-122416D01*
X41510Y-122495D01*
X41923Y-122809D01*
X42277Y-123281D01*
X42513Y-123832D01*
X42631Y-124461D01*
Y-125091D01*
X42513Y-125720D01*
X42277Y-126271D01*
X41923Y-126743D01*
X41510Y-127057D01*
X41038Y-127136D01*
G01X44401D02*
Y-122416D01*
X47115Y-127136D01*
Y-122416D01*
G01X50478D02*
Y-127136D01*
G01X49121Y-122416D02*
X51835D01*
G01X53723Y-127136D02*
X55198Y-122416D01*
X56673Y-127136D01*
G01X56142Y-125484D02*
X54254D01*
G01X59210Y-122416D02*
X60626D01*
G01X59918D02*
Y-127136D01*
G01X59210D02*
X60626D01*
G01X63281D02*
Y-122416D01*
X65995Y-127136D01*
Y-122416D01*
G01X68119Y-126507D02*
X68591Y-126900D01*
X69122Y-127136D01*
X69594D01*
X70066Y-126900D01*
X70420Y-126507D01*
X70597Y-125956D01*
X70479Y-125405D01*
X70184Y-124933D01*
X69653Y-124619D01*
X68945Y-124461D01*
X68532Y-124147D01*
X68355Y-123596D01*
X68473Y-123045D01*
X68768Y-122652D01*
X69181Y-122416D01*
X69594D01*
X70007Y-122573D01*
X70361Y-122967D01*
G01X78090Y-122416D02*
X79506D01*
G01X78798D02*
Y-127136D01*
G01X78090D02*
X79506D01*
G01X82161D02*
Y-122416D01*
X84875Y-127136D01*
Y-122416D01*
G01X87117Y-127136D02*
Y-122416D01*
X89359D01*
G01X88533Y-124697D02*
X87117D01*
G01X92958Y-127136D02*
X92486Y-127057D01*
X92073Y-126743D01*
X91719Y-126271D01*
X91483Y-125720D01*
X91365Y-125091D01*
Y-124461D01*
X91483Y-123832D01*
X91719Y-123281D01*
X92073Y-122809D01*
X92486Y-122495D01*
X92958Y-122416D01*
X93430Y-122495D01*
X93843Y-122809D01*
X94197Y-123281D01*
X94433Y-123832D01*
X94551Y-124461D01*
Y-125091D01*
X94433Y-125720D01*
X94197Y-126271D01*
X93843Y-126743D01*
X93430Y-127057D01*
X92958Y-127136D01*
G01X96498D02*
Y-122416D01*
X97973D01*
X98445Y-122652D01*
X98740Y-122967D01*
X98858Y-123596D01*
X98740Y-124225D01*
X98386Y-124619D01*
X97973Y-124855D01*
X96498D01*
G01X97973D02*
X98858Y-127136D01*
G01X100864D02*
Y-122416D01*
X102398Y-126349D01*
X103932Y-122416D01*
Y-127136D01*
G01X105643D02*
X107118Y-122416D01*
X108593Y-127136D01*
G01X108062Y-125484D02*
X106174D01*
G01X111838Y-122416D02*
Y-127136D01*
G01X110481Y-122416D02*
X113195D01*
G01X115850D02*
X117266D01*
G01X116558D02*
Y-127136D01*
G01X115850D02*
X117266D01*
G01X121278D02*
X120806Y-127057D01*
X120393Y-126743D01*
X120039Y-126271D01*
X119803Y-125720D01*
X119685Y-125091D01*
Y-124461D01*
X119803Y-123832D01*
X120039Y-123281D01*
X120393Y-122809D01*
X120806Y-122495D01*
X121278Y-122416D01*
X121750Y-122495D01*
X122163Y-122809D01*
X122517Y-123281D01*
X122753Y-123832D01*
X122871Y-124461D01*
Y-125091D01*
X122753Y-125720D01*
X122517Y-126271D01*
X122163Y-126743D01*
X121750Y-127057D01*
X121278Y-127136D01*
G01X124641D02*
Y-122416D01*
X127355Y-127136D01*
Y-122416D01*
G01X-36883Y-108169D02*
X-36470Y-107619D01*
X-36116Y-107304D01*
X-35644Y-107147D01*
X-35231Y-107304D01*
X-34936Y-107619D01*
X-34700Y-108091D01*
X-34641Y-108641D01*
X-34700Y-109113D01*
X-34936Y-109585D01*
X-35290Y-109979D01*
X-35703Y-110136D01*
X-36175Y-109979D01*
X-36588Y-109507D01*
X-36824Y-108799D01*
X-36883Y-108012D01*
X-36765Y-106989D01*
X-36588Y-106439D01*
X-36293Y-105888D01*
X-35880Y-105495D01*
X-35467Y-105416D01*
X-35054Y-105573D01*
X-34759Y-105967D01*
G01X-32340Y-109428D02*
X-31986Y-109821D01*
X-31573Y-110057D01*
X-31042Y-110136D01*
X-30511Y-109979D01*
X-30098Y-109664D01*
X-29803Y-109113D01*
X-29744Y-108484D01*
X-29862Y-107855D01*
X-30157Y-107461D01*
X-30570Y-107147D01*
X-30983Y-107068D01*
X-31396Y-107147D01*
X-31927Y-107461D01*
X-31750Y-105416D01*
X-30157D01*
G01X-26322D02*
X-26794Y-105573D01*
X-27148Y-105967D01*
X-27384Y-106439D01*
X-27561Y-107068D01*
X-27620Y-107776D01*
X-27561Y-108484D01*
X-27384Y-109113D01*
X-27148Y-109585D01*
X-26794Y-109979D01*
X-26322Y-110136D01*
X-25850Y-109979D01*
X-25496Y-109585D01*
X-25260Y-109113D01*
X-25083Y-108484D01*
X-25024Y-107776D01*
X-25083Y-107068D01*
X-25260Y-106439D01*
X-25496Y-105967D01*
X-25850Y-105573D01*
X-26322Y-105416D01*
G01X-21602Y-110136D02*
Y-105416D01*
X-22310Y-106360D01*
G01Y-110136D02*
X-20894D01*
G01X-13932Y-105416D02*
X-13106Y-110136D01*
X-12162Y-105416D01*
X-11218Y-110136D01*
X-10392Y-105416D01*
G01X-8150D02*
X-6734D01*
G01X-7442D02*
Y-110136D01*
G01X-8150D02*
X-6734D01*
G01X-3902Y-105416D02*
Y-110136D01*
X-1542D01*
G01X818Y-105416D02*
Y-110136D01*
X3178D01*
G01X6010Y-105416D02*
X7426D01*
G01X6718D02*
Y-110136D01*
G01X6010D02*
X7426D01*
G01X9963D02*
X11438Y-105416D01*
X12913Y-110136D01*
G01X12382Y-108484D02*
X10494D01*
G01X14624Y-110136D02*
Y-105416D01*
X16158Y-109349D01*
X17692Y-105416D01*
Y-110136D01*
G01X26896Y-105809D02*
X26542Y-105573D01*
X26129Y-105416D01*
X25657D01*
X25126Y-105652D01*
X24713Y-106045D01*
X24418Y-106517D01*
X24182Y-107304D01*
X24123Y-108012D01*
X24241Y-108720D01*
X24418Y-109192D01*
X24772Y-109664D01*
X25185Y-109979D01*
X25598Y-110136D01*
X26011D01*
X26424Y-109979D01*
X26778Y-109743D01*
X27073Y-109428D01*
G01X28843Y-110136D02*
X30318Y-105416D01*
X31793Y-110136D01*
G01X31262Y-108484D02*
X29374D01*
G01X33681Y-110136D02*
Y-105416D01*
X36395Y-110136D01*
Y-105416D01*
G01X38401Y-110136D02*
Y-105416D01*
X41115Y-110136D01*
Y-105416D01*
G01X44478Y-110136D02*
X44006Y-110057D01*
X43593Y-109743D01*
X43239Y-109271D01*
X43003Y-108720D01*
X42885Y-108091D01*
Y-107461D01*
X43003Y-106832D01*
X43239Y-106281D01*
X43593Y-105809D01*
X44006Y-105495D01*
X44478Y-105416D01*
X44950Y-105495D01*
X45363Y-105809D01*
X45717Y-106281D01*
X45953Y-106832D01*
X46071Y-107461D01*
Y-108091D01*
X45953Y-108720D01*
X45717Y-109271D01*
X45363Y-109743D01*
X44950Y-110057D01*
X44478Y-110136D01*
G01X47841D02*
Y-105416D01*
X50555Y-110136D01*
Y-105416D01*
G01X57340Y-110136D02*
Y-105416D01*
X58520D01*
X58992Y-105652D01*
X59346Y-105967D01*
X59641Y-106439D01*
X59877Y-106989D01*
X59936Y-107776D01*
X59877Y-108563D01*
X59641Y-109113D01*
X59346Y-109585D01*
X58992Y-109900D01*
X58520Y-110136D01*
X57340D01*
G01X62178D02*
Y-105416D01*
X63653D01*
X64125Y-105652D01*
X64420Y-105967D01*
X64538Y-106596D01*
X64420Y-107225D01*
X64066Y-107619D01*
X63653Y-107855D01*
X62178D01*
G01X63653D02*
X64538Y-110136D01*
G01X67370Y-105416D02*
X68786D01*
G01X68078D02*
Y-110136D01*
G01X67370D02*
X68786D01*
G01X71323Y-105416D02*
X72798Y-110136D01*
X74273Y-105416D01*
G01X78698Y-110136D02*
X76338D01*
Y-105416D01*
X78698D01*
G01X77754Y-107697D02*
X76338D01*
G01X85188Y-105416D02*
X86014Y-110136D01*
X86958Y-105416D01*
X87902Y-110136D01*
X88728Y-105416D01*
G01X92858Y-110136D02*
X90498D01*
Y-105416D01*
X92858D01*
G01X91914Y-107697D02*
X90498D01*
G01X95159Y-109507D02*
X95631Y-109900D01*
X96162Y-110136D01*
X96634D01*
X97106Y-109900D01*
X97460Y-109507D01*
X97637Y-108956D01*
X97519Y-108405D01*
X97224Y-107933D01*
X96693Y-107619D01*
X95985Y-107461D01*
X95572Y-107147D01*
X95395Y-106596D01*
X95513Y-106045D01*
X95808Y-105652D01*
X96221Y-105416D01*
X96634D01*
X97047Y-105573D01*
X97401Y-105967D01*
G01X101118Y-105416D02*
Y-110136D01*
G01X99761Y-105416D02*
X102475D01*
G01X13117Y-178136D02*
Y-173416D01*
X15359D01*
G01X14533Y-175697D02*
X13117D01*
G01X18250Y-173416D02*
X19666D01*
G01X18958D02*
Y-178136D01*
G01X18250D02*
X19666D01*
G01X22498Y-173416D02*
Y-178136D01*
X24858D01*
G01X26864D02*
Y-173416D01*
X28398Y-177349D01*
X29932Y-173416D01*
Y-178136D01*
G01X141238Y-181416D02*
X140766Y-181573D01*
X140412Y-181967D01*
X140176Y-182439D01*
X139999Y-183068D01*
X139940Y-183776D01*
X139999Y-184484D01*
X140176Y-185113D01*
X140412Y-185585D01*
X140766Y-185979D01*
X141238Y-186136D01*
X141710Y-185979D01*
X142064Y-185585D01*
X142300Y-185113D01*
X142477Y-184484D01*
X142536Y-183776D01*
X142477Y-183068D01*
X142300Y-182439D01*
X142064Y-181967D01*
X141710Y-181573D01*
X141238Y-181416D01*
G01X145958Y-186136D02*
Y-181416D01*
X145250Y-182360D01*
G01Y-186136D02*
X146666D01*
G01X149911Y-184563D02*
X151445D01*
G01X154100Y-185192D02*
X154454Y-185743D01*
X154926Y-186057D01*
X155457Y-186136D01*
X155929Y-186057D01*
X156401Y-185664D01*
X156696Y-185192D01*
X156755Y-184720D01*
X156637Y-184169D01*
X156224Y-183776D01*
X155811Y-183619D01*
X155280D01*
G01X155811D02*
X156165Y-183383D01*
X156460Y-182989D01*
X156578Y-182517D01*
X156460Y-182045D01*
X156165Y-181652D01*
X155634Y-181416D01*
X155103Y-181495D01*
X154572Y-181809D01*
G01X160118Y-186136D02*
Y-181416D01*
X159410Y-182360D01*
G01Y-186136D02*
X160826D01*
G01X164071Y-184563D02*
X165605D01*
G01X169558Y-186136D02*
Y-181416D01*
X168850Y-182360D01*
G01Y-186136D02*
X170266D01*
G01X173157Y-182203D02*
X173511Y-181731D01*
X173924Y-181495D01*
X174396Y-181416D01*
X174986Y-181573D01*
X175399Y-181967D01*
X175517Y-182439D01*
X175458Y-182911D01*
X175222Y-183304D01*
X174042Y-184091D01*
X173511Y-184641D01*
X173157Y-185428D01*
X173039Y-186136D01*
X175517D01*
G01X137940Y-178136D02*
Y-173416D01*
X139120D01*
X139592Y-173652D01*
X139946Y-173967D01*
X140241Y-174439D01*
X140477Y-174989D01*
X140536Y-175776D01*
X140477Y-176563D01*
X140241Y-177113D01*
X139946Y-177585D01*
X139592Y-177900D01*
X139120Y-178136D01*
X137940D01*
G01X142483D02*
X143958Y-173416D01*
X145433Y-178136D01*
G01X144902Y-176484D02*
X143014D01*
G01X148678Y-173416D02*
Y-178136D01*
G01X147321Y-173416D02*
X150035D01*
G01X154578Y-178136D02*
X152218D01*
Y-173416D01*
X154578D01*
G01X153634Y-175697D02*
X152218D01*
G01X147468Y-164209D02*
X151008D01*
G01X152188D02*
X155728D01*
G01X156908D02*
X160448D01*
G01X166997Y-162636D02*
Y-157916D01*
X169239D01*
G01X168413Y-160197D02*
X166997D01*
G01X174136Y-158309D02*
X173782Y-158073D01*
X173369Y-157916D01*
X172897D01*
X172366Y-158152D01*
X171953Y-158545D01*
X171658Y-159017D01*
X171422Y-159804D01*
X171363Y-160512D01*
X171481Y-161220D01*
X171658Y-161692D01*
X172012Y-162164D01*
X172425Y-162479D01*
X172838Y-162636D01*
X173251D01*
X173664Y-162479D01*
X174018Y-162243D01*
X174313Y-161928D01*
G01X176378Y-162636D02*
Y-157916D01*
X177794D01*
X178266Y-158152D01*
X178620Y-158703D01*
X178738Y-159332D01*
X178620Y-159961D01*
X178325Y-160433D01*
X177794Y-160669D01*
X176378D01*
G01X186703Y-164209D02*
X186113Y-163423D01*
X185818Y-162636D01*
Y-159489D01*
X186113Y-158703D01*
X186703Y-157916D01*
G01X190597Y-162636D02*
Y-157916D01*
X192839D01*
G01X192013Y-160197D02*
X190597D01*
G01X195258Y-162636D02*
Y-157916D01*
X196733D01*
X197205Y-158152D01*
X197500Y-158467D01*
X197618Y-159096D01*
X197500Y-159725D01*
X197146Y-160119D01*
X196733Y-160355D01*
X195258D01*
G01X196733D02*
X197618Y-162636D01*
G01X202338D02*
X199978D01*
Y-157916D01*
X202338D01*
G01X201394Y-160197D02*
X199978D01*
G01X207058Y-162636D02*
X204698D01*
Y-157916D01*
X207058D01*
G01X206114Y-160197D02*
X204698D01*
G01X209359Y-162007D02*
X209831Y-162400D01*
X210362Y-162636D01*
X210834D01*
X211306Y-162400D01*
X211660Y-162007D01*
X211837Y-161456D01*
X211719Y-160905D01*
X211424Y-160433D01*
X210893Y-160119D01*
X210185Y-159961D01*
X209772Y-159647D01*
X209595Y-159096D01*
X209713Y-158545D01*
X210008Y-158152D01*
X210421Y-157916D01*
X210834D01*
X211247Y-158073D01*
X211601Y-158467D01*
G01X216616Y-158309D02*
X216262Y-158073D01*
X215849Y-157916D01*
X215377D01*
X214846Y-158152D01*
X214433Y-158545D01*
X214138Y-159017D01*
X213902Y-159804D01*
X213843Y-160512D01*
X213961Y-161220D01*
X214138Y-161692D01*
X214492Y-162164D01*
X214905Y-162479D01*
X215318Y-162636D01*
X215731D01*
X216144Y-162479D01*
X216498Y-162243D01*
X216793Y-161928D01*
G01X218563Y-162636D02*
X220038Y-157916D01*
X221513Y-162636D01*
G01X220982Y-160984D02*
X219094D01*
G01X223578Y-157916D02*
Y-162636D01*
X225938D01*
G01X230658D02*
X228298D01*
Y-157916D01*
X230658D01*
G01X229714Y-160197D02*
X228298D01*
G01X240216Y-158309D02*
X239862Y-158073D01*
X239449Y-157916D01*
X238977D01*
X238446Y-158152D01*
X238033Y-158545D01*
X237738Y-159017D01*
X237502Y-159804D01*
X237443Y-160512D01*
X237561Y-161220D01*
X237738Y-161692D01*
X238092Y-162164D01*
X238505Y-162479D01*
X238918Y-162636D01*
X239331D01*
X239744Y-162479D01*
X240098Y-162243D01*
X240393Y-161928D01*
G01X243638Y-162636D02*
X243166Y-162557D01*
X242753Y-162243D01*
X242399Y-161771D01*
X242163Y-161220D01*
X242045Y-160591D01*
Y-159961D01*
X242163Y-159332D01*
X242399Y-158781D01*
X242753Y-158309D01*
X243166Y-157995D01*
X243638Y-157916D01*
X244110Y-157995D01*
X244523Y-158309D01*
X244877Y-158781D01*
X245113Y-159332D01*
X245231Y-159961D01*
Y-160591D01*
X245113Y-161220D01*
X244877Y-161771D01*
X244523Y-162243D01*
X244110Y-162557D01*
X243638Y-162636D01*
G01X247001D02*
Y-157916D01*
X249715Y-162636D01*
Y-157916D01*
G01X251957Y-162636D02*
Y-157916D01*
X254199D01*
G01X253373Y-160197D02*
X251957D01*
G01X257090Y-157916D02*
X258506D01*
G01X257798D02*
Y-162636D01*
G01X257090D02*
X258506D01*
G01X261220D02*
Y-157916D01*
X262400D01*
X262872Y-158152D01*
X263226Y-158467D01*
X263521Y-158939D01*
X263757Y-159489D01*
X263816Y-160276D01*
X263757Y-161063D01*
X263521Y-161613D01*
X263226Y-162085D01*
X262872Y-162400D01*
X262400Y-162636D01*
X261220D01*
G01X268418D02*
X266058D01*
Y-157916D01*
X268418D01*
G01X267474Y-160197D02*
X266058D01*
G01X270601Y-162636D02*
Y-157916D01*
X273315Y-162636D01*
Y-157916D01*
G01X276678D02*
Y-162636D01*
G01X275321Y-157916D02*
X278035D01*
G01X280690D02*
X282106D01*
G01X281398D02*
Y-162636D01*
G01X280690D02*
X282106D01*
G01X284643D02*
X286118Y-157916D01*
X287593Y-162636D01*
G01X287062Y-160984D02*
X285174D01*
G01X289658Y-157916D02*
Y-162636D01*
X292018D01*
G01X299098D02*
Y-157916D01*
X300514D01*
X300986Y-158152D01*
X301340Y-158703D01*
X301458Y-159332D01*
X301340Y-159961D01*
X301045Y-160433D01*
X300514Y-160669D01*
X299098D01*
G01X303818Y-162636D02*
Y-157916D01*
X305293D01*
X305765Y-158152D01*
X306060Y-158467D01*
X306178Y-159096D01*
X306060Y-159725D01*
X305706Y-160119D01*
X305293Y-160355D01*
X303818D01*
G01X305293D02*
X306178Y-162636D01*
G01X309718D02*
X309246Y-162557D01*
X308833Y-162243D01*
X308479Y-161771D01*
X308243Y-161220D01*
X308125Y-160591D01*
Y-159961D01*
X308243Y-159332D01*
X308479Y-158781D01*
X308833Y-158309D01*
X309246Y-157995D01*
X309718Y-157916D01*
X310190Y-157995D01*
X310603Y-158309D01*
X310957Y-158781D01*
X311193Y-159332D01*
X311311Y-159961D01*
Y-160591D01*
X311193Y-161220D01*
X310957Y-161771D01*
X310603Y-162243D01*
X310190Y-162557D01*
X309718Y-162636D01*
G01X313258D02*
Y-157916D01*
X314674D01*
X315146Y-158152D01*
X315500Y-158703D01*
X315618Y-159332D01*
X315500Y-159961D01*
X315205Y-160433D01*
X314674Y-160669D01*
X313258D01*
G01X317978Y-162636D02*
Y-157916D01*
X319453D01*
X319925Y-158152D01*
X320220Y-158467D01*
X320338Y-159096D01*
X320220Y-159725D01*
X319866Y-160119D01*
X319453Y-160355D01*
X317978D01*
G01X319453D02*
X320338Y-162636D01*
G01X323170Y-157916D02*
X324586D01*
G01X323878D02*
Y-162636D01*
G01X323170D02*
X324586D01*
G01X329778D02*
X327418D01*
Y-157916D01*
X329778D01*
G01X328834Y-160197D02*
X327418D01*
G01X333318Y-157916D02*
Y-162636D01*
G01X331961Y-157916D02*
X334675D01*
G01X336563Y-162636D02*
X338038Y-157916D01*
X339513Y-162636D01*
G01X338982Y-160984D02*
X337094D01*
G01X341578Y-162636D02*
Y-157916D01*
X343053D01*
X343525Y-158152D01*
X343820Y-158467D01*
X343938Y-159096D01*
X343820Y-159725D01*
X343466Y-160119D01*
X343053Y-160355D01*
X341578D01*
G01X343053D02*
X343938Y-162636D01*
G01X347478D02*
Y-160512D01*
X346298Y-157916D01*
G01X348658D02*
X347478Y-160512D01*
G01X352493Y-164209D02*
X353083Y-163423D01*
X353378Y-162636D01*
Y-159489D01*
X353083Y-158703D01*
X352493Y-157916D01*
G01X147468Y-147709D02*
X151008D01*
G01X152188D02*
X155728D01*
G01X156908D02*
X160448D01*
G01X166997Y-146136D02*
Y-141416D01*
X169239D01*
G01X168413Y-143697D02*
X166997D01*
G01X172130Y-141416D02*
X173546D01*
G01X172838D02*
Y-146136D01*
G01X172130D02*
X173546D01*
G01X176260Y-141416D02*
Y-144799D01*
X176496Y-145507D01*
X176968Y-145979D01*
X177558Y-146136D01*
X178148Y-145979D01*
X178620Y-145507D01*
X178856Y-144799D01*
Y-141416D01*
G01X182278Y-146136D02*
X181806Y-146057D01*
X181393Y-145743D01*
X181039Y-145271D01*
X180803Y-144720D01*
X180685Y-144091D01*
Y-143461D01*
X180803Y-142832D01*
X181039Y-142281D01*
X181393Y-141809D01*
X181806Y-141495D01*
X182278Y-141416D01*
X182750Y-141495D01*
X183163Y-141809D01*
X183517Y-142281D01*
X183753Y-142832D01*
X183871Y-143461D01*
Y-144091D01*
X183753Y-144720D01*
X183517Y-145271D01*
X183163Y-145743D01*
X182750Y-146057D01*
X182278Y-146136D01*
G01X191423Y-147709D02*
X190833Y-146923D01*
X190538Y-146136D01*
Y-142989D01*
X190833Y-142203D01*
X191423Y-141416D01*
G01X195317Y-146136D02*
Y-141416D01*
X197559D01*
G01X196733Y-143697D02*
X195317D01*
G01X199978Y-146136D02*
Y-141416D01*
X201453D01*
X201925Y-141652D01*
X202220Y-141967D01*
X202338Y-142596D01*
X202220Y-143225D01*
X201866Y-143619D01*
X201453Y-143855D01*
X199978D01*
G01X201453D02*
X202338Y-146136D01*
G01X207058D02*
X204698D01*
Y-141416D01*
X207058D01*
G01X206114Y-143697D02*
X204698D01*
G01X211778Y-146136D02*
X209418D01*
Y-141416D01*
X211778D01*
G01X210834Y-143697D02*
X209418D01*
G01X214079Y-145507D02*
X214551Y-145900D01*
X215082Y-146136D01*
X215554D01*
X216026Y-145900D01*
X216380Y-145507D01*
X216557Y-144956D01*
X216439Y-144405D01*
X216144Y-143933D01*
X215613Y-143619D01*
X214905Y-143461D01*
X214492Y-143147D01*
X214315Y-142596D01*
X214433Y-142045D01*
X214728Y-141652D01*
X215141Y-141416D01*
X215554D01*
X215967Y-141573D01*
X216321Y-141967D01*
G01X221336Y-141809D02*
X220982Y-141573D01*
X220569Y-141416D01*
X220097D01*
X219566Y-141652D01*
X219153Y-142045D01*
X218858Y-142517D01*
X218622Y-143304D01*
X218563Y-144012D01*
X218681Y-144720D01*
X218858Y-145192D01*
X219212Y-145664D01*
X219625Y-145979D01*
X220038Y-146136D01*
X220451D01*
X220864Y-145979D01*
X221218Y-145743D01*
X221513Y-145428D01*
G01X223283Y-146136D02*
X224758Y-141416D01*
X226233Y-146136D01*
G01X225702Y-144484D02*
X223814D01*
G01X228298Y-141416D02*
Y-146136D01*
X230658D01*
G01X235378D02*
X233018D01*
Y-141416D01*
X235378D01*
G01X234434Y-143697D02*
X233018D01*
G01X242930Y-141416D02*
X244346D01*
G01X243638D02*
Y-146136D01*
G01X242930D02*
X244346D01*
G01X247001D02*
Y-141416D01*
X249715Y-146136D01*
Y-141416D01*
G01X253078D02*
Y-146136D01*
G01X251721Y-141416D02*
X254435D01*
G01X258978Y-146136D02*
X256618D01*
Y-141416D01*
X258978D01*
G01X258034Y-143697D02*
X256618D01*
G01X261338Y-146136D02*
Y-141416D01*
X262813D01*
X263285Y-141652D01*
X263580Y-141967D01*
X263698Y-142596D01*
X263580Y-143225D01*
X263226Y-143619D01*
X262813Y-143855D01*
X261338D01*
G01X262813D02*
X263698Y-146136D01*
G01X265881D02*
Y-141416D01*
X268595Y-146136D01*
Y-141416D01*
G01X270483Y-146136D02*
X271958Y-141416D01*
X273433Y-146136D01*
G01X272902Y-144484D02*
X271014D01*
G01X275498Y-141416D02*
Y-146136D01*
X277858D01*
G01X284820Y-141416D02*
Y-144799D01*
X285056Y-145507D01*
X285528Y-145979D01*
X286118Y-146136D01*
X286708Y-145979D01*
X287180Y-145507D01*
X287416Y-144799D01*
Y-141416D01*
G01X289599Y-145507D02*
X290071Y-145900D01*
X290602Y-146136D01*
X291074D01*
X291546Y-145900D01*
X291900Y-145507D01*
X292077Y-144956D01*
X291959Y-144405D01*
X291664Y-143933D01*
X291133Y-143619D01*
X290425Y-143461D01*
X290012Y-143147D01*
X289835Y-142596D01*
X289953Y-142045D01*
X290248Y-141652D01*
X290661Y-141416D01*
X291074D01*
X291487Y-141573D01*
X291841Y-141967D01*
G01X296738Y-146136D02*
X294378D01*
Y-141416D01*
X296738D01*
G01X295794Y-143697D02*
X294378D01*
G01X304998Y-146136D02*
X304526Y-146057D01*
X304113Y-145743D01*
X303759Y-145271D01*
X303523Y-144720D01*
X303405Y-144091D01*
Y-143461D01*
X303523Y-142832D01*
X303759Y-142281D01*
X304113Y-141809D01*
X304526Y-141495D01*
X304998Y-141416D01*
X305470Y-141495D01*
X305883Y-141809D01*
X306237Y-142281D01*
X306473Y-142832D01*
X306591Y-143461D01*
Y-144091D01*
X306473Y-144720D01*
X306237Y-145271D01*
X305883Y-145743D01*
X305470Y-146057D01*
X304998Y-146136D01*
G01X308361D02*
Y-141416D01*
X311075Y-146136D01*
Y-141416D01*
G01X313258D02*
Y-146136D01*
X315618D01*
G01X319158D02*
Y-144012D01*
X317978Y-141416D01*
G01X320338D02*
X319158Y-144012D01*
G01X324173Y-147709D02*
X324763Y-146923D01*
X325058Y-146136D01*
Y-142989D01*
X324763Y-142203D01*
X324173Y-141416D01*
G01X147468Y-131709D02*
X151008D01*
G01X152188D02*
X155728D01*
G01X156908D02*
X160448D01*
G01X166938Y-130136D02*
Y-125416D01*
X168354D01*
X168826Y-125652D01*
X169180Y-126203D01*
X169298Y-126832D01*
X169180Y-127461D01*
X168885Y-127933D01*
X168354Y-128169D01*
X166938D01*
G01X171540Y-125416D02*
Y-128799D01*
X171776Y-129507D01*
X172248Y-129979D01*
X172838Y-130136D01*
X173428Y-129979D01*
X173900Y-129507D01*
X174136Y-128799D01*
Y-125416D01*
G01X178030Y-127619D02*
X178266Y-127383D01*
X178443Y-126989D01*
X178561Y-126439D01*
X178443Y-125967D01*
X178207Y-125652D01*
X177794Y-125416D01*
X176201D01*
Y-130136D01*
X178148D01*
X178561Y-129821D01*
X178797Y-129349D01*
X178915Y-128799D01*
X178797Y-128248D01*
X178443Y-127776D01*
X178030Y-127619D01*
X176201D01*
G01X181570Y-125416D02*
X182986D01*
G01X182278D02*
Y-130136D01*
G01X181570D02*
X182986D01*
G01X191423Y-131709D02*
X190833Y-130923D01*
X190538Y-130136D01*
Y-126989D01*
X190833Y-126203D01*
X191423Y-125416D01*
G01X195258Y-130136D02*
Y-125416D01*
X196674D01*
X197146Y-125652D01*
X197500Y-126203D01*
X197618Y-126832D01*
X197500Y-127461D01*
X197205Y-127933D01*
X196674Y-128169D01*
X195258D01*
G01X199860Y-125416D02*
Y-128799D01*
X200096Y-129507D01*
X200568Y-129979D01*
X201158Y-130136D01*
X201748Y-129979D01*
X202220Y-129507D01*
X202456Y-128799D01*
Y-125416D01*
G01X206350Y-127619D02*
X206586Y-127383D01*
X206763Y-126989D01*
X206881Y-126439D01*
X206763Y-125967D01*
X206527Y-125652D01*
X206114Y-125416D01*
X204521D01*
Y-130136D01*
X206468D01*
X206881Y-129821D01*
X207117Y-129349D01*
X207235Y-128799D01*
X207117Y-128248D01*
X206763Y-127776D01*
X206350Y-127619D01*
X204521D01*
G01X209418Y-125416D02*
Y-130136D01*
X211778D01*
G01X214610Y-125416D02*
X216026D01*
G01X215318D02*
Y-130136D01*
G01X214610D02*
X216026D01*
G01X221336Y-125809D02*
X220982Y-125573D01*
X220569Y-125416D01*
X220097D01*
X219566Y-125652D01*
X219153Y-126045D01*
X218858Y-126517D01*
X218622Y-127304D01*
X218563Y-128012D01*
X218681Y-128720D01*
X218858Y-129192D01*
X219212Y-129664D01*
X219625Y-129979D01*
X220038Y-130136D01*
X220451D01*
X220864Y-129979D01*
X221218Y-129743D01*
X221513Y-129428D01*
G01X228770Y-125416D02*
X230186D01*
G01X229478D02*
Y-130136D01*
G01X228770D02*
X230186D01*
G01X232841D02*
Y-125416D01*
X235555Y-130136D01*
Y-125416D01*
G01X237797Y-130136D02*
Y-125416D01*
X240039D01*
G01X239213Y-127697D02*
X237797D01*
G01X243638Y-130136D02*
X243166Y-130057D01*
X242753Y-129743D01*
X242399Y-129271D01*
X242163Y-128720D01*
X242045Y-128091D01*
Y-127461D01*
X242163Y-126832D01*
X242399Y-126281D01*
X242753Y-125809D01*
X243166Y-125495D01*
X243638Y-125416D01*
X244110Y-125495D01*
X244523Y-125809D01*
X244877Y-126281D01*
X245113Y-126832D01*
X245231Y-127461D01*
Y-128091D01*
X245113Y-128720D01*
X244877Y-129271D01*
X244523Y-129743D01*
X244110Y-130057D01*
X243638Y-130136D01*
G01X247178D02*
Y-125416D01*
X248653D01*
X249125Y-125652D01*
X249420Y-125967D01*
X249538Y-126596D01*
X249420Y-127225D01*
X249066Y-127619D01*
X248653Y-127855D01*
X247178D01*
G01X248653D02*
X249538Y-130136D01*
G01X251544D02*
Y-125416D01*
X253078Y-129349D01*
X254612Y-125416D01*
Y-130136D01*
G01X256323D02*
X257798Y-125416D01*
X259273Y-130136D01*
G01X258742Y-128484D02*
X256854D01*
G01X262518Y-125416D02*
Y-130136D01*
G01X261161Y-125416D02*
X263875D01*
G01X266530D02*
X267946D01*
G01X267238D02*
Y-130136D01*
G01X266530D02*
X267946D01*
G01X271958D02*
X271486Y-130057D01*
X271073Y-129743D01*
X270719Y-129271D01*
X270483Y-128720D01*
X270365Y-128091D01*
Y-127461D01*
X270483Y-126832D01*
X270719Y-126281D01*
X271073Y-125809D01*
X271486Y-125495D01*
X271958Y-125416D01*
X272430Y-125495D01*
X272843Y-125809D01*
X273197Y-126281D01*
X273433Y-126832D01*
X273551Y-127461D01*
Y-128091D01*
X273433Y-128720D01*
X273197Y-129271D01*
X272843Y-129743D01*
X272430Y-130057D01*
X271958Y-130136D01*
G01X275321D02*
Y-125416D01*
X278035Y-130136D01*
Y-125416D01*
G01X281693Y-131709D02*
X282283Y-130923D01*
X282578Y-130136D01*
Y-126989D01*
X282283Y-126203D01*
X281693Y-125416D01*
G01X137881Y-98136D02*
Y-93416D01*
X140595Y-98136D01*
Y-93416D01*
G01X142483Y-98136D02*
X143958Y-93416D01*
X145433Y-98136D01*
G01X144902Y-96484D02*
X143014D01*
G01X147144Y-98136D02*
Y-93416D01*
X148678Y-97349D01*
X150212Y-93416D01*
Y-98136D01*
G01X154578D02*
X152218D01*
Y-93416D01*
X154578D01*
G01X153634Y-95697D02*
X152218D01*
G01X187881Y-178136D02*
Y-173416D01*
X190595Y-178136D01*
Y-173416D01*
G01X192660D02*
Y-176799D01*
X192896Y-177507D01*
X193368Y-177979D01*
X193958Y-178136D01*
X194548Y-177979D01*
X195020Y-177507D01*
X195256Y-176799D01*
Y-173416D01*
G01X197144Y-178136D02*
Y-173416D01*
X198678Y-177349D01*
X200212Y-173416D01*
Y-178136D01*
G01X203870Y-175619D02*
X204106Y-175383D01*
X204283Y-174989D01*
X204401Y-174439D01*
X204283Y-173967D01*
X204047Y-173652D01*
X203634Y-173416D01*
X202041D01*
Y-178136D01*
X203988D01*
X204401Y-177821D01*
X204637Y-177349D01*
X204755Y-176799D01*
X204637Y-176248D01*
X204283Y-175776D01*
X203870Y-175619D01*
X202041D01*
G01X209298Y-178136D02*
X206938D01*
Y-173416D01*
X209298D01*
G01X208354Y-175697D02*
X206938D01*
G01X211658Y-178136D02*
Y-173416D01*
X213133D01*
X213605Y-173652D01*
X213900Y-173967D01*
X214018Y-174596D01*
X213900Y-175225D01*
X213546Y-175619D01*
X213133Y-175855D01*
X211658D01*
G01X213133D02*
X214018Y-178136D01*
G54D18*
G01X-7946Y101439D02*
X-7945Y100815D01*
G01X-7962Y106952D02*
Y106328D01*
M02*
